<?xml version="1.0" encoding="utf-8"?>
<!-- Generator: Adobe Illustrator 27.5.0, SVG Export Plug-In . SVG Version: 6.00 Build 0)  -->
<svg version="1.1" xmlns="http://www.w3.org/2000/svg" xmlns:xlink="http://www.w3.org/1999/xlink" x="0px" y="0px"
	 viewBox="0 0 500 500" style="enable-background:new 0 0 500 500;" xml:space="preserve">
<g id="BACKGROUND">
	<rect style="fill:#FFFFFF;" width="500" height="500"/>
</g>
<g id="OBJECTS">
	<g>
		<path style="opacity:0.1;fill:#320032;" d="M306.744,430.523c-57.458,0-108.332,2.483-139.559,6.297
			c-8.676-4.712-35.138-8.14-66.44-8.14c-38.356,0-69.451,5.147-69.451,11.497c0,6.35,31.094,11.497,69.451,11.497
			c14.83,0,28.572-0.77,39.854-2.081c19.61,6.466,86.564,11.229,166.146,11.229c94.972,0,171.962-6.783,171.962-15.15
			C478.706,437.306,401.716,430.523,306.744,430.523z"/>
		<g>
			<path style="fill:#213150;" d="M210.613,335.536l0.126-0.417c0.292-0.971,0.713-1.983,1.324-3.187
				c0.292-0.576,0.584-1.152,0.875-1.729c0.752-1.489,1.529-3.029,2.316-4.527c2.199-4.184,4.768-8.173,7.43-11.537l0.092-0.117
				l-0.094-0.115c-6.515-7.9-15.33-12.929-26.199-14.949c-12.327-2.29-25.083,1.681-34.124,10.623l-0.145,0.144l0.158,0.129
				c1.179,0.967,2.29,2.289,3.395,4.042c1.87,2.965,3.071,6.159,3.569,9.491c0.323,2.155,0.585,5.441,0.005,8.857l-0.009,0.053
				l0.021,0.05c0.692,1.63,1.591,3.275,2.122,4.962c0.675,2.143-0.774,5.329-1.271,7.454c-0.686,2.934-1.357,5.872-2.012,8.813
				c-1.697,7.616-3.118,14.381-4.343,20.682c-0.892,4.588-1.736,9.507-1.866,14.392c-0.008,0.264,0.174,0.497,0.431,0.554
				l1.458,0.327c3.265,0.734,6.642,1.494,10.038,1.944c5.718,0.758,11.825,1.126,18.67,1.126c1.427,0,2.912-0.016,4.413-0.049
				c7.9-0.173,15.676-1.046,21.568-1.787c0.274-0.035,0.482-0.268,0.483-0.544c0.027-5.08-0.732-10.056-1.882-15.964
				c-1.222-6.284-2.643-13.049-4.343-20.682c-1.113-4.993-2.291-10.07-3.504-15.091c0.381-1.022,0.781-2.037,1.219-3.092
				L210.613,335.536z"/>
			<path style="fill:#F2EDF7;" d="M218.258,387.841c-2.302,0.392-4.628,0.558-6.956,0.7c-5.506,0.337-10.994,0.624-16.513,0.535
				c-5.715-0.093-11.421-0.469-17.108-1.034c-5.179-0.514-10.544-0.862-15.523-2.452c-0.083,1.019-0.148,2.04-0.175,3.059
				c-0.008,0.264,0.174,0.497,0.431,0.554l1.458,0.327c3.265,0.734,6.642,1.494,10.038,1.944c5.718,0.758,11.825,1.126,18.67,1.126
				c1.427,0,2.912-0.016,4.413-0.049c7.9-0.173,15.676-1.046,21.568-1.787c0.274-0.035,0.482-0.268,0.483-0.544
				c0.004-0.836-0.014-1.669-0.051-2.504C218.73,387.763,218.481,387.803,218.258,387.841z"/>
			<path style="fill:#F2EDF7;" d="M181.327,299.733c1.224,0.359,2.429,0.814,3.687,1.08c2.215,0.469,4.461,0.646,6.721,0.5
				c2.201-0.142,4.373-0.576,6.51-1.161c-0.005-0.763-0.021-1.555-0.048-2.361c-0.01-0.284-0.023-0.568-0.035-0.853
				c-2.082,0.501-4.224,0.761-6.171,0.899c-3.198,0.228-7.572,0.09-10.647-1.649c-0.019,1.157-0.027,2.316-0.018,3.479
				C181.327,299.689,181.327,299.711,181.327,299.733z"/>
			<path style="fill:#213150;" d="M228.838,328.678c3.854,10.997,7.84,22.369,16.23,29.169c0.079,0.064,0.091,0.178,0.028,0.258
				c-2.594,3.258-3.934,6.532-3.983,9.732c-0.001,0.056-0.027,0.108-0.072,0.143c-0.045,0.034-0.102,0.046-0.157,0.033
				c-6.585-1.641-11.263-3.686-15.169-6.631c-3.023-2.279-5.785-5.065-8.207-8.278c-4.629-6.141-7.923-13.432-9.525-21.084
				c-1.136-5.429-3.305-18.522,0.999-23.172c0.016-0.017,0.032-0.034,0.047-0.051c0.803-0.846,2.032-1.354,3.374-1.394
				c1.086-0.033,2.254,0.219,3.57,0.769c5.262,2.2,7.767,6.987,9.523,11.379C226.659,322.46,227.717,325.48,228.838,328.678z"/>
			<path style="fill:#F2EDF7;" d="M239.171,363.779c0.726-3.018,2.204-5.292,3.961-7.659c0.619,0.603,1.262,1.181,1.935,1.727
				c0.079,0.064,0.091,0.178,0.028,0.257c-2.594,3.258-3.934,6.532-3.983,9.732c-0.001,0.056-0.027,0.108-0.072,0.143
				c-0.045,0.034-0.102,0.046-0.157,0.033c-0.83-0.207-1.63-0.42-2.401-0.641C238.662,366.158,238.888,364.955,239.171,363.779z"/>
			<g>
				<polygon style="fill:#F2EDF7;" points="175.49,322.656 171.922,329.144 175.49,335.631 179.059,329.144 				"/>
				<polygon style="fill:#F2EDF7;" points="182.689,322.656 179.121,329.144 182.689,335.631 186.257,329.144 				"/>
				<polygon style="fill:#F2EDF7;" points="189.888,322.656 186.32,329.144 189.888,335.631 193.456,329.144 				"/>
				<polygon style="fill:#F2EDF7;" points="197.087,322.656 193.518,329.144 197.087,335.631 200.655,329.144 				"/>
				<polygon style="fill:#F2EDF7;" points="204.285,322.656 200.717,329.144 204.285,335.631 207.853,329.144 				"/>
				<polygon style="fill:#F2EDF7;" points="175.49,348.606 179.059,342.118 175.49,335.631 171.922,342.118 				"/>
				<polygon style="fill:#F2EDF7;" points="182.689,348.606 186.257,342.118 182.689,335.631 179.121,342.118 				"/>
				<polygon style="fill:#F2EDF7;" points="189.888,348.606 193.456,342.118 189.888,335.631 186.32,342.118 				"/>
				<polygon style="fill:#F2EDF7;" points="197.087,348.606 200.655,342.118 197.087,335.631 193.518,342.118 				"/>
				<polygon style="fill:#F2EDF7;" points="200.717,342.118 204.285,348.606 207.853,342.118 204.285,335.631 				"/>
			</g>
		</g>
		<g>
			<path style="fill:#213150;" d="M267.15,328.168c-1.802-2.556-3.883-4.928-6.184-7.052c-4.064-3.75-8.753-6.737-13.935-8.876
				c-4.818-1.988-9.871-3.125-15.025-3.381c-0.051-0.07-0.111-0.13-0.18-0.179c-0.007-0.108-0.012-0.216-0.017-0.326
				c-0.013-0.334-0.015-0.673-0.005-1.006c0.02-0.673,0.086-1.342,0.196-1.987c0.22-1.289,0.6-2.53,1.13-3.689
				c0.557-1.219,1.269-2.343,2.114-3.341c0.2-0.236,0.407-0.468,0.614-0.7c0.674-0.757,1.372-1.539,1.861-2.484
				c1.046-2.022,0.709-4.543-0.86-6.424c-1.576-1.889-4.117-2.507-6.325-1.539c-1.251,0.55-2.304,1.516-2.964,2.721
				c-0.342,0.625-0.56,1.284-0.649,1.959c-0.112,0.854,0.032,1.655,0.204,2.394c0.061,0.263,0.248,0.466,0.499,0.542
				c0.262,0.079,0.561,0.009,0.764-0.182c0.199-0.186,0.279-0.458,0.216-0.726c-0.165-0.712-0.257-1.308-0.165-1.905
				c0.074-0.481,0.242-0.955,0.5-1.408c0.536-0.941,1.404-1.697,2.382-2.075c0.978-0.378,2.006-0.36,2.891,0.049
				c0.839,0.387,1.566,1.093,2.047,1.987c0.479,0.892,0.658,1.872,0.503,2.761c-0.2,1.153-0.972,2.104-1.814,3.057
				c-0.823,0.932-1.762,2.032-2.49,3.294c-0.692,1.2-1.23,2.486-1.599,3.826c-0.421,1.53-0.617,3.094-0.582,4.647
				c0.004,0.187,0.01,0.381,0.022,0.578c-0.046,0.034-0.086,0.074-0.122,0.118c-5.354,0.187-10.622,1.337-15.665,3.417
				c-5.183,2.139-9.872,5.125-13.936,8.876c-2.302,2.125-4.383,4.497-6.183,7.051c-0.154,0.218-0.182,0.488-0.074,0.722
				c0.115,0.249,0.362,0.419,0.645,0.445c0.277,0.027,0.538-0.096,0.699-0.325c3.083-4.372,6.971-8.133,11.555-11.177
				c4.511-2.994,9.438-5.136,14.646-6.366c2.932-0.693,5.932-1.077,8.897-1.142c2.986,0.065,5.987,0.449,8.92,1.142
				c5.207,1.23,10.135,3.371,14.645,6.366c4.584,3.043,8.472,6.803,11.556,11.177c0.152,0.215,0.387,0.329,0.629,0.329
				c0.158,0,0.319-0.049,0.461-0.149C267.313,328.949,267.39,328.509,267.15,328.168z"/>
			<g>
				<path style="fill:#F0626E;" d="M209.285,318.534L209.285,318.534c-1.488-1.147-3.547-1.651-5.648-1.389
					c-1.637,0.205-3.31,0.844-5.113,1.952c-7.032,4.32-9.523,11.622-11.033,18.195c-1.001,4.358-1.764,8.897-2.571,13.702
					c-0.421,2.503-0.856,5.091-1.326,7.638l-0.201,1.087l1.049,0.349c0.995,0.331,1.993,0.767,2.852,1.15
					c2.629,1.173,5.325,2.938,8.486,5.556c4.137,3.429,7.85,7.564,11.035,12.294l1.248,1.853l0.955-2.02
					c4.1-8.672,6.531-18.368,7.032-28.041C216.553,341.125,216.343,323.98,209.285,318.534z"/>
				<path style="fill:#F0626E;" d="M282.83,354.319c-2.464-7.164-5.34-14.635-8.792-22.84c-2.636-6.265-6.376-13.086-14.133-16.168
					c-2.002-0.796-3.794-1.144-5.496-1.063c-2.178,0.108-4.176,0.99-5.483,2.419c-3.186,3.48-3.107,10.543-3.055,15.216l0.001,0.061
					c0.006,0.523,0.011,1.017,0.011,1.47c-0.001,13.677,4.056,28.448,11.424,41.592l1.026,1.832l0.8-1.941
					c0.65-1.577,1.797-3.203,2.482-4.174c2.149-3.048,4.978-5.494,7.202-7.285c4.384-3.529,8.894-6.165,13.406-7.836l0.931-0.344
					L282.83,354.319z"/>
				<path style="fill:#F0626E;" d="M271.729,328.571c-3.241-11.275-16.769-16.706-26.101-19.156
					c-0.25,1.005-0.545,2.005-0.885,2.999c-1.507,4.413-3.611,9.429-7.576,12.195c-4.288,2.991-9.539,1.306-12.639-2.581
					c-3.073-3.853-4.24-8.906-3.809-13.757c-12.759,2.203-25.182,8.613-28.541,20.299c-0.409,1.422-0.615,2.946-0.613,4.53
					c0,0.134,0.036,0.266,0.103,0.382c5.605,9.646,11.891,21.203,16.011,33.783c2.357,7.195,3.88,13.891,4.656,20.47
					c0.109,0.924,0.198,1.885,0.265,2.857c0.015,0.216,0.121,0.416,0.292,0.549c0.499,0.389,1.018,0.748,1.541,1.068
					c4.994,3.056,11.256,4.583,17.519,4.583c6.261,0,12.525-1.528,17.518-4.583c0.524-0.32,1.042-0.68,1.542-1.068
					c0.171-0.133,0.277-0.333,0.292-0.549c0.066-0.961,0.155-1.922,0.265-2.856c0.776-6.577,2.298-13.273,4.656-20.47
					c4.12-12.58,10.406-24.137,16.011-33.783c0.068-0.116,0.103-0.248,0.103-0.382C272.344,331.517,272.138,329.993,271.729,328.571
					z"/>
				<path style="fill:#F2EDF7;" d="M250.181,320.076c-0.119-3.866-1.269-8.164-4.304-10.784c-0.094-0.082-0.195-0.151-0.291-0.227
					c-0.242,0.952-0.52,1.899-0.842,2.84c-1.507,4.413-3.611,9.429-7.576,12.195c-4.288,2.991-9.539,1.306-12.639-2.581
					c-3.034-3.805-4.212-8.779-3.827-13.573c-0.778,0.33-1.513,0.765-2.185,1.345c-3.035,2.619-4.185,6.918-4.304,10.784
					c-0.136,4.432,1.215,8.986,4.5,12.09c2.789,2.635,8.023,4.844,11.011,1.328c1.273-1.498,1.953-3.465,2.473-5.352
					c0.52,1.887,1.2,3.854,2.473,5.352c2.988,3.516,8.222,1.308,11.01-1.328C248.966,329.062,250.317,324.508,250.181,320.076z"/>
				<path style="fill:#F2EDF7;" d="M232.169,336.534c0.878,0,1.59,0.712,1.59,1.59c0,0.878-0.712,1.59-1.59,1.59
					c-0.878,0-1.59-0.712-1.59-1.59C230.579,337.246,231.291,336.534,232.169,336.534z"/>
				<path style="fill:#F2EDF7;" d="M232.169,343.141c0.878,0,1.59,0.712,1.59,1.59c0,0.878-0.712,1.59-1.59,1.59
					c-0.878,0-1.59-0.712-1.59-1.59C230.579,343.853,231.291,343.141,232.169,343.141z"/>
			</g>
		</g>
		<g>
			<rect x="184.599" y="343.796" style="fill:#77758A;" width="97.144" height="97.144"/>
			<rect x="149.905" y="343.796" style="fill:#908DA6;" width="97.144" height="97.144"/>
			<rect x="213.511" y="349.133" style="fill:#F2EDF7;" width="27.577" height="16.013"/>
		</g>
		<g>
			<path style="fill:#213150;" d="M63.322,81.105c0.652-10.055,2.8-22.069,8.454-29.342c2.03-2.612,4.914-4.564,8.186-5.205
				c0.391-0.076,0.786-0.133,1.183-0.168c-0.201-0.11-0.398-0.226-0.585-0.357c-0.447-0.312-0.948-0.728-1.026-1.304
				c-0.169-1.258,1.502-1.281,2.321-1.126c0.365,0.069,0.713,0.186,1.047,0.335c-0.017-0.046-0.038-0.091-0.054-0.137
				c-0.248-0.69-0.495-1.414-0.587-2.145c-0.074-0.592-0.062-1.244,0.258-1.768c0.336-0.55,0.973-0.796,1.596-0.683
				c1.607,0.29,2,2.148,2.244,3.498c0.274,1.517,0.344,3.066,0.214,4.6c0.077,0.106,0.15,0.214,0.226,0.32
				c0.785,0.471,1.505,1.044,2.298,1.502c0.844,0.487,1.765,0.784,2.748,0.67c0.971-0.113,1.876-0.528,2.741-0.963
				c1.657-0.835,3.286-1.618,5.082-2.113c3.637-1.001,7.493-1.031,11.202-0.441c3.744,0.596,7.388,1.792,10.81,3.414
				c3.39,1.607,6.595,3.713,9.001,6.63c6.684,8.104,7.179,20.909,7.429,30.969c0.05,2.002,0.051,4.112-0.792,5.972
				c-1.251,2.761-3.972,4.294-6.769,5.125c-1.522,0.452-3.095,0.722-4.67,0.905c-2.029,0.236-4.072,0.386-6.11,0.518
				c-8.742,0.567-17.53,0.416-26.248-0.446c-4.347-0.43-8.676-1.036-12.974-1.818c-2.147-0.39-4.287-0.823-6.417-1.301
				c-1.861-0.417-3.759-0.803-5.559-1.446c-1.503-0.537-2.998-1.309-4.025-2.565c-1.152-1.41-1.477-3.211-1.457-4.989
				C63.111,85.336,63.182,83.266,63.322,81.105z"/>
			<path style="fill:#FFBAA6;" d="M136.468,154.231c8.812,21.945,14.271,51.157,38.741,59.247c-0.241,1.337-0.489,2.673-0.759,4.005
				c-0.409,2.018-1.207,4.29-1.043,6.421c-1.952-0.454-3.988-0.692-5.881-1.069c-10.712-2.134-21.43-4.48-30.275-11.127
				c-4.283-3.219-8.055-7.071-11.304-11.366c-6.457-8.538-10.947-18.531-13.156-29c-1.558-7.385-4.661-25.513,1.33-31.85
				c1.139-1.205,2.823-1.802,4.48-1.854c1.657-0.052,3.296,0.398,4.827,1.036C130.28,141.527,133.826,147.654,136.468,154.231z"/>
			<path style="fill:#FE9E54;" d="M141.34,166.736c5.347,15.181,10.877,30.878,22.481,40.253c0.109,0.088,0.126,0.246,0.039,0.356
				c-3.575,4.505-5.419,9.03-5.48,13.45c-0.001,0.078-0.037,0.15-0.099,0.198c-0.062,0.047-0.141,0.064-0.216,0.045
				c-9.098-2.252-15.564-5.066-20.966-9.126c-4.181-3.142-8.001-6.983-11.354-11.416c-6.407-8.472-10.973-18.535-13.203-29.101
				c-1.581-7.496-4.606-25.575,1.329-32.007c0.022-0.023,0.044-0.047,0.065-0.07c1.107-1.17,2.804-1.875,4.656-1.933
				c1.5-0.047,3.114,0.298,4.932,1.055c7.272,3.028,10.742,9.633,13.178,15.696C138.316,158.153,139.785,162.322,141.34,166.736z"/>
			<g>
				<path style="fill:#FFBAA6;" d="M171.824,221.518c0.051-1.781,0.871-3.683,1.398-5.236c0.641-1.889,1.501-3.643,3.196-4.779
					c1.535-1.028,3.246-1.312,4.892-1.848c0.714-0.339,1.419-0.716,2.066-1.222c0.399-0.312,0.772-0.664,1.145-1.014
					c0.347-0.326,0.7-0.704,1.09-0.963c0.32-0.213,0.69-0.251,0.916,0.032c0.194,0.244,0.235,0.609,0.225,0.947
					c-0.01,0.355-0.066,0.713-0.158,1.065c-0.573,2.201-2.325,4.199-4.18,5.461c0.879,0.474,1.859,0.727,2.817,0.985
					c3.054,0.822,5.911,2.158,8.55,3.893c0.91,0.598,1.962,1.072,2.686,1.93c0.806,0.953,0.505,2.255-0.981,2.024
					c-1.076-0.167-2.135-0.431-3.186-0.693c-1.214-0.212-2.411-0.491-3.584-0.832c2.85,2.304,6.685,5.708,6.391,7.128
					c-0.259,1.255-3.766-0.421-6.803-2.139c0.993,1.32,1.876,2.744,2.634,4.256c0.143,0.286,0.281,0.574,0.415,0.866
					c0.491,1.072,0.008,2.14-1.141,1.677c-1.204-0.485-2.225-1.633-3.14-2.538c-0.497-0.442-0.988-0.89-1.468-1.353
					c-0.322-0.311-0.637-0.63-0.95-0.951c0.11,0.366,0.2,0.74,0.28,1.119c0.906,2.217,1.712,5.103,1.201,6.267
					c-1.199,2.731-4.437-5.953-4.97-7.184c-0.049-0.114-0.102-0.229-0.169-0.329c-0.351-0.2-0.724-0.348-1.109-0.467
					c-0.222-0.055-0.442-0.115-0.66-0.178c-1.049-0.246-2.151-0.372-3.134-0.779c-1.13-0.468-2.273-1.097-3.135-1.994
					C172.076,223.754,171.792,222.661,171.824,221.518z"/>
				<path style="opacity:0.4;fill:#320032;" d="M173.464,219.9c2.154,0.501,4.631,0.497,6.527-0.789
					c1.535-1.041,2.576-2.959,2.162-4.827c-0.071-0.319,0.425-0.432,0.496-0.112c0.35,1.579-0.224,3.181-1.267,4.377
					c-1.193,1.367-2.948,2.019-4.725,2.145c-1.124,0.079-2.251-0.055-3.346-0.31C172.993,220.311,173.147,219.826,173.464,219.9z"/>
				<path style="opacity:0.4;fill:#320032;" d="M184.748,217.755c0.29-0.151,0.53,0.297,0.24,0.448
					c-2.768,1.436-3.546,4.715-3.328,7.597c0.025,0.325-0.483,0.299-0.508-0.024C180.921,222.716,181.827,219.271,184.748,217.755z"
					/>
				<path style="opacity:0.4;fill:#320032;" d="M179.649,223.246c0.115-1.115,0.648-2.166,1.491-2.907
					c0.246-0.216,0.593,0.155,0.347,0.371c-0.743,0.653-1.229,1.574-1.331,2.559C180.123,223.593,179.615,223.572,179.649,223.246z"
					/>
				<path style="opacity:0.4;fill:#320032;" d="M186.238,220.324c0.039-0.124,0.191-0.216,0.319-0.166
					c0.741,0.293,1.482,0.586,2.223,0.879c0.127,0.05,0.209,0.182,0.166,0.319c-0.039,0.124-0.191,0.216-0.319,0.166
					c-0.741-0.293-1.482-0.586-2.222-0.879C186.277,220.592,186.195,220.461,186.238,220.324z"/>
				<path style="opacity:0.4;fill:#320032;" d="M186.249,224.142c0.67,0.708,1.371,1.386,2.102,2.031
					c0.103,0.091,0.081,0.272-0.012,0.359c-0.108,0.101-0.256,0.079-0.359-0.012c-0.731-0.645-1.432-1.323-2.102-2.031
					C185.652,224.251,186.024,223.905,186.249,224.142z"/>
				<path style="opacity:0.4;fill:#320032;" d="M183.18,226.311c0.091-0.085,0.277-0.099,0.359,0.012
					c0.441,0.598,0.882,1.195,1.323,1.793c0.081,0.11,0.096,0.258-0.012,0.359c-0.091,0.085-0.277,0.099-0.359-0.012
					c-0.441-0.598-0.882-1.195-1.323-1.793C183.086,226.559,183.071,226.412,183.18,226.311z"/>
			</g>
			<path style="fill:#FFBAA6;" d="M125.685,235.003c-1.218-9.645-2.607-19.272-4.087-28.88c-1.469-9.54-3.054-19.062-4.751-28.565
				c0.099-0.144,0.034-0.375-0.142-0.402c-0.111-0.074-0.28-0.041-0.36,0.07c-2.654,0.695-5.346,1.245-8.062,1.637
				c-4.946,0.714-9.963,0.919-14.951,0.618c-0.035-0.002-0.069-0.004-0.104-0.006c-0.035-0.002-0.069-0.005-0.103-0.008
				c-4.984-0.363-9.93-1.23-14.738-2.593c-2.64-0.749-5.235-1.65-7.774-2.691c-0.064-0.121-0.227-0.176-0.347-0.117
				c-0.178,0.003-0.273,0.224-0.194,0.38c-2.941,9.194-5.773,18.422-8.493,27.684c-2.739,9.328-5.391,18.685-7.876,28.085
				c-2.429,9.187-4.597,18.668-4.073,28.236c0.048,0.883,0.126,1.818,0.618,2.58c0.488,0.755,1.303,1.135,2.149,1.353
				c2.166,0.558,4.463,0.717,6.689,0.837c4.729,0.255,9.544,0.066,14.179,1.192c5.481,1.331,10.216,5.501,16.042,4.897
				c4.297-0.445,8.136-2.544,12.456-3.001c4.743-0.502,9.491,0.322,14.212,0.697c2.222,0.176,4.52,0.323,6.741,0.057
				c0.867-0.104,1.726-0.372,2.31-1.056c0.589-0.69,0.79-1.607,0.954-2.476C127.768,254.116,126.876,244.431,125.685,235.003z"/>
			<path style="fill:#FFBAA6;" d="M49.753,267.694c0.028-8.27,2.072-15.704,12.033-17.349c3.725-0.615,7.561-0.298,11.284,0.331
				c3.938,0.666,6.517,2.452,7.684,6.377c2.064,6.946,1.661,14.473,1.415,21.635c-1.333,38.778-5.053,77.653-12,115.839
				c-1.506,8.275-3.162,16.521-4.93,24.744c-0.407,1.895-0.885,3.784-1.241,5.689c-0.522,2.79-0.35,2.671,2.125,4.104
				c2.873,1.665,5.866,3.157,8.742,4.805c1.087,0.349,2.201,0.594,3.348,0.69c1.691,0.141,3.365,0.166,4.956,0.831
				c0.809,0.338,4.119,1.874,4.242,2.85c0.386,3.076-16.803,1.753-18.466,1.661c-4.087-0.227-8.172-0.548-12.245-0.96
				c-4.508-0.456-5.933-1.243-6.028-6.105c-0.232-11.897-0.941-23.754-1.078-35.666C49.135,354.016,49.604,310.85,49.753,267.694z"
				/>
			<path style="fill:#FFBAA6;" d="M94.616,267.179c0.029-8.27,2.072-15.704,12.033-17.348c3.725-0.615,7.562-0.298,11.284,0.331
				c3.938,0.666,6.517,2.452,7.684,6.377c2.064,6.946,1.661,14.474,1.415,21.635c-1.333,38.778-5.053,77.653-12.001,115.839
				c-1.506,8.275-3.162,16.521-4.93,24.744c-0.407,1.895-0.885,3.784-1.241,5.689c-0.522,2.79-0.349,2.671,2.125,4.104
				c2.873,1.665,5.866,3.157,8.742,4.805c1.087,0.349,2.201,0.594,3.348,0.69c1.691,0.141,3.365,0.166,4.956,0.831
				c0.809,0.338,4.119,1.874,4.242,2.85c0.386,3.076-16.803,1.753-18.466,1.661c-4.087-0.227-8.172-0.548-12.245-0.96
				c-4.508-0.456-5.933-1.243-6.028-6.105c-0.232-11.897-0.941-23.754-1.078-35.666C93.998,353.501,94.467,310.335,94.616,267.179z"
				/>
			<path style="fill:#213150;" d="M51.023,237.893c-1.462,6.551-2.536,13.587-2.153,20.599c0.055,1,0.157,2.051,0.739,2.952
				c0.526,0.814,1.376,1.362,2.6,1.678c2.226,0.573,4.598,0.739,6.838,0.86c1.202,0.065,2.427,0.102,3.611,0.137
				c3.461,0.104,7.041,0.212,10.428,1.035c1.99,0.483,3.941,1.383,5.829,2.254c2.949,1.36,5.987,2.762,9.383,2.723
				c0.359-0.004,0.722-0.025,1.089-0.062c2.227-0.231,4.336-0.891,6.376-1.53c1.966-0.615,4-1.252,6.082-1.472
				c3.467-0.366,7.029,0.001,10.474,0.356c1.179,0.122,2.397,0.247,3.598,0.342c2.234,0.177,4.607,0.327,6.892,0.054
				c1.255-0.15,2.17-0.582,2.799-1.318c0.695-0.815,0.937-1.844,1.124-2.828c1.148-6.051,1.188-12.272,0.788-18.223
				C102.176,248.704,74.722,248.183,51.023,237.893z"/>
			<path style="fill:#213150;" d="M49.492,419.227c5.426-0.817,10.999-0.554,16.542-0.028c1.852-8.63,3.451-16.659,4.885-24.536
				c6.567-36.097,10.609-75.108,12.012-115.949l0.042-1.201c0.244-6.883,0.496-13.999-1.489-20.677
				c-1.177-3.959-3.81-6.155-8.287-6.912c-4.565-0.772-8.23-0.877-11.535-0.332c-11.182,1.846-12.645,10.642-12.671,18.098
				c-0.038,11.069-0.097,22.138-0.156,33.208c-0.169,31.557-0.344,64.188-0.003,96.28c0.075,6.511,0.324,13.108,0.565,19.488
				C49.429,417.514,49.46,418.372,49.492,419.227z"/>
			<path style="fill:#213150;" d="M94.347,418.49c5.44-0.564,10.944-0.067,16.425,0.765c0.025-0.113,0.052-0.225,0.076-0.338
				c1.877-8.733,3.491-16.834,4.934-24.767c6.568-36.098,10.609-75.109,12.012-115.949l0.042-1.193
				c0.245-6.885,0.497-14.005-1.488-20.684c-1.177-3.959-3.81-6.155-8.288-6.912c-4.565-0.772-8.231-0.877-11.535-0.332
				c-11.182,1.846-12.645,10.642-12.671,18.098c-0.038,11.052-0.097,22.105-0.156,33.158c-0.169,31.573-0.344,64.221-0.003,96.33
				c0.075,6.511,0.324,13.108,0.565,19.488C94.289,416.925,94.318,417.709,94.347,418.49z"/>
			<g>
				<path style="fill:#F2EDF7;" d="M88.052,439.609c0.164-0.609-0.451-1.447-0.73-1.932c-0.596-1.037-1.386-1.952-2.283-2.739
					c-1.784-1.564-3.98-2.632-6.238-3.32c-2.961-0.901-6.047-1.163-9.12-0.994c-0.655-1.963-1.751-3.78-3.195-5.267
					c-0.608-0.626-1.282-1.183-2.002-1.675c-1.655,0.597-3.481,0.829-5.23,0.963c-3.104,0.238-5.971,0.068-8.99-0.647
					c-0.418,1.481-0.236,3.368-0.266,4.9c-0.036,1.863-0.002,3.728,0.107,5.589c0.05,0.866,0.088,1.744,0.204,2.603
					c0.225,1.67,2.435,1.997,3.769,2.184c2.339,0.327,4.676,0.683,7.024,0.947c5.358,0.604,10.757,0.84,16.147,0.705
					c3.18-0.079,6.357-0.287,9.521-0.624c0.305-0.033,0.62-0.069,0.888-0.22C87.881,439.957,88.003,439.794,88.052,439.609z"/>
				<path style="fill:#213150;" d="M87.092,437.318c-4.116,0.431-8.253,0.678-12.382,0.776c-5.348,0.127-10.686-0.198-15.967-1.047
					c-2.353-0.378-6.205-0.505-8.609-2.014c0.039,0.687,0.081,1.378,0.173,2.058c0.225,1.67,2.435,1.997,3.769,2.184
					c2.339,0.327,4.676,0.683,7.024,0.947c5.358,0.604,10.757,0.84,16.147,0.706c3.18-0.079,6.357-0.287,9.521-0.624
					c0.306-0.033,0.62-0.069,0.888-0.22c0.224-0.126,0.346-0.29,0.396-0.475c0.164-0.609-0.451-1.447-0.73-1.932
					C87.251,437.554,87.169,437.438,87.092,437.318z"/>
				<circle style="fill:#213150;" cx="54.061" cy="430.223" r="2.287"/>
				<path style="fill:#213150;" d="M67.938,424.362c-0.689-0.456-1.562-0.274-2.274,0.021c-0.299,0.124-0.162,0.614,0.141,0.489
					c0.647-0.268,1.52-0.497,2.068,0.092c0.54,0.58-0.011,1.217-0.465,1.632c-1.046,0.958-2.404,1.569-3.812,1.73
					c-0.322,0.037-0.319,0.545,0.006,0.508c1.355-0.154,2.652-0.668,3.728-1.511c0.483-0.379,1.021-0.828,1.22-1.431
					C68.749,425.29,68.443,424.696,67.938,424.362z"/>
				<path style="fill:#213150;" d="M70.514,427.382c-0.689-0.456-1.562-0.274-2.274,0.021c-0.298,0.124-0.162,0.614,0.141,0.488
					c0.647-0.268,1.52-0.497,2.068,0.092c0.54,0.58-0.011,1.217-0.465,1.632c-1.046,0.958-2.404,1.569-3.812,1.73
					c-0.322,0.037-0.319,0.545,0.006,0.508c1.355-0.155,2.652-0.668,3.728-1.511c0.483-0.379,1.021-0.828,1.22-1.431
					C71.325,428.31,71.019,427.716,70.514,427.382z"/>
			</g>
			<g>
				<path style="fill:#F2EDF7;" d="M132.769,439.096c0.164-0.609-0.451-1.447-0.731-1.932c-0.596-1.037-1.385-1.952-2.283-2.739
					c-1.784-1.564-3.98-2.633-6.238-3.32c-2.961-0.901-6.047-1.163-9.12-0.994c-0.655-1.963-1.751-3.78-3.195-5.267
					c-0.608-0.626-1.282-1.183-2.002-1.675c-1.655,0.597-3.481,0.829-5.23,0.963c-3.104,0.238-5.971,0.068-8.99-0.647
					c-0.418,1.481-0.236,3.368-0.266,4.9c-0.036,1.863-0.002,3.728,0.107,5.589c0.05,0.866,0.088,1.743,0.204,2.603
					c0.225,1.67,2.435,1.997,3.769,2.184c2.339,0.327,4.676,0.683,7.024,0.947c5.358,0.604,10.757,0.84,16.147,0.706
					c3.18-0.079,6.357-0.287,9.521-0.624c0.305-0.033,0.62-0.069,0.888-0.22C132.597,439.444,132.719,439.28,132.769,439.096z"/>
				<path style="fill:#213150;" d="M131.809,436.805c-4.116,0.431-8.253,0.678-12.382,0.776c-5.348,0.127-10.686-0.198-15.967-1.047
					c-2.353-0.378-6.205-0.505-8.609-2.014c0.039,0.687,0.082,1.378,0.173,2.058c0.225,1.67,2.435,1.997,3.769,2.184
					c2.339,0.327,4.676,0.683,7.024,0.947c5.358,0.604,10.757,0.84,16.147,0.706c3.18-0.079,6.357-0.287,9.521-0.624
					c0.305-0.033,0.62-0.069,0.888-0.22c0.224-0.126,0.346-0.29,0.396-0.474c0.165-0.609-0.451-1.446-0.73-1.932
					C131.967,437.041,131.885,436.925,131.809,436.805z"/>
				<circle style="fill:#213150;" cx="98.777" cy="429.709" r="2.287"/>
				<path style="fill:#213150;" d="M112.655,423.848c-0.689-0.456-1.562-0.274-2.274,0.021c-0.298,0.124-0.162,0.614,0.141,0.489
					c0.647-0.268,1.52-0.497,2.068,0.092c0.54,0.58-0.011,1.217-0.465,1.632c-1.046,0.958-2.404,1.569-3.812,1.73
					c-0.322,0.037-0.319,0.545,0.006,0.508c1.355-0.155,2.652-0.668,3.728-1.511c0.483-0.379,1.021-0.828,1.22-1.431
					C113.465,424.777,113.159,424.183,112.655,423.848z"/>
				<path style="fill:#213150;" d="M115.23,426.868c-0.689-0.456-1.562-0.274-2.274,0.021c-0.299,0.124-0.162,0.614,0.141,0.488
					c0.647-0.268,1.52-0.497,2.068,0.092c0.54,0.58-0.011,1.217-0.465,1.632c-1.046,0.958-2.404,1.569-3.812,1.73
					c-0.322,0.037-0.319,0.545,0.006,0.508c1.355-0.155,2.652-0.668,3.728-1.511c0.483-0.379,1.021-0.828,1.22-1.431
					C116.041,427.797,115.735,427.203,115.23,426.868z"/>
			</g>
			<path style="fill:#FFBAA6;" d="M134.067,151.837c-3.888-17.94-29.929-24.787-45.608-22.938
				c-11.142,1.314-27.994,5.807-32.305,17.755c-0.502,1.391-0.774,2.822-0.868,4.27c5.577,11.258,10.658,22.663,13.789,34.92
				c1.749,6.847,2.949,13.819,3.309,20.884c0.049,0.97,0.074,1.938,0.076,2.905c0.436,0.388,0.9,0.761,1.4,1.115
				c9.193,6.501,24.069,7.563,34.165,2.273c0.543-0.284,1.052-0.593,1.536-0.92c0.13-0.958,0.282-1.915,0.46-2.869
				c1.293-6.955,3.406-13.706,6.047-20.261c4.727-11.735,11.274-22.366,18.293-32.786
				C134.461,154.737,134.381,153.283,134.067,151.837z"/>
			<path style="fill:#FE9E54;" d="M53.459,230.15c-1.051,3.977-2.122,8.258-2.916,12.691c12.164,2.965,24.731,4.038,37.213,4.911
				c8.325,0.582,16.645,1.255,24.981,1.651c4.829,0.229,9.648,0.223,14.467,0.209c-0.136-5.084-0.689-10.054-1.268-14.64
				c-1.108-8.768-2.445-18.216-4.088-28.887c-1.105-7.173-2.293-14.44-3.544-21.686c4.755-10.474,10.818-19.984,16.267-28.072
				l0.039-0.057l0.004-0.068c0.104-1.533,0.003-3.02-0.3-4.418c-3.886-17.924-29.598-25.06-45.886-23.137
				c-8.18,0.965-27.724,4.643-32.515,17.921c-0.485,1.346-0.782,2.806-0.883,4.34l-0.004,0.068l0.03,0.061
				c4.386,8.853,9.201,19.236,12.532,30.411c-2.154,6.879-4.25,13.785-6.255,20.611C58.294,212.42,55.717,221.609,53.459,230.15z"/>
			<path style="fill:#FFBAA6;" d="M73.251,89.525c-0.053-0.321-0.118-0.641-0.194-0.959c-0.596-2.491-1.89-4.844-3.91-6.402
				c-6.762-5.218-14.718,2.273-12.966,9.67c0.976,4.122,4.915,7.35,9.148,7.498c2.629,0.092,5.379-1.018,6.844-3.203
				C73.446,94.231,73.626,91.779,73.251,89.525z"/>
			<path style="opacity:0.4;fill:#320032;" d="M68.265,92.164c-4.069,1.1-8.944-0.141-12.312-2.926
				c-0.045,0.853,0.022,1.725,0.228,2.597c0.976,4.122,4.915,7.35,9.148,7.498c2.629,0.092,5.379-1.018,6.844-3.203
				c1.207-1.799,1.43-4.097,1.131-6.252C71.745,90.882,70.069,91.676,68.265,92.164z"/>
			<path style="fill:#FFBAA6;" d="M124.338,92.923c0.095-0.311,0.202-0.619,0.319-0.924c0.921-2.39,2.515-4.551,4.723-5.828
				c7.394-4.276,14.287,4.202,11.571,11.302c-1.514,3.957-5.845,6.634-10.061,6.22c-2.618-0.257-5.196-1.722-6.359-4.081
				C123.521,97.562,123.668,95.108,124.338,92.923z"/>
			<path style="opacity:0.4;fill:#320032;" d="M128.93,96.2c3.887,1.63,8.884,1.045,12.592-1.27c-0.068,0.852-0.25,1.707-0.57,2.544
				c-1.514,3.957-5.845,6.634-10.061,6.22c-2.618-0.257-5.196-1.722-6.359-4.081c-0.958-1.943-0.875-4.25-0.292-6.347
				C125.65,94.468,127.207,95.477,128.93,96.2z"/>
			<path style="fill:#FFBAA6;" d="M108.807,108.549c-6.331,2.057-13.349,1.283-19.97-1.028c-1.393,7.582-2.291,15.27-2.74,22.977
				c-0.261,4.487-0.086,9.385,2.285,12.77c2.476,3.535,6.798,4.465,10.636,3.652c3.202-0.679,6.428-2.592,8.13-5.971
				c1.212-2.407,1.533-5.283,1.703-8.065c0.07-1.149,0.123-2.298,0.161-3.448C109.239,122.485,108.988,115.506,108.807,108.549z"/>
			<path style="opacity:0.4;fill:#320032;" d="M108.807,108.549c-6.33,2.057-13.346,1.284-19.967-1.027
				c-0.967,5.273-1.699,10.597-2.203,15.944c5.018,7.558,13.686,9.7,22.271,8.36c0.041-0.797,0.078-1.594,0.104-2.391
				C109.239,122.485,108.988,115.506,108.807,108.549z"/>
			<path style="fill:#FFBAA6;" d="M64.684,87.601c-0.051,0.558-0.095,1.116-0.133,1.674c-0.498,7.284,0.068,14.867,3.506,21.391
				c5.332,10.117,17.017,16.157,28.716,17.3c8.51,0.832,17.532-0.756,24.274-5.791c10.27-7.67,13.2-21.406,13.339-33.954
				c0.17-15.39-7.457-31.479-24.411-35.199c-15.397-3.379-32.632,2.211-40.127,15.993C66.74,74.729,65.272,81.152,64.684,87.601z"/>
			
				<ellipse transform="matrix(0.0664 -0.9978 0.9978 0.0664 -28.389 176.3176)" style="opacity:0.4;fill:#320032;" cx="80.024" cy="103.329" rx="6.099" ry="9.656"/>
			
				<ellipse transform="matrix(0.0664 -0.9978 0.9978 0.0664 3.2753 215.0163)" style="opacity:0.4;fill:#320032;" cx="116.535" cy="105.758" rx="6.099" ry="9.656"/>
			<path style="fill:#213150;" d="M95.923,98.361c0.206-0.254,0.595,0.073,0.389,0.328c-0.291,0.36-0.284,0.985,0.073,1.318
				c0.342,0.319,0.964,0.354,1.322,0.024c0.009-0.009,0.02-0.014,0.03-0.021c0.01-0.009,0.021-0.016,0.033-0.023
				c0.014-0.008,0.027-0.014,0.041-0.02c0.011-0.004,0.022-0.008,0.034-0.011c0.074-0.02,0.151-0.013,0.219,0.045
				c0.01,0.008,0.016,0.021,0.024,0.032c0.775,0.504,1.851,0.386,2.556-0.195c0.8-0.66,0.851-1.762,0.33-2.615
				c-0.283-0.462-0.748-0.838-1.285-0.953c-0.151,0.053-0.362-0.034-0.358-0.245c0.023-1.161,0.091-2.321,0.203-3.477
				c0.032-0.325,0.539-0.293,0.507,0.034c-0.104,1.07-0.165,2.143-0.193,3.218c1.151,0.305,1.96,1.4,1.983,2.589
				c0.024,1.251-0.984,2.23-2.174,2.432c-0.604,0.103-1.228-0.001-1.755-0.312c-0.42,0.281-0.955,0.34-1.436,0.147
				c-0.543-0.218-0.88-0.78-0.871-1.357C95.602,98.955,95.706,98.629,95.923,98.361z"/>
			<path style="fill:#213150;" d="M80.292,85.039c0.294-1.564,1.493-2.905,3.023-3.354c1.562-0.459,3.33,0.077,4.413,1.28
				c0.218,0.243-0.143,0.601-0.362,0.357c-0.969-1.077-2.525-1.556-3.925-1.145c-1.369,0.402-2.399,1.613-2.66,3.002
				C80.72,85.501,80.232,85.359,80.292,85.039z"/>
			<path style="fill:#213150;" d="M120.604,88.15c-0.084-1.59-1.095-3.077-2.552-3.725c-1.488-0.662-3.311-0.365-4.543,0.684
				c-0.249,0.212,0.062,0.614,0.311,0.402c1.103-0.939,2.709-1.208,4.042-0.615c1.304,0.58,2.165,1.917,2.239,3.328
				C120.118,88.55,120.621,88.475,120.604,88.15z"/>
			<path style="fill:#213150;" d="M127.585,245.174c-0.458-3.603-1.369-6.962-2.708-9.984c-1.525-3.442-3.645-6.681-6.302-9.627
				c-2.109-2.339-4.541-4.474-7.228-6.348c0.754-5.015,1.547-10.355,2.247-15.717c0.773-5.924,1.335-11.153,1.717-15.986
				c0.218-2.745,0.383-5.446,0.492-8.027l0.032-0.672c0.106-2.043,0.227-4.359-1.341-6.07c-0.386-0.421-0.845-0.8-1.399-1.152
				c1.103-4.84,2.667-9.924,4.78-15.534c2.413-6.409,5.268-12.781,7.985-18.758l0.177-0.394l-0.352-0.241
				c-1.584-1.081-3.27-2.09-5.01-3.001l-0.459-0.241l-0.222,0.476c-1.82,3.926-3.541,7.884-5.114,11.766
				c-2.975,7.339-5.648,14.903-7.946,22.485c-0.101,0.335-0.2,0.67-0.299,1.006l0,0.002c-0.897-0.251-1.833-0.49-2.789-0.711
				c-0.095-0.081-0.208-0.137-0.331-0.164c-2.731-0.59-5.573-1.004-8.427-1.211c-2.853-0.243-5.738-0.286-8.516-0.137
				c-0.127,0.007-0.247,0.045-0.354,0.109c-0.978,0.068-1.941,0.155-2.866,0.261l0-0.002c-0.045-0.347-0.09-0.693-0.137-1.04
				c-1.069-7.849-2.512-15.741-4.289-23.458c-0.865-3.757-1.857-7.644-2.947-11.554l-0.142-0.51l-0.496,0.169
				c-0.888,0.304-1.699,0.605-2.41,0.894c-0.89,0.167-1.797,0.456-2.699,0.863l-0.765,0.356l0.115,0.42
				c1.66,6.063,3.394,12.535,4.743,19.152c1.198,5.874,1.938,11.142,2.262,16.095c-0.603,0.261-1.116,0.561-1.564,0.917
				c-1.819,1.441-2.066,3.747-2.284,5.781l-0.074,0.67c-0.301,2.566-0.565,5.259-0.784,8.004
				c-0.387,4.832-0.659,10.084-0.833,16.056c-0.157,5.396-0.218,10.787-0.268,15.875c-2.95,1.426-5.688,3.149-8.141,5.124
				c-3.089,2.488-5.695,5.351-7.746,8.509c-1.366,2.105-2.533,4.475-3.475,7.071c-1.379,5.714-2.176,10.472-2.511,14.975
				c-0.056,0.76,0.454,1.45,1.186,1.603c7.896,1.658,18.331,3.7,29.025,4.791c2.026,0.207,4.036,0.391,5.974,0.545
				c9.283,0.739,17.608,0.889,25.45,0.458c4.686-0.258,9.349-0.944,13.859-1.606l1.991-0.291c0.707-0.103,1.249-0.706,1.287-1.432
				C127.852,252.545,127.821,249.097,127.585,245.174z"/>
			<path style="fill:#213150;" d="M116.875,94.715c0.396,0.03,0.785,0.082,1.164,0.157c0.133-0.32,0.22-0.675,0.248-1.052
				c0.114-1.54-0.793-2.861-2.024-2.952c-1.232-0.091-2.322,1.084-2.436,2.623c-0.034,0.466,0.026,0.911,0.159,1.309
				C115.008,94.661,116.029,94.651,116.875,94.715z"/>
			<path style="fill:#F0626E;" d="M102.533,103.992c-0.034-0.009-0.07-0.012-0.103-0.013c-2.321-0.088-4.642-0.175-6.963-0.263
				c-0.495-0.019-0.659,0.172-0.45,1.109c0.623,2.8,2.108,4.689,3.688,4.689c1.58,0,3.179-1.888,3.97-4.688
				c0.055-0.196,0.108-0.438,0.055-0.625C102.692,104.065,102.615,104.013,102.533,103.992z"/>
			<path style="fill:#213150;" d="M83.335,92.24c-0.396-0.029-0.788-0.034-1.175-0.015c-0.084-0.336-0.118-0.7-0.091-1.077
				c0.114-1.54,1.204-2.714,2.436-2.623c1.232,0.091,2.138,1.413,2.025,2.952c-0.034,0.466-0.159,0.897-0.35,1.272
				C85.189,92.461,84.181,92.302,83.335,92.24z"/>
			<path style="fill:#213150;" d="M132.359,102c-1.633,0.492-2.734,1.823-3.543,3.258c-0.941,1.67-1.711,3.436-2.631,5.119
				c-1.833,3.353-4.177,6.36-7.197,8.726c-2.781,2.179-6.294,3.843-9.903,3.59c-3.582-0.252-6.469-2.881-10.04-3.129
				c-1.782-0.124-3.446,0.529-5.061,1.198c-1.688,0.699-3.372,1.261-5.202,1.429c-3.585,0.328-7.264-0.619-10.293-2.551
				c-2.796-1.783-5.041-4.356-6.58-7.283c-0.797-1.516-1.376-3.113-1.82-4.765c-0.463-1.724-0.838-3.481-1.516-5.139
				c-0.606-1.479-1.463-2.809-2.737-3.796c-0.508-0.394-1.08-0.73-1.687-0.979c0.288,5.295,1.385,10.529,3.957,15.188
				c5.582,10.112,17.5,15.981,29.337,16.907c8.61,0.674,17.689-1.107,24.398-6.323c6.779-5.27,10.242-13.172,11.777-21.594
				C133.203,101.833,132.779,101.874,132.359,102z"/>
			<path style="fill:#213150;" d="M75.319,56.784c5.336-8.244,14.042-14.52,23.672-15.108c4.766-0.291,9.563,0.029,14.252,0.926
				c2.362,0.452,4.696,1.053,6.982,1.802c1.924,0.63,3.876,1.374,5.484,2.635c1.486,1.165,2.584,2.757,2.852,4.653
				c0.062,0.435,0.079,0.877,0.046,1.315c2.96,0.671,5.821,1.853,8.288,3.631c1.298,0.936,2.52,2.025,3.408,3.368
				c0.896,1.356,1.337,2.958,1.235,4.583c-0.141,2.253-1.337,4.257-3.097,5.513c0.414,0.558,0.771,1.156,1.043,1.799
				c0.62,1.468,0.85,3.112,0.522,4.68c-0.328,1.569-1.278,2.899-2.627,3.755c-1.357,0.861-2.998,1.213-4.589,1.251
				c-3.656,0.088-7.144-1.391-10.246-3.2c-3.309-1.93-6.315-4.331-9.646-6.224c-3.351-1.904-7.197-3.42-11.121-2.913
				c-0.924,0.119-1.89,0.427-2.811,0.132c-0.016-0.005-0.029-0.013-0.044-0.018c-0.077,0.022-0.161,0.006-0.233-0.095
				c-0.019-0.009-0.04-0.015-0.059-0.024c-3.186-4.435-10.863-7.195-16.206-7.149c-2.859,0.024-5.426,1.011-7.823,2.51
				c-1.435,0.898-2.547,2.278-3.987,3.096C71.498,63.903,73.123,60.177,75.319,56.784z"/>
			<path style="opacity:0.4;fill:#320032;" d="M126.521,245.691c-4.864,1.213-9.796,2.148-14.767,2.793
				c-4.925,0.639-9.886,0.998-14.852,1.081c-4.989,0.083-9.983-0.113-14.95-0.589c-4.967-0.475-9.907-1.232-14.789-2.264
				c-4.881-1.032-9.704-2.342-14.435-3.927c-0.589-0.197-1.176-0.399-1.762-0.604c-0.309-0.108-0.436,0.384-0.13,0.492
				c4.731,1.658,9.555,3.044,14.445,4.148c4.867,1.099,9.796,1.919,14.755,2.466c4.983,0.549,9.996,0.818,15.009,0.805
				c5.035-0.014,10.07-0.312,15.071-0.896c4.955-0.579,9.878-1.436,14.735-2.576c0.604-0.142,1.208-0.288,1.81-0.439
				C126.978,246.101,126.838,245.612,126.521,245.691z"/>
			<path style="opacity:0.4;fill:#320032;" d="M53.312,244.831c-0.562,22.611-0.972,45.227-1.228,67.843
				c-0.255,22.502-0.359,45.005-0.311,67.507c0.027,12.694,0.103,25.388,0.226,38.081c0.003,0.327,0.512,0.322,0.508-0.006
				c-0.219-22.617-0.287-45.236-0.201-67.854c0.085-22.503,0.323-45.005,0.711-67.504c0.219-12.692,0.487-25.383,0.803-38.073
				C53.828,244.498,53.32,244.504,53.312,244.831z"/>
			<path style="opacity:0.4;fill:#320032;" d="M69.398,248.939c-2.02,5.683-5.987,10.625-11.042,13.903
				c-1.426,0.925-2.937,1.717-4.511,2.357c-0.3,0.122-0.163,0.612,0.141,0.488c5.715-2.32,10.578-6.57,13.7-11.885
				c0.883-1.504,1.62-3.09,2.204-4.733C69.999,248.76,69.507,248.633,69.398,248.939z"/>
			<path style="opacity:0.4;fill:#320032;" d="M97.477,302.383c0.064-10.752-0.159-21.508-0.883-32.237
				c-0.022-0.325-0.53-0.321-0.508,0.006c1.299,19.25,0.969,38.56,0.316,57.829c-0.65,19.189-1.616,38.376-1.587,57.581
				c0.016,10.747,0.35,21.497,1.215,32.212c0.026,0.324,0.535,0.321,0.508-0.006c-1.552-19.225-1.377-38.532-0.779-57.794
				C96.355,340.778,97.364,321.591,97.477,302.383z"/>
			<path style="opacity:0.4;fill:#320032;" d="M116.373,229.777c-0.859-1.134-1.798-2.208-2.815-3.203
				c-0.515-0.504-1.05-0.989-1.603-1.451c-0.551-0.46-1.141-0.888-1.618-1.428c-1.144-1.298-0.886-3.163-0.829-4.765
				c0.062-1.755,0.173-3.507,0.316-5.257c0.571-6.982,1.646-13.916,2.085-20.91c0.217-3.463,0.277-6.939,0.035-10.402
				c-0.199-2.859-0.424-6.128-2.436-8.367c-1.929-2.148-4.988-2.761-7.704-3.23c-3.384-0.584-6.831-0.871-10.266-0.817
				c-5.015,0.079-10.864,1.18-13.834,5.672c-1.665,2.518-2.087,5.606-2.421,8.541c-0.406,3.565-0.693,7.144-0.863,10.729
				c-0.338,7.119-0.21,14.26,0.382,21.363c0.114,1.363,0.313,2.799-0.056,4.14c-0.171,0.623-0.486,1.202-0.989,1.619
				c-0.606,0.501-1.395,0.702-2.145,0.873c-2.583,0.592-5.019,1.499-7.279,2.899c-4.38,2.712-7.859,6.874-9.683,11.696
				c-0.45,1.19-0.793,2.417-1.027,3.667c-0.06,0.32,0.432,0.451,0.492,0.13c0.955-5.107,3.799-9.741,7.755-13.082
				c1.975-1.667,4.239-3.012,6.665-3.908c1.273-0.47,2.585-0.711,3.885-1.081c1.277-0.364,2.275-1.108,2.725-2.386
				c0.416-1.181,0.342-2.495,0.238-3.721c-0.146-1.724-0.278-3.449-0.376-5.177c-0.201-3.533-0.286-7.072-0.258-10.611
				c0.029-3.514,0.17-7.026,0.425-10.531c0.128-1.764,0.285-3.527,0.471-5.287c0.166-1.572,0.33-3.15,0.639-4.702
				c0.567-2.846,1.744-5.511,4.111-7.299c2.066-1.561,4.622-2.339,7.154-2.723c2.973-0.451,6.032-0.382,9.021-0.149
				c1.735,0.135,3.463,0.352,5.177,0.65c1.446,0.252,2.902,0.537,4.278,1.059c1.337,0.507,2.604,1.284,3.468,2.445
				c0.861,1.158,1.289,2.565,1.543,3.969c0.289,1.6,0.393,3.241,0.473,4.863c0.085,1.72,0.101,3.443,0.064,5.164
				c-0.148,6.879-1.127,13.702-1.844,20.535c-0.362,3.445-0.659,6.9-0.752,10.364c-0.039,1.462-0.123,2.998,0.848,4.204
				c0.468,0.581,1.066,1.029,1.637,1.501c0.541,0.446,1.064,0.913,1.569,1.399c4.099,3.943,6.963,9.132,8.156,14.691
				c0.294,1.369,0.481,2.757,0.565,4.154c0.02,0.325,0.528,0.322,0.508-0.006C121.915,239.9,119.826,234.335,116.373,229.777z"/>
			<path style="opacity:0.4;fill:#320032;" d="M125.639,259.208c-1.957-1.155-3.745-2.578-5.306-4.23
				c-1.549-1.639-3.129-3.575-3.741-5.784c-0.087-0.315-0.576-0.175-0.489,0.141c0.496,1.789,1.608,3.342,2.773,4.758
				c1.16,1.41,2.48,2.688,3.925,3.804c0.825,0.637,1.688,1.223,2.586,1.753C125.67,259.816,125.92,259.374,125.639,259.208z"/>
		</g>
		<g>
			
				<rect x="140.529" y="161.556" transform="matrix(0.9999 -0.0115 0.0115 0.9999 -2.3996 2.1845)" style="fill:#4D9998;" width="97.144" height="97.144"/>
			
				<rect x="105.837" y="161.954" transform="matrix(0.9999 -0.0115 0.0115 0.9999 -2.4064 1.7863)" style="fill:#00BCC0;" width="97.144" height="97.144"/>
			<g>
				
					<rect x="111.545" y="233.772" transform="matrix(0.9999 -0.0115 0.0115 0.9999 -2.7826 1.7998)" style="fill:none;" width="87.702" height="19.069"/>
				
					<text transform="matrix(0.9999 -0.0115 0.0115 0.9999 116.8663 251.3077)" style="fill:#213150; font-family:'OstrichSans-Heavy'; font-size:25.4111px;">donation</text>
			</g>
			<g>
				<path style="fill:#F2EDF7;" d="M175.488,197.21c0.005-0.327,0.009-0.654,0.012-0.981l0.008-0.877
					c0.008-0.84,0.016-1.679,0.032-2.519c0.002-0.116,0.009-0.467-0.237-0.72c-0.16-0.165-0.391-0.243-0.678-0.251
					c-1.346-0.01-2.693-0.026-4.04-0.04l-1.853-0.021c-0.066,0-0.164-0.001-0.273,0.017c0.423-0.717,0.846-1.43,1.263-2.131
					c0.611-1.028,1.222-2.057,1.825-3.089c0.005,0.003,0.011,0.007,0.017,0.01c0.663,0.407,1.371,0.829,2.229,1.33
					c0.048,0.028,0.095,0.058,0.142,0.089c0.203,0.132,0.456,0.295,0.806,0.331c0.138,0.014,0.275-0.036,0.372-0.135
					c0.097-0.1,0.143-0.238,0.125-0.376c-0.003-0.019-0.003-0.036-0.004-0.05c-0.004-0.064-0.011-0.16-0.064-0.266l-1.788-3.555
					c-0.715-1.422-1.431-2.844-2.145-4.265c-0.188-0.375-0.512-0.563-0.937-0.544c-0.617,0.029-1.234,0.048-1.851,0.068
					l-2.392,0.075c-1.439,0.045-2.878,0.09-4.313,0.137l-0.034-0.002c-0.569-0.034-0.689,0.359-0.711,0.482
					c-0.037,0.204,0.007,0.489,0.42,0.689c0.013,0.006,0.025,0.012,0.036,0.018l0.322,0.191c0.713,0.424,1.426,0.848,2.161,1.275
					c0.053,0.031,0.109,0.063,0.158,0.093c-0.032,0.056-0.07,0.123-0.109,0.191c-0.235,0.405-0.485,0.813-0.727,1.208
					c-0.508,0.83-1.034,1.689-1.469,2.592c-0.826,1.718-0.778,3.273,0.148,4.755c0.546,0.875,1.052,1.802,1.541,2.699
					c0.238,0.437,0.477,0.874,0.721,1.308c1.406,2.5,3.088,5.194,6.211,5.52c0.839,0.087,1.684,0.09,2.5,0.091
					c0.498,0.001,1.013,0.002,1.514,0.023c0.019,0.001,0.038,0.001,0.056,0.001c0.309,0.003,0.544-0.076,0.717-0.243
					c0.247-0.239,0.274-0.573,0.272-0.805C175.466,198.759,175.477,197.972,175.488,197.21z"/>
				<path style="fill:#F2EDF7;" d="M195.826,185.298c-0.272-0.498-0.553-0.992-0.833-1.486c-0.29-0.51-0.59-1.038-0.873-1.561
					c-0.094-0.173-0.251-0.411-0.538-0.493c-0.287-0.082-0.549,0.039-0.721,0.137c-1.859,1.06-3.798,2.15-5.928,3.333
					c-0.194,0.108-0.427,0.269-0.508,0.56c-0.082,0.295,0.043,0.561,0.144,0.736l0.217,0.376c0.767,1.328,1.561,2.702,2.278,4.08
					c0.121,0.233,0.303,0.579,0.578,0.855c-0.316-0.003-0.633-0.006-0.943-0.008c-0.763-0.005-1.526-0.013-2.289-0.023
					c-0.922-0.013-1.876-0.025-2.815-0.023c-0.026,0.001-0.046-0.001-0.063-0.002c0-0.014,0-0.031,0.001-0.05
					c0.022-0.396,0.022-0.794,0.023-1.178c0-0.158,0-0.317,0.002-0.476l0.003-0.255c0.004-0.385,0.008-0.769,0.009-1.154
					l0.001-0.024c0.009-0.313-0.106-0.527-0.343-0.635c-0.112-0.051-0.497-0.181-0.771,0.278c-0.063,0.075-0.111,0.15-0.153,0.216
					l-1.139,1.742c-1.101,1.685-2.24,3.427-3.369,5.132c-0.311,0.469-0.311,0.898-0.001,1.39c1.032,1.634,2.07,3.304,3.075,4.918
					c0.432,0.694,0.863,1.387,1.296,2.081c0.011,0.017,0.021,0.036,0.031,0.055c0.072,0.132,0.205,0.377,0.529,0.476
					c0.042,0.013,0.085,0.019,0.127,0.02c0.118,0.001,0.234-0.043,0.321-0.128c0.256-0.247,0.244-0.551,0.238-0.714
					c-0.001-0.024-0.002-0.047-0.002-0.07l0.01-0.593c0.013-0.76,0.026-1.545,0.017-2.321c0-0.023,0-0.043,0.001-0.059
					c0.015,0,0.033-0.001,0.054,0l0.458,0.011c1.269,0.031,2.581,0.064,3.875,0.025c1.958-0.059,3.38-0.884,4.226-2.454
					c0.472-0.875,0.999-1.745,1.508-2.586c0.239-0.395,0.479-0.791,0.714-1.188C195.961,191.38,197.611,188.566,195.826,185.298z"/>
				<path style="fill:#F2EDF7;" d="M193.217,173.142c-0.074-0.14-0.216-0.232-0.375-0.242c-0.282-0.021-0.485,0.111-0.606,0.188
					c-0.021,0.013-0.041,0.026-0.063,0.038l-0.588,0.329c-0.628,0.35-1.277,0.712-1.908,1.087c-0.041,0.025-0.072,0.04-0.095,0.051
					c-0.014-0.019-0.031-0.047-0.052-0.085l-0.249-0.456c-0.614-1.125-1.248-2.288-1.957-3.388
					c-1.019-1.582-2.446-2.372-4.244-2.342c-1.709,0.026-3.451-0.003-5.136-0.031c-2.372-0.04-5.242,0.124-6.935,2.13
					c-0.717,0.848-1.258,1.807-1.782,2.733c-0.267,0.472-0.542,0.959-0.834,1.419c-0.122,0.192-0.161,0.384-0.116,0.571
					c0.07,0.29,0.306,0.428,0.461,0.52c0.509,0.299,1.016,0.6,1.524,0.901l4.448,2.629c0.115,0.068,0.291,0.172,0.505,0.174
					c0.056,0.001,0.114-0.006,0.175-0.021c0.191-0.049,0.349-0.178,0.47-0.384c0.857-1.459,1.72-2.914,2.583-4.369l0.51-0.859
					c0.042-0.072,0.072-0.14,0.096-0.206c0.45,0.795,0.897,1.589,1.335,2.369c0.551,0.979,1.101,1.959,1.656,2.936
					c-0.756,0.412-1.515,0.843-2.249,1.261l-0.454,0.258l-0.029,0.013c-0.297,0.13-0.446,0.339-0.444,0.621
					c0.001,0.115,0.045,0.225,0.125,0.309c0.201,0.213,0.448,0.218,0.567,0.221l0.036,0.001c1.223,0.072,2.446,0.142,3.669,0.209
					c0.485,0.026,0.97,0.052,1.455,0.077c1.11,0.058,2.258,0.118,3.385,0.193c0.031,0.002,0.062,0.003,0.092,0.004
					c0.439,0.005,0.743-0.178,0.951-0.572c0.725-1.369,1.452-2.736,2.18-4.103c0.594-1.116,1.188-2.232,1.78-3.348
					c0.008-0.013,0.017-0.026,0.026-0.04C193.208,173.82,193.414,173.516,193.217,173.142z"/>
			</g>
		</g>
		<g>
			<path style="fill:#FFBAA6;" d="M80.21,157.381c11.11,20.876,19.664,49.335,44.86,54.76c-0.097,1.355-0.201,2.711-0.326,4.064
				c-0.191,2.05-0.741,4.395-0.349,6.495c-1.989-0.242-4.04-0.261-5.961-0.433c-10.879-0.975-21.786-2.161-31.292-7.822
				c-4.603-2.742-8.766-6.168-12.455-10.091c-7.334-7.798-12.868-17.252-16.185-27.425c-2.34-7.176-7.365-24.867-2.086-31.81
				c1.004-1.32,2.613-2.094,4.256-2.323s3.32,0.043,4.91,0.513C72.698,145.412,76.879,151.125,80.21,157.381z"/>
			<path style="fill:#FE9E54;" d="M86.392,169.292c6.941,14.521,14.119,29.536,26.66,37.616c0.117,0.076,0.152,0.231,0.077,0.349
				c-3.073,4.862-4.421,9.559-4.009,13.96c0.007,0.077-0.021,0.153-0.077,0.207c-0.056,0.053-0.133,0.079-0.21,0.068
				c-9.287-1.265-16.017-3.371-21.822-6.829c-4.493-2.676-8.702-6.086-12.51-10.135c-7.277-7.738-12.894-17.254-16.241-27.52
				c-2.374-7.283-7.317-24.935-2.104-31.966c0.019-0.025,0.038-0.051,0.057-0.077c0.975-1.282,2.587-2.164,4.423-2.42
				c1.487-0.208,3.128-0.037,5.017,0.521c7.554,2.232,11.712,8.428,14.782,14.196C82.467,161.082,84.374,165.07,86.392,169.292z"/>
			<path style="fill:#FFBAA6;" d="M123.445,213.104c0.191-0.785,0.547-1.503,1.026-2.125c1.127-1.464,2.658-2.279,4.047-3.312
				c0.569-0.549,1.116-1.131,1.569-1.817c0.279-0.423,0.52-0.876,0.762-1.327c0.225-0.42,0.439-0.891,0.725-1.26
				c0.236-0.304,0.574-0.459,0.878-0.262c0.262,0.17,0.417,0.502,0.516,0.826c0.104,0.339,0.164,0.697,0.19,1.06
				c0.159,2.269-0.864,4.722-2.22,6.51c0.984,0.168,1.994,0.096,2.984,0.035c3.157-0.195,6.29,0.159,9.345,0.962
				c1.053,0.277,2.201,0.39,3.161,0.972c1.068,0.646,1.198,1.976-0.284,2.232c-1.073,0.185-2.161,0.273-3.24,0.36
				c-1.219,0.186-2.441,0.304-3.662,0.355c3.436,1.275,8.156,3.277,8.331,4.716c0.155,1.272-3.703,0.803-7.13,0.143
				c1.362,0.934,2.654,2.002,3.854,3.194c0.226,0.225,0.45,0.454,0.67,0.688c0.808,0.859,0.69,2.026-0.547,1.953
				c-1.296-0.076-2.63-0.838-3.785-1.404c-0.612-0.26-1.221-0.528-1.823-0.814c-0.405-0.192-0.805-0.394-1.204-0.598
				c0.221,0.311,0.426,0.638,0.622,0.971c1.566,1.812,3.25,4.29,3.137,5.557c-0.265,2.971-6.105-4.227-7.002-5.223
				c-0.083-0.092-0.17-0.184-0.265-0.258c-0.396-0.078-0.797-0.099-1.2-0.089c-0.228,0.018-0.455,0.032-0.682,0.042
				c-1.073,0.102-2.157,0.334-3.219,0.262c-1.223-0.083-2.509-0.315-3.612-0.892c-0.508-0.266-0.989-0.642-1.332-1.156
				c-0.16-0.24-0.531-1.501-0.753-1.513c-0.483-0.025-1.907-0.103-3.97-0.264c0.069-3.611,0.238-7.222,0.641-10.819
				C121.216,211.511,122.378,212.276,123.445,213.104z"/>
		</g>
		<g>
			<g>
				<path style="fill:#F2EDF7;" d="M376.496,154.207c-6.543-5.971-10.59-14.223-10.59-23.337c0-18.222,16.174-32.994,36.126-32.994
					s36.126,14.772,36.126,32.994c0,18.222-16.174,32.994-36.126,32.994c-5.94,0-11.539-1.317-16.482-3.637
					c-3.179,2.064-6.571,3.861-9.879,5.683c-0.656,0.361-1.286-0.232-1.176-0.904C375.09,161.394,375.772,157.796,376.496,154.207z"
					/>
			</g>
			<path style="fill:#F0626E;" d="M420.144,124.576c0.098-4.81-4.106-7.897-8.718-7.224c-3.203,0.468-7.445,2.626-9.302,5.746
				c-1.243-2.39-3.054-4.48-5.422-5.796c-2.897-1.61-6.894-1.614-9.623,0.372c-3.002,2.185-3.238,5.984-2.522,9.345
				c0.852,4.004,2.851,7.681,5.412,10.848c3.084,3.813,7.151,7.823,11.632,9.923c0.103,0.048,0.213,0.057,0.318,0.038
				c0.13,0.062,0.287,0.072,0.465-0.005c2.381-1.029,4.507-2.808,6.537-4.403c2.092-1.644,3.988-3.56,5.63-5.655
				C417.465,134.046,420.046,129.413,420.144,124.576z"/>
		</g>
		<g>
			<path style="fill:#213150;" d="M268.665,209.337c2.157,0.473,4.301,1.068,6.469,1.66c5.468,1.491,10.836,2.8,16.508,3.176
				c18.254,1.209,36.235-1.192,53.224-8.138c7.172-2.932,14.014-6.648,20.471-10.961c-0.507-0.53-1.008-1.066-1.491-1.621
				c0.215,0.212,0.426,0.427,0.643,0.637c0.318,0.307,0.641,0.607,0.962,0.909c0.154-0.103,0.306-0.208,0.46-0.312
				c-1.757-1.645-3.462-3.359-5.065-5.174c-0.975-1.487-1.833-3.063-2.523-4.73c-1.029-2.485-1.618-5.143-1.953-7.86
				c-0.367-2.977-0.463-5.996-0.658-8.998c-0.174-2.685-0.397-5.365-0.729-8.026c-0.672-5.388-1.802-10.73-3.889-15.642
				c-3.549-8.354-10.539-15.657-19.502-16.808c-0.214-0.028-0.43-0.049-0.645-0.069c0.09-0.05,0.184-0.092,0.273-0.145
				c1.16-0.697,2.314-1.682,3.066-2.869c0.352-0.555,0.538-1.256,0.184-1.825c-0.283-0.454-0.819-0.689-1.335-0.68
				c-0.873,0.016-1.618,0.67-2.219,1.423c0.32-1.015,0.5-2.146,0.177-3.083c-0.17-0.494-0.512-0.905-1.026-0.979
				c-0.52-0.075-0.984,0.235-1.308,0.667c-0.387,0.516-0.579,1.139-0.696,1.768c-0.142,0.764-0.217,1.538-0.214,2.31
				c0.003,0.842,0.095,1.674,0.266,2.483c-2.728-3.49-7.269-4.881-11.419-5.67c-4.992-0.949-10.183-0.948-15.262,0.038
				c-13.582,2.638-23.086,15.56-26.946,28.979c-2.057,7.15-2.444,13.967-1.2,21.085c2.247,12.865-2.138,23.596-4.261,36.142
				C268.898,207.793,268.777,208.564,268.665,209.337z"/>
			<path style="fill:#FFBAA6;" d="M305.129,231.245c0.581-4.284,2.129-12.131-0.506-15.931c-0.945-1.363-2.519-2.206-4.15-2.507
				c-1.631-0.301-3.318-0.102-4.928,0.297c-7.204,1.789-11.631,7.313-15.232,13.416c-5.965,10.109-11.09,22.603-18.343,32.615
				c-1.217-1.093-2.399-2.073-3.211-2.839c-7.148-6.746-15.213-13.025-20.205-21.557c-0.353,0.22-0.705,0.44-1.058,0.66
				c-1.956,1.219-3.925,2.416-5.894,3.615c-0.681,0.415-1.36,0.833-2.042,1.245c1.042,1.937,1.816,4.075,2.714,6.003
				c3.337,7.164,7.271,14.048,11.754,20.557c2.27,3.296,4.68,6.496,7.221,9.587c3.621,4.404,7.921,10.411,14.009,11.192
				c7.144,0.916,12.784-5.436,17.164-10.126C294.077,264.989,302.823,248.25,305.129,231.245z"/>
			<g>
				<path style="fill:#FFBAA6;" d="M223.101,228.49c-0.002-0.624,0.056-1.252,0.18-1.864c0.102-0.5,0.232-1.057,0.616-1.422
					c0.405-0.386,1.001-0.398,1.479-0.143c0.008,0.004,0.014,0.01,0.022,0.014c0.216-0.979,0.611-1.894,1.334-2.54
					c0.654-0.585,1.512-0.202,2.15,0.194c-0.518-0.322-0.349-1.217,0.003-1.546c0.414-0.387,1.039-0.522,1.651-0.494
					c-1.151-1.768-2.165-3.626-3.007-5.565c-0.239-0.55-0.5-1.109-0.674-1.685c-0.146-0.483-0.175-1.017,0.129-1.446
					c0.733-1.036,2.002,0.03,2.644,0.613c0.88,0.798,1.6,1.754,2.326,2.689c0.773,0.996,1.541,1.995,2.257,3.033
					c0.791,1.145,1.514,2.339,2.102,3.601c0.52,1.116,0.897,2.314,1.645,3.301c0.517,0.353,1.006,0.747,1.456,1.187
					c1.035,1.011,0.682,2.216,0.509,3.515c-0.226,1.697-0.451,3.395-0.677,5.092c-0.063,0.474-0.064,1.03-0.377,1.421
					c-0.326,0.408-0.887,0.668-1.316,0.949l-3.028,1.979l-3.506,2.292c-0.071,0.046-0.18,0.064-0.256,0.016
					c-1.996-1.235-3.418-3.072-4.462-5.147c-0.197-0.392-0.354-0.805-0.49-1.227c-0.818-0.918-1.495-1.958-1.964-3.108
					C223.365,231.027,223.105,229.756,223.101,228.49z"/>
				<path style="opacity:0.4;fill:#320032;" d="M225.955,234.498c0.706-0.117,1.225-0.695,1.48-1.336
					c0.133-0.333,0.185-0.687,0.19-1.044c-0.001-0.018-0.002-0.035,0-0.053c-0.001-0.479-0.088-0.964-0.205-1.416
					c-0.439-1.699-1.145-3.354-1.963-4.903c-0.151-0.287,0.269-0.573,0.421-0.284c0.475,0.899,0.902,1.822,1.271,2.77
					c0.364,0.934,0.713,1.9,0.892,2.888c0.051,0.28,0.08,0.567,0.085,0.854c0.706,0.626,1.795,0.613,2.439-0.119
					c0.712-0.809,0.494-1.98,0.258-2.948c-0.126,0.002-0.251,0.005-0.377,0.002c-0.68-0.021-1.359-0.119-2.012-0.312
					c-0.507-0.15-1.056-0.403-1.326-0.884c-0.67-1.195,1.171-2.044,1.969-2.467c0.204-0.108,0.414-0.204,0.623-0.302
					c-0.16-0.708-0.489-1.356-0.969-1.901c-0.091-0.103-0.035-0.283,0.069-0.353c0.126-0.085,0.262-0.035,0.353,0.069
					c0.493,0.56,0.842,1.245,1.014,1.971c0.614-0.263,1.246-0.481,1.891-0.657c-0.246-1.125-0.738-2.186-1.438-3.1
					c-0.199-0.261,0.223-0.543,0.421-0.284c0.738,0.965,1.236,2.08,1.502,3.261c0.149-0.035,0.298-0.072,0.448-0.102
					c1.265-0.252,2.769-0.38,3.79,0.57c0.239,0.223-0.095,0.605-0.335,0.382c-0.762-0.71-1.874-0.695-2.843-0.548
					c-0.377,0.057-0.751,0.139-1.122,0.231c-0.033,0.018-0.068,0.031-0.102,0.034c-0.006,0-0.011-0.002-0.017-0.002
					c-0.736,0.19-1.459,0.437-2.152,0.743c-0.562,0.248-1.105,0.534-1.629,0.855c-0.37,0.227-1.04,0.547-1.097,1.038
					c-0.062,0.532,0.644,0.827,1.052,0.949c0.554,0.166,1.135,0.266,1.712,0.296c0.22,0.012,0.44,0.011,0.659,0.004
					c0.077-0.043,0.168-0.051,0.24-0.01c1.043-0.064,2.071-0.332,3.006-0.805c0.289-0.146,0.576,0.274,0.284,0.422
					c-0.188,0.095-0.38,0.18-0.573,0.261c-0.018,0.038-0.045,0.074-0.094,0.1c-1.438,0.795-1.734,2.612-1.083,4.022
					c0.734,1.589,2.352,2.484,3.96,2.969c0.31,0.094,0.211,0.592-0.103,0.498c-1.823-0.55-3.596-1.573-4.379-3.395
					c-0.533-1.24-0.393-2.758,0.448-3.783c-0.419,0.102-0.846,0.168-1.277,0.204c0.265,1.151,0.432,2.491-0.473,3.399
					c-0.747,0.749-1.909,0.855-2.771,0.311c-0.052,0.394-0.163,0.777-0.362,1.131c-0.376,0.669-0.978,1.156-1.742,1.283
					C225.665,235.058,225.635,234.551,225.955,234.498z"/>
			</g>
			<path style="fill:#FFBAA6;" d="M361.955,352.84c-0.063,0.219-0.134,0.436-0.2,0.654c-0.368-0.216-0.728-0.42-1.074-0.61
				c-3.593-1.969-7.638-3.101-11.68-3.659c-3.858-0.532-7.697-0.432-11.546,0.122c-4.69,0.675-9.201,2.362-13.974,2.432
				c-4.775,0.071-9.013-1.965-13.582-3.011c-3.933-0.901-7.876-0.928-11.811,0.013c-3.888,0.93-7.384,2.655-10.515,4.909
				c-0.482,0.217-0.962,0.435-1.438,0.658c0.023,0.074,0.044,0.149,0.068,0.223c0.02,0.062,0.012,0.115-0.007,0.16
				c-0.06,0.047-0.12,0.095-0.179,0.143c-0.119,0.025-0.256-0.019-0.304-0.168c-0.198-0.619-0.389-1.241-0.569-1.866
				c-1.479-5.12-2.329-10.421-2.564-15.745c-0.236-5.327,0.149-10.681,1.129-15.922c0.976-5.218,2.553-10.321,4.706-15.174
				c2.222-5.006,5.174-9.576,8.176-14.14c2.721-4.138,5.427-8.339,7.325-12.926c1.106,0.201,2.229,0.368,3.363,0.54
				c5.802,0.879,12.086,1.433,18.121,1.299c5.306-0.118,12.636-0.089,17.319-3.02c1.902,5.052,4.839,9.617,7.791,14.107
				c3.001,4.564,5.954,9.134,8.176,14.14c2.154,4.853,3.73,9.956,4.706,15.174c0.98,5.241,1.364,10.595,1.128,15.922
				C364.283,342.419,363.434,347.72,361.955,352.84z"/>
			<path style="fill:#FFBAA6;" d="M281.474,228.866c3.925-17.932,29.98-24.725,45.655-22.844
				c11.139,1.337,27.982,5.865,32.268,17.822c0.499,1.393,0.768,2.823,0.859,4.271c-5.601,11.246-10.705,22.641-13.861,34.892
				c-1.763,6.844-2.978,13.812-3.353,20.877c-0.052,0.97-0.078,1.938-0.082,2.905c-0.436,0.387-0.901,0.759-1.402,1.112
				c-9.206,6.482-24.085,7.513-34.17,2.202c-0.542-0.285-1.051-0.595-1.534-0.923c-0.128-0.958-0.279-1.915-0.454-2.87
				c-1.279-6.958-3.377-13.713-6.005-20.274c-4.703-11.744-11.228-22.389-18.226-32.824
				C281.075,231.765,281.158,230.311,281.474,228.866z"/>
			<path style="fill:#FFBAA6;" d="M334.154,337.578c-0.151-3.773-1.237-7.466-2.606-10.984c-1.448-3.722-3.719-5.887-7.8-6.236
				c-7.22-0.617-14.51,1.3-21.474,2.99c-15.623,3.802-31.142,7.943-46.623,12.281c-1.517,0.425-3.041,0.853-4.471,1.513
				c-2.022,0.933-3.804,2.306-5.567,3.668c-9.57,7.389-6.491,21.419-4.816,32.011c1.232,7.793,2.582,15.567,4.083,23.313
				c1.6,8.257,3.352,16.484,5.214,24.686c0.429,1.89,0.928,3.774,1.306,5.674c0.554,2.784,0.38,2.666-2.077,4.128
				c-2.854,1.698-5.829,3.224-8.686,4.905c-1.083,0.361-2.195,0.619-3.34,0.728c-1.69,0.16-3.363,0.205-4.946,0.888
				c-0.805,0.348-4.097,1.921-4.209,2.898c-0.35,3.081,16.822,1.56,18.484,1.448c4.084-0.274,8.165-0.642,12.233-1.1
				c4.503-0.507,5.918-1.311,5.958-6.173c0.096-11.899,0.668-23.763,0.668-35.676c-0.01-11.394-0.089-22.787-0.206-34.181
				c18.109-3.823,36.21-7.684,54.32-11.489C327.691,351.17,334.558,347.665,334.154,337.578z"/>
			<path style="fill:#FFBAA6;" d="M429.262,397.243c-2.565-3.191-5.204-6.324-7.911-9.395c-2.996-3.4-4.465-4.099-8.473-1.345
				c-9.807,6.739-19.859,13.067-29.623,19.893c-2.201,1.541-4.395,3.09-6.591,4.638c-0.178-1.35-0.366-2.698-0.578-4.042
				c-0.716-4.555-1.578-9.082-2.356-13.624c-2.995-13.396-6.313-26.715-9.916-39.933c-1.885-6.913-3.728-14.223-7.755-20.246
				c-2.276-3.404-5.269-4.347-9.227-3.817c-3.742,0.501-7.5,1.334-10.876,3.024c-9.028,4.519-8.78,12.225-6.359,20.133
				c8.151,26.628,16.576,53.258,28.692,78.4c0.71,1.474,1.436,2.95,2.394,4.276c11.103,15.377,24.475-2.351,32.406-10.543
				c5.85-6.043,11.59-12.192,17.245-18.417c1.303-1.434,2.561-2.923,3.902-4.322c1.964-2.049,1.967-1.839,4.574-0.663
				c3.027,1.366,5.983,2.93,8.997,4.309c0.916,0.68,1.765,1.444,2.51,2.321c1.099,1.293,2.095,2.639,3.562,3.545
				c0.746,0.461,3.922,2.257,4.787,1.789C441.391,411.744,430.306,398.541,429.262,397.243z"/>
			<path style="fill:#00BCC0;" d="M405.684,398.313c-1.125-1.584-2.418-3.187-3.646-4.838c-0.923,0.61-1.844,1.22-2.756,1.822
				c-5.328,3.52-10.837,7.16-16.173,10.89c-1.932,1.352-3.858,2.711-5.785,4.07l-0.463,0.326c-0.181-1.361-0.349-2.524-0.523-3.632
				c-0.456-2.898-0.979-5.833-1.485-8.672c-0.294-1.651-0.589-3.303-0.874-4.969c-2.938-13.139-6.275-26.579-9.919-39.944
				l-0.315-1.157c-0.231-0.851-0.463-1.705-0.7-2.561c0.956-4.081,1.54-8.285,1.728-12.543c0.235-5.327-0.146-10.704-1.133-15.981
				c-0.983-5.259-2.572-10.383-4.723-15.231c-1.453-3.275-3.214-6.354-5.183-9.5c-8.523,2.894-17.599,4.381-26.299,4.678
				c-11.413,0.39-22.546-2.039-32.901-6.522c-2.446,3.802-4.617,7.432-6.353,11.344c-2.151,4.848-3.74,9.971-4.723,15.231
				c-0.431,2.302-0.739,4.623-0.938,6.95c-8.525,2.228-17.455,4.65-26.942,7.309c-1.503,0.422-3.057,0.858-4.505,1.526
				c-2.058,0.95-3.866,2.347-5.616,3.698c-9.04,6.98-6.949,19.773-5.268,30.052c0.123,0.747,0.242,1.481,0.356,2.2
				c1.303,8.235,2.639,15.863,4.085,23.322c1.536,7.924,3.241,16.001,5.215,24.694c0.106,0.467,0.219,0.933,0.33,1.4
				c4.962-0.544,10.129-0.378,14.996-0.625c0.044-0.002,0.087-0.005,0.131-0.007c0.031-1.211,0.062-2.419,0.094-3.615
				c0.168-6.382,0.341-12.981,0.341-19.489c-0.009-10.308-0.076-21.424-0.204-33.976c7.297-1.54,14.593-3.087,21.889-4.634
				c10.742-2.277,21.483-4.554,32.227-6.812c1.379-0.29,2.794-0.642,4.178-1.099c1.747-0.054,3.471-0.311,5.166-0.65
				c0.116,0.416,0.236,0.827,0.36,1.232c8.663,28.3,16.802,53.735,28.706,78.436c0.767,1.592,1.479,3.016,2.417,4.315
				c2.798,3.874,5.976,5.945,9.445,6.155c0.199,0.012,0.396,0.018,0.595,0.018c7.291-0.001,14.644-7.954,20.051-13.804
				c0.957-1.036,1.862-2.014,2.704-2.884c5.607-5.792,11.25-11.818,17.25-18.423c0.132-0.145,0.261-0.294,0.392-0.44
				C409.201,403.4,407.475,400.835,405.684,398.313z"/>
			<path style="opacity:0.4;fill:#320032;" d="M325.7,287.701c-0.149-0.526-0.541-0.975-1.059-1.159
				c-0.57-0.203-1.314,0.014-1.573,0.591c-0.232,0.516,0.06,1.232,0.646,1.332c0.32,0.054,0.457-0.435,0.135-0.49
				c-0.342-0.058-0.46-0.489-0.25-0.747c0.258-0.317,0.745-0.31,1.07-0.115c0.82,0.491,0.681,1.589,0.06,2.175
				c-0.551,0.519-1.389,0.578-2.065,0.282c-0.676-0.297-1.128-0.925-1.109-1.673c0.02-0.816,0.559-1.625,1.352-1.869
				c0.312-0.096,0.179-0.586-0.135-0.49c-0.977,0.3-1.635,1.23-1.719,2.232c-0.087,1.047,0.576,1.944,1.532,2.313
				c0.986,0.381,2.129,0.121,2.77-0.74C325.7,288.879,325.859,288.264,325.7,287.701z"/>
			<path style="fill:#213150;" d="M258.741,436.496c-3.944,0.671-7.823,0.829-11.529,0.466c-2.63-0.257-5.151-0.713-7.495-1.356
				l-0.068-0.018l-0.068,0.019c-0.844,0.237-1.682,0.396-2.49,0.472c-0.252,0.024-0.504,0.045-0.755,0.066
				c-1.418,0.12-2.884,0.244-4.268,0.841c-0.172,0.074-4.215,1.836-4.361,3.103c-0.037,0.322,0.069,0.615,0.314,0.87
				c0.858,0.891,3.613,1.337,8.221,1.337c2.633,0,5.871-0.145,9.706-0.438l0.512-0.038c4.055-0.272,8.174-0.643,12.244-1.101
				c4.44-0.5,5.952-1.374,6.159-5.557l0.021-0.42l-0.382,0.178C262.719,435.748,260.589,436.181,258.741,436.496z"/>
			<path style="fill:#213150;" d="M438.803,413.497c-1.117,0.614-4.892-1.667-5.053-1.764c-1.286-0.784-2.234-1.907-3.151-2.994
				c-0.163-0.193-0.327-0.387-0.493-0.58c-0.529-0.615-1.143-1.207-1.825-1.759l-0.055-0.044l-0.024-0.066
				c-0.83-2.284-1.915-4.605-3.226-6.899c-1.848-3.235-4.218-6.309-7.045-9.138c-1.325-1.326-2.91-2.814-4.62-3.791l-0.366-0.209
				l0.355-0.226c3.533-2.25,5.12-1.521,8.095,1.813c2.727,3.056,5.411,6.203,7.977,9.354l0.327,0.396
				c2.455,2.961,4.446,5.518,5.968,7.667c2.663,3.759,3.892,6.266,3.661,7.481C439.265,413.085,439.087,413.341,438.803,413.497z"/>
			<path style="opacity:0.4;fill:#320032;" d="M401.571,396.556c-7.571,3.829-14.153,9.269-20.381,14.966
				c-1.666,1.524-3.31,3.071-4.954,4.619c-1.41-6.446-2.901-12.874-4.477-19.281c-1.611-6.547-3.31-13.073-5.094-19.576
				c-1.785-6.502-3.656-12.981-5.613-19.433c-0.948-3.126-2.307-6.384-2.188-9.702c0.062-1.727,0.448-3.424,0.701-5.128
				c0.231-1.553,0.407-3.114,0.524-4.679c0.486-6.477-0.011-13.03-1.469-19.359c-0.179-0.776-0.374-1.548-0.581-2.316
				c1.142-0.525,2.216-1.195,3.178-2.011c0.25-0.212-0.111-0.57-0.359-0.359c-2.961,2.509-7.041,3.613-10.871,3.033
				c-3.738-0.566-7.041-2.787-9.115-5.931c-1.14-1.728-1.903-3.706-2.152-5.765c-0.001-0.004-0.003-0.007-0.004-0.011
				c1.017-0.19,2.031-0.403,3.038-0.639c4.082-0.955,8.073-2.289,11.904-3.992c0.481-0.214,0.959-0.434,1.435-0.659
				c0.295-0.14,0.038-0.578-0.257-0.439c-3.782,1.789-7.736,3.207-11.788,4.249c-4.035,1.037-8.163,1.702-12.318,1.995
				c-4.146,0.292-8.317,0.218-12.449-0.22c-4.142-0.44-8.246-1.252-12.242-2.428c-3.996-1.176-7.883-2.718-11.588-4.623
				c-0.468-0.241-0.933-0.487-1.395-0.74c-0.287-0.156-0.544,0.282-0.256,0.439c2.451,1.335,4.987,2.509,7.587,3.524
				c-0.812,2.256-1.944,4.602-3.728,6.245c-1.573,1.448-3.681,2.283-5.809,2.393c-1.201,0.062-2.395-0.108-3.529-0.511
				c-0.309-0.11-0.441,0.381-0.135,0.49c2.108,0.75,4.465,0.706,6.566-0.051c2.265-0.817,3.999-2.406,5.246-4.443
				c0.758-1.239,1.364-2.575,1.86-3.941c1.152,0.44,2.315,0.853,3.489,1.229c3.759,1.204,7.621,2.072,11.529,2.623
				c-0.186,3.368-0.267,6.741-0.241,10.114c0.013,1.645,0.051,3.29,0.115,4.933c0.03,0.771,0.03,1.562,0.211,2.316
				c0.168,0.706,0.543,1.303,0.983,1.871c1.07,1.381,2.177,2.734,3.27,4.098c0.117,4.065,0.394,8.126,0.839,12.169
				c0.219,1.99,0.483,3.974,0.78,5.953c-0.054-0.078-0.147-0.129-0.265-0.101c-7.775,1.816-15.549,3.632-23.324,5.448l-23.183,5.415
				c-1.967,0.459-3.934,0.919-5.901,1.378c-1.4,0.327-2.815,0.665-4.106,1.315c-1.197,0.602-2.238,1.513-2.738,2.781
				c-0.322,0.816-0.398,1.706-0.418,2.576c-0.022,0.977-0.006,1.956-0.006,2.932c0.001,7.924,0.002,15.847,0.003,23.77
				c0.001,7.971,0.002,15.943,0.003,23.914c0,0.96,0,1.921,0,2.881c0,0.327,0.508,0.328,0.508,0
				c-0.001-7.875-0.002-15.751-0.003-23.626c-0.001-7.827-0.002-15.655-0.003-23.482c0-1.958-0.007-3.917,0-5.875
				c0.006-1.667,0.195-3.297,1.487-4.482c1.044-0.957,2.447-1.447,3.789-1.815c1.74-0.478,3.515-0.842,5.272-1.252
				c7.634-1.783,15.268-3.566,22.902-5.349c7.681-1.794,15.362-3.588,23.042-5.383c0.937-0.219,1.873-0.438,2.81-0.656
				c0.093-0.022,0.144-0.081,0.166-0.15c0.18,1.182,0.369,2.363,0.576,3.541c0.057,0.322,0.547,0.185,0.49-0.135
				c-1.012-5.741-1.689-11.538-2.026-17.358c-0.081-1.391-0.141-2.783-0.183-4.176c0.089-0.09,0.127-0.243,0.027-0.369l-0.038-0.048
				c-0.118-4.276-0.055-8.557,0.192-12.827c0.187-3.25,0.482-6.493,0.879-9.724c0.001-0.005-0.002-0.009-0.001-0.014
				c2.49,0.14,4.986,0.151,7.477,0.028c3.005-0.149,6.001-0.492,8.963-1.024c0.483,3.792,2.565,7.272,5.612,9.569
				c3.227,2.434,7.41,3.226,11.337,2.357c0.821-0.181,1.623-0.436,2.396-0.757c1.687,6.309,2.413,12.857,2.135,19.383
				c-0.07,1.64-0.202,3.278-0.398,4.909c-0.2,1.666-0.518,3.31-0.754,4.97c-0.226,1.587-0.269,3.149,0.007,4.732
				c0.283,1.627,0.807,3.202,1.291,4.777c1.978,6.446,3.87,12.919,5.675,19.415c1.797,6.466,3.508,12.954,5.133,19.464
				c1.633,6.542,3.179,13.106,4.637,19.689c0.183,0.827,0.365,1.654,0.545,2.481c0.042,0.194,0.293,0.237,0.425,0.112
				c6.143-5.789,12.336-11.621,19.423-16.258c1.981-1.296,4.026-2.49,6.139-3.558C402.12,396.847,401.863,396.408,401.571,396.556z
				 M321.277,306.72c-0.714,5.808-1.092,11.656-1.127,17.507c-0.009,1.462,0.004,2.924,0.038,4.385
				c-0.819-1.025-1.638-2.051-2.458-3.076c-0.456-0.571-0.949-1.148-1.185-1.852c-0.243-0.725-0.246-1.506-0.276-2.262
				c-0.131-3.245-0.163-6.494-0.096-9.741c0.038-1.83,0.108-3.66,0.209-5.488c0.094,0.012,0.187,0.027,0.281,0.039
				c1.537,0.199,3.081,0.347,4.628,0.445C321.287,306.692,321.279,306.704,321.277,306.72z"/>
			<path style="fill:#FFBAA6;" d="M425.934,230.458c-1.93-2.638-3.855-5.272-5.613-8.018c-6.542,2.727-13.635,4.317-20.418,6.327
				c-9.451,2.799-19.307-2.299-27.754-6.095c-8.683-3.902-17.09-8.388-25.795-12.243c-6.48-2.87-13.294-4.788-20.194-2.052
				c-1.542,0.611-3.03,1.431-4.181,2.625c-1.151,1.193-1.941,2.795-1.917,4.453c0.067,4.624,5.891,10.106,8.855,13.253
				c10.966,11.639,25.887,18.352,41.257,22.192c6.725,1.68,13.792,2.428,20.68,1.381c0.658-0.1,1.304-0.225,1.941-0.373
				c5.603-1.301,10.446-4.343,15.502-7.1c6.369-3.473,13.135-7.371,18.728-12.026c0.056-0.046,0.11-0.093,0.165-0.14
				c0.069-0.056,0.136-0.114,0.205-0.171C426.909,231.799,426.424,231.127,425.934,230.458z"/>
			<path style="fill:#908DA6;" d="M401.438,228.325c-0.512,0.147-1.026,0.292-1.536,0.443c-9.451,2.799-19.307-2.299-27.755-6.095
				c-8.251-3.708-16.257-7.937-24.502-11.657c-7.833,8.361-18.231,14.329-29.731,15.564c-6.368,0.684-12.906,0.13-18.794-2.487
				c-2.993-1.331-5.697-3.231-8.379-5.09c-0.916-0.635-1.938-1.245-2.962-1.874c-3.017,2.53-5.383,5.859-7.467,9.391
				c-5.965,10.109-11.09,22.602-18.343,32.615c-1.218-1.093-2.399-2.073-3.211-2.839c-1.534-1.447-3.109-2.874-4.686-4.306
				c-2.38,3.07-5.888,5.433-9.134,7.292c-1.423,0.815-2.893,1.547-4.396,2.206c1.124,1.801,2.281,3.582,3.485,5.331
				c2.27,3.296,4.68,6.496,7.221,9.587c3.621,4.404,7.921,10.411,14.009,11.192c7.144,0.916,12.784-5.435,17.164-10.126
				c5.233-5.605,9.876-12.069,13.617-19.029c1.196,2.486,2.322,5.012,3.357,7.594c1.727,4.312,3.219,8.711,4.406,13.193
				c0.42,0.115,0.844,0.22,1.275,0.302c2.222,0.423,4.547,0.56,6.806,0.627c4.234,0.124,8.488-0.025,12.712-0.328
				c6.663-0.479,12.985-1.765,19.189-3.695c0.602-4.421,1.496-8.8,2.611-13.128c1.601-6.215,3.705-12.209,6.119-18.075
				c5.677,2.512,11.632,4.462,17.658,5.968c6.725,1.68,13.792,2.428,20.68,1.38c0.658-0.1,1.304-0.225,1.941-0.373
				c5.571-1.294,10.391-4.309,15.415-7.053C404.827,239.88,402.42,234.316,401.438,228.325z"/>
			<g>
				<path style="fill:#FFBAA6;" d="M436.152,216.687c-0.391-0.738-1.26-0.747-2.03-0.567c0.001-0.004,0.002-0.008,0.003-0.012
					c0.03-0.029,0.06-0.057,0.09-0.086c-0.03,0.029-0.058,0.047-0.085,0.065c0.082-0.43,0.093-0.871-0.052-1.292
					c-0.192-0.558-0.649-0.967-1.179-1.202c-0.55-0.243-1.173-0.263-1.761-0.182c-0.266,0.037-0.526,0.1-0.785,0.166
					c-0.001-0.001-0.003-0.002-0.005-0.004c-0.101-1.657-1.98-1.401-3.036-0.863c-0.96,0.488-1.147,1.432-1.471,2.375
					c-1.006,0.144-1.993,0.426-2.928,0.843c-1.321,0.589-1.408,1.842-1.697,3.12c-0.377,1.67-0.755,3.34-1.132,5.01
					c-0.105,0.466-0.297,0.988-0.139,1.464c0.165,0.495,0.6,0.934,0.905,1.346l2.153,2.907l2.493,3.366
					c0.051,0.068,0.146,0.122,0.235,0.104c2.3-0.466,4.272-1.696,5.971-3.279c0.321-0.299,0.611-0.632,0.885-0.981
					c1.086-0.577,2.081-1.318,2.921-2.233c0.856-0.933,1.54-2.035,1.983-3.221c0.219-0.585,0.383-1.194,0.478-1.811
					c0.078-0.504,0.149-1.072-0.084-1.547c-0.246-0.502-0.8-0.721-1.337-0.648c-0.009,0.001-0.017,0.004-0.025,0.005
					C436.659,218.539,436.606,217.544,436.152,216.687z"/>
				<path style="opacity:0.4;fill:#320032;" d="M433.803,216.058c-0.657,0.354-1.222,0.876-1.635,1.497
					c-0.717-0.68-1.499-1.289-2.344-1.808c-0.088-0.054-0.18-0.106-0.27-0.159c0.29-0.559,0.608-1.104,0.958-1.628
					c0.181-0.271-0.237-0.56-0.42-0.287c-0.359,0.538-0.686,1.097-0.982,1.672c-0.948-0.486-2.017-0.805-3.038-0.379
					c-0.302,0.126-0.12,0.601,0.182,0.474c0.961-0.401,1.999-0.002,2.856,0.472c1.033,0.571,1.987,1.3,2.834,2.12
					c0.441,0.427,0.852,0.884,1.231,1.367c0.268,0.342,0.786,0.874,0.669,1.354c-0.126,0.521-0.891,0.553-1.316,0.525
					c-0.577-0.037-1.156-0.145-1.708-0.316c-0.21-0.065-0.416-0.143-0.62-0.225c-0.058-0.067-0.14-0.106-0.221-0.093
					c-0.956-0.422-1.827-1.03-2.54-1.797c-0.22-0.237-0.635,0.057-0.413,0.297c0.143,0.154,0.293,0.301,0.447,0.444
					c0.004,0.042,0.017,0.085,0.054,0.127c1.073,1.245,0.72,3.051-0.38,4.148c-1.239,1.236-3.068,1.514-4.744,1.411
					c-0.324-0.02-0.403,0.483-0.076,0.503c1.901,0.117,3.919-0.227,5.285-1.665c0.93-0.978,1.325-2.451,0.892-3.704
					c0.358,0.241,0.735,0.451,1.127,0.634c-0.648,0.988-1.27,2.187-0.735,3.352c0.441,0.962,1.493,1.464,2.491,1.253
					c-0.088,0.387-0.117,0.786-0.053,1.186c0.121,0.758,0.516,1.423,1.189,1.808c0.284,0.162,0.488-0.304,0.207-0.464
					c-0.622-0.355-0.907-1.077-0.924-1.767c-0.009-0.359,0.065-0.708,0.184-1.045c0.008-0.017,0.014-0.032,0.018-0.05
					c0.167-0.449,0.417-0.873,0.684-1.257c1.001-1.441,2.238-2.748,3.542-3.917c0.242-0.216-0.053-0.631-0.296-0.413
					c-0.757,0.679-1.478,1.396-2.153,2.157c-0.665,0.75-1.327,1.534-1.839,2.399c-0.145,0.245-0.272,0.504-0.376,0.771
					c-0.88,0.342-1.896-0.048-2.246-0.958c-0.387-1.005,0.224-2.029,0.781-2.854c0.117,0.046,0.234,0.092,0.353,0.132
					c0.645,0.216,1.316,0.36,1.996,0.405c0.527,0.035,1.13-0.011,1.55-0.369c1.043-0.888-0.389-2.324-0.991-2.997
					c-0.154-0.172-0.318-0.335-0.48-0.499c0.395-0.608,0.929-1.102,1.568-1.446c0.121-0.065,0.131-0.253,0.058-0.355
					C434.069,215.992,433.924,215.992,433.803,216.058z"/>
			</g>
			<path style="fill:#213150;" d="M463.372,248.33c-1.802-2.556-3.883-4.928-6.184-7.052c-4.064-3.75-8.753-6.737-13.935-8.876
				c-4.818-1.988-9.871-3.125-15.025-3.381c-0.051-0.07-0.111-0.13-0.18-0.179c-0.007-0.108-0.012-0.216-0.017-0.326
				c-0.013-0.334-0.015-0.673-0.005-1.006c0.02-0.673,0.086-1.342,0.196-1.987c0.22-1.289,0.6-2.53,1.13-3.689
				c0.557-1.219,1.269-2.343,2.114-3.341c0.2-0.236,0.407-0.468,0.614-0.7c0.674-0.757,1.372-1.539,1.861-2.484
				c1.046-2.022,0.709-4.543-0.86-6.424c-1.576-1.889-4.117-2.507-6.325-1.539c-1.251,0.55-2.304,1.516-2.964,2.721
				c-0.342,0.625-0.56,1.284-0.649,1.959c-0.112,0.854,0.032,1.655,0.204,2.394c0.061,0.263,0.248,0.466,0.499,0.542
				c0.262,0.079,0.561,0.009,0.764-0.182c0.199-0.186,0.28-0.458,0.216-0.726c-0.165-0.712-0.257-1.308-0.165-1.905
				c0.074-0.481,0.242-0.955,0.5-1.408c0.536-0.941,1.404-1.697,2.382-2.076c0.978-0.378,2.006-0.36,2.891,0.049
				c0.839,0.387,1.566,1.093,2.047,1.987c0.478,0.892,0.658,1.872,0.503,2.761c-0.199,1.152-0.972,2.104-1.814,3.057
				c-0.823,0.932-1.762,2.032-2.491,3.294c-0.692,1.2-1.23,2.487-1.599,3.826c-0.421,1.53-0.616,3.093-0.582,4.647
				c0.004,0.187,0.01,0.381,0.022,0.578c-0.046,0.034-0.086,0.074-0.122,0.118c-5.354,0.187-10.622,1.337-15.665,3.417
				c-5.183,2.139-9.872,5.125-13.936,8.876c-2.302,2.125-4.383,4.498-6.183,7.051c-0.154,0.218-0.182,0.488-0.074,0.722
				c0.115,0.249,0.362,0.419,0.645,0.445c0.277,0.027,0.538-0.096,0.699-0.325c3.083-4.373,6.971-8.133,11.555-11.177
				c4.511-2.994,9.438-5.136,14.646-6.366c2.932-0.693,5.932-1.077,8.897-1.142c2.986,0.065,5.987,0.449,8.92,1.142
				c5.207,1.23,10.135,3.372,14.645,6.366c4.584,3.043,8.472,6.803,11.556,11.177c0.152,0.215,0.387,0.329,0.629,0.329
				c0.158,0,0.319-0.049,0.462-0.149C463.535,249.111,463.612,248.671,463.372,248.33z"/>
			<g>
				<path style="fill:#FE9E54;" d="M466.839,366.141c-2.142-11.425-4.661-22.874-7.685-34.098c-2.338-8.676-5.314-17.071-9.57-25.01
					c-2.066-3.855-2.568-6.788-2.232-9.745c0.742-3.152,1.646-6.369,2.735-9.697c0.002-0.006,0.004-0.012,0.006-0.018
					c4.126-12.597,10.42-24.171,16.033-33.831l0.069-0.117v-0.137c0.001-1.129-0.108-2.226-0.319-3.277
					c-0.008-0.038-0.012-0.077-0.02-0.114c-0.006-0.031-0.016-0.06-0.022-0.09c-0.071-0.33-0.15-0.657-0.242-0.977
					c-0.002-0.007-0.004-0.013-0.006-0.02c-0.119-0.414-0.254-0.82-0.396-1.221c-0.026-0.074-0.051-0.148-0.078-0.222
					c-0.144-0.393-0.299-0.779-0.465-1.159c-0.027-0.063-0.056-0.126-0.084-0.188c-0.366-0.82-0.779-1.609-1.238-2.369
					c-0.008-0.013-0.015-0.026-0.023-0.038c-0.239-0.394-0.491-0.78-0.761-1.169c-2.783-4.005-6.857-7.114-11.565-9.421
					c-0.192,0.356-0.388,0.707-0.585,1.049c-1.375,2.4-3.098,4.676-5.073,6.613c-4.842,4.749-12.583,8.714-19.498,8.48
					c-6.503-0.22-13.592-4.734-17.719-9.61c-1.688-1.995-3.085-4.123-3.993-6.584c-0.036-0.098-0.074-0.203-0.113-0.313
					c-4.872,2.005-9.77,4.816-13.252,8.723c-0.062,0.069-0.122,0.139-0.183,0.209c-0.224,0.257-0.441,0.519-0.652,0.785
					c-0.103,0.13-0.206,0.261-0.306,0.394c-0.108,0.144-0.216,0.287-0.32,0.434c-0.176,0.246-0.346,0.495-0.511,0.749
					c-0.075,0.115-0.146,0.232-0.218,0.349c-0.15,0.243-0.296,0.488-0.435,0.738c-0.049,0.089-0.099,0.177-0.147,0.266
					c-0.158,0.295-0.307,0.596-0.45,0.9c-0.041,0.087-0.082,0.173-0.121,0.261c-0.149,0.333-0.289,0.671-0.419,1.015
					c-0.028,0.074-0.054,0.149-0.081,0.224c-0.132,0.366-0.257,0.735-0.369,1.124c-0.033,0.116-0.057,0.236-0.087,0.353
					c-0.116,0.445-0.206,0.902-0.284,1.365c2.298,2.279,4.132,5.519,5.414,8.143c4.286,8.773,7.369,19.255,10.457,28.684
					c0.91,2.778,1.693,5.481,2.36,8.132c0.416,3.759,0.071,7.606-1.524,11.601c-4.056,10.162-12.116,17.987-18.059,26.993
					c-7.341,11.126-14.13,22.627-20.138,34.529c-4.423,8.761-8.316,17.804-11.359,27.139c-1.45,4.447-2.7,8.962-3.704,13.531
					c-0.316,1.438-0.568,2.909-0.813,4.388c4.549,3.386,9.472,6.274,14.561,8.767c7.944,3.892,16.305,6.876,24.75,9.475
					c9.53,2.933,19.229,5.319,29.031,7.149c9.733,1.817,19.569,3.087,29.445,3.802c7.637,0.553,15.618,1.243,23.355,1.173
					c0.221-2.236,0.419-4.475,0.579-6.718C472.209,413.761,471.236,389.589,466.839,366.141z"/>
				<path style="fill:#F2EDF7;" d="M450.976,233.223c-0.192,0.356-0.388,0.707-0.585,1.049c-1.375,2.4-3.098,4.676-5.073,6.613
					c-4.842,4.749-12.584,8.714-19.498,8.48c-6.503-0.221-13.592-4.734-17.719-9.61c-1.688-1.995-3.085-4.123-3.993-6.584
					c-0.036-0.098-0.074-0.203-0.113-0.313c-1.236,0.509-2.471,1.08-3.686,1.698c0.019-0.01,1.58,3.029,1.705,3.271
					c3.084,5.986,7.391,11.139,13.324,14.481c3.8,2.14,8.108,3.17,12.467,2.923c7.099-0.402,13.969-4.451,18.839-9.459
					c2.508-2.579,4.246-5.748,5.806-8.962c0.314-0.647,0.62-1.448,0.955-2.29C452.616,234.063,451.807,233.63,450.976,233.223z"/>
				<path style="fill:#F2EDF7;" d="M403.909,304c0.843,0.247,1.698,0.608,2.348,0.753c2.197,0.491,4.373,0.883,6.607,1.162
					c4.753,0.594,9.458,1.191,14.26,1.145c7.081-0.068,14.154-1.312,20.974-3.36c-0.809-2.334-0.978-4.368-0.746-6.412
					c0.004-0.016,0.008-0.031,0.012-0.047c-5.897,1.628-12.097,2.278-18.234,2.441c-5.407,0.143-10.726-0.337-16.105-0.787
					c-2.747-0.229-5.837-0.488-8.505-1.531C404.625,299.541,404.447,301.749,403.909,304z"/>
				<circle style="fill:#F2EDF7;" cx="410.19" cy="344.346" r="8.245"/>
				<circle style="fill:#F2EDF7;" cx="410.698" cy="379.413" r="8.245"/>
				<circle style="fill:#F2EDF7;" cx="405.108" cy="412.448" r="8.245"/>
				
					<ellipse transform="matrix(0.7071 -0.7071 0.7071 0.7071 -153.7618 426.238)" style="fill:#F2EDF7;" cx="437.634" cy="398.726" rx="8.245" ry="8.245"/>
				<circle style="fill:#F2EDF7;" cx="438.65" cy="361.117" r="8.245"/>
				<circle style="fill:#F2EDF7;" cx="437.634" cy="325.034" r="8.245"/>
				<circle style="fill:#F2EDF7;" cx="457.455" cy="420.58" r="8.245"/>
				
					<ellipse transform="matrix(0.7071 -0.7071 0.7071 0.7071 -171.6245 383.1138)" style="fill:#F2EDF7;" cx="376.647" cy="398.726" rx="8.245" ry="8.245"/>
				<g>
					<path style="fill:#F2EDF7;" d="M457.342,382.463c0,4.553,3.691,8.245,8.245,8.245c1.659,0,3.198-0.495,4.49-1.338
						c-0.462-4.917-1.055-9.818-1.794-14.695c-0.845-0.293-1.751-0.456-2.696-0.456
						C461.033,374.218,457.342,377.909,457.342,382.463z"/>
					<path style="fill:#F2EDF7;" d="M422.274,433.793c0,2.963,1.566,5.556,3.913,7.009c2.195,0.331,4.395,0.637,6.598,0.913
						c3.45-0.986,5.978-4.155,5.978-7.921c0-4.553-3.691-8.245-8.245-8.245C425.966,425.549,422.274,429.24,422.274,433.793z"/>
					<path style="fill:#F2EDF7;" d="M457.342,346.887c0,4.232,3.19,7.714,7.295,8.186c-1.065-5.068-2.211-10.125-3.452-15.149
						C458.878,341.386,457.342,343.954,457.342,346.887z"/>
					<path style="fill:#F2EDF7;" d="M362.968,372.273c-2.381,4.915-4.577,9.92-6.548,15.012c0.771,0.239,1.589,0.373,2.44,0.373
						c4.553,0,8.244-3.691,8.244-8.244C367.104,376.358,365.437,373.697,362.968,372.273z"/>
					<path style="fill:#F2EDF7;" d="M400.013,313.122c-2.611,4.525-5.866,8.67-9.086,12.828c1.506,1.979,3.879,3.263,6.558,3.263
						c4.553,0,8.244-3.691,8.244-8.245C405.729,317.297,403.328,314.19,400.013,313.122z"/>
					<path style="fill:#F2EDF7;" d="M388.642,432.293c0.524-1.084,0.824-2.297,0.824-3.582c0-4.553-3.691-8.245-8.245-8.245
						c-3.951,0-7.249,2.781-8.053,6.492c4.903,1.933,9.904,3.624,14.936,5.173C388.283,432.187,388.463,432.238,388.642,432.293z"/>
				</g>
				<circle style="fill:#F2EDF7;" cx="386.303" cy="361.117" r="8.245"/>
			</g>
			<path style="fill:#FFBAA6;" d="M430.512,213.96c-0.35,0.524-0.668,1.069-0.958,1.628c0.091,0.053,0.183,0.105,0.27,0.159
				c0.844,0.519,1.626,1.128,2.344,1.807c0.414-0.621,0.978-1.143,1.635-1.497c0.113-0.061,0.244-0.061,0.334,0.038
				c0.026-0.025,0.052-0.05,0.078-0.074c-0.029,0.029-0.057,0.047-0.085,0.065c0.082-0.43,0.092-0.871-0.052-1.292
				c-0.192-0.558-0.649-0.967-1.179-1.202c-0.55-0.243-1.173-0.263-1.761-0.182c-0.264,0.036-0.521,0.099-0.779,0.165
				C430.507,213.621,430.624,213.793,430.512,213.96z"/>
			<path style="fill:#FFBAA6;" d="M420.405,223.991c0.069,0.072,0.161,0.141,0.28,0.208c2.17,1.211,4.544,1.577,6.462-0.335
				c1.1-1.097,1.453-2.903,0.38-4.148c-0.036-0.042-0.049-0.085-0.053-0.127c-0.153-0.143-0.304-0.29-0.447-0.444
				c-0.222-0.239,0.193-0.534,0.413-0.297c0.713,0.767,1.584,1.375,2.54,1.797c0.081-0.012,0.164,0.027,0.222,0.093
				c0.204,0.083,0.409,0.16,0.62,0.225c0.552,0.172,1.131,0.279,1.708,0.316c0.425,0.027,1.189-0.005,1.316-0.526
				c0.117-0.48-0.4-1.012-0.669-1.354c-0.379-0.483-0.79-0.94-1.231-1.367c-0.847-0.821-1.801-1.549-2.834-2.12
				c-0.858-0.474-1.895-0.873-2.856-0.472c-0.303,0.126-0.484-0.349-0.182-0.475c1.021-0.426,2.09-0.107,3.038,0.379
				c0.297-0.575,0.623-1.134,0.982-1.672c0.067-0.1,0.166-0.124,0.255-0.101c-0.102-1.655-1.98-1.399-3.036-0.862
				c-0.96,0.488-1.147,1.432-1.471,2.375c-1.006,0.144-1.993,0.426-2.928,0.843c-1.321,0.589-1.408,1.842-1.697,3.12
				c-0.265,1.175-0.53,2.35-0.796,3.525C420.289,223.15,420.043,223.613,420.405,223.991z"/>
			<path style="fill:#FFBAA6;" d="M432.532,217.917c0.162,0.165,0.326,0.327,0.48,0.499c0.602,0.673,2.033,2.109,0.991,2.997
				c-0.42,0.358-1.023,0.404-1.55,0.369c-0.679-0.045-1.351-0.19-1.996-0.405c-0.12-0.04-0.236-0.087-0.354-0.132
				c-0.556,0.826-1.168,1.849-0.781,2.854c0.35,0.909,1.366,1.3,2.246,0.957c0.104-0.267,0.231-0.526,0.376-0.771
				c0.511-0.865,1.173-1.65,1.838-2.399c0.675-0.761,1.396-1.479,2.153-2.158c0.243-0.218,0.538,0.196,0.297,0.413
				c-1.304,1.169-2.54,2.476-3.542,3.917c-0.267,0.384-0.517,0.808-0.684,1.257c-0.004,0.018-0.011,0.033-0.018,0.05
				c-0.328,0.703-0.339,1.892,0.381,2.346c1.43,0.901,2.081,0.193,3.137-0.958c0.855-0.933,1.54-2.035,1.983-3.221
				c0.219-0.585,0.383-1.194,0.478-1.811c0.078-0.504,0.149-1.072-0.084-1.547c-0.246-0.502-0.8-0.72-1.337-0.647
				c-0.009,0.001-0.017,0.004-0.025,0.005c0.137-0.993,0.084-1.988-0.37-2.845c-0.385-0.728-1.236-0.746-1.994-0.571
				c0.073,0.101,0.063,0.289-0.058,0.355C433.46,216.815,432.927,217.309,432.532,217.917z"/>
			<path style="fill:#FFBAA6;" d="M286.621,169.275c-0.095-0.311-0.201-0.62-0.317-0.925c-0.916-2.392-2.505-4.556-4.711-5.838
				c-7.385-4.292-14.296,4.173-11.595,11.279c1.505,3.96,5.831,6.647,10.048,6.241c2.618-0.252,5.2-1.711,6.367-4.068
				C287.429,173.916,287.287,171.462,286.621,169.275z"/>
			<path style="opacity:0.4;fill:#320032;" d="M282.022,172.542c-3.89,1.621-8.886,1.027-12.589-1.296
				c0.066,0.852,0.247,1.708,0.565,2.545c1.505,3.96,5.831,6.646,10.048,6.24c2.618-0.252,5.2-1.711,6.367-4.068
				c0.962-1.941,0.883-4.249,0.305-6.346C285.306,170.818,283.747,171.824,282.022,172.542z"/>
			<path style="fill:#FFBAA6;" d="M337.715,165.983c0.054-0.321,0.119-0.641,0.196-0.958c0.601-2.49,1.9-4.84,3.923-6.394
				c6.773-5.204,14.714,2.303,12.947,9.697c-0.985,4.12-4.93,7.34-9.164,7.479c-2.629,0.086-5.376-1.029-6.837-3.217
				C337.51,170.689,337.336,168.236,337.715,165.983z"/>
			<path style="opacity:0.4;fill:#320032;" d="M342.696,168.632c4.066,1.109,8.944-0.122,12.319-2.901
				c0.043,0.853-0.026,1.725-0.234,2.596c-0.985,4.121-4.93,7.34-9.164,7.479c-2.629,0.086-5.376-1.029-6.837-3.217
				c-1.203-1.802-1.421-4.1-1.118-6.254C339.218,167.343,340.893,168.141,342.696,168.632z"/>
			<path style="fill:#FFBAA6;" d="M324.946,186.502c-6.009,2.865-13.067,3.013-19.934,1.585c-0.392,7.698-0.28,15.438,0.28,23.138
				c0.326,4.483,1.139,9.316,3.931,12.363c2.916,3.182,7.322,3.541,11.022,2.234c3.086-1.091,6.035-3.408,7.282-6.98
				c0.888-2.544,0.831-5.437,0.636-8.219c-0.08-1.148-0.178-2.295-0.29-3.439C327.192,200.262,326.034,193.375,324.946,186.502z"/>
			<path style="opacity:0.4;fill:#320032;" d="M324.946,186.502c-6.008,2.865-13.065,3.013-19.93,1.586
				c-0.271,5.354-0.302,10.728-0.105,16.095c5.961,6.839,14.834,7.833,23.171,5.384c-0.063-0.796-0.131-1.59-0.209-2.384
				C327.192,200.262,326.034,193.375,324.946,186.502z"/>
			<path style="fill:#FFBAA6;" d="M277.879,168.485c0.022,0.56,0.051,1.119,0.086,1.677c0.456,7.286,2.006,14.731,6.265,20.751
				c6.606,9.336,18.979,13.799,30.727,13.408c8.546-0.285,17.284-3.036,23.311-8.907c9.183-8.944,10.296-22.944,8.797-35.404
				c-1.839-15.281-11.499-30.238-28.793-31.715c-15.706-1.342-32.065,6.448-37.699,21.09
				C278.238,155.455,277.62,162.014,277.879,168.485z"/>
			<path style="opacity:0.4;fill:#320032;" d="M294.746,175.992c-5.322,0.343-9.461,3.346-9.244,6.707
				c0.217,3.361,4.707,5.808,10.029,5.465c5.322-0.343,9.461-3.346,9.244-6.707C304.558,178.095,300.068,175.648,294.746,175.992z"
				/>
			
				<ellipse transform="matrix(0.9979 -0.0643 0.0643 0.9979 -10.8725 21.7029)" style="opacity:0.4;fill:#320032;" cx="331.655" cy="179.724" rx="9.656" ry="6.099"/>
			<path style="fill:#213150;" d="M315.884,174.716c-0.205-0.255-0.595,0.072-0.389,0.327c0.291,0.361,0.282,0.985-0.076,1.318
				c-0.343,0.319-0.965,0.352-1.322,0.021c-0.009-0.009-0.02-0.014-0.03-0.021c-0.01-0.009-0.021-0.016-0.033-0.023
				c-0.014-0.008-0.027-0.014-0.041-0.02c-0.011-0.004-0.022-0.008-0.034-0.011c-0.073-0.02-0.151-0.013-0.219,0.044
				c-0.01,0.008-0.016,0.021-0.024,0.031c-0.776,0.502-1.852,0.382-2.556-0.201c-0.798-0.661-0.848-1.764-0.325-2.616
				c0.284-0.462,0.75-0.836,1.287-0.95c0.151,0.053,0.362-0.033,0.358-0.245c-0.021-1.161-0.086-2.321-0.196-3.478
				c-0.031-0.325-0.538-0.294-0.507,0.033c0.101,1.07,0.161,2.144,0.186,3.218c-1.151,0.303-1.963,1.396-1.988,2.585
				c-0.027,1.251,0.98,2.232,2.169,2.437c0.604,0.104,1.228,0.002,1.756-0.309c0.42,0.281,0.955,0.342,1.436,0.15
				c0.543-0.217,0.881-0.778,0.874-1.355C316.204,175.311,316.101,174.984,315.884,174.716z"/>
			<path style="fill:#213150;" d="M330.015,169.058c0.396-0.025,0.788-0.027,1.175-0.004c0.087-0.335,0.125-0.699,0.101-1.076
				c-0.099-1.54-1.179-2.725-2.411-2.646c-1.232,0.079-2.151,1.393-2.052,2.933c0.03,0.466,0.151,0.899,0.338,1.275
				C328.159,169.262,329.169,169.111,330.015,169.058z"/>
			<path style="fill:#213150;" d="M293.435,166.394c0.087-1.589,1.101-3.074,2.56-3.72c1.489-0.659,3.312-0.358,4.542,0.694
				c0.248,0.212-0.063,0.614-0.312,0.401c-1.101-0.941-2.706-1.214-4.041-0.623c-1.305,0.577-2.168,1.912-2.246,3.323
				C293.92,166.796,293.417,166.719,293.435,166.394z"/>
			<path style="fill:#213150;" d="M332.73,163.862c-0.29-1.565-1.487-2.908-3.016-3.361c-1.561-0.462-3.331,0.07-4.415,1.271
				c-0.219,0.243,0.141,0.601,0.361,0.358c0.971-1.075,2.528-1.551,3.927-1.137c1.368,0.405,2.396,1.618,2.654,3.008
				C332.301,164.322,332.789,164.182,332.73,163.862z"/>
			<path style="fill:#213150;" d="M296.454,171.221c-0.396,0.026-0.785,0.075-1.166,0.147c-0.13-0.321-0.214-0.677-0.238-1.054
				c-0.099-1.541,0.819-2.854,2.052-2.933c1.233-0.079,2.312,1.105,2.411,2.646c0.03,0.466-0.034,0.911-0.171,1.308
				C298.321,171.185,297.3,171.165,296.454,171.221z"/>
			<path style="fill:#F0626E;" d="M317.375,179.747c-0.035-0.005-0.07-0.004-0.104-0.002c-2.318,0.155-4.635,0.31-6.953,0.466
				c-0.494,0.033-0.637,0.24-0.332,1.15c0.912,2.72,2.587,4.443,4.158,4.279c1.571-0.165,2.965-2.21,3.459-5.077
				c0.035-0.201,0.061-0.447-0.01-0.628C317.541,179.803,317.459,179.759,317.375,179.747z"/>
			<path style="fill:#F2EDF7;" d="M311.764,180.309c0.017,0.105,0.034,0.21,0.051,0.315c0.014,0.088,0.024,0.184,0.046,0.268
				c0.04,0.152,0.108,0.287,0.203,0.352c0.09,0.061,0.181,0.06,0.275,0.064c0.276,0.011,0.552,0.023,0.828,0.034
				c0.103,0.004,0.216-0.15,0.225-0.319c0.018-0.344,0-0.68-0.035-1.018c-0.534,0.036-1.068,0.071-1.602,0.107
				C311.751,180.174,311.753,180.24,311.764,180.309z"/>
			<path style="fill:#F2EDF7;" d="M314.246,179.947c0.001,0.006,0.002,0.012,0.003,0.018c0.002,0.011,0.002,0.01,0.002,0.016
				c0.002,0.016,0.005,0.032,0.007,0.049c0.013,0.093,0.024,0.186,0.035,0.279c0.021,0.187,0.036,0.375,0.048,0.563
				c0.013,0.215,0.144,0.417,0.28,0.397c0.18-0.027,0.361-0.054,0.541-0.081c0.188-0.028,0.421-0.007,0.566-0.216
				c0.084-0.12,0.119-0.287,0.127-0.469c0.007-0.167,0.009-0.336,0.006-0.505c-0.001-0.052-0.006-0.105-0.008-0.157
				C315.317,179.876,314.782,179.912,314.246,179.947z"/>
			<path style="fill:#213150;" d="M286.089,157.685c0.579-2.637,1.279-5.248,2.107-7.818c-0.429,2.631-0.699,5.287-0.824,7.952
				c0.817,0.085,1.631,0.17,2.441,0.252c1.372-4.07,2.965-8.066,4.776-11.962c-0.551,1.64-1.029,3.304-1.422,4.988
				c-0.553,2.366-0.946,4.769-1.18,7.187c1.876,0.177,3.724,0.329,5.523,0.425c2.189,0.117,4.37,0.159,6.545,0.141
				c0.191-1.442,0.383-2.884,0.575-4.326c0.153-1.154,0.307-2.307,0.46-3.461c0.016,2.591,0.119,5.182,0.302,7.767
				c0.171-0.004,0.341-0.004,0.512-0.008c-0.283-3.945-0.378-7.903-0.269-11.857c0.081-0.607,0.161-1.213,0.242-1.82
				c0.092,2.912,0.327,5.819,0.71,8.708c0.218,1.646,0.484,3.285,0.796,4.916c4.472-0.179,8.925-0.635,13.379-1.386
				c0.485-0.082,1.161-0.217,1.917-0.381c-0.044-0.901-0.089-1.803-0.142-2.703c-0.091-1.534-0.2-3.067-0.318-4.599
				c0.745,2.303,1.54,4.591,2.307,6.883c0.272-0.064,0.543-0.129,0.81-0.195c0.756-0.186,1.508-0.384,2.26-0.585
				c0.026-1.185,0.041-2.37,0.038-3.554c-0.006-2.357-0.071-4.714-0.187-7.068c0.934,3.304,1.654,6.667,2.168,10.062
				c0.167-0.048,0.333-0.094,0.5-0.142c-0.619-4.064-1.54-8.081-2.754-12.01c1.774,3.713,3.222,7.579,4.328,11.544
				c3.329-1.012,6.618-2.152,9.872-3.385c1.09-0.413,2.172-0.845,3.251-1.284c-4.054-11.471-12.939-21.012-26.57-22.176
				c-15.706-1.342-32.065,6.448-37.699,21.09c-1.009,2.623-1.688,5.339-2.123,8.099
				C280.969,157.162,283.539,157.419,286.089,157.685z"/>
		</g>
		<g>
			<rect x="119.948" y="385.276" style="fill:#ED823A;" width="60.238" height="60.238"/>
			
				<rect x="141.461" y="385.276" transform="matrix(0.0033 -1 1 0.0033 -244.3829 585.5921)" style="fill:#FE9E54;" width="60.238" height="60.238"/>
			<g>
				<path style="fill:#F2EDF7;" d="M175.065,426.67c-0.005-0.327-0.009-0.654-0.013-0.981l-0.008-0.877
					c-0.008-0.84-0.016-1.68-0.032-2.519c-0.002-0.116-0.009-0.467,0.237-0.72c0.16-0.165,0.391-0.243,0.678-0.251
					c1.346-0.011,2.693-0.026,4.04-0.04l1.853-0.021c0.066,0,0.164-0.001,0.273,0.017c-0.423-0.717-0.846-1.43-1.263-2.131
					c-0.611-1.028-1.222-2.057-1.825-3.089c-0.005,0.003-0.011,0.007-0.017,0.01c-0.663,0.407-1.371,0.829-2.229,1.33
					c-0.048,0.028-0.095,0.058-0.142,0.089c-0.203,0.132-0.456,0.295-0.806,0.331c-0.138,0.014-0.275-0.036-0.372-0.135
					c-0.097-0.099-0.143-0.238-0.125-0.376c0.003-0.019,0.003-0.036,0.004-0.05c0.004-0.064,0.011-0.16,0.064-0.266l1.789-3.556
					c0.715-1.422,1.431-2.843,2.145-4.265c0.188-0.375,0.512-0.563,0.937-0.543c0.617,0.029,1.234,0.048,1.851,0.068l2.392,0.075
					c1.439,0.045,2.878,0.09,4.313,0.137l0.034-0.002c0.569-0.034,0.689,0.359,0.711,0.482c0.037,0.204-0.007,0.489-0.42,0.689
					c-0.013,0.006-0.025,0.012-0.036,0.018l-0.322,0.191c-0.713,0.424-1.426,0.848-2.161,1.275c-0.053,0.03-0.109,0.063-0.158,0.093
					c0.032,0.057,0.07,0.124,0.109,0.191c0.235,0.405,0.485,0.813,0.727,1.208c0.508,0.83,1.034,1.689,1.469,2.592
					c0.826,1.718,0.778,3.273-0.148,4.755c-0.546,0.874-1.052,1.802-1.541,2.699c-0.238,0.437-0.477,0.874-0.721,1.308
					c-1.406,2.5-3.088,5.194-6.211,5.52c-0.839,0.087-1.684,0.09-2.5,0.091c-0.498,0.001-1.013,0.002-1.514,0.023
					c-0.019,0.001-0.038,0.001-0.056,0.001c-0.31,0.003-0.544-0.076-0.717-0.243c-0.247-0.239-0.274-0.573-0.272-0.805
					C175.087,428.218,175.076,427.431,175.065,426.67z"/>
				<path style="fill:#F2EDF7;" d="M154.728,414.758c0.272-0.499,0.553-0.992,0.833-1.486c0.29-0.51,0.59-1.038,0.873-1.561
					c0.094-0.173,0.251-0.411,0.538-0.493c0.287-0.082,0.549,0.039,0.721,0.137c1.859,1.06,3.798,2.15,5.928,3.333
					c0.194,0.108,0.427,0.269,0.508,0.56c0.082,0.295-0.043,0.561-0.144,0.736l-0.217,0.376c-0.767,1.328-1.561,2.702-2.278,4.08
					c-0.121,0.233-0.303,0.579-0.578,0.855c0.316-0.003,0.632-0.006,0.943-0.008c0.763-0.005,1.526-0.013,2.289-0.023
					c0.922-0.013,1.875-0.025,2.815-0.023c0.026,0.001,0.046-0.001,0.063-0.001c0-0.014,0-0.031-0.001-0.05
					c-0.022-0.396-0.022-0.794-0.023-1.178c0-0.158,0-0.317-0.002-0.476l-0.003-0.255c-0.004-0.384-0.008-0.769-0.009-1.154
					l-0.001-0.024c-0.01-0.313,0.106-0.527,0.343-0.635c0.111-0.051,0.497-0.181,0.771,0.278c0.063,0.075,0.11,0.15,0.153,0.216
					l1.138,1.742c1.101,1.685,2.239,3.427,3.369,5.132c0.311,0.469,0.311,0.898,0.001,1.39c-1.032,1.634-2.07,3.303-3.075,4.918
					c-0.432,0.694-0.863,1.387-1.296,2.081c-0.011,0.017-0.021,0.036-0.031,0.055c-0.071,0.132-0.204,0.377-0.529,0.476
					c-0.042,0.013-0.085,0.019-0.127,0.02c-0.118,0.001-0.234-0.043-0.321-0.128c-0.256-0.247-0.244-0.551-0.238-0.714
					c0.001-0.024,0.002-0.047,0.002-0.07l-0.009-0.593c-0.013-0.76-0.026-1.546-0.017-2.321c0-0.023,0-0.043-0.001-0.059
					c-0.015-0.001-0.033-0.001-0.054,0l-0.458,0.011c-1.269,0.031-2.581,0.063-3.875,0.025c-1.958-0.059-3.38-0.884-4.226-2.454
					c-0.472-0.875-0.999-1.745-1.508-2.586c-0.239-0.395-0.479-0.791-0.714-1.188C154.592,420.839,152.943,418.026,154.728,414.758z
					"/>
				<path style="fill:#F2EDF7;" d="M157.337,402.601c0.074-0.14,0.216-0.232,0.375-0.242c0.282-0.021,0.485,0.111,0.606,0.188
					c0.021,0.013,0.041,0.026,0.063,0.038l0.589,0.329c0.628,0.35,1.277,0.712,1.908,1.087c0.041,0.025,0.072,0.04,0.095,0.051
					c0.014-0.019,0.031-0.047,0.052-0.085l0.249-0.456c0.614-1.125,1.248-2.288,1.957-3.388c1.019-1.582,2.446-2.372,4.244-2.342
					c1.709,0.026,3.451-0.003,5.136-0.031c2.372-0.04,5.242,0.124,6.935,2.13c0.717,0.848,1.258,1.807,1.782,2.733
					c0.267,0.472,0.542,0.959,0.834,1.418c0.122,0.192,0.161,0.384,0.116,0.571c-0.07,0.29-0.306,0.428-0.461,0.52
					c-0.509,0.299-1.016,0.6-1.524,0.901l-4.448,2.629c-0.115,0.068-0.291,0.172-0.505,0.174c-0.056,0.001-0.114-0.006-0.175-0.022
					c-0.191-0.049-0.35-0.178-0.47-0.384c-0.857-1.459-1.72-2.914-2.583-4.369l-0.51-0.859c-0.042-0.072-0.072-0.14-0.096-0.206
					c-0.45,0.795-0.897,1.589-1.335,2.369c-0.551,0.979-1.102,1.959-1.656,2.936c0.756,0.412,1.515,0.843,2.249,1.261l0.454,0.258
					l0.029,0.013c0.297,0.13,0.446,0.339,0.444,0.621c-0.001,0.115-0.045,0.225-0.124,0.309c-0.201,0.213-0.448,0.218-0.567,0.221
					l-0.036,0.001c-1.223,0.072-2.446,0.142-3.669,0.209c-0.485,0.027-0.97,0.052-1.455,0.077c-1.11,0.058-2.258,0.118-3.385,0.192
					c-0.031,0.002-0.062,0.003-0.092,0.004c-0.439,0.005-0.743-0.178-0.951-0.572c-0.725-1.369-1.452-2.736-2.18-4.103
					c-0.594-1.116-1.188-2.232-1.78-3.348c-0.007-0.014-0.017-0.026-0.026-0.04C157.345,403.28,157.139,402.975,157.337,402.601z"/>
			</g>
		</g>
		<g>
			<path style="fill:#213150;" d="M170.585,334.382c-3.808,11.013-7.746,22.401-5.393,32.942c0.022,0.099-0.04,0.196-0.138,0.219
				c-4.056,0.943-7.14,2.677-9.165,5.155c-0.036,0.043-0.089,0.068-0.145,0.068c-0.056-0.001-0.109-0.027-0.143-0.072
				c-4.142-5.375-6.539-9.883-7.772-14.617c-0.954-3.664-1.389-7.562-1.292-11.585c0.185-7.688,2.131-15.448,5.627-22.441
				c2.481-4.961,8.911-16.57,15.173-17.542c0.023-0.004,0.046-0.007,0.069-0.01c1.154-0.165,2.434,0.201,3.51,1.002
				c0.872,0.649,1.631,1.571,2.32,2.82c2.758,4.992,1.749,10.3,0.398,14.833C172.738,328.155,171.692,331.179,170.585,334.382z"/>
			<path style="fill:#F2EDF7;" d="M156.887,368.311c2.443-1.915,5.014-2.779,7.861-3.543c0.111,0.857,0.255,1.709,0.444,2.556
				c0.022,0.099-0.04,0.196-0.138,0.219c-4.056,0.943-7.14,2.677-9.165,5.155c-0.036,0.043-0.089,0.068-0.145,0.068
				c-0.056-0.001-0.109-0.027-0.143-0.072c-0.522-0.678-1.016-1.341-1.484-1.994C155.011,369.86,155.935,369.058,156.887,368.311z"
				/>
		</g>
	</g>
</g>
</svg>
