<?xml version="1.0" encoding="utf-8"?>
<!-- Generator: Adobe Illustrator 27.5.0, SVG Export Plug-In . SVG Version: 6.00 Build 0)  -->
<svg version="1.1" xmlns="http://www.w3.org/2000/svg" xmlns:xlink="http://www.w3.org/1999/xlink" x="0px" y="0px"
	 viewBox="0 0 750 500" style="enable-background:new 0 0 750 500;" xml:space="preserve">
<g id="BACKGROUND">
	<rect style="fill:#FFFFFF;" width="750" height="500"/>
	<rect style="fill:#FFFFFF;" width="750" height="500"/>
</g>
<g id="OBJECTS">
	<g>
		<path style="opacity:0.48;fill:#D3E5D7;" d="M253.644,88.259c130.285-52.683,148.054,81.265,216.425,69.069
			c68.371-12.196,92.156,2.745,121.551,61.379c43.243,86.258-13.166,201.456-98.384,187.638
			c-154.414-25.038-179.282,2.927-293.887-7.962c-113.897-10.821-133.056-142.085-40.619-185.26
			C204.446,191.771,153.723,128.664,253.644,88.259z"/>
		<path style="opacity:0.55;fill:#D3E5D7;" d="M529.826,104.286c-103.676-43.8-119.564,63.242-174.163,52.629
			c-54.599-10.613-73.831,1.057-98.095,47.646c-35.696,68.538,8.049,161.483,76.46,151.474
			c123.961-18.138,146.44,32.263,236.483,15.292s107.261-130.159,33.774-165.877C567.941,187.785,609.34,137.879,529.826,104.286z"
			/>
	</g>
	<path style="fill:#E3E3E2;" d="M151.93,409.749c0,0-75.294,1.495-52.179,19.411c12.959,10.044,116.746,24.709,186.952,12.9
		s152.174-14.347,207.46-3.374c135.997,26.993,220.702-27.394,148.932-27.441C542.775,411.179,151.93,409.749,151.93,409.749z"/>
	<g>
		<polygon style="fill:#312A45;" points="167.808,423.466 164.475,422.941 164.738,421.274 211.962,121.777 215.312,121.946 
			232.072,423.127 228.703,423.315 228.61,421.63 212.825,137.968 		"/>
		<polygon style="fill:#312A45;" points="499.807,423.466 496.474,422.941 543.96,121.777 547.311,121.946 564.07,423.127 
			560.701,423.315 560.607,421.63 544.823,137.968 		"/>
		<rect x="211.941" y="120.353" style="fill:#312A45;" width="335.372" height="3.374"/>
	</g>
	<g>
		<path style="fill:#348184;" d="M619.079,304.566c0,0,5.664-20.366,21.752-27.323c8.165-3.53,25.033-9.062,27.028-5.294
			s-17.702,18.302-24.861,24.787C635.838,303.221,618.754,304.873,619.079,304.566C619.404,304.259,619.079,304.566,619.079,304.566
			z"/>
		<path style="fill:#68AE9F;" d="M623.774,281.285c0,0-5.199-22.98,7.018-38.283c6.2-7.766,19.945-22.08,23.915-19.431
			c3.97,2.649-7.798,27.292-11.438,37.43C639.631,271.139,623.615,281.757,623.774,281.285
			C623.933,280.812,623.774,281.285,623.774,281.285z"/>
		<path style="fill:#3E2D4A;" d="M608.61,360.94l-1.123-0.059c3.451-64.699,31.236-117.617,31.516-118.143l0.993,0.527
			C639.717,243.79,612.048,296.499,608.61,360.94z"/>
		<path style="fill:#3E2D4A;" d="M616.258,310.019l-1.085-0.297c2.632-9.626,18.652-18.639,19.333-19.018l0.547,0.982
			C634.89,291.778,618.766,300.848,616.258,310.019z"/>
		<path style="fill:#348184;" d="M612.856,214.102c0,0-11.671-7.571-2.265-17.824C619.265,186.823,629.168,211.756,612.856,214.102z
			"/>
		<path style="fill:#68AE9F;" d="M563.936,256.379c0,0,3.763-9.07,1.715-18.041s-9.863-16.659-16.003-18.676
			c-6.14-2.017-6.978,21.085-2.512,27.675S563.292,258.213,563.936,256.379z"/>
		<path style="fill:#68AE9F;" d="M571.72,276.291c0,0,9.364-2.956,14.913-10.296c5.549-7.34,6.405-18.269,3.998-24.267
			s-20.629,8.227-22.801,15.886C565.658,265.272,569.902,276.978,571.72,276.291z"/>
		<path style="fill:#68AE9F;" d="M575.968,294.747c0,0-2.464-9.505-9.505-15.429c-7.041-5.924-17.911-7.348-24.026-5.257
			c-6.115,2.091,7.141,21.03,14.677,23.598C564.649,300.226,576.56,296.599,575.968,294.747z"/>
		<path style="fill:#3E2D4A;" d="M591.373,395.332h-1.125c0-88.784-34.089-151.435-34.432-152.058l0.984-0.545
			C557.146,243.354,591.373,306.261,591.373,395.332z"/>
		<path style="fill:#3E2D4A;" d="M594.583,359.876h-1.125c0-86.146,22.557-157.345,22.785-158.054l1.07,0.344
			C617.087,202.874,594.583,273.913,594.583,359.876z"/>
		<g>
			<path style="fill:#D16F42;" d="M482.081,426.386h152.698V307.645h-69.2c0,0,4.641,62.541-35.987,68.116
				C488.965,381.337,482.081,426.386,482.081,426.386z"/>
			<path style="fill:#312A45;" d="M537.225,426.526h-2.25v-1.125c0-36.364-24.16-42.135-24.404-42.189l-1.098-0.244l0.487-2.196
				l1.097,0.243c0.263,0.058,26.168,6.237,26.168,44.386V426.526z"/>
			
				<rect x="574.407" y="324.959" transform="matrix(0.339 -0.9408 0.9408 0.339 62.0368 765.1203)" style="fill:#312A45;" width="2.25" height="26.902"/>
			
				<rect x="566.1" y="346.646" transform="matrix(0.5338 -0.8456 0.8456 0.5338 -38.4457 646.6064)" style="fill:#312A45;" width="2.25" height="23.053"/>
			
				<rect x="553.498" y="363.345" transform="matrix(0.7128 -0.7014 0.7014 0.7128 -102.5562 496.214)" style="fill:#312A45;" width="2.249" height="19.977"/>
			<rect x="564.526" y="316.813" style="fill:#312A45;" width="71.378" height="2.25"/>
			<path style="fill:#312A45;" d="M564.476,391.623c-3.954,0-7.17-3.216-7.17-7.17s3.216-7.17,7.17-7.17
				c3.954,0,7.171,3.216,7.171,7.17S568.43,391.623,564.476,391.623z M564.476,379.532c-2.713,0-4.921,2.208-4.921,4.921
				s2.208,4.921,4.921,4.921c2.714,0,4.922-2.208,4.922-4.921S567.19,379.532,564.476,379.532z"/>
			<path style="fill:#312A45;" d="M581.083,374.187c-3.954,0-7.171-3.217-7.171-7.171c0-3.954,3.217-7.17,7.171-7.17
				c3.954,0,7.17,3.216,7.17,7.17C588.253,370.969,585.037,374.187,581.083,374.187z M581.083,362.094
				c-2.714,0-4.922,2.208-4.922,4.921c0,2.714,2.208,4.922,4.922,4.922c2.713,0,4.921-2.208,4.921-4.922
				C586.004,364.302,583.796,362.094,581.083,362.094z"/>
			<path style="fill:#312A45;" d="M591.825,352.549c-3.954,0-7.171-3.217-7.171-7.171s3.217-7.17,7.171-7.17
				c3.954,0,7.17,3.216,7.17,7.17S595.78,352.549,591.825,352.549z M591.825,340.457c-2.714,0-4.922,2.208-4.922,4.921
				c0,2.714,2.208,4.922,4.922,4.922c2.713,0,4.921-2.208,4.921-4.922C596.746,342.665,594.538,340.457,591.825,340.457z"/>
			<path style="fill:#312A45;" d="M596.281,427.511h-2.25v-1.125c0-14.766,4.129-26.188,12.271-33.95
				c11.88-11.324,27.856-10.694,28.531-10.666l1.123,0.054l-0.107,2.245l-1.123-0.052c-0.157-0.008-15.72-0.601-26.89,10.065
				c-7.668,7.321-11.556,18.19-11.556,32.305V427.511z"/>
		</g>
		<path style="fill:#348184;" d="M594.021,292.836c0,0,6.547-13.35-7.001-16.517C574.525,273.399,579.224,300.093,594.021,292.836z"
			/>
		<path style="fill:#348184;" d="M603.347,295.386c0,0-6.548-13.35,7.001-16.517C622.842,275.949,618.143,302.643,603.347,295.386z"
			/>
		<path style="fill:#3E2D4A;" d="M596.501,303.103l0.193-1.899c0.612-6.042-11.19-17.73-11.31-17.848l0.789-0.802
			c0.465,0.457,10.584,10.481,11.587,17.19c2.695-3.289,10.376-12.421,14.146-14.393l0.521,0.997
			c-4.311,2.256-14.63,15.134-14.734,15.264L596.501,303.103z"/>
		<path style="fill:#348184;" d="M595.552,273.367c0,0,6.548-13.35-7.001-16.517C576.056,253.93,580.755,280.624,595.552,273.367z"
			/>
		<path style="fill:#348184;" d="M604.878,275.917c0,0-6.547-13.35,7.001-16.517C624.374,256.48,619.674,283.174,604.878,275.917z"
			/>
		<path style="fill:#3E2D4A;" d="M599.062,282.372l0.193-1.902c0.609-6.012-12.17-16.443-12.299-16.547l0.707-0.874
			c0.505,0.41,11.514,9.402,12.642,15.98c2.508-3.054,9.4-11.194,13.131-13.147l0.521,0.997
			c-4.311,2.256-13.611,13.881-13.705,13.998L599.062,282.372z"/>
		<path style="fill:#348184;" d="M598.633,251.496c0,0,6.547-13.35-7.001-16.517C579.137,232.058,583.836,258.752,598.633,251.496z"
			/>
		<path style="fill:#348184;" d="M607.959,254.045c0,0-6.548-13.35,7.001-16.517C627.455,234.608,622.756,261.302,607.959,254.045z"
			/>
		<path style="fill:#3E2D4A;" d="M602.528,261.18l0.209-2.061c0.61-6.015-12.57-16.961-12.703-17.071l0.716-0.868
			c0.518,0.427,11.777,9.786,13.019,16.422c2.436-3.222,9.027-11.644,12.749-13.591l0.521,0.997
			c-4.298,2.248-13.199,14.378-13.289,14.5L602.528,261.18z"/>
		<path style="fill:#348184;" d="M603.05,228.241c0,0,7.449-12.869-5.851-16.959C584.935,207.511,587.79,234.465,603.05,228.241z"/>
		<path style="fill:#348184;" d="M613.626,232.147c0,0-4.479-13.171,9.255-15.4C635.547,214.692,627.89,240.403,613.626,232.147z"/>
		<path style="fill:#3E2D4A;" d="M607.184,237.261l-0.143-1.099c-1.18-9.076-8.372-15.63-8.444-15.695l0.751-0.837
			c0.297,0.266,7.032,6.395,8.643,15.317c2.697-2.524,11.554-10.657,15.556-12.413l0.453,1.03
			c-4.473,1.962-15.898,12.823-16.013,12.932L607.184,237.261z"/>
		<path style="fill:#3E2D4A;" d="M575.459,294.987c-0.746-1.579-9.771-5.015-15.285-6.809l0.347-1.07
			c2.459,0.8,14.783,4.916,15.955,7.398L575.459,294.987z"/>
		<path style="fill:#3E2D4A;" d="M571.753,278.338l-1.125-0.015c0.087-6.249,6.878-18.177,7.167-18.681l0.975,0.558
			C578.702,260.321,571.836,272.379,571.753,278.338z"/>
	</g>
	<g>
		<path style="fill:#348184;" d="M136.067,319.237c0,0-5.456-12.076-26.672-4.79c-21.216,7.285-29.583,38.228-32.614,55.6
			c-3.031,17.372,25.212-18.394,38.309-22.443C128.187,343.554,149.403,333.109,136.067,319.237z"/>
		<path style="fill:#68AE9F;" d="M150.885,302.721c0.591-1.973,2.466-20.172-18.715-34.979
			c-21.181-14.807-64.402,6.235-54.033,15.403c8.715,7.706,26.517,0.238,38.801,15.442S146.2,318.355,150.885,302.721z"/>
		<path style="fill:#348184;" d="M165.123,328.112c0,0-6.613-13.538,13.022-22.559c17.298-7.947,39.665,16.326,53.633,17.634
			s-18.56,30.355-36.356,20.373C177.626,333.579,169.202,343.269,165.123,328.112z"/>
		<path style="fill:#68AE9F;" d="M157.165,306.316c0,0-13.781-19.797,7.484-37.565s45.779,1.798,58.345,4.129
			s-14.466,22.807-34.646,21.009C168.168,292.092,166.412,317.277,157.165,306.316z"/>
		<path style="fill:#3E2D4A;" d="M152.212,383.232c-0.004-0.094-0.434-9.648,1.267-20.947c1.576-10.471,5.357-24.635,14.423-32.651
			c6.271-5.546,14.281-7.525,23.807-5.888l-0.191,1.109c-9.17-1.582-16.867,0.313-22.871,5.622
			c-16.907,14.949-15.33,52.326-15.312,52.703L152.212,383.232z"/>
		<path style="fill:#3E2D4A;" d="M152.212,377.307c-1.581-32.921-8.131-51.531-19.469-55.314
			c-13.777-4.6-30.189,14.947-30.354,15.146l-0.866-0.718c0.042-0.051,4.275-5.126,10.213-9.543
			c7.942-5.907,15.33-7.964,21.362-5.952c11.823,3.945,18.631,22.896,20.237,56.326L152.212,377.307z"/>
		<path style="fill:#3E2D4A;" d="M152.749,371.15c-1.466-54.111,9.397-76.786,18.768-86.278c6.878-6.967,12.978-6.956,13.241-6.965
			l-0.015,1.125c-0.004,0.016-5.919,0.004-12.484,6.69c-9.19,9.357-19.838,31.77-18.385,85.398L152.749,371.15z"/>
		<path style="fill:#3E2D4A;" d="M153.874,394.685l-1.124-0.042c2.701-74.385-11.678-100.502-24.216-109.313
			c-10.14-7.123-19.795-3.374-19.892-3.337l-0.421-1.043c0.101-0.041,10.285-4.024,20.934,3.442
			C152.306,300.621,155.376,353.327,153.874,394.685z"/>
		<path style="fill:#D16F42;" d="M183.175,367.548h-18.238h-18.311h-18.238c0,0-1.099,30.794,5.221,58.838h13.016h18.311h13.016
			C184.274,398.342,183.175,367.548,183.175,367.548z"/>
		<path style="fill:#68AE9F;" d="M165.827,354.293c0,0,3.067-14.751,24.112-9.853c18.54,4.315,21.349,37.203,31.587,46.794
			c10.238,9.591-33.266,12.622-41.216-6.169C172.36,366.273,159.766,368.771,165.827,354.293z"/>
		<path style="fill:#3E2D4A;" d="M154.196,365.346l-1.105-0.211c1.894-9.914,5.567-15.664,10.916-17.092
			c10.56-2.812,23.621,12.19,24.172,12.83l-0.852,0.734c-0.13-0.152-13.155-15.124-23.03-12.477
			C159.4,350.437,156.002,355.893,154.196,365.346z"/>
		<path style="fill:#68AE9F;" d="M146.396,358.105c0,0,2.303-11.936-17.186-10.015s-22.053,27.584-28.699,48.562
			s18.739,3.517,25.542-2.832C132.855,387.47,149.443,369.927,146.396,358.105z"/>
		<path style="fill:#3E2D4A;" d="M126.14,367.614l-1.117-0.131c0.02-0.172,2.181-17.261,16.63-17.603l0.026,1.125
			c-5.63,0.133-9.95,2.943-12.841,8.351C126.649,363.45,126.145,367.572,126.14,367.614z"/>
		<path style="fill:#348184;" d="M146.729,333.159c0,0,9.802-11.442,25.874,3.001c14.159,12.724,0.754,42.887,5.096,56.227
			c4.342,13.34-35.228-4.991-33.127-25.287C146.673,346.805,134.435,342.917,146.729,333.159z"/>
		<path style="fill:#3E2D4A;" d="M164.614,364.098l-1.123-0.075c0.014-0.205,1.305-20.627-3.676-26.117
			c-4.887-5.388-8.992-4.625-9.034-4.621l-0.233-1.101c0.191-0.041,4.742-0.939,10.099,4.966
			C165.949,342.992,164.671,363.239,164.614,364.098z"/>
	</g>
	<g>
		<g>
			<path style="fill:#312A45;" d="M354.328,184.893c-15.527,0-51.856-0.593-53.825-6.079c-0.202-0.562-0.187-1.441,1.024-2.439
				c2.29-1.434,54.817-34.123,67.945-34.123c0.213,0,0.414,0.008,0.606,0.025c11.826,1.023,50.649,21.205,62.002,32.231
				c0.859,0.835,0.804,1.591,0.606,2.078C430.232,182.638,383.32,184.893,354.328,184.893z M369.472,143.378
				c-12.809,0-66.747,33.57-67.29,33.909c-0.507,0.425-0.736,0.825-0.621,1.148c0.953,2.655,17.638,5.334,52.767,5.334
				c40.238,0,75.643-3.482,77.316-7.604c0.041-0.101,0.148-0.367-0.348-0.849c-11.245-10.922-49.64-30.908-61.315-31.918
				C369.819,143.385,369.65,143.378,369.472,143.378z"/>
			<path style="fill:#68AE9F;" d="M333.101,158.519c0,0,19.967,12.405,33.593,12.605c13.626,0.2,36.442-14.698,39.802-15.973
				c3.36-1.275,40.891,15.701,47.038,21.865s30.289,68.006,26.234,71.957s-34.97,5.741-34.97,5.741s16.574,99.96,10.691,107.128
				s-143.512,3.641-149.546,4.889c-6.033,1.248,1.535-104.84,1.535-104.84s-32.802,3.599-36.752-0.538
				c-3.95-4.138,20.719-80.469,26.666-86.624C303.341,168.574,333.101,158.519,333.101,158.519z"/>
			<path style="fill:#312A45;" d="M369.492,143.006c-0.081-0.262-1.973-6.457,0.188-10.559c0.404-0.767,1.064-1.655,1.83-2.684
				c2.073-2.788,4.653-6.257,3.829-9.511c-0.517-2.042-2.394-3.829-5.58-5.31c-3.418-1.59-6.412,0.274-8.072,2.55
				c-2.385,3.268-3.058,8.464,0.27,12.072l-0.827,0.762c-3.739-4.053-3.007-9.858-0.351-13.498c2.454-3.363,6.077-4.477,9.455-2.907
				c3.507,1.631,5.591,3.668,6.196,6.054c0.955,3.772-1.919,7.637-4.017,10.459c-0.737,0.991-1.374,1.847-1.737,2.537
				c-1.942,3.687-0.127,9.641-0.109,9.701L369.492,143.006z"/>
			<path style="fill:#312A45;" d="M369.516,182.086c-0.242,0-0.481-0.003-0.723-0.009c-14.41-0.381-32.023-11.471-32.199-11.583
				l0.603-0.949c0.174,0.11,17.529,11.036,31.626,11.407c16.283,0.454,31.213-14.338,31.363-14.488l0.795,0.795
				C400.831,167.41,385.971,182.086,369.516,182.086z"/>
			<path style="fill:#312A45;" d="M396.121,352.809c-36.591,0-76.071-3.078-76.665-3.125l0.089-1.12
				c0.892,0.069,89.65,6.988,124.154,0.009l0.224,1.103C432.303,352.025,414.576,352.809,396.121,352.809z"/>
			<path style="fill:#312A45;" d="M443.973,246.671l-0.013-1.125c0.217-0.002,21.892-0.314,31.295-4.431l0.45,1.03
				C466.094,246.355,444.872,246.66,443.973,246.671z"/>
			<path style="fill:#312A45;" d="M294.208,256.968c-8.363,0-17.725-0.795-18.316-0.846l0.097-1.12
				c0.219,0.019,21.878,1.857,28.793,0.016l0.289,1.087C302.639,256.752,298.558,256.968,294.208,256.968z"/>
			<path style="fill:#312A45;" d="M442.514,250.257c-6.082-32.697-10.742-44.173-10.788-44.285l1.039-0.431
				c0.047,0.113,4.745,11.662,10.854,44.509L442.514,250.257z"/>
			<path style="fill:#312A45;" d="M311.2,256.437l-1.123-0.072c0.118-1.799,2.899-44.11,4.395-49.711l1.086,0.29
				C314.091,212.439,311.229,255.998,311.2,256.437z"/>
		</g>
		<g>
			<path style="fill:#FFFFFF;" d="M381.721,233.839l-5.763,4.643h18.895l7.768-15.326l-4.829,2.729c0,0-7.648-10.244-8.503-11.127
				c-8.97-9.263-24.658-0.187-24.658-0.187s4.676-1.048,7.758,3.756C374.026,220.879,381.721,233.839,381.721,233.839z"/>
			<path style="fill:#FFFFFF;" d="M388.134,246.88l15.745-8.398l8.58,15.207c0,0,4.57,10.961-12.075,10.961h-3.397L388.134,246.88z"
				/>
			<path style="fill:#FFFFFF;" d="M385.09,265.774v-6.088l-9.132,15.116l9.132,14.906v-5.458h11.232c0,0,14.21-0.63,16.298-20.784
				c0,0-2.898,2.729-10,2.939C398.208,266.535,385.09,265.774,385.09,265.774z"/>
			<path style="fill:#FFFFFF;" d="M340.898,245.41l-5.668-3.779h19.524l7.768,16.165l-6.088-3.149c0,0-12.416,17.832-10.737,23.921
				c0,0-14.269-9.434-12.353-19.617C334.276,253.995,340.898,245.41,340.898,245.41z"/>
			<path style="fill:#FFFFFF;" d="M371.339,283.619v-17.425h-20.597c0,0-3.486,7.135-2.898,10.808
				c0.897,5.603,6.297,6.617,6.297,6.617C356.66,283.619,371.339,283.619,371.339,283.619z"/>
			<path style="fill:#FFFFFF;" d="M346.896,232.388l16.885,9.243l11.318-15.104c0,0-1.829-3.644-3.76-6.505
				c-3.378-5.004-11.223-5.45-15.116-0.645C352.777,223.631,346.896,232.388,346.896,232.388z"/>
		</g>
	</g>
	<path style="fill:#FFFFFF;" d="M170.343,199.667h73.781c0,0-0.183-16.89-12.725-14.938s-4.651-17.717-21.903-21.061
		c-14.627-2.836-16.79,16.312-20.074,14.454c-19.563-11.072-17.69,10.471-28.621,10.794s-10.015,10.752-10.015,10.752H170.343z"/>
	<path style="fill:#FFFFFF;" d="M439.621,94.398H365.84c0,0,0.183-16.89,12.725-14.938c12.542,1.952,4.651-17.717,21.903-21.061
		c14.627-2.836,16.79,16.312,20.074,14.454c19.563-11.072,17.69,10.471,28.621,10.794c10.931,0.323,10.015,10.752,10.015,10.752
		H439.621z"/>
	<path style="fill:#FFFFFF;" d="M594.242,167.886H520.46c0,0,0.183-16.89,12.725-14.938c12.542,1.952,4.651-17.717,21.903-21.061
		c14.627-2.836,16.79,16.312,20.074,14.454c19.563-11.072,17.69,10.471,28.621,10.794s10.015,10.752,10.015,10.752H594.242z"/>
	<g>
		<path style="fill:#DC9680;" d="M502.972,242.23c0,0-7.011-0.397-5.91-14.828c0.409-5.37-4.111-6.283-5.463-4.839
			c-1.352,1.443,2.123,20.823-8.808,18.871C481.444,241.193,484.472,261.563,502.972,242.23z"/>
		<path style="fill:#DC9680;" d="M492.143,220.202c0,0-5.715,9.882-0.337,10.333c13.458,1.128,11.247-12.116,9.045-13.249
			S494.139,216.581,492.143,220.202z"/>
		<path style="fill:#3E2D4A;" d="M497.359,216.805c0,0-3.146,5.112,0.599,8.918c1.644,1.671,2.661-1.713,3.081,0.079
			c0.692,2.96-1.425,1.467-2.417,2.979c-2.518,3.838,2.777,6.708,6.633,1.194c0.79-1.13,1.313-3.065,0.763-8.129
			c-0.551-5.065-6.992-8.625-10.09-7.553c-3.097,1.072-8.389,6.576-6.469,6.839S496.074,220.144,497.359,216.805z"/>
		<path style="opacity:0.5;fill:#CB5B5D;" d="M496.257,230.603c0,0-1.96,0.495-4.774,0c0,0-0.036,3.715-0.913,5.657
			C490.289,236.877,496.257,236.803,496.257,230.603z"/>
		<circle style="fill:#3E2D4A;" cx="508.61" cy="214.102" r="7.302"/>
		<path style="fill:#3E2D4A;" d="M456.078,406.341c0,0,0,17.432-0.899,17.792c-0.899,0.359-5.212-0.18-5.212-0.18l-0.899-4.852
			c0,0-1.438,3.954-3.055,4.313c-1.617,0.359-13.479,1.438-15.815,0c-2.336-1.438,13.838-3.594,15.096-16.893L456.078,406.341z"/>
		<path style="fill:#3E2D4A;" d="M534.039,402.679c0,0,6.246,16.275,5.536,16.933s-4.93,1.7-4.93,1.7l-2.578-4.208
			c0,0,0.074,4.206-1.307,5.121c-1.381,0.915-12.069,6.172-14.765,5.667c-2.696-0.505,11.631-8.314,8.041-21.181L534.039,402.679z"
			/>
		<path style="fill:#9E6A8D;" d="M465.135,414.32c0,0-29.252,1.163-33.323,0s6.228-55.089,8.162-61.186
			c3.794-11.957,21.304-55.033,21.304-59.104s50.826-1.059,57.197,1.845c3.872,1.765-2.715,49.171,6.026,65.403
			c4.209,7.815,18.393,38.768,18.393,42.838s-30.916,10.603-34.986,11.185c-4.071,0.582-14.517-33.537-18.006-44.585
			c-3.489-11.049-4.071-41.869-4.071-41.869s-6.292,24.597-8.755,35.735C475.066,373.685,465.135,414.32,465.135,414.32z"/>
		<path style="fill:#EFD6B1;" d="M485.432,241.464c0,0-2.933,6.644,2.127,7.491c5.06,0.847,10.29-9.506,11.665-9.22
			c5.957,1.241,13.262,2.144,18.138,4.105c4.876,1.961,6.389,49.219,4.406,54.074s-58.411,0.868-61.963,1.559
			s5.041-45.113,3.556-50.517C461.876,243.551,481.994,240.502,485.432,241.464z"/>
		<path style="fill:#3E2D4A;" d="M509.53,241.31c0,0,1.359,65.226,2.109,66.351s-7.445-0.352-7.403,0s0.981-62.162,0-66.351
			S509.53,241.31,509.53,241.31z"/>
		<path style="fill:#3E2D4A;" d="M500.906,294.352c0,0,36.646-1.5,39.271,0c2.624,1.5,3.374,41.454,2.999,45.284
			c-0.375,3.83-35.617,1.291-38.616,2.748S500.906,294.352,500.906,294.352z"/>
		<path style="fill:#DC9680;" d="M527.124,294.951c0,0-4.369,6.152-3.653,7.087c0.716,0.935,2.3-1.676,2.3-1.676
			s-1.359,4.016-0.243,3.665c1.116-0.351,2.696-2.809,2.696-2.809s-0.878,3.476,0,3.582s1.573-2.578,3.245-4.923
			S529.492,292.695,527.124,294.951z"/>
		<path style="fill:#DC9680;" d="M475.239,241.194c0,0,6.497-3.837,6.224-4.982s-2.784,0.593-2.784,0.593s2.878-3.113,1.715-3.248
			s-3.607,1.466-3.607,1.466s2.218-2.816,1.46-3.27c-0.759-0.454-2.487,1.713-4.97,3.173
			C470.795,236.387,472.157,242.289,475.239,241.194z"/>
		<path style="fill:#EFD6B1;" d="M517.362,243.84c0,0,26.269,11.593,32.195,19.746c5.926,8.153-9.441,36.776-13.254,36.776
			c-3.813,0-7.854-2.763-11.589-5.41c-3.735-2.647,4.867-17.198,4.257-18.817s-13.26-5.339-13.933-8.089
			C514.364,265.296,517.362,243.84,517.362,243.84z"/>
		<path style="fill:#EFD6B1;" d="M469.122,234.46c0,0,7.113,6.164,8.65,13.532c1.537,7.368-27.706,32.261-35.579,30.219
			c-7.873-2.043-9.891-7.289-7.311-16.135C436.69,255.876,466.954,231.536,469.122,234.46z"/>
		<path style="fill:#3E2D4A;" d="M508.1,412.104l-0.38-1.059c0.305-0.11,30.578-11.015,33.433-12.586l0.543,0.984
			C538.762,401.059,509.351,411.654,508.1,412.104z"/>
		<path style="fill:#3E2D4A;" d="M455.568,407.272c-10.419,0-23.864-0.347-24.714-0.369l0.029-1.125
			c0.316,0.009,31.62,0.817,36.097,0.009l0.2,1.107C465.607,407.178,460.997,407.272,455.568,407.272z"/>
		<path style="fill:#3E2D4A;" d="M462.665,404.197l-1.114-0.16c8.929-62.208,20.147-71.389,20.62-71.749l0.684,0.892
			c-0.027,0.022-2.87,2.336-6.767,12.243C472.505,354.531,467.268,372.122,462.665,404.197z"/>
		<path style="fill:#3E2D4A;" d="M531.02,393.108c-0.131-0.175-13.124-17.852-16.542-49.544l1.118-0.121
			c3.383,31.363,16.196,48.818,16.324,48.99L531.02,393.108z"/>
		<path style="fill:#3E2D4A;" d="M486.288,327.009l-0.811-0.66c-0.231-0.189-5.638-4.775-3.521-18.343l1.112,0.174
			c-1.507,9.659,0.981,14.543,2.336,16.393L487,308.798l1.118,0.114L486.288,327.009z"/>
		<path style="fill:#3E2D4A;" d="M487.21,253.148c-0.127,0-0.253-0.005-0.378-0.016c-2.076-0.182-3.583-0.958-4.478-2.303
			c-1.128-1.696-1.204-4.221-0.22-7.304l1.072,0.343c-0.612,1.914-1.093,4.568,0.083,6.338c0.697,1.048,1.922,1.656,3.641,1.807
			c4.544,0.393,12.246-8.588,12.323-8.679l0.859,0.727C499.791,244.438,492.363,253.148,487.21,253.148z"/>
		<path style="fill:#3E2D4A;" d="M461.537,267.908l-0.707-0.874c4.386-3.55,16.001-13.462,17.066-16.643l1.068,0.358
			C477.577,254.889,462.191,267.378,461.537,267.908z"/>
		<path style="fill:#3E2D4A;" d="M483.948,296.309c-3.07,0-6.191-0.115-8.905-0.461c-8.655-1.103-12.594-0.922-12.633-0.92
			l-0.057-1.123c0.163-0.007,4.06-0.19,12.832,0.927c6.097,0.778,14.36,0.368,19.298,0.125c2.325-0.115,3.861-0.193,4.509-0.126
			l-0.112,1.118c-0.556-0.054-2.229,0.027-4.342,0.132C491.744,296.119,487.888,296.309,483.948,296.309z"/>
		<path style="fill:#3E2D4A;" d="M474.577,249.712c-1.408-4.655-7.738-9.773-7.802-9.825l0.703-0.877
			c0.272,0.217,6.667,5.391,8.175,10.376L474.577,249.712z"/>
		<path style="fill:#3E2D4A;" d="M521.806,270.061l-1.125-0.033c0.366-12.211-6.177-25.144-6.243-25.274l1.002-0.512
			C515.507,244.375,522.181,257.565,521.806,270.061z"/>
		<path style="fill:#3E2D4A;" d="M530.988,275.664c-0.391,0-0.705-0.043-0.87-0.153l-0.21-0.139l-0.074-0.319
			c-0.035-0.258-0.145-1.042,5.228-7.343l0.857,0.729c-2.009,2.355-4.136,5.05-4.78,6.15c1.855-0.075,8.567-1.4,10.043-3.922
			l0.971,0.569c-1.282,2.19-5.145,3.365-7.334,3.872C534.788,275.115,532.392,275.663,530.988,275.664z"/>
		<path style="fill:#3E2D4A;" d="M535.912,297.527c-3.453-0.73-10.179-4.822-10.463-4.995l0.586-0.96
			c0.068,0.042,6.845,4.165,10.11,4.855L535.912,297.527z"/>
	</g>
	<g>
		<path style="fill:#FFFFFF;" d="M237.392,244.926c0,0,3.6,4.574,10.614,4.574s8.652-2.439,12.788-1.525
			c4.136,0.915,5.907-5.031,5.326-9.301c-0.58-4.269-5.944-7.776-7.608-13.57s-7.762-6.015-14.013-2.321s-3.214,9.736-5.038,12.127
			C237.638,237.303,236.506,243.459,237.392,244.926z"/>
		<path style="fill:#CC5078;" d="M222.047,257.745c0,0-20.562,25.277-18.769,39.126c1.074,8.294,15.191,9.456,18.52,8.196
			c3.329-1.26,10.005-29.449,7.707-33.388S225.873,255.348,222.047,257.745z"/>
		<path style="fill:#DC9680;" d="M245.66,249.405c0,0,7.011-0.397,5.91-14.828c-0.409-5.37,4.111-6.283,5.463-4.839
			c1.352,1.443-2.123,20.823,8.808,18.871C267.188,248.368,264.159,268.738,245.66,249.405z"/>
		<path style="fill:#DC9680;" d="M256.489,227.377c0,0,5.715,9.882,0.337,10.333c-13.458,1.128-11.247-12.116-9.045-13.249
			C249.983,223.328,254.493,223.755,256.489,227.377z"/>
		<path style="fill:#FFFFFF;" d="M251.272,223.98c0,0,3.146,5.112-0.599,8.918c-1.644,1.671-2.661-1.713-3.081,0.079
			c-0.692,2.96,1.425,1.467,2.417,2.979c2.518,3.838-2.777,6.708-6.633,1.194c-0.79-1.13-1.313-3.065-0.763-8.129
			c0.551-5.065,6.992-8.625,10.09-7.553s8.389,6.576,6.469,6.839C257.253,228.568,252.557,227.319,251.272,223.98z"/>
		<path style="opacity:0.5;fill:#CB5B5D;" d="M251.348,236.851c0,0,2.045,1.595,4.86,1.1c0,0,0.842,3.603,2.281,4.995
			C258.975,243.417,251.799,243.762,251.348,236.851z"/>
		<path style="fill:#3E2D4A;" d="M292.554,413.516c0,0,0,17.432,0.899,17.792c0.899,0.359,5.212-0.18,5.212-0.18l0.899-4.852
			c0,0,1.438,3.954,3.055,4.313c1.617,0.359,13.479,1.438,15.815,0c2.336-1.438-13.838-3.594-15.096-16.893L292.554,413.516z"/>
		<path style="fill:#3E2D4A;" d="M230.667,413.516c0,0,0,17.432,0.899,17.792c0.899,0.359,5.212-0.18,5.212-0.18l0.899-4.852
			c0,0,1.438,3.954,3.055,4.313s13.479,1.438,15.815,0c2.336-1.438-13.838-3.594-15.096-16.893L230.667,413.516z"/>
		<path style="fill:#EFD6B1;" d="M283.497,421.495c0,0,33.323,1.163,37.393,0s-33.537-116.219-33.537-120.289
			c0-4.071-50.826-1.059-57.197,1.845c-3.872,1.765-16.969,111.627-16.969,115.698s35.479,3.143,39.55,3.725
			c4.071,0.582,10.062-86.451,10.062-86.451s6.292,24.597,8.755,35.735C273.566,380.86,283.497,421.495,283.497,421.495z"/>
		<path style="fill:#CC5078;" d="M263.2,248.639c0,0,2.933,6.644-2.127,7.491c-5.06,0.847-10.29-9.507-11.665-9.22
			c-5.957,1.241-13.262,2.144-18.138,4.105c-4.876,1.961-6.389,49.219-4.406,54.074c1.983,4.855,58.411,0.868,61.963,1.559
			c3.553,0.691-5.041-45.113-3.556-50.517C286.756,250.726,266.638,247.677,263.2,248.639z"/>
		<path style="fill:#3E2D4A;" d="M293.064,414.447c-5.43,0-10.039-0.094-11.612-0.378l0.2-1.107c4.478,0.811,35.782,0,36.097-0.009
			l0.03,1.125C316.927,414.1,303.482,414.447,293.064,414.447z"/>
		<path style="fill:#3E2D4A;" d="M285.967,411.371c-8.862-61.754-20.076-70.93-20.188-71.015l0.681-0.894
			c0.473,0.36,11.692,9.541,20.621,71.749L285.967,411.371z"/>
		<path style="fill:#3E2D4A;" d="M262.344,334.183l-1.832-18.096l1.119-0.114l1.596,15.775c1.354-1.851,3.843-6.733,2.336-16.395
			l1.112-0.174c2.117,13.568-3.29,18.154-3.521,18.343L262.344,334.183z"/>
		<g>
			<path style="fill:#348184;" d="M224.985,306.12c0,0-9.069-22.642,4.659-39.835c13.728-17.193,20.679-27.075,22.396-25.293
				c1.716,1.781,0.423,16.787-5.734,28.765S229.728,299.762,224.985,306.12z"/>
			<path style="fill:#68AE9F;" d="M225.178,297.028c0,0-15.906-18.491-8.478-39.2c7.428-20.71,10.809-32.309,13.009-31.178
				c2.2,1.13,5.831,15.747,3.88,29.073S227.608,289.478,225.178,297.028z"/>
			<path style="fill:#348184;" d="M219.189,301.375c0,0,11.917-21.281,0.525-40.103c-11.393-18.822-17.01-29.519-18.942-27.974
				c-1.932,1.545-2.588,16.592,1.971,29.264C207.303,275.235,215.308,294.458,219.189,301.375z"/>
			<path style="fill:#402549;" d="M219.748,301.437l-1.118-0.123c0.021-0.195,2.063-19.578-5.815-29.55
				c-8.148-10.315-7.969-21.167-7.957-21.624l1.125,0.029c-0.003,0.108-0.171,10.916,7.716,20.899
				C221.863,281.403,219.838,300.624,219.748,301.437z"/>
			<path style="fill:#402549;" d="M224.638,297.187c-6.401-21.622,4.232-50.762,4.34-51.054l1.054,0.391
				c-0.107,0.288-10.61,29.084-4.316,50.345L224.638,297.187z"/>
			<path style="fill:#402549;" d="M232.871,283.331l-1.116-0.143c2.239-17.464,14.349-28.924,14.471-29.038l0.767,0.824
				C246.874,255.085,235.056,266.282,232.871,283.331z"/>
			<path style="fill:#D16F42;" d="M208.775,289.072c0,0,30.855-3.04,31.214-0.334s-0.186,23.564-3.459,28.442l-24.519-0.544
				C207.549,312.822,208.775,289.072,208.775,289.072z"/>
		</g>
		<path style="fill:#DC9680;" d="M210.124,296.872c0,0,7.37,1.615,7.469,2.788c0.099,1.173-2.83,0.306-2.83,0.306
			s3.706,2.058,2.644,2.549c-1.062,0.491-3.885-0.266-3.885-0.266s2.987,1.982,2.409,2.651s-2.898-0.851-5.712-1.462
			C207.405,302.826,206.855,296.794,210.124,296.872z"/>
		<path style="fill:#DC9680;" d="M291.294,311.478c0,0-5.381,5.29-6.417,4.731s1.29-2.537,1.29-2.537s-3.749,1.979-3.58,0.821
			c0.17-1.158,2.346-3.108,2.346-3.108s-3.292,1.418-3.536,0.568c-0.244-0.85,2.296-1.962,4.346-3.985
			C287.794,305.946,293.146,308.783,291.294,311.478z"/>
		<path style="fill:#3E2D4A;" d="M263.837,260.671c-6.619,0-10.95-4.386-11.132-4.573l0.807-0.784
			c0.041,0.043,4.195,4.232,10.325,4.232c1.346,0,2.331-0.417,3.009-1.276c1.848-2.338,0.749-7.078,0.738-7.126l1.094-0.259
			c0.052,0.215,1.233,5.322-0.95,8.083C266.835,260.098,265.526,260.671,263.837,260.671z"/>
		<path style="fill:#CC5078;" d="M276.311,250.154c0,0,44.846,15.836,44.655,25.066c-0.269,12.971-26.116,41.194-28.413,38.378
			s-11.002-12.738-11.002-12.738l15.508-19.915c0,0-17.838-2.885-18.184-7.697C278.53,268.436,276.311,250.154,276.311,250.154z"/>
		<path style="fill:#3E2D4A;" d="M228.785,328.155l-0.213-1.105c0.633-0.122,15.459-3.171,13.257-18.536l1.114-0.16
			C245.299,324.791,228.95,328.123,228.785,328.155z"/>
		<path style="fill:#3E2D4A;" d="M222.606,418.811l-1.118-0.123c0.076-0.696,7.644-69.816,8.618-85.635l1.123,0.068
			C230.253,348.968,222.683,418.114,222.606,418.811z"/>
		<path style="fill:#3E2D4A;" d="M240.617,415.644c-10.856,0-23.352-1.48-24.111-1.571l0.134-1.116
			c0.269,0.031,27.026,3.2,36.306,0.388l0.326,1.076C250.274,415.33,245.619,415.644,240.617,415.644z"/>
		<path style="fill:#3E2D4A;" d="M261.483,304.225c-1.248,0-2.481-0.047-3.676-0.153c-10.3-0.911-16.428-1.11-16.488-1.112
			l0.035-1.125c0.061,0.002,6.217,0.202,16.552,1.116c10.21,0.904,23.367-2.599,23.499-2.634l0.293,1.085
			C281.579,301.435,271.111,304.225,261.483,304.225z"/>
		<path style="fill:#3E2D4A;" d="M294.199,310.233c-2.394-4.633-7.981-9.353-8.037-9.4l0.723-0.861
			c0.237,0.198,5.817,4.913,8.314,9.745L294.199,310.233z"/>
		<path style="fill:#3E2D4A;" d="M307.394,282.355c-0.492-0.539-2.267-0.36-3.832-0.2c-1.731,0.175-3.52,0.357-4.737-0.17
			c-0.585-0.253-0.615-0.682-0.601-0.855c0.033-0.404,0.135-1.635,11.85-4.552l0.271,1.092c-4.363,1.086-9.282,2.59-10.684,3.405
			c0.996,0.244,2.413,0.1,3.788-0.04c2.006-0.205,3.901-0.395,4.775,0.559L307.394,282.355z"/>
		<path style="fill:#3E2D4A;" d="M285.964,275.819c-1.986-20.3-8.193-20.694-8.255-20.695L277.705,254
			c0.336,0.014,7.271,0.169,9.379,21.71L285.964,275.819z"/>
	</g>
	<path style="fill:#FFFFFF;" d="M260.135,176.244c-11.197,18.562,4.779,39.393,25.874,34.849c0,0-1.995,7.402-0.236,7.558
		s25.043-10.163,24.529-30.503C309.629,161.546,271.332,157.682,260.135,176.244z"/>
	<path style="fill:#CC5078;" d="M285.555,201.773c0,0-17.518-9.227-17.331-17.013s8.55-11.903,15.03-0.211
		c0,0,1.79-9.269,8.338-8.286C299.025,177.378,300.108,188.313,285.555,201.773z"/>
	<path style="fill:#FFFFFF;" d="M502.488,172.252c11.931,19.779-5.092,41.975-27.571,37.134c0,0,2.126,7.887,0.252,8.054
		c-1.874,0.167-26.685-10.829-26.137-32.503C449.749,156.59,490.556,152.473,502.488,172.252z"/>
	<g>
		<path style="fill:#68AE9F;" d="M243.176,132.692c0,0,6.404,1.706,9.229-4.331c2.826-6.038,0.651-10.08-1.1-11.22
			c-1.751-1.141-10.048,3.62-10.852,8.259C239.649,130.04,243.176,132.692,243.176,132.692z"/>
		<path style="fill:#348184;" d="M297.715,117.116c0,0,2.527,6.126,9.041,4.711c6.514-1.415,8.409-5.595,8.254-7.68
			c-0.155-2.084-8.972-5.793-13.149-3.619S297.715,117.116,297.715,117.116z"/>
		<path style="fill:#68AE9F;" d="M275.607,115.885c0,0-1.612,6.428,4.466,9.164s10.088,0.503,11.203-1.265
			c1.115-1.768-3.767-9.993-8.418-10.729S275.607,115.885,275.607,115.885z"/>
		<path style="fill:#348184;" d="M228.181,126.736c0,0-5.236,4.062-2.143,9.967c3.093,5.905,7.626,6.623,9.595,5.92
			c1.968-0.703,3.205-10.188,0-13.638C232.427,125.536,228.181,126.736,228.181,126.736z"/>
		<path style="fill:#348184;" d="M248.088,138.918c0,0,0.758,6.583,7.411,7c6.653,0.417,9.617-3.087,10.037-5.135
			c0.419-2.048-7.049-8.023-11.661-7.071C249.264,134.665,248.088,138.918,248.088,138.918z"/>
		<path style="fill:#348184;" d="M259.184,127.447c0,0,0.758,6.583,7.411,7c6.653,0.417,9.617-3.087,10.037-5.135
			c0.419-2.048-7.049-8.023-11.661-7.071C260.359,123.193,259.184,127.447,259.184,127.447z"/>
		<path style="fill:#348184;" d="M264.442,120.866c0,0,6.604-0.547,7.235-7.183c0.63-6.636-2.776-9.712-4.809-10.197
			c-2.033-0.485-8.245,6.788-7.442,11.428C260.228,119.554,264.442,120.866,264.442,120.866z"/>
		<path style="fill:#348184;" d="M282.239,111.437c0,0,6.451,1.517,9.097-4.601c2.646-6.118,0.354-10.095-1.43-11.183
			c-1.784-1.088-9.937,3.914-10.604,8.576C278.635,108.89,282.239,111.437,282.239,111.437z"/>
		<path style="fill:#348184;" d="M302.04,124.848c0,0-6.382,1.784-5.748,8.42c0.634,6.636,4.561,9.012,6.649,9.105
			s6.814-8.223,5.149-12.628C306.425,125.34,302.04,124.848,302.04,124.848z"/>
		<path style="fill:#348184;" d="M316.73,136.298c0,0-3.523,5.613,1.41,10.097c4.933,4.484,9.437,3.602,11.044,2.266
			c1.607-1.336-0.488-10.669-4.683-12.808C320.306,133.713,316.73,136.298,316.73,136.298z"/>
		<path style="fill:#68AE9F;" d="M315.968,133.062c0,0,6.14,2.493,9.698-3.145c3.557-5.638,1.905-9.92,0.309-11.27
			s-10.421,2.337-11.798,6.84C312.799,129.99,315.968,133.062,315.968,133.062z"/>
		<path style="fill:#348184;" d="M333.589,132.675c0,0,2.612,6.091,9.106,4.585c6.494-1.506,8.331-5.712,8.146-7.794
			c-0.184-2.082-9.052-5.668-13.198-3.435C333.497,128.263,333.589,132.675,333.589,132.675z"/>
		<path style="fill:#312A45;" d="M229.503,133.056l-0.08-0.556c-0.005-0.039-0.57-3.887-1.696-5.432l-0.331-0.454l0.909-0.663
			l0.332,0.455c1.29,1.771,1.876,5.765,1.901,5.934l0.08,0.557L229.503,133.056z"/>
		<path style="fill:#312A45;" d="M253.306,139.088c-1.341,0-4.948-0.371-7.574-4.074l0.917-0.65
			c2.838,3.999,7.017,3.589,7.057,3.584l0.123,1.118C253.793,139.07,253.606,139.088,253.306,139.088z"/>
		<path style="fill:#312A45;" d="M243.031,134.7l-1.059-0.38l0.19-0.529c1.086-3.026,4.346-6.424,4.484-6.567l0.39-0.405l0.81,0.781
			l-0.39,0.405c-0.032,0.034-3.231,3.37-4.235,6.166L243.031,134.7z"/>
		<path style="fill:#312A45;" d="M266.52,128.794c-1.752-1.039-6.896-0.834-8.731-0.665l-0.102-1.12
			c0.284-0.025,6.987-0.617,9.406,0.818L266.52,128.794z"/>
		<path style="fill:#312A45;" d="M264.921,121.437l-0.99-0.534l0.267-0.495c0.794-1.471,0.23-5.195-0.055-6.506l-0.119-0.549
			l1.099-0.239l0.12,0.55c0.114,0.523,1.079,5.177-0.055,7.278L264.921,121.437z"/>
		<path style="fill:#312A45;" d="M280.694,117.781c-0.23-0.044-5.64-1.102-7.535-2.732l0.734-0.852
			c1.385,1.191,5.533,2.195,7.015,2.481L280.694,117.781z"/>
		<path style="fill:#312A45;" d="M282.974,112.25l-1.124-0.035c0.072-2.314,2.599-4.779,2.707-4.882l0.782,0.809
			C285.316,108.164,283.033,110.394,282.974,112.25z"/>
		<path style="fill:#312A45;" d="M298.955,118.941c-0.343,0-0.586-0.01-0.678-0.014l0.055-1.124c1.071,0.054,4.1-0.026,5.227-1
			l0.736,0.851C302.975,118.796,300.253,118.941,298.955,118.941z"/>
		<path style="fill:#312A45;" d="M302.642,128.44c-0.037-0.155-0.899-3.819-0.861-6.102l1.125,0.019
			c-0.036,2.142,0.822,5.787,0.83,5.824L302.642,128.44z"/>
		<path style="fill:#312A45;" d="M319.853,139.031c-0.163-0.078-4.006-1.95-4.881-4.891l1.079-0.321
			c0.732,2.461,4.254,4.18,4.289,4.197L319.853,139.031z"/>
		<path style="fill:#312A45;" d="M314.359,133.289c-0.538,0-1.035-0.119-1.455-0.405l0.634-0.929
			c1.245,0.849,4.472-0.965,6.215-2.308l0.686,0.891C320.007,130.87,316.783,133.289,314.359,133.289z"/>
		<path style="fill:#312A45;" d="M331.702,132.703l-0.071-1.123c0.903-0.058,5.466-0.329,6.505,0.03l-0.367,1.063
			C337.164,132.466,333.857,132.566,331.702,132.703z"/>
		<path style="fill:#312A45;" d="M320.932,135.253c-7.319,0.001-12.234-5.274-17.418-10.835c-5.797-6.22-11.797-12.65-21.639-11.572
			c-10.139,1.111-16.559,7.729-22.224,13.567c-5.051,5.206-9.412,9.7-15.094,8.587c-11.503-2.258-21.041-12.154-21.442-12.574
			l-0.388-0.407l0.814-0.775l0.388,0.406c0.096,0.101,9.698,10.058,20.844,12.246c5.081,0.997,9.247-3.296,14.07-8.267
			c5.797-5.975,12.367-12.746,22.908-13.902c10.401-1.138,16.598,5.5,22.585,11.922c5.382,5.775,10.481,11.23,18.197,10.389
			c16.068-1.745,18.194-13.151,18.214-13.266l0.094-0.554l1.108,0.189l-0.094,0.554c-0.021,0.124-2.298,12.359-19.2,14.195
			C322.067,135.223,321.492,135.253,320.932,135.253z"/>
	</g>
	<g>
		<path style="fill:#348184;" d="M425.901,132.692c0,0,6.404,1.706,9.229-4.331c2.825-6.038,0.651-10.08-1.1-11.22
			c-1.751-1.141-10.048,3.62-10.852,8.259C422.374,130.04,425.901,132.692,425.901,132.692z"/>
		<path style="fill:#68AE9F;" d="M480.44,117.116c0,0,2.527,6.126,9.041,4.711c6.514-1.415,8.409-5.595,8.254-7.68
			c-0.155-2.084-8.972-5.793-13.149-3.619S480.44,117.116,480.44,117.116z"/>
		<path style="fill:#348184;" d="M458.332,115.885c0,0-1.612,6.428,4.466,9.164s10.088,0.503,11.203-1.265
			s-3.767-9.993-8.418-10.729C460.932,112.32,458.332,115.885,458.332,115.885z"/>
		<path style="fill:#348184;" d="M410.906,126.736c0,0-5.236,4.062-2.143,9.967c3.093,5.905,7.626,6.623,9.595,5.92
			c1.968-0.703,3.205-10.188,0-13.638C415.152,125.536,410.906,126.736,410.906,126.736z"/>
		<path style="fill:#68AE9F;" d="M430.813,138.918c0,0,0.759,6.583,7.411,7c6.653,0.417,9.617-3.087,10.037-5.135
			c0.419-2.048-7.049-8.023-11.661-7.071C431.988,134.665,430.813,138.918,430.813,138.918z"/>
		<path style="fill:#348184;" d="M441.909,127.447c0,0,0.759,6.583,7.411,7c6.653,0.417,9.617-3.087,10.037-5.135
			c0.419-2.048-7.049-8.023-11.661-7.071C443.084,123.193,441.909,127.447,441.909,127.447z"/>
		<path style="fill:#68AE9F;" d="M447.167,120.866c0,0,6.604-0.547,7.235-7.183c0.63-6.636-2.776-9.712-4.809-10.197
			s-8.245,6.788-7.442,11.428C442.953,119.554,447.167,120.866,447.167,120.866z"/>
		<path style="fill:#348184;" d="M464.964,111.437c0,0,6.451,1.517,9.097-4.601c2.646-6.118,0.354-10.095-1.43-11.183
			c-1.784-1.088-9.937,3.914-10.604,8.576C461.36,108.89,464.964,111.437,464.964,111.437z"/>
		<path style="fill:#348184;" d="M484.765,124.848c0,0-6.382,1.784-5.748,8.42c0.635,6.636,4.561,9.012,6.649,9.105
			c2.088,0.092,6.814-8.223,5.149-12.628C489.15,125.34,484.765,124.848,484.765,124.848z"/>
		<path style="fill:#348184;" d="M499.455,136.298c0,0-3.523,5.613,1.41,10.097c4.933,4.484,9.437,3.602,11.044,2.266
			c1.607-1.336-0.488-10.669-4.683-12.808C503.031,133.713,499.455,136.298,499.455,136.298z"/>
		<path style="fill:#348184;" d="M498.693,133.062c0,0,6.14,2.493,9.698-3.145c3.557-5.638,1.905-9.92,0.309-11.27
			c-1.595-1.35-10.421,2.337-11.798,6.84C495.524,129.99,498.693,133.062,498.693,133.062z"/>
		<path style="fill:#68AE9F;" d="M516.314,132.675c0,0,2.612,6.091,9.106,4.585s8.331-5.712,8.146-7.794
			c-0.185-2.082-9.052-5.668-13.198-3.435C516.222,128.263,516.314,132.675,516.314,132.675z"/>
		<path style="fill:#312A45;" d="M412.227,133.056l-0.08-0.556c-0.005-0.039-0.569-3.887-1.696-5.432l-0.331-0.454l0.908-0.663
			l0.332,0.455c1.291,1.771,1.876,5.765,1.9,5.935l0.08,0.556L412.227,133.056z"/>
		<path style="fill:#312A45;" d="M436.031,139.088c-1.341,0-4.948-0.371-7.574-4.074l0.918-0.65c2.822,3.979,6.885,3.6,7.057,3.584
			l0.122,1.118C436.518,139.07,436.331,139.088,436.031,139.088z"/>
		<path style="fill:#312A45;" d="M425.756,134.7l-1.059-0.38l0.19-0.529c1.086-3.026,4.346-6.424,4.485-6.567l0.39-0.405l0.81,0.781
			l-0.391,0.405c-0.032,0.034-3.23,3.37-4.234,6.166L425.756,134.7z"/>
		<path style="fill:#312A45;" d="M449.246,128.794c-1.751-1.038-6.896-0.832-8.731-0.665l-0.101-1.12
			c0.282-0.026,6.985-0.617,9.406,0.818L449.246,128.794z"/>
		<path style="fill:#312A45;" d="M447.644,121.437l-0.99-0.535l0.268-0.495c0.795-1.473,0.23-5.195-0.055-6.505l-0.12-0.55
			l1.098-0.239l0.12,0.549c0.114,0.524,1.081,5.178-0.055,7.28L447.644,121.437z"/>
		<path style="fill:#312A45;" d="M463.418,117.781c-0.23-0.044-5.64-1.102-7.535-2.732l0.734-0.852
			c1.386,1.192,5.534,2.195,7.014,2.481L463.418,117.781z"/>
		<path style="fill:#312A45;" d="M465.7,112.25l-1.125-0.035c0.072-2.314,2.6-4.779,2.706-4.882l0.782,0.809
			C468.04,108.164,465.757,110.394,465.7,112.25z"/>
		<path style="fill:#312A45;" d="M481.68,118.941c-0.343,0-0.587-0.01-0.678-0.014l0.055-1.124c1.069,0.055,4.101-0.025,5.227-1
			l0.736,0.851C485.7,118.796,482.977,118.941,481.68,118.941z"/>
		<path style="fill:#312A45;" d="M485.366,128.44c-0.037-0.155-0.9-3.819-0.86-6.102l1.125,0.02
			c-0.037,2.141,0.82,5.786,0.829,5.823L485.366,128.44z"/>
		<path style="fill:#312A45;" d="M502.578,139.031c-0.164-0.078-4.007-1.95-4.881-4.891l1.079-0.321
			c0.733,2.468,4.253,4.18,4.288,4.197L502.578,139.031z"/>
		<path style="fill:#312A45;" d="M497.083,133.289c-0.537,0-1.035-0.119-1.455-0.405l0.635-0.929
			c1.242,0.848,4.473-0.965,6.216-2.308l0.685,0.891C502.732,130.87,499.508,133.289,497.083,133.289z"/>
		<path style="fill:#312A45;" d="M514.427,132.703l-0.073-1.123c0.904-0.058,5.467-0.329,6.505,0.03l-0.367,1.063
			C519.888,132.463,516.581,132.565,514.427,132.703z"/>
		<path style="fill:#312A45;" d="M503.658,135.253c-7.32,0.001-12.235-5.274-17.418-10.835c-5.798-6.22-11.804-12.644-21.639-11.571
			c-10.138,1.111-16.559,7.729-22.224,13.567c-5.05,5.205-9.402,9.702-15.094,8.587c-11.503-2.258-21.042-12.154-21.443-12.574
			l-0.388-0.407l0.814-0.775l0.389,0.406c0.096,0.101,9.698,10.058,20.845,12.246c5.079,0.997,9.246-3.296,14.069-8.267
			c5.797-5.975,12.368-12.746,22.908-13.902c10.406-1.138,16.598,5.5,22.585,11.922c5.382,5.774,10.45,11.223,18.198,10.389
			c16.067-1.745,18.193-13.151,18.212-13.266l0.094-0.554l1.109,0.189l-0.094,0.554c-0.021,0.124-2.298,12.359-19.201,14.195
			C504.792,135.223,504.217,135.253,503.658,135.253z"/>
	</g>
	<g>
		<circle style="fill:#66B1B7;" cx="478.955" cy="185.244" r="17.664"/>
		<g>
			<path style="fill:none;" d="M466.971,177.81c3.177,3.115-1.017,7.524,0.661,8.734c1.677,1.21,5.271-1.067,8.147,2.408
				c2.875,3.474-2.636,8.147,0.599,9.225c2.956,0.985,5.601,0.733,5.031,4.542c1.996-0.278,3.885-0.883,5.609-1.77
				c-1.455-2.583-0.309-3.097,1.457-5.435c2.141-2.834-6.865-0.472-4.74-6.614c2.125-6.141,5.275-1.575,7.109-3.656
				c1.834-2.081-2.306-2.958-2.37-7.524c-0.042-3.059,2.095-4.047,3.513-4.369c-0.988-1.082-2.098-2.047-3.326-2.857
				c-1.294,1.774-3.141,1.786-6.266,0.848c-3.937-1.181-4.881,3.071-9.763,1.496c-2.119-0.684-3.351-1.337-4.069-1.858
				c-1.852,1.352-3.427,3.051-4.635,5.007C464.807,176.196,465.846,176.706,466.971,177.81z"/>
			<path style="fill:#348184;" d="M476.377,198.177c-3.235-1.078,2.276-5.751-0.599-9.225c-2.875-3.474-6.469-1.198-8.147-2.408
				c-1.677-1.21,2.516-5.619-0.661-8.734c-1.125-1.103-2.164-1.614-3.04-1.822c-1.664,2.694-2.64,5.857-2.64,9.256
				c0,9.756,7.909,17.664,17.664,17.664c0.835,0,1.65-0.078,2.454-0.19C481.978,198.91,479.333,199.162,476.377,198.177z"/>
			<path style="fill:#348184;" d="M482.397,171.343c3.124,0.937,4.972,0.925,6.266-0.848c-2.787-1.838-6.12-2.915-9.708-2.915
				c-3.888,0-7.472,1.271-10.389,3.401c0.718,0.521,1.95,1.175,4.069,1.858C477.516,174.414,478.461,170.162,482.397,171.343z"/>
			<path style="fill:#348184;" d="M488.475,177.72c0.063,4.566,4.204,5.443,2.37,7.524c-1.834,2.081-4.984-2.485-7.109,3.656
				c-2.126,6.141,6.881,3.779,4.74,6.614c-1.766,2.337-2.912,2.852-1.457,5.435c5.697-2.931,9.601-8.856,9.601-15.704
				c0-4.587-1.763-8.753-4.631-11.893C490.57,173.673,488.433,174.662,488.475,177.72z"/>
		</g>
	</g>
	<path style="fill:#FFFFFF;" d="M302.382,154.02c0,0,1.409-3.924,1.811-3.723c0.402,0.201,1.61,3.723,1.61,3.723
		s3.521,0.655,3.421,0.981s-3.018,1.735-3.018,1.735s-1.207,3.879-1.61,4.203c-0.402,0.325-1.912-4.002-1.912-4.002
		s-2.717-0.201-3.32-0.704C298.76,155.731,302.382,154.02,302.382,154.02z"/>
	<path style="fill:#FFFFFF;" d="M441.188,148.687c0,0,1.409-3.924,1.811-3.723c0.402,0.201,1.61,3.723,1.61,3.723
		s3.521,0.655,3.421,0.981c-0.101,0.327-3.018,1.735-3.018,1.735s-1.207,3.879-1.61,4.203c-0.402,0.325-1.912-4.002-1.912-4.002
		s-2.717-0.201-3.32-0.704C437.566,150.397,441.188,148.687,441.188,148.687z"/>
	<path style="fill:#FFFFFF;" d="M519.381,192.544c0,0,1.409-3.924,1.811-3.723c0.402,0.201,1.61,3.723,1.61,3.723
		s3.521,0.655,3.421,0.981c-0.101,0.327-3.018,1.735-3.018,1.735s-1.207,3.879-1.61,4.203s-1.912-4.002-1.912-4.002
		s-2.717-0.201-3.32-0.704C515.759,194.254,519.381,192.544,519.381,192.544z"/>
	<path style="fill:#FFFFFF;" d="M233.292,212.499c0,0,1.409-3.924,1.811-3.723c0.402,0.201,1.61,3.723,1.61,3.723
		s3.521,0.655,3.421,0.981c-0.101,0.326-3.018,1.735-3.018,1.735s-1.207,3.879-1.61,4.203c-0.402,0.325-1.912-4.002-1.912-4.002
		s-2.717-0.201-3.32-0.704C229.67,214.209,233.292,212.499,233.292,212.499z"/>
	<path style="fill:#FFFFFF;" d="M331.71,382.85c0,0,1.409-3.924,1.811-3.723c0.402,0.201,1.61,3.723,1.61,3.723
		s3.521,0.655,3.421,0.981c-0.101,0.327-3.018,1.735-3.018,1.735s-1.207,3.879-1.61,4.203c-0.402,0.325-1.912-4.002-1.912-4.002
		s-2.717-0.201-3.32-0.704C328.088,384.56,331.71,382.85,331.71,382.85z"/>
	<path style="fill:#FFFFFF;" d="M538.992,356.568c0,0,1.409-3.924,1.811-3.723c0.402,0.201,1.61,3.723,1.61,3.723
		s3.521,0.655,3.421,0.981c-0.101,0.327-3.018,1.735-3.018,1.735s-1.207,3.879-1.61,4.203c-0.402,0.324-1.912-4.002-1.912-4.002
		s-2.717-0.201-3.32-0.704C535.37,358.279,538.992,356.568,538.992,356.568z"/>
	<path style="fill:#FFFFFF;" d="M561.04,213.032c0,0,0.939-2.615,1.207-2.481c0.268,0.134,1.073,2.481,1.073,2.481
		s2.347,0.436,2.28,0.654c-0.067,0.218-2.012,1.156-2.012,1.156s-0.805,2.585-1.073,2.801c-0.268,0.216-1.274-2.667-1.274-2.667
		s-1.81-0.134-2.213-0.469C558.626,214.172,561.04,213.032,561.04,213.032z"/>
	<path style="fill:#FFFFFF;" d="M178.043,240.546c0,0,0.939-2.615,1.207-2.481c0.268,0.134,1.073,2.481,1.073,2.481
		s2.347,0.436,2.28,0.654c-0.067,0.218-2.012,1.156-2.012,1.156s-0.805,2.585-1.073,2.801c-0.268,0.216-1.274-2.667-1.274-2.667
		s-1.81-0.134-2.213-0.469C175.629,241.685,178.043,240.546,178.043,240.546z"/>
	<path style="fill:#FFFFFF;" d="M412.802,110.535c0,0,0.939-2.615,1.207-2.481c0.268,0.134,1.073,2.481,1.073,2.481
		s2.347,0.436,2.28,0.654s-2.012,1.156-2.012,1.156s-0.805,2.585-1.073,2.801c-0.268,0.216-1.274-2.667-1.274-2.667
		s-1.81-0.134-2.213-0.469C410.389,111.675,412.802,110.535,412.802,110.535z"/>
	<path style="fill:#FFFFFF;" d="M522.205,106.669c0,0,0.939-2.615,1.207-2.481c0.268,0.134,1.073,2.481,1.073,2.481
		s2.347,0.436,2.28,0.654c-0.067,0.218-2.012,1.156-2.012,1.156s-0.805,2.585-1.073,2.801c-0.268,0.216-1.274-2.667-1.274-2.667
		s-1.81-0.134-2.213-0.469C519.791,107.808,522.205,106.669,522.205,106.669z"/>
	<path style="fill:#FFFFFF;" d="M238.209,106.669c0,0,0.939-2.615,1.207-2.481c0.268,0.134,1.073,2.481,1.073,2.481
		s2.347,0.436,2.28,0.654c-0.067,0.218-2.012,1.156-2.012,1.156s-0.805,2.585-1.073,2.801c-0.268,0.216-1.274-2.667-1.274-2.667
		s-1.81-0.134-2.213-0.469C235.795,107.808,238.209,106.669,238.209,106.669z"/>
</g>
</svg>
