<?xml version="1.0" encoding="utf-8"?>
<!-- Generator: Adobe Illustrator 27.5.0, SVG Export Plug-In . SVG Version: 6.00 Build 0)  -->
<svg version="1.1" xmlns="http://www.w3.org/2000/svg" xmlns:xlink="http://www.w3.org/1999/xlink" x="0px" y="0px"
	 viewBox="0 0 500 500" style="enable-background:new 0 0 500 500;" xml:space="preserve">
<g id="BACKGROUND">
</g>
<g id="OBJECTS">
	<path style="fill-rule:evenodd;clip-rule:evenodd;fill:#DFF2F8;" d="M107.509,64.338c-64.673,52.643,21.707,136.074-3.072,171.093
		c-24.779,35.019-90.203,135.635-11.881,182.228c55.847,33.223,118.324-28.726,182.118-13.347
		c63.793,15.379,154.869,43,171.939-32.869c17.07-75.868-65.152-110.034-46.355-148.042c18.796-38.008,58.61-111.976,1.32-148.997
		s-97.854,28.392-146.426,9.269S155.337,25.407,107.509,64.338z"/>
	<ellipse style="fill:#A8DCD0;" cx="246.655" cy="433.082" rx="162.622" ry="23.885"/>
	<g>
		<path style="fill:#175F77;" d="M303.762,398.175c0,0,33.882-57.213,116.823-41.331
			C420.585,356.845,378.233,440.918,303.762,398.175z"/>
		<path style="fill:#30A8A7;" d="M297.472,398.81c0,0,55.547-36.549,123.113,14.109C420.585,412.919,345.643,469.89,297.472,398.81z
			"/>
		<g>
			<path style="fill:#30A8A7;" d="M95.457,306.408c0.022,0.021,0.04,0.041,0.062,0.062c22.496,22.076,40.001,34.034,51.607,40.402
				c-15.334,0.878-26.289,4.853-26.805,10.571c-0.644,7.132,15.174,14.508,36.369,17.425c-9.915,3.975-16.134,8.943-15.314,13.05
				c1.224,6.128,17.637,8.015,36.661,4.217c3.366-0.672,6.584-1.479,9.601-2.383l0,0c5.082-1.27,9.497-3.114,13.337-5.315
				c2.794-1.491,5.06-3.051,6.662-4.604c2.991-2.456,5.509-5.109,7.61-7.786c2.493-2.381,4.989-6.604,7.17-12.06
				c2.296-5.271,3.003-9.071,3.003-9.071l-0.001-0.001c0.805-2.958,1.514-6.1,2.093-9.379c3.371-19.104,1.115-35.471-5.038-36.557
				c-5.16-0.911-11.421,9.216-15.296,23.772c-0.305-1.336-0.631-2.683-0.985-4.041c-6.148-23.625-17.3-41.171-24.91-39.191
				c-4.051,1.054-6.281,7.432-6.553,16.73c-7.327-6.833-15.822-13.744-25.206-20.352c-37.154-26.167-74.107-37.677-82.535-25.71
				C60.531,265.358,72.705,285.651,95.457,306.408z"/>
			<path style="fill:#43105C;" d="M213.436,383.61c-2.443-2.883-4.853-5.794-7.322-8.652c-9.814-11.485-19.876-22.769-30.518-33.506
				c-5.241-5.451-10.83-10.542-16.29-15.773l-8.486-7.522c-1.423-1.244-2.812-2.529-4.263-3.74l-4.381-3.6
				c-2.926-2.394-5.806-4.848-8.771-7.195l-9.033-6.867c-1.514-1.133-2.994-2.315-4.537-3.409l-4.664-3.232l-9.333-6.468
				l0.129-0.201l9.474,6.275l4.739,3.139c1.568,1.063,3.074,2.215,4.614,3.318l9.195,6.69c3.02,2.289,5.958,4.687,8.942,7.026
				l4.451,3.542c1.474,1.192,2.887,2.457,4.333,3.683l8.632,7.412c5.557,5.159,11.25,10.183,16.595,15.57
				c10.861,10.59,21.375,21.58,31,33.325c2.397,2.943,4.732,5.935,7.1,8.899c2.297,3.02,4.645,6.001,6.859,9.082
				c2.216,3.08,4.434,6.156,6.574,9.287l6.288,9.43l-0.146,0.189c-4.787-5.974-9.261-12.009-14.037-17.894L213.436,383.61z"/>
		</g>
		<g>
			<path style="fill:#F67C87;" d="M424.076,272.822c-5.345,2.779-17.161,6.593-18.338,4.33c-1.177-2.263,8.732-9.745,14.077-12.524
				c5.345-2.779,10.632-3.198,11.809-0.935C432.801,265.955,429.422,270.042,424.076,272.822z M416.513,289.004
				c-0.217-2.541-5.26-4.185-11.263-3.671c-6.003,0.514-18.025,3.617-17.808,6.158c0.217,2.541,12.592,3.558,18.595,3.044
				C412.04,294.021,416.73,291.545,416.513,289.004z M399.46,305.634c-0.217-2.541-5.26-4.185-11.263-3.671
				c-6.003,0.513-18.025,3.617-17.808,6.158c0.217,2.541,12.592,3.558,18.595,3.044C394.988,310.651,399.678,308.175,399.46,305.634
				z M387.162,321.477c-0.3-2.533-5.394-4.01-11.376-3.301c-5.983,0.709-17.897,4.204-17.597,6.737
				c0.3,2.533,12.702,3.144,18.684,2.435C382.856,326.638,387.462,324.01,387.162,321.477z M377.374,342.029
				c0.052-2.55-4.79-4.715-10.813-4.837c-6.023-0.122-18.306,1.698-18.357,4.248c-0.051,2.55,12.147,4.864,18.171,4.986
				S377.323,344.578,377.374,342.029z M368.488,362.415c0.213-2.541-4.48-5.01-10.484-5.514c-6.004-0.504-18.377,0.532-18.59,3.073
				c-0.213,2.541,11.814,5.626,17.817,6.13S368.275,364.956,368.488,362.415z M382.061,272.021
				c-2.509-0.456-5.417,3.979-6.495,9.906c-1.078,5.927-1.235,18.343,1.274,18.799c2.509,0.456,6.734-11.219,7.812-17.147
				C385.73,277.652,384.57,272.477,382.061,272.021z M363.976,288.462c-2.549-0.075-4.759,4.747-4.935,10.769
				s1.532,18.32,4.081,18.395c2.549,0.075,4.974-12.103,5.15-18.125S366.525,288.537,363.976,288.462z M347.297,306.038
				c-2.532,0.306-3.999,5.402-3.277,11.384c0.722,5.981,4.242,17.888,6.774,17.582c2.532-0.306,3.117-12.708,2.395-18.689
				C352.467,310.333,349.829,305.732,347.297,306.038z M333.442,326.008c-2.483,0.583-3.38,5.81-2.004,11.675
				c1.376,5.865,6.186,17.313,8.669,16.73s1.699-12.974,0.323-18.84C339.053,329.708,335.925,325.425,333.442,326.008z
				 M399.137,255.901c-2.509-0.456-5.417,3.979-6.495,9.906c-1.078,5.927-1.235,18.343,1.275,18.799s6.734-11.219,7.812-17.147
				C402.806,261.533,401.646,256.357,399.137,255.901z"/>
			<path d="M409.724,275.18c-0.124-0.246-0.427-0.347-0.671-0.224c-42.754,21.389-69.976,81.484-77.3,99.393
				c-0.217,0.531-0.348,0.854-0.393,0.946c-0.133,0.232-0.059,0.53,0.17,0.673c0.083,0.051,0.174,0.075,0.265,0.075
				c0.166,0,0.33-0.084,0.425-0.235c0.051-0.083,0.105-0.213,0.46-1.08c7.291-17.827,34.379-77.643,76.821-98.877
				C409.747,275.727,409.847,275.427,409.724,275.18z"/>
		</g>
		<g>
			<path style="fill:#F67C87;" d="M75.87,362.019c4.113,4.402,10.962,14.759,9.099,16.5c-1.863,1.741-11.733-5.792-15.846-10.194
				c-4.114-4.402-5.938-9.382-4.074-11.123C66.911,355.46,71.757,357.617,75.87,362.019z M93.49,364.956
				c-2.389,0.892-2.617,6.191-0.51,11.835c2.108,5.644,8.327,16.39,10.716,15.498c2.389-0.892,0.043-13.085-2.064-18.729
				C99.524,367.916,95.879,364.064,93.49,364.956z M114.09,376.913c-2.389,0.892-2.617,6.191-0.51,11.835
				c2.108,5.644,8.327,16.39,10.716,15.498c2.389-0.892,0.043-13.085-2.064-18.729C120.125,379.872,116.48,376.02,114.09,376.913z
				 M132.655,384.501c-2.359,0.97-2.414,6.273-0.123,11.845c2.291,5.572,8.859,16.109,11.217,15.139
				c2.359-0.97-0.385-13.079-2.676-18.651C138.783,387.262,135.014,383.531,132.655,384.501z M155.081,388.407
				c-2.47,0.635-3.255,5.881-1.754,11.715c1.501,5.835,6.555,17.176,9.025,16.541c2.47-0.636,1.421-13.008-0.081-18.842
				C160.77,391.986,157.551,387.771,155.081,388.407z M177.106,391.488c-2.505,0.477-3.622,5.662-2.494,11.58
				c1.128,5.918,5.451,17.558,7.956,17.081c2.505-0.477,2.244-12.891,1.117-18.809C182.556,395.421,179.611,391.011,177.106,391.488
				z M86.389,402.704c0.235,2.539,5.288,4.149,11.287,3.594c5.999-0.554,18-3.74,17.765-6.279s-12.616-3.471-18.615-2.917
				C90.827,397.657,86.154,400.165,86.389,402.704z M107.085,415.706c0.613,2.475,5.851,3.308,11.699,1.86
				c5.848-1.448,17.235-6.399,16.622-8.874c-0.613-2.475-12.994-1.539-18.842-0.09C110.716,410.049,106.472,413.23,107.085,415.706z
				 M128.497,427.049c0.975,2.357,6.278,2.4,11.846,0.098c5.567-2.303,16.09-8.893,15.115-11.25
				c-0.975-2.357-13.078,0.413-18.646,2.715C131.245,420.915,127.522,424.692,128.497,427.049z M151.455,435.028
				c1.228,2.235,6.504,1.694,11.784-1.207c5.28-2.902,15.014-10.61,13.785-12.845c-1.228-2.235-12.953,1.85-18.233,4.752
				C153.511,428.629,150.227,432.793,151.455,435.028z M66.273,390.588c0.235,2.539,5.288,4.149,11.287,3.594
				c5.999-0.554,18-3.74,17.765-6.279c-0.235-2.539-12.616-3.471-18.615-2.917C70.712,385.541,66.039,388.049,66.273,390.588z"/>
			<path d="M199.752,422.825c-0.094-0.027-0.234-0.045-1.168-0.154c-19.131-2.233-84.027-12.254-115.879-47.426
				c-0.186-0.204-0.502-0.22-0.706-0.034c-0.205,0.185-0.221,0.501-0.035,0.706c32.087,35.43,97.286,45.504,116.505,47.747
				c0.572,0.067,0.92,0.106,1.021,0.126c0.041,0.01,0.082,0.015,0.122,0.015c0.216,0,0.416-0.142,0.48-0.359
				C200.169,423.181,200.017,422.902,199.752,422.825z"/>
		</g>
	</g>
	<g>
		<g>
			<path style="fill:#F64050;" d="M126.469,85.837c0,0,18.626,3.111,48.913-13.808c0,0-2.301,22.005-18.873,26.683
				C139.937,103.39,126.469,85.837,126.469,85.837z"/>
			<path style="fill:#F64050;" d="M142.771,54.824c-2.992,1.351-4.729,5.207-3.762,8.355c0.312,1.016,1.209,1.562,2.169,1.321
				c0.952-0.239,1.473-1.072,1.312-2.095c-0.032-0.201-0.059-0.404-0.084-0.606c-0.254-2.01,0.93-3.631,2.961-4.055
				c1.715-0.359,3.561,0.801,4.077,2.561c0.527,1.797-0.509,3.759-2.338,4.427c-1.305,0.477-1.706,1.267-1.327,2.623
				c0.241,0.86,0.472,1.724,0.737,2.576c0.06,0.191,0.079,0.345,0.032,0.473c0.972,0.038,2.224-0.184,3.695-1.001
				c-0.022-0.011-0.042-0.022-0.047-0.037c-0.199-0.549-0.416-1.106-0.491-1.678c-0.024-0.183,0.332-0.457,0.56-0.627
				c2.286-1.714,3.415-4.763,2.717-7.386C151.748,55.039,147.142,52.85,142.771,54.824z"/>
			<path style="fill:#F68D20;" d="M188.621,77.925c-10.615-2.597-21.217-5.243-31.821-7.885c-2.036-0.507-4.074-0.9-6.186-0.597
				c-0.11,0.016-0.288,0-0.371-0.041c-1.47,0.817-2.723,1.039-3.695,1.001c-0.045,0.124-0.152,0.224-0.349,0.308
				c-1.615,0.693-2.971,1.754-4.195,2.998c-7.897,8.025-15.798,16.047-23.685,24.083c-0.53,0.54-1.079,1.121-1.406,1.787
				c-0.925,1.886-0.747,3.738,0.636,5.346c1.4,1.628,3.221,2.072,5.267,1.497c11.08-3.118,22.156-6.25,33.234-9.378
				c7.148-2.018,14.295-4.036,21.443-6.054c3.954-1.117,7.913-2.221,11.862-3.355c2.842-0.816,4.407-3.676,3.459-6.338
				C192.113,79.336,190.594,78.408,188.621,77.925z M189.448,82.87c0.022,0.806-0.519,1.121-1.227,1.32
				c-11.058,3.111-22.112,6.235-33.167,9.355c-11.03,3.113-22.061,6.228-33.091,9.341c-1.048,0.296-1.681,0.041-1.924-0.752
				c-0.192-0.63,0.104-1.075,0.518-1.496c2.964-3.013,5.922-6.034,8.887-9.046c5.021-5.101,10.046-10.199,15.069-15.297
				c2.904-2.947,6.376-3.988,10.397-2.997c11.105,2.737,22.201,5.508,33.304,8.25C188.954,81.73,189.427,82.1,189.448,82.87z"/>
			<path style="fill:#F67C87;" d="M196.312,239.704c42.899-12.111,53.064-23.638,53.064-23.638l-41.475-94.78l22.178,8.024
				l14.991-35.832l-37.025-17.685l-32.663-3.766c-7.543,14.683-21.061,18.932-21.061,18.932s-13.745,3.447-27.852-5.124
				l-25.872,20.29l-22.312,34.436l31.516,22.703l14.708-18.437l14.212,102.476C138.72,247.305,153.413,251.815,196.312,239.704z"/>
			<path d="M205.743,77.375c-0.126,0.226-12.526,22.837-1.067,41.928l0.857-0.515c-11.157-18.588,0.959-40.704,1.083-40.925
				L205.743,77.375z"/>
			<path d="M125.221,141.461l1-0.01c-0.217-22.264-22.61-35.054-22.836-35.181l-0.488,0.873
				C103.118,107.267,125.01,119.77,125.221,141.461z"/>
			<path style="fill:#F64050;" d="M230.079,129.311c0,0,1.105-23.687,14.991-35.832C245.071,93.478,241.621,113.029,230.079,129.311
				z"/>
			<path style="fill:#F64050;" d="M109.801,163.266c0,0-13.329-19.613-31.516-22.703C78.285,140.563,91.449,155.423,109.801,163.266
				z"/>
			<path style="fill:#FFFFFF;" d="M182.648,126.902c-14.625,4.417-10.803,26.136-10.803,26.136s-8.099-20.512-22.875-16.629
				c-14.776,3.883-13.061,40.626,38.344,71.422C215.026,154.701,197.273,122.485,182.648,126.902z"/>
			<polygon style="fill:#F64050;" points="220.064,166.671 137.874,189.874 143.399,178.195 132.379,170.408 214.569,147.205 
				208.226,159.894 			"/>
			
				<text transform="matrix(0.9624 -0.2717 0.2717 0.9624 150.5269 181.2331)" style="fill:#FFFFFF; font-family:'Vibur'; font-size:12.7354px;">DONATION</text>
		</g>
		<g>
			<path style="fill:#1D81FF;" d="M343.575,67.721c1.412,0,77.647,27.562,77.647,27.562l-54.027,152.673l-27.373-15.045
				c0,0,38.757-101.191,27.373-107.308c-11.384-6.118-60.561,99.294-60.561,99.294l-23.765-13.647L343.575,67.721z"/>
			<g>
				<path style="fill:#1661BF;" d="M330.363,98.959c12.788-3.392,23.038-18.413,27.662-26.325c-8.27-2.917-14.07-4.913-14.45-4.913
					L330.363,98.959z"/>
				<path style="fill:#1661BF;" d="M409.402,91.018c-2.209,7.899-4.268,21.098,2.044,31.89l9.775-27.624
					C421.222,95.283,416.507,93.578,409.402,91.018z"/>
			</g>
			<path style="fill:#1661BF;" d="M342.203,230.055c0.362,0.033,29.462,13.319,28.453,15.639
				c-1.009,2.321-4.742,14.328-9.484,13.016c-4.742-1.312-24.014-11.503-24.317-14.278S338.874,229.752,342.203,230.055z"/>
			<path style="fill:#1661BF;" d="M286.27,203.073c0.345,0.032,28.042,12.75,27.082,14.971c-0.96,2.222-4.514,13.716-9.027,12.46
				c-4.514-1.256-22.857-11.012-23.145-13.668C280.892,214.18,283.101,202.783,286.27,203.073z"/>
			<g>
				<path style="fill:#FFFFFF;" d="M301.132,229.269c0.267,0.118,0.526,0.23,0.773,0.335l6.648-15.441
					c-0.237-0.139-0.486-0.281-0.735-0.424L301.132,229.269z"/>
				<path style="fill:#FFFFFF;" d="M310.821,215.564l-7.142,14.733c0.235,0.081,0.457,0.154,0.646,0.206
					c0.059,0.016,0.117,0.022,0.176,0.034l7.026-14.493C311.307,215.89,311.073,215.73,310.821,215.564z"/>
			</g>
			<g>
				<path style="fill:#FFFFFF;" d="M368.325,243.319l-7.16,15.389c0.002,0.001,0.005,0.002,0.007,0.002
					c0.302,0.084,0.6,0.112,0.894,0.093l6.972-14.986C368.819,243.658,368.581,243.492,368.325,243.319z"/>
				<path style="fill:#FFFFFF;" d="M358.034,257.516c0.274,0.119,0.537,0.231,0.79,0.336l6.769-16.225
					c-0.243-0.141-0.496-0.285-0.75-0.43L358.034,257.516z"/>
			</g>
			<path style="fill:#1D36FF;" d="M371.987,89.162c0,1.186-0.961,2.147-2.147,2.147c-1.186,0-2.147-0.961-2.147-2.147
				s0.961-2.147,2.147-2.147C371.026,87.015,371.987,87.976,371.987,89.162z"/>
			<path style="fill:#1D36FF;" d="M378.789,187.994l0.748-0.664c-4.251-4.782-11.152-8.263-11.444-8.409l-0.447,0.895
				C367.715,179.85,374.669,183.359,378.789,187.994z"/>
			<path style="fill:#1D36FF;" d="M368.492,188.089c0.336,0.204,8.265,5.008,11.703,5.19l0.053-0.999
				c-3.188-0.168-11.156-4.997-11.236-5.045L368.492,188.089z"/>
			<path style="fill:#1D36FF;" d="M314.482,164.542c0.181,0.184,4.48,4.527,9.501,5.782l0.242-0.97
				c-4.742-1.186-8.986-5.469-9.028-5.512L314.482,164.542z"/>
			<path style="fill:#1D36FF;" d="M310.727,171.2c0.065,0.019,6.485,1.942,9.384,3.988l0.576-0.817
				c-3.032-2.14-9.405-4.049-9.675-4.13L310.727,171.2z"/>
			<path style="fill:#1D36FF;" d="M371.026,126.373l-0.139,0.99c0.51,0.072,8.593,1.187,15.968,1.187
				c3.847,0,7.503-0.304,9.787-1.218l-0.371-0.929C389.853,128.972,371.214,126.4,371.026,126.373z"/>
			<path style="fill:#1D36FF;" d="M370.706,130.035c0.469,0.273,11.587,6.684,19.912,6.95l0.031-0.999
				c-8.07-0.258-19.328-6.75-19.441-6.815L370.706,130.035z"/>
			<path style="fill:#1D36FF;" d="M341.645,108.632l-0.848,0.532c3.196,5.088,17.872,15.133,18.495,15.559l0.564-0.826
				C359.706,123.793,344.73,113.545,341.645,108.632z"/>
			<path style="fill:#1D36FF;" d="M337.379,121.227l0.156,0.987c10.044-1.593,20.113,5.004,20.214,5.07l0.554-0.833
				C357.879,126.17,347.805,119.571,337.379,121.227z"/>
			<g>
				<path style="fill:#1D36FF;" d="M363.046,74.41c-0.323-0.115-0.647-0.229-0.965-0.342c-0.45,3.182-1.423,8.849-2.936,11.397
					l0.859,0.511C361.59,83.307,362.579,77.691,363.046,74.41z"/>
				<path style="fill:#1D36FF;" d="M388.958,99.57l0.998,0.066c0.163-2.447,4.122-9.657,6.216-13.381
					c-0.317-0.114-0.633-0.228-0.953-0.343C392.113,91.455,389.118,97.163,388.958,99.57z"/>
				<path style="fill:#1D36FF;" d="M361.365,86.788l0.891,0.454c1.737-3.411,3.045-8.106,3.885-11.733
					c-0.32-0.114-0.639-0.227-0.956-0.34C364.354,78.77,363.058,83.464,361.365,86.788z"/>
				<path style="fill:#1D36FF;" d="M400.007,87.634c-0.326-0.117-0.655-0.235-0.985-0.354c-2.276,3.111-5.691,8.16-6.175,11.065
					l0.986,0.164C394.293,95.753,397.787,90.655,400.007,87.634z"/>
				<path style="fill:#1D36FF;" d="M377.727,79.641c-0.332-0.119-0.662-0.237-0.993-0.355c-0.151,7.354-0.747,22.005-4.977,27.909
					l0.813,0.582C376.905,101.726,377.562,87.191,377.727,79.641z"/>
			</g>
		</g>
	</g>
	<g>
		<polygon style="fill:#573E32;" points="337.353,269.949 212.412,269.949 165.118,304.891 304.176,304.891 		"/>
		<g>
			<path style="fill:#175F77;" d="M312.996,291.129h-91.541c-0.553,0-1.092,0.177-1.537,0.506l-30.251,22.349
				c-2.007,1.483-0.958,4.668,1.537,4.668h100.571c0.709,0,1.388-0.291,1.876-0.806l21.221-22.35
				C316.437,293.849,315.269,291.129,312.996,291.129z"/>
			<path style="fill:#30A8A7;" d="M312.996,284.987h-91.541c-0.553,0-1.092,0.177-1.537,0.506l-30.251,22.35
				c-2.007,1.483-0.958,4.667,1.537,4.667h100.571c0.709,0,1.388-0.291,1.876-0.806l21.221-22.349
				C316.437,287.707,315.269,284.987,312.996,284.987z"/>
			<path style="fill:#F67C87;" d="M312.996,279.106h-91.541c-0.553,0-1.092,0.177-1.537,0.506l-30.251,22.35
				c-2.007,1.483-0.958,4.668,1.537,4.668h100.571c0.709,0,1.388-0.291,1.876-0.806l21.221-22.35
				C316.437,281.826,315.269,279.106,312.996,279.106z"/>
			<path style="fill:#F5CBBD;" d="M312.996,273.133h-91.541c-0.553,0-1.092,0.177-1.537,0.506l-30.251,22.35
				c-2.007,1.483-0.958,4.667,1.537,4.667h100.571c0.709,0,1.388-0.291,1.876-0.806l21.221-22.35
				C316.437,275.853,315.269,273.133,312.996,273.133z"/>
			<g>
				<path style="fill:#EF911D;" d="M302.596,280.889c0-0.011,0.006-0.022,0.006-0.033c0-3.935-21.227-7.124-47.411-7.124
					c-26.185,0-47.411,3.19-47.411,7.124c0,0.011,0.005,0.022,0.006,0.033c0,0.011-0.006,0.022-0.006,0.033
					c0,0.011,0.005,0.022,0.006,0.033c0,0.011-0.006,0.022-0.006,0.033c0,0.011,0.005,0.022,0.006,0.033
					c0,0.011-0.006,0.022-0.006,0.033c0,0.011,0.005,0.022,0.006,0.033c0,0.011-0.006,0.022-0.006,0.033
					c0,0.011,0.005,0.022,0.006,0.033c0,0.011-0.006,0.022-0.006,0.033c0,0.011,0.005,0.022,0.006,0.033
					c0,0.011-0.006,0.022-0.006,0.033c0,0.011,0.005,0.022,0.006,0.033c0,0.011-0.006,0.022-0.006,0.033
					c0,0.011,0.005,0.022,0.006,0.033c0,0.011-0.006,0.022-0.006,0.033c0,0.011,0.005,0.022,0.006,0.033
					c0,0.011-0.006,0.022-0.006,0.033c0,0.011,0.005,0.022,0.006,0.033c0,0.011-0.006,0.022-0.006,0.033
					c0,0.011,0.005,0.022,0.006,0.033c0,0.011-0.006,0.022-0.006,0.033c0,0.011,0.005,0.022,0.006,0.033
					c0,0.011-0.006,0.022-0.006,0.033c0,0.011,0.005,0.022,0.006,0.033c0,0.011-0.006,0.022-0.006,0.033
					c0,0.011,0.005,0.022,0.006,0.033c0,0.011-0.006,0.022-0.006,0.033c0,0.011,0.005,0.022,0.006,0.033
					c0,0.011-0.006,0.022-0.006,0.033c0,0.011,0.005,0.022,0.006,0.033c0,0.011-0.006,0.022-0.006,0.033
					c0,0.011,0.005,0.022,0.006,0.033c0,0.011-0.006,0.022-0.006,0.033c0,0.011,0.005,0.022,0.006,0.033
					c0,0.011-0.006,0.022-0.006,0.033c0,0.011,0.005,0.022,0.006,0.033c0,0.011-0.006,0.022-0.006,0.033
					c0,0.011,0.005,0.022,0.006,0.033c0,0.011-0.006,0.022-0.006,0.033c0,0.011,0.005,0.022,0.006,0.033
					c0,0.011-0.006,0.022-0.006,0.033c0,0.011,0.005,0.022,0.006,0.033c0,0.011-0.006,0.022-0.006,0.033
					c0,0.011,0.005,0.022,0.006,0.033c0,0.011-0.006,0.022-0.006,0.033c0,0.011,0.005,0.022,0.006,0.033
					c0,0.011-0.006,0.022-0.006,0.033c0,0.011,0.005,0.022,0.006,0.033c0,0.011-0.006,0.022-0.006,0.033
					c0,0.011,0.005,0.022,0.006,0.033c0,0.011-0.006,0.022-0.006,0.033c0,0.011,0.005,0.022,0.006,0.033
					c0,0.011-0.006,0.022-0.006,0.033c0,0.011,0.005,0.022,0.006,0.033c0,0.011-0.006,0.022-0.006,0.033
					c0,0.011,0.005,0.022,0.006,0.033c0,0.011-0.006,0.022-0.006,0.033c0,0.011,0.005,0.022,0.006,0.033
					c0,0.011-0.006,0.022-0.006,0.033c0,0.011,0.005,0.022,0.006,0.033c0,0.011-0.006,0.022-0.006,0.033
					c0,0.011,0.005,0.022,0.006,0.033c0,0.011-0.006,0.022-0.006,0.033c0,0.011,0.005,0.022,0.006,0.033
					c0,0.011-0.006,0.022-0.006,0.033s0.005,0.022,0.006,0.033c0,0.011-0.006,0.022-0.006,0.033s0.005,0.022,0.006,0.033
					c0,0.011-0.006,0.022-0.006,0.033c0,0.011,0.005,0.022,0.006,0.033c0,0.011-0.006,0.022-0.006,0.033
					c0,0.011,0.005,0.022,0.006,0.033c0,0.011-0.006,0.022-0.006,0.033c0,0.011,0.005,0.022,0.006,0.033
					c0,0.011-0.006,0.022-0.006,0.033c0,0.011,0.005,0.022,0.006,0.033c0,0.011-0.006,0.022-0.006,0.033
					c0,0.011,0.005,0.022,0.006,0.033c0,0.011-0.006,0.022-0.006,0.033c0,0.011,0.005,0.022,0.006,0.033
					c0,0.011-0.006,0.022-0.006,0.033c0,0.011,0.005,0.022,0.006,0.033c0,0.011-0.006,0.022-0.006,0.033
					c0,0.011,0.005,0.022,0.006,0.033c0,0.011-0.006,0.022-0.006,0.033c0,0.011,0.005,0.022,0.006,0.033
					c0,0.011-0.006,0.022-0.006,0.033c0,0.011,0.005,0.022,0.006,0.033c0,0.011-0.006,0.022-0.006,0.033
					c0,0.011,0.005,0.022,0.006,0.033c0,0.011-0.006,0.022-0.006,0.033c0,0.011,0.005,0.022,0.006,0.033
					c0,0.011-0.006,0.022-0.006,0.033c0,0.011,0.005,0.022,0.006,0.033c0,0.011-0.006,0.022-0.006,0.033
					c0,0.011,0.005,0.022,0.006,0.033c0,0.011-0.006,0.022-0.006,0.033c0,0.011,0.005,0.022,0.006,0.033
					c0,0.011-0.006,0.022-0.006,0.033c0,0.011,0.005,0.022,0.006,0.033c0,0.011-0.006,0.022-0.006,0.033s0.005,0.022,0.006,0.033
					c0,0.011-0.006,0.022-0.006,0.033s0.005,0.022,0.006,0.033c0,0.011-0.006,0.022-0.006,0.033c0,0.011,0.005,0.022,0.006,0.033
					c0,0.011-0.006,0.022-0.006,0.033c0,0.011,0.005,0.022,0.006,0.033c0,0.011-0.006,0.022-0.006,0.033
					c0,0.011,0.005,0.022,0.006,0.033c0,0.011-0.006,0.022-0.006,0.033c0,0.011,0.005,0.022,0.006,0.033
					c0,0.011-0.006,0.022-0.006,0.033c0,0.011,0.005,0.022,0.006,0.033c0,0.011-0.006,0.022-0.006,0.033
					c0,0.011,0.005,0.022,0.006,0.033c0,0.011-0.006,0.022-0.006,0.033c0,0.011,0.005,0.022,0.006,0.033
					c0,0.011-0.006,0.022-0.006,0.033c0,0.011,0.005,0.022,0.006,0.033c0,0.011-0.006,0.022-0.006,0.033
					c0,0.011,0.005,0.022,0.006,0.033c0,0.011-0.006,0.022-0.006,0.033c0,0.011,0.005,0.022,0.006,0.033
					c0,0.011-0.006,0.022-0.006,0.033c0,0.011,0.005,0.022,0.006,0.033c0,0.011-0.006,0.022-0.006,0.033
					c0,0.011,0.005,0.022,0.006,0.033c0,0.011-0.006,0.022-0.006,0.033c0,0.011,0.005,0.022,0.006,0.033
					c0,0.011-0.006,0.022-0.006,0.033c0,0.011,0.005,0.022,0.006,0.033c0,0.011-0.006,0.022-0.006,0.033
					c0,0.011,0.005,0.022,0.006,0.033c0,0.011-0.006,0.022-0.006,0.033c0,0.011,0.005,0.022,0.006,0.033
					c0,0.011-0.006,0.022-0.006,0.033c0,0.011,0.005,0.022,0.006,0.033c0,0.011-0.006,0.022-0.006,0.033s0.005,0.022,0.006,0.033
					c0,0.011-0.006,0.022-0.006,0.033c0,0.011,0.005,0.022,0.006,0.033c0,0.011-0.006,0.022-0.006,0.033
					c0,0.011,0.005,0.022,0.006,0.033c0,0.011-0.006,0.022-0.006,0.033c0,0.011,0.005,0.022,0.006,0.033
					c0,0.011-0.006,0.022-0.006,0.033c0,0.011,0.005,0.022,0.006,0.033c0,0.011-0.006,0.022-0.006,0.033
					c0,0.011,0.005,0.022,0.006,0.033c0,0.011-0.006,0.022-0.006,0.033c0,0.011,0.005,0.022,0.006,0.033
					c0,0.011-0.006,0.022-0.006,0.033c0,0.011,0.005,0.022,0.006,0.033c0,0.011-0.006,0.022-0.006,0.033
					c0,0.011,0.005,0.022,0.006,0.033c0,0.011-0.006,0.022-0.006,0.033c0,0.011,0.005,0.022,0.006,0.033
					c0,0.011-0.006,0.022-0.006,0.033c0,0.011,0.005,0.022,0.006,0.033c0,0.011-0.006,0.022-0.006,0.033
					c0,0.011,0.005,0.022,0.006,0.033c0,0.011-0.006,0.022-0.006,0.033c0,0.011,0.005,0.022,0.006,0.033
					c0,0.011-0.006,0.022-0.006,0.033c0,0.011,0.005,0.022,0.006,0.033c0,0.011-0.006,0.022-0.006,0.033
					c0,0.011,0.005,0.022,0.006,0.033c0,0.011-0.006,0.022-0.006,0.033c0,0.011,0.005,0.022,0.006,0.033
					c0,0.011-0.006,0.022-0.006,0.033c0,0.011,0.005,0.022,0.006,0.033c0,0.011-0.006,0.022-0.006,0.033s0.005,0.022,0.006,0.033
					c0,0.011-0.006,0.022-0.006,0.033c0,0.011,0.005,0.022,0.006,0.033c0,0.011-0.006,0.022-0.006,0.033
					c0,0.011,0.005,0.022,0.006,0.033c0,0.011-0.006,0.022-0.006,0.033c0,0.011,0.005,0.022,0.006,0.033
					c0,0.011-0.006,0.022-0.006,0.033c0,0.011,0.005,0.022,0.006,0.033c0,0.011-0.006,0.022-0.006,0.033
					c0,0.011,0.005,0.022,0.006,0.033c0,0.011-0.006,0.022-0.006,0.033c0,0.011,0.005,0.022,0.006,0.033
					c0,0.011-0.006,0.022-0.006,0.033c0,0.011,0.005,0.022,0.006,0.033c0,0.011-0.006,0.022-0.006,0.033
					c0,0.011,0.005,0.022,0.006,0.033c0,0.011-0.006,0.022-0.006,0.033c0,0.011,0.005,0.022,0.006,0.033
					c0,0.011-0.006,0.022-0.006,0.033c0,0.011,0.005,0.022,0.006,0.033c0,0.011-0.006,0.022-0.006,0.033
					c0,0.011,0.005,0.022,0.006,0.033c0,0.011-0.006,0.022-0.006,0.033c0,0.011,0.005,0.022,0.006,0.033
					c0,0.011-0.006,0.022-0.006,0.033c0,0.011,0.005,0.022,0.006,0.033c0,0.011-0.006,0.022-0.006,0.033
					c0,3.935,21.227,7.124,47.411,7.124c26.185,0,47.411-3.19,47.411-7.124c0-0.011-0.005-0.022-0.006-0.033
					c0-0.011,0.006-0.022,0.006-0.033c0-0.011-0.005-0.022-0.006-0.033c0-0.011,0.006-0.022,0.006-0.033
					c0-0.011-0.005-0.022-0.006-0.033c0-0.011,0.006-0.022,0.006-0.033c0-0.011-0.005-0.022-0.006-0.033
					c0-0.011,0.006-0.022,0.006-0.033c0-0.011-0.005-0.022-0.006-0.033c0-0.011,0.006-0.022,0.006-0.033
					c0-0.011-0.005-0.022-0.006-0.033c0-0.011,0.006-0.022,0.006-0.033c0-0.011-0.005-0.022-0.006-0.033
					c0-0.011,0.006-0.022,0.006-0.033c0-0.011-0.005-0.022-0.006-0.033c0-0.011,0.006-0.022,0.006-0.033
					c0-0.011-0.005-0.022-0.006-0.033c0-0.011,0.006-0.022,0.006-0.033c0-0.011-0.005-0.022-0.006-0.033
					c0-0.011,0.006-0.022,0.006-0.033c0-0.011-0.005-0.022-0.006-0.033c0-0.011,0.006-0.022,0.006-0.033
					c0-0.011-0.005-0.022-0.006-0.033c0-0.011,0.006-0.022,0.006-0.033c0-0.011-0.005-0.022-0.006-0.033
					c0-0.011,0.006-0.022,0.006-0.033c0-0.011-0.005-0.022-0.006-0.033c0-0.011,0.006-0.022,0.006-0.033s-0.005-0.022-0.006-0.033
					c0-0.011,0.006-0.022,0.006-0.033c0-0.011-0.005-0.022-0.006-0.033c0-0.011,0.006-0.022,0.006-0.033
					c0-0.011-0.005-0.022-0.006-0.033c0-0.011,0.006-0.022,0.006-0.033c0-0.011-0.005-0.022-0.006-0.033
					c0-0.011,0.006-0.022,0.006-0.033c0-0.011-0.005-0.022-0.006-0.033c0-0.011,0.006-0.022,0.006-0.033
					c0-0.011-0.005-0.022-0.006-0.033c0-0.011,0.006-0.022,0.006-0.033c0-0.011-0.005-0.022-0.006-0.033
					c0-0.011,0.006-0.022,0.006-0.033c0-0.011-0.005-0.022-0.006-0.033c0-0.011,0.006-0.022,0.006-0.033
					c0-0.011-0.005-0.022-0.006-0.033c0-0.011,0.006-0.022,0.006-0.033c0-0.011-0.005-0.022-0.006-0.033
					c0-0.011,0.006-0.022,0.006-0.033c0-0.011-0.005-0.022-0.006-0.033c0-0.011,0.006-0.022,0.006-0.033
					c0-0.011-0.005-0.022-0.006-0.033c0-0.011,0.006-0.022,0.006-0.033c0-0.011-0.005-0.022-0.006-0.033
					c0-0.011,0.006-0.022,0.006-0.033c0-0.011-0.005-0.022-0.006-0.033c0-0.011,0.006-0.022,0.006-0.033
					c0-0.011-0.005-0.022-0.006-0.033c0-0.011,0.006-0.022,0.006-0.033c0-0.011-0.005-0.022-0.006-0.033
					c0-0.011,0.006-0.022,0.006-0.033c0-0.011-0.005-0.022-0.006-0.033c0-0.011,0.006-0.022,0.006-0.033s-0.005-0.022-0.006-0.033
					c0-0.011,0.006-0.022,0.006-0.033c0-0.011-0.005-0.022-0.006-0.033c0-0.011,0.006-0.022,0.006-0.033
					c0-0.011-0.005-0.022-0.006-0.033c0-0.011,0.006-0.022,0.006-0.033c0-0.011-0.005-0.022-0.006-0.033
					c0-0.011,0.006-0.022,0.006-0.033c0-0.011-0.005-0.022-0.006-0.033c0-0.011,0.006-0.022,0.006-0.033
					c0-0.011-0.005-0.022-0.006-0.033c0-0.011,0.006-0.022,0.006-0.033c0-0.011-0.005-0.022-0.006-0.033
					c0-0.011,0.006-0.022,0.006-0.033c0-0.011-0.005-0.022-0.006-0.033c0-0.011,0.006-0.022,0.006-0.033
					c0-0.011-0.005-0.022-0.006-0.033c0-0.011,0.006-0.022,0.006-0.033c0-0.011-0.005-0.022-0.006-0.033
					c0-0.011,0.006-0.022,0.006-0.033c0-0.011-0.005-0.022-0.006-0.033c0-0.011,0.006-0.022,0.006-0.033
					c0-0.011-0.005-0.022-0.006-0.033c0-0.011,0.006-0.022,0.006-0.033c0-0.011-0.005-0.022-0.006-0.033
					c0-0.011,0.006-0.022,0.006-0.033c0-0.011-0.005-0.022-0.006-0.033c0-0.011,0.006-0.022,0.006-0.033
					c0-0.011-0.005-0.022-0.006-0.033c0-0.011,0.006-0.022,0.006-0.033c0-0.011-0.005-0.022-0.006-0.033
					c0-0.011,0.006-0.022,0.006-0.033c0-0.011-0.005-0.022-0.006-0.033c0-0.011,0.006-0.022,0.006-0.033
					c0-0.011-0.005-0.022-0.006-0.033c0-0.011,0.006-0.022,0.006-0.033s-0.005-0.022-0.006-0.033c0-0.011,0.006-0.022,0.006-0.033
					s-0.005-0.022-0.006-0.033c0-0.011,0.006-0.022,0.006-0.033c0-0.011-0.005-0.022-0.006-0.033c0-0.011,0.006-0.022,0.006-0.033
					c0-0.011-0.005-0.022-0.006-0.033c0-0.011,0.006-0.022,0.006-0.033c0-0.011-0.005-0.022-0.006-0.033
					c0-0.011,0.006-0.022,0.006-0.033c0-0.011-0.005-0.022-0.006-0.033c0-0.011,0.006-0.022,0.006-0.033
					c0-0.011-0.005-0.022-0.006-0.033c0-0.011,0.006-0.022,0.006-0.033c0-0.011-0.005-0.022-0.006-0.033
					c0-0.011,0.006-0.022,0.006-0.033c0-0.011-0.005-0.022-0.006-0.033c0-0.011,0.006-0.022,0.006-0.033
					c0-0.011-0.005-0.022-0.006-0.033c0-0.011,0.006-0.022,0.006-0.033c0-0.011-0.005-0.022-0.006-0.033
					c0-0.011,0.006-0.022,0.006-0.033c0-0.011-0.005-0.022-0.006-0.033c0-0.011,0.006-0.022,0.006-0.033
					c0-0.011-0.005-0.022-0.006-0.033c0-0.011,0.006-0.022,0.006-0.033c0-0.011-0.005-0.022-0.006-0.033
					c0-0.011,0.006-0.022,0.006-0.033c0-0.011-0.005-0.022-0.006-0.033c0-0.011,0.006-0.022,0.006-0.033
					c0-0.011-0.005-0.022-0.006-0.033c0-0.011,0.006-0.022,0.006-0.033c0-0.011-0.005-0.022-0.006-0.033
					c0-0.011,0.006-0.022,0.006-0.033c0-0.011-0.005-0.022-0.006-0.033c0-0.011,0.006-0.022,0.006-0.033s-0.005-0.022-0.006-0.033
					c0-0.011,0.006-0.022,0.006-0.033s-0.005-0.022-0.006-0.033c0-0.011,0.006-0.022,0.006-0.033c0-0.011-0.005-0.022-0.006-0.033
					c0-0.011,0.006-0.022,0.006-0.033c0-0.011-0.005-0.022-0.006-0.033c0-0.011,0.006-0.022,0.006-0.033
					c0-0.011-0.005-0.022-0.006-0.033c0-0.011,0.006-0.022,0.006-0.033c0-0.011-0.005-0.022-0.006-0.033
					c0-0.011,0.006-0.022,0.006-0.033c0-0.011-0.005-0.022-0.006-0.033c0-0.011,0.006-0.022,0.006-0.033
					c0-0.011-0.005-0.022-0.006-0.033c0-0.011,0.006-0.022,0.006-0.033c0-0.011-0.005-0.022-0.006-0.033
					c0-0.011,0.006-0.022,0.006-0.033c0-0.011-0.005-0.022-0.006-0.033c0-0.011,0.006-0.022,0.006-0.033
					c0-0.011-0.005-0.022-0.006-0.033c0-0.011,0.006-0.022,0.006-0.033c0-0.011-0.005-0.022-0.006-0.033
					c0-0.011,0.006-0.022,0.006-0.033c0-0.011-0.005-0.022-0.006-0.033c0-0.011,0.006-0.022,0.006-0.033
					c0-0.011-0.005-0.022-0.006-0.033c0-0.011,0.006-0.022,0.006-0.033c0-0.011-0.005-0.022-0.006-0.033
					c0-0.011,0.006-0.022,0.006-0.033c0-0.011-0.005-0.022-0.006-0.033c0-0.011,0.006-0.022,0.006-0.033
					c0-0.011-0.005-0.022-0.006-0.033c0-0.011,0.006-0.022,0.006-0.033c0-0.011-0.005-0.022-0.006-0.033
					c0-0.011,0.006-0.022,0.006-0.033c0-0.011-0.005-0.022-0.006-0.033c0-0.011,0.006-0.022,0.006-0.033
					c0-0.011-0.005-0.022-0.006-0.033c0-0.011,0.006-0.022,0.006-0.033c0-0.011-0.005-0.022-0.006-0.033
					c0-0.011,0.006-0.022,0.006-0.033c0-0.011-0.005-0.022-0.006-0.033c0-0.011,0.006-0.022,0.006-0.033
					c0-0.011-0.005-0.022-0.006-0.033c0-0.011,0.006-0.022,0.006-0.033c0-0.011-0.005-0.022-0.006-0.033
					c0-0.011,0.006-0.022,0.006-0.033c0-0.011-0.005-0.022-0.006-0.033c0-0.011,0.006-0.022,0.006-0.033
					c0-0.011-0.005-0.022-0.006-0.033c0-0.011,0.006-0.022,0.006-0.033c0-0.011-0.005-0.022-0.006-0.033
					c0-0.011,0.006-0.022,0.006-0.033c0-0.011-0.005-0.022-0.006-0.033c0-0.011,0.006-0.022,0.006-0.033
					c0-0.011-0.005-0.022-0.006-0.033c0-0.011,0.006-0.022,0.006-0.033c0-0.011-0.005-0.022-0.006-0.033
					c0-0.011,0.006-0.022,0.006-0.033c0-0.011-0.005-0.022-0.006-0.033c0-0.011,0.006-0.022,0.006-0.033
					c0-0.011-0.005-0.022-0.006-0.033c0-0.011,0.006-0.022,0.006-0.033c0-0.011-0.005-0.022-0.006-0.033
					c0-0.011,0.006-0.022,0.006-0.033C302.602,280.911,302.597,280.9,302.596,280.889z"/>
				<path style="fill:#D97800;" d="M255.058,273.732c-25.263,0-45.905,2.969-47.326,6.712c1.422,3.743,22.196,8.153,47.459,8.153
					s45.773-4.411,47.194-8.153C300.963,276.701,280.322,273.732,255.058,273.732z"/>
				<path style="fill:#EF911D;" d="M215.888,278.949c-0.494-0.19,12.706-35.294,20.118-35.647c7.412-0.353,19.235,0,19.235,0
					s11.824-0.353,19.235,0c7.412,0.353,19.588,35.647,20.118,35.647C294.594,278.949,248,291.302,215.888,278.949z"/>
				<path style="fill:#F64050;" d="M219.776,268.41c-2.463,5.869-4.066,10.471-3.888,10.54c32.112,12.353,78.706,0,78.706,0
					c-0.195,0-1.968-4.78-4.498-10.835C278.264,270.686,245.417,276.49,219.776,268.41z"/>
			</g>
		</g>
		<polygon style="fill:#BD5222;" points="304.176,437.244 337.353,402.302 337.353,269.949 304.176,304.891 		"/>
		<polygon style="fill:#D97446;" points="304.176,304.891 334.529,341.949 366.647,295.714 337.353,269.949 		"/>
		<polygon style="fill:#BD5222;" points="165.118,304.891 140.412,335.244 165.118,329.597 		"/>
		<rect x="165.118" y="304.891" style="fill:#D97446;" width="139.059" height="132.353"/>
		<g>
			<rect x="180.294" y="361.822" style="fill:#FFFFFF;" width="105.529" height="21.319"/>
			<text transform="matrix(1 0 0 1 191.5567 377.5153)" style="font-family:'Vibur'; font-size:12px;">DONATION BOX</text>
			<rect x="219.353" y="358.797" style="fill:#6D1F12;" width="24.588" height="4.588"/>
		</g>
	</g>
	<g>
		<path style="fill:#FFFFFF;" d="M297.626,244.254c3.559-0.277,6.956-0.516,10.348-0.813c3.595-0.314,5.444-2.127,5.848-5.682
			c0.139-1.219,0.237-2.444,0.326-3.668c0.157-2.142,0.294-4.286,0.557-6.461c0.04,0.322,0.094,0.642,0.119,0.965
			c0.256,3.305,0.471,6.614,0.772,9.915c0.235,2.589,1.997,4.484,4.586,4.767c3.476,0.379,6.971,0.586,10.458,0.868
			c0.271,0.022,0.54,0.053,0.806,0.148c-2.929,0.209-5.859,0.409-8.787,0.634c-0.886,0.068-1.776,0.16-2.648,0.324
			c-2.464,0.464-4.162,2.246-4.409,4.771c-0.314,3.206-0.514,6.424-0.764,9.636c-0.03,0.383-0.07,0.765-0.249,1.133
			c-0.215-2.924-0.413-5.849-0.656-8.77c-0.081-0.974-0.146-1.984-0.453-2.898c-0.83-2.464-2.679-3.765-5.222-4.007
			C304.776,244.787,301.285,244.546,297.626,244.254z"/>
		<path style="fill:#FFFFFF;" d="M141.841,434.448c4.899-0.381,9.575-0.711,14.244-1.118c4.948-0.432,7.493-2.928,8.05-7.821
			c0.191-1.678,0.326-3.364,0.449-5.049c0.216-2.949,0.404-5.9,0.766-8.893c0.055,0.443,0.129,0.884,0.164,1.329
			c0.352,4.549,0.649,9.103,1.062,13.647c0.324,3.564,2.749,6.172,6.313,6.561c4.785,0.522,9.596,0.807,14.395,1.195
			c0.372,0.03,0.744,0.073,1.109,0.204c-4.032,0.288-8.065,0.563-12.095,0.873c-1.22,0.094-2.444,0.22-3.645,0.446
			c-3.391,0.638-5.729,3.092-6.069,6.567c-0.432,4.413-0.707,8.842-1.052,13.264c-0.041,0.527-0.096,1.053-0.343,1.559
			c-0.296-4.024-0.568-8.05-0.903-12.071c-0.112-1.341-0.2-2.731-0.624-3.989c-1.143-3.392-3.688-5.183-7.187-5.515
			C151.683,435.182,146.878,434.851,141.841,434.448z"/>
		<path style="fill:#FFFFFF;" d="M397.771,312.988c4.899-0.381,9.575-0.711,14.244-1.118c4.948-0.432,7.493-2.928,8.05-7.821
			c0.191-1.678,0.326-3.364,0.449-5.049c0.216-2.949,0.404-5.9,0.766-8.893c0.056,0.443,0.129,0.884,0.164,1.329
			c0.352,4.549,0.649,9.103,1.062,13.647c0.324,3.564,2.749,6.172,6.313,6.561c4.785,0.522,9.596,0.807,14.396,1.195
			c0.372,0.03,0.744,0.073,1.109,0.204c-4.032,0.288-8.065,0.563-12.095,0.873c-1.22,0.094-2.444,0.22-3.645,0.446
			c-3.391,0.638-5.729,3.092-6.069,6.567c-0.432,4.413-0.707,8.842-1.052,13.264c-0.041,0.527-0.096,1.053-0.343,1.559
			c-0.296-4.024-0.568-8.05-0.903-12.071c-0.112-1.341-0.2-2.731-0.624-3.989c-1.142-3.392-3.688-5.182-7.187-5.515
			C407.612,313.723,402.807,313.392,397.771,312.988z"/>
		<path style="fill:#FFFFFF;" d="M243.941,140.692c2.395-0.186,4.791-0.372,7.186-0.559c3.627-0.283,5.125-1.757,5.445-5.378
			c0.108-1.221,0.189-2.443,0.283-3.665c0.094-1.218,0.189-2.435,0.416-3.653c0.197,2.544,0.396,5.087,0.591,7.631
			c0.25,3.273,1.61,4.701,4.892,5.011c2.515,0.238,5.037,0.397,7.549,0.722c-2.513,0.202-5.028,0.386-7.54,0.612
			c-3.213,0.29-4.663,1.796-4.907,5.021c-0.193,2.553-0.395,5.105-0.722,7.66c-0.187-2.396-0.37-4.792-0.563-7.188
			c-0.296-3.679-1.797-5.205-5.466-5.527c-2.385-0.209-4.773-0.385-7.16-0.576C243.944,140.767,243.943,140.73,243.941,140.692z"/>
		<path style="fill:#FFFFFF;" d="M388.717,330.02c2.395-0.186,4.791-0.372,7.186-0.559c3.627-0.283,5.125-1.757,5.445-5.378
			c0.108-1.221,0.189-2.443,0.283-3.665c0.094-1.218,0.189-2.435,0.416-3.653c0.197,2.544,0.396,5.087,0.59,7.631
			c0.25,3.273,1.61,4.701,4.892,5.011c2.515,0.238,5.037,0.397,7.549,0.722c-2.513,0.202-5.028,0.386-7.539,0.612
			c-3.213,0.29-4.663,1.796-4.907,5.021c-0.193,2.553-0.395,5.105-0.722,7.66c-0.187-2.396-0.37-4.792-0.563-7.188
			c-0.296-3.679-1.797-5.205-5.466-5.527c-2.385-0.209-4.773-0.385-7.16-0.576C388.72,330.095,388.718,330.057,388.717,330.02z"/>
		<path style="fill:#FFFFFF;" d="M73.2,324.353c2.395-0.186,4.791-0.372,7.186-0.559c3.627-0.283,5.125-1.757,5.445-5.378
			c0.108-1.221,0.189-2.444,0.283-3.665c0.094-1.218,0.189-2.435,0.416-3.653c0.197,2.544,0.397,5.087,0.591,7.631
			c0.25,3.273,1.61,4.701,4.892,5.011c2.515,0.238,5.037,0.397,7.549,0.722c-2.513,0.202-5.028,0.386-7.539,0.612
			c-3.213,0.29-4.663,1.796-4.907,5.021c-0.193,2.553-0.395,5.105-0.722,7.66c-0.187-2.396-0.37-4.792-0.563-7.188
			c-0.296-3.679-1.797-5.205-5.466-5.527c-2.385-0.209-4.773-0.385-7.16-0.576C73.203,324.428,73.201,324.39,73.2,324.353z"/>
		<path style="fill:#FFFFFF;" d="M160.653,248.052c2.395-0.186,4.791-0.372,7.186-0.559c3.627-0.283,5.125-1.757,5.445-5.378
			c0.108-1.221,0.189-2.443,0.283-3.665c0.094-1.218,0.189-2.435,0.416-3.653c0.197,2.544,0.396,5.087,0.591,7.631
			c0.249,3.273,1.61,4.701,4.892,5.011c2.515,0.238,5.037,0.397,7.549,0.722c-2.513,0.202-5.028,0.386-7.54,0.612
			c-3.213,0.29-4.663,1.796-4.907,5.021c-0.193,2.553-0.395,5.105-0.722,7.66c-0.187-2.396-0.37-4.793-0.563-7.188
			c-0.296-3.679-1.797-5.205-5.466-5.527c-2.385-0.209-4.773-0.385-7.16-0.576C160.656,248.127,160.654,248.09,160.653,248.052z"/>
		<path style="fill:#FFFFFF;" d="M282.593,155.475c-0.087-0.871-0.182-1.741-0.259-2.613c-0.165-1.882-0.772-2.56-2.614-2.812
			c-0.901-0.123-1.812-0.179-2.725-0.403c0.831-0.086,1.66-0.182,2.492-0.258c1.991-0.182,2.688-0.876,2.851-2.836
			c0.069-0.836,0.163-1.67,0.408-2.508c0.084,0.964,0.149,1.931,0.257,2.892c0.188,1.66,0.837,2.271,2.524,2.431
			c0.878,0.083,1.755,0.165,2.637,0.411c-0.959,0.096-1.923,0.16-2.877,0.295c-1.497,0.212-2.064,0.796-2.263,2.267
			c-0.074,0.543-0.116,1.091-0.163,1.638c-0.043,0.494-0.072,0.989-0.108,1.483C282.7,155.467,282.646,155.471,282.593,155.475z"/>
		<path style="fill:#FFFFFF;" d="M305.001,268.623c-0.087-0.871-0.182-1.741-0.259-2.613c-0.165-1.882-0.772-2.56-2.613-2.812
			c-0.901-0.123-1.812-0.179-2.725-0.403c0.831-0.086,1.66-0.182,2.492-0.258c1.991-0.181,2.688-0.876,2.851-2.836
			c0.069-0.836,0.163-1.67,0.408-2.508c0.084,0.964,0.148,1.931,0.257,2.892c0.188,1.66,0.837,2.272,2.524,2.431
			c0.878,0.083,1.755,0.165,2.637,0.411c-0.96,0.096-1.924,0.16-2.877,0.295c-1.497,0.212-2.064,0.796-2.263,2.267
			c-0.074,0.543-0.116,1.091-0.163,1.638c-0.043,0.494-0.072,0.989-0.108,1.483C305.108,268.616,305.055,268.62,305.001,268.623z"/>
		<path style="fill:#FFFFFF;" d="M390.773,162.87c-0.087-0.871-0.182-1.741-0.259-2.613c-0.165-1.882-0.772-2.56-2.613-2.812
			c-0.901-0.123-1.812-0.179-2.725-0.403c0.831-0.087,1.66-0.182,2.492-0.258c1.991-0.182,2.688-0.876,2.851-2.836
			c0.069-0.836,0.163-1.67,0.408-2.508c0.084,0.964,0.148,1.931,0.257,2.892c0.188,1.66,0.837,2.272,2.524,2.431
			c0.878,0.083,1.755,0.165,2.637,0.411c-0.959,0.096-1.923,0.16-2.877,0.295c-1.497,0.212-2.064,0.796-2.263,2.267
			c-0.074,0.543-0.116,1.091-0.163,1.638c-0.043,0.494-0.072,0.989-0.108,1.483C390.88,162.862,390.827,162.866,390.773,162.87z"/>
		<path style="fill:#FFFFFF;" d="M109.814,355.694c-0.087-0.871-0.182-1.741-0.259-2.613c-0.165-1.882-0.772-2.56-2.614-2.812
			c-0.901-0.123-1.812-0.179-2.725-0.403c0.83-0.087,1.66-0.182,2.492-0.258c1.991-0.181,2.688-0.875,2.851-2.836
			c0.069-0.836,0.163-1.67,0.408-2.508c0.084,0.964,0.149,1.931,0.257,2.892c0.188,1.66,0.837,2.272,2.524,2.431
			c0.878,0.083,1.755,0.165,2.637,0.411c-0.959,0.096-1.923,0.16-2.877,0.295c-1.497,0.212-2.063,0.796-2.263,2.267
			c-0.074,0.543-0.116,1.091-0.163,1.638c-0.042,0.494-0.072,0.989-0.108,1.483C109.921,355.686,109.868,355.69,109.814,355.694z"/>
		<path style="fill:#FFFFFF;" d="M410.941,140.265c-4.555,1.009-4.555,1.009-5.295,6.34c-0.127-1.274-0.219-2.221-0.315-3.167
			c-0.186-1.832-0.857-2.518-2.711-2.727c-0.747-0.084-1.501-0.114-2.276-0.4c0.682-0.065,1.364-0.139,2.047-0.194
			c2.099-0.168,2.754-0.801,2.959-2.87c0.09-0.911,0.182-1.821,0.378-2.729c0.103,1.091,0.198,2.183,0.311,3.273
			c0.141,1.366,0.782,2.046,2.141,2.25c0.458,0.069,0.927,0.07,1.39,0.106C410.027,140.185,410.484,140.227,410.941,140.265z"/>
		<path style="fill:#FFFFFF;" d="M153.818,248.844c-4.555,1.009-4.555,1.009-5.295,6.34c-0.127-1.274-0.219-2.221-0.315-3.167
			c-0.186-1.832-0.857-2.518-2.711-2.727c-0.747-0.084-1.501-0.114-2.275-0.4c0.682-0.065,1.364-0.139,2.047-0.194
			c2.099-0.168,2.754-0.801,2.959-2.87c0.09-0.911,0.182-1.821,0.378-2.729c0.103,1.091,0.199,2.183,0.311,3.273
			c0.141,1.366,0.782,2.046,2.141,2.25c0.458,0.069,0.927,0.07,1.39,0.106C152.904,248.764,153.361,248.805,153.818,248.844z"/>
		<path style="fill:#FFFFFF;" d="M295.162,352.468c-4.555,1.009-4.555,1.009-5.295,6.34c-0.127-1.274-0.219-2.221-0.315-3.167
			c-0.186-1.832-0.857-2.518-2.711-2.727c-0.747-0.085-1.501-0.114-2.275-0.4c0.682-0.065,1.364-0.139,2.047-0.194
			c2.099-0.168,2.754-0.801,2.959-2.87c0.09-0.911,0.182-1.821,0.378-2.729c0.103,1.091,0.198,2.183,0.311,3.273
			c0.141,1.366,0.782,2.046,2.141,2.25c0.458,0.069,0.927,0.07,1.39,0.106C294.248,352.387,294.705,352.429,295.162,352.468z"/>
		<path style="fill:#FFFFFF;" d="M243.965,213.262c-4.555,1.009-4.555,1.009-5.295,6.34c-0.127-1.274-0.219-2.221-0.315-3.167
			c-0.186-1.832-0.857-2.518-2.711-2.727c-0.747-0.084-1.501-0.114-2.275-0.4c0.682-0.065,1.364-0.139,2.047-0.194
			c2.099-0.168,2.754-0.801,2.959-2.87c0.09-0.911,0.182-1.821,0.378-2.729c0.103,1.091,0.199,2.183,0.311,3.273
			c0.141,1.366,0.782,2.046,2.141,2.25c0.458,0.069,0.927,0.07,1.39,0.106C243.051,213.181,243.508,213.223,243.965,213.262z"/>
	</g>
</g>
</svg>
