<?xml version="1.0" encoding="utf-8"?>
<!-- Generator: Adobe Illustrator 27.5.0, SVG Export Plug-In . SVG Version: 6.00 Build 0)  -->
<svg version="1.1" xmlns="http://www.w3.org/2000/svg" xmlns:xlink="http://www.w3.org/1999/xlink" x="0px" y="0px"
	 viewBox="0 0 500 500" style="enable-background:new 0 0 500 500;" xml:space="preserve">
<g id="BACKGROUND">
	<rect style="fill:#FFFFFF;" width="500" height="500"/>
</g>
<g id="OBJECTS">
	<g>
		<g>
			<path style="opacity:0.1;fill:#320032;" d="M452.501,412.5c0-11.322-96.373-20.5-215.256-20.5S21.99,401.178,21.99,412.5
				c0,6.222,29.11,11.795,75.06,15.555c6.367,6.197,42.547,10.945,86.228,10.945c31.27,0,58.691-2.434,74.088-6.09
				C366.811,431.944,452.501,423.176,452.501,412.5z"/>
			<path style="opacity:0.1;fill:#320032;" d="M396.277,438.203c-48.172,0-87.223,5.775-87.223,12.899
				c0,7.124,39.051,12.898,87.223,12.898s87.223-5.775,87.223-12.898C483.501,443.978,444.449,438.203,396.277,438.203z"/>
		</g>
		<g>
			<path style="fill:#213150;" d="M311.332,239.099c-1.899-2.694-4.092-5.194-6.517-7.432c-4.283-3.952-9.224-7.099-14.686-9.354
				c-5.077-2.095-10.402-3.293-15.834-3.563c-0.053-0.074-0.117-0.137-0.19-0.188c-0.007-0.114-0.013-0.228-0.018-0.343
				c-0.014-0.352-0.016-0.709-0.006-1.06c0.022-0.71,0.091-1.415,0.206-2.094c0.232-1.358,0.632-2.667,1.191-3.888
				c0.587-1.285,1.337-2.469,2.228-3.521c0.211-0.249,0.429-0.493,0.647-0.738c0.711-0.798,1.446-1.622,1.961-2.617
				c1.103-2.131,0.747-4.788-0.906-6.77c-1.661-1.991-4.339-2.642-6.666-1.622c-1.319,0.58-2.428,1.597-3.124,2.867
				c-0.36,0.659-0.591,1.353-0.684,2.065c-0.118,0.9,0.033,1.744,0.215,2.523c0.064,0.277,0.261,0.491,0.526,0.572
				c0.276,0.084,0.592,0.009,0.806-0.191c0.209-0.196,0.294-0.482,0.228-0.765c-0.174-0.75-0.27-1.379-0.174-2.008
				c0.078-0.507,0.255-1.007,0.527-1.483c0.564-0.992,1.48-1.789,2.51-2.187c1.031-0.398,2.114-0.38,3.047,0.052
				c0.884,0.408,1.651,1.152,2.157,2.094c0.504,0.94,0.693,1.973,0.53,2.91c-0.21,1.214-1.024,2.217-1.912,3.222
				c-0.867,0.982-1.857,2.142-2.625,3.471c-0.73,1.264-1.297,2.62-1.685,4.032c-0.444,1.613-0.65,3.26-0.613,4.898
				c0.005,0.197,0.011,0.401,0.024,0.609c-0.048,0.036-0.091,0.078-0.129,0.125c-5.643,0.197-11.195,1.409-16.508,3.601
				c-5.462,2.254-10.403,5.401-14.687,9.354c-2.426,2.239-4.618,4.74-6.516,7.431c-0.163,0.23-0.192,0.515-0.079,0.761
				c0.121,0.262,0.381,0.442,0.68,0.469c0.292,0.028,0.567-0.101,0.736-0.342c3.249-4.608,7.346-8.571,12.178-11.779
				c4.754-3.156,9.947-5.413,15.435-6.709c3.09-0.73,6.252-1.135,9.376-1.203c3.147,0.068,6.31,0.473,9.4,1.203
				c5.488,1.296,10.681,3.553,15.434,6.709c4.831,3.207,8.928,7.17,12.178,11.779c0.16,0.227,0.408,0.346,0.663,0.346
				c0.167,0,0.336-0.051,0.486-0.157C311.504,239.921,311.585,239.458,311.332,239.099z"/>
			<path style="fill:#F0626E;" d="M230.866,268.028c4.895,1.335,9.652,3.411,14.029,5.966c2.419,1.412,4.703,2.97,6.849,4.665
				c1.258-5.388,1.955-10.93,2.048-16.485c0.135-8.101-0.362-27.524-7.871-32.909c-1.38-0.987-3.277-1.378-5.205-1.067
				c-1.562,0.252-3.162,0.932-4.892,2.08c-6.917,4.59-9.183,12.12-10.489,18.881c-0.887,4.594-1.521,9.385-2.192,14.456
				c-0.13,0.984-0.261,1.969-0.393,2.955C225.549,266.727,228.385,267.351,230.866,268.028z"/>
			<path style="fill:#213150;" d="M300.154,275.459c0.621-1.668,1.285-3.345,2.018-5.095c0.026,0.046,0.05,0.09,0.076,0.136
				c0.483-1.604,1.164-3.145,1.945-4.683c1.542-3.036,3.062-6.096,4.646-9.11c3.051-5.804,6.75-11.664,10.842-16.835
				c-8.944-10.845-20.538-17.555-33.953-20.795c-2.065,6.882-5.599,14.704-12.641,16.11c-9.613,1.919-14.883-7.67-14.668-16.305
				c-9.79,2.415-18.837,7.481-26.147,14.711c0.166-0.153,0.788,0.402,1.616,1.302c3.314,5.465,6.134,11.228,8.403,17.203
				c0.758,1.997,1.453,4.017,2.09,6.056c-0.701,7.261-1.287,14.534-1.741,21.815c-0.84,13.47-3.745,26.399-6.482,39.52
				c2.683,0.553,5.386,0.931,7.939,1.272c16.336,2.181,32.964,2.307,49.09-1.331c5.362-1.209,10.64-2.714,15.871-4.378
				c-1.151-5.525-2.404-11.335-3.789-17.549C303.646,290.204,301.924,282.789,300.154,275.459z"/>
			<path style="fill:#F0626E;" d="M299.02,271.028c0.225,1.766,0.451,3.537,0.667,5.311c1.551-0.884,3.112-1.666,4.507-2.355
				c4.372-2.159,8.949-3.817,13.687-4.966c3.876-0.94,7.762-1.568,11.658-1.907c-0.338-1.785-0.732-3.561-1.196-5.32
				c-2.057-7.807-7.762-26.263-16.395-29.513c-0.031-0.012-0.063-0.023-0.095-0.035c-1.596-0.578-3.527-0.439-5.299,0.383
				c-1.435,0.665-2.791,1.753-4.146,3.327c-5.416,6.292-5.559,14.154-4.984,21.016C297.807,261.514,298.396,266.135,299.02,271.028z
				"/>
			<path style="fill:#F0626E;" d="M290.124,230.378c-0.125-4.074-1.337-8.604-4.536-11.365c-0.001-0.001-0.001-0.001-0.002-0.001
				c-2.085,6.763-5.618,14.265-12.499,15.639c-9.783,1.953-15.065-8.013-14.647-16.762c-0.592,0.305-1.159,0.669-1.687,1.125
				c-3.199,2.76-4.41,7.29-4.536,11.365c-0.144,4.671,1.281,9.47,4.743,12.742c2.939,2.778,8.455,5.104,11.604,1.399
				c1.342-1.579,2.058-3.652,2.606-5.641c0.548,1.988,1.264,4.062,2.606,5.641c3.149,3.705,8.665,1.378,11.604-1.399
				C288.843,239.848,290.268,235.049,290.124,230.378z"/>
		</g>
		<g>
			<path style="fill:#00BCC0;" d="M354.18,251.418c-1.899-2.694-4.092-5.194-6.517-7.432c-4.283-3.952-9.224-7.099-14.686-9.354
				c-5.077-2.095-10.402-3.293-15.834-3.563c-0.053-0.074-0.117-0.137-0.19-0.188c-0.007-0.114-0.013-0.228-0.018-0.343
				c-0.014-0.352-0.016-0.709-0.006-1.06c0.021-0.71,0.09-1.415,0.206-2.094c0.232-1.358,0.632-2.667,1.191-3.888
				c0.587-1.285,1.337-2.469,2.228-3.521c0.211-0.248,0.429-0.493,0.647-0.738c0.711-0.798,1.446-1.622,1.961-2.617
				c1.103-2.131,0.747-4.788-0.906-6.77c-1.661-1.991-4.339-2.643-6.666-1.622c-1.319,0.579-2.428,1.597-3.124,2.867
				c-0.36,0.659-0.591,1.353-0.684,2.065c-0.118,0.9,0.034,1.744,0.215,2.523c0.064,0.277,0.261,0.491,0.526,0.572
				c0.276,0.084,0.591,0.009,0.806-0.191c0.209-0.196,0.294-0.482,0.228-0.765c-0.174-0.75-0.27-1.379-0.174-2.008
				c0.078-0.507,0.255-1.007,0.527-1.483c0.564-0.992,1.48-1.789,2.51-2.187c1.031-0.398,2.114-0.38,3.047,0.052
				c0.884,0.408,1.651,1.152,2.157,2.094c0.504,0.94,0.693,1.973,0.53,2.91c-0.21,1.215-1.024,2.217-1.912,3.222
				c-0.867,0.982-1.857,2.142-2.625,3.472c-0.73,1.264-1.297,2.62-1.685,4.032c-0.444,1.613-0.65,3.26-0.613,4.898
				c0.005,0.197,0.011,0.401,0.023,0.609c-0.048,0.036-0.091,0.078-0.129,0.124c-5.643,0.197-11.195,1.408-16.508,3.601
				c-5.462,2.254-10.404,5.402-14.687,9.354c-2.426,2.239-4.618,4.74-6.516,7.431c-0.163,0.23-0.192,0.515-0.079,0.761
				c0.121,0.262,0.381,0.442,0.68,0.469c0.292,0.028,0.567-0.101,0.736-0.342c3.249-4.608,7.346-8.571,12.178-11.779
				c4.754-3.156,9.947-5.413,15.435-6.709c3.09-0.73,6.252-1.136,9.376-1.204c3.147,0.068,6.309,0.473,9.4,1.204
				c5.488,1.296,10.681,3.553,15.434,6.709c4.831,3.207,8.928,7.17,12.178,11.78c0.16,0.227,0.408,0.346,0.663,0.346
				c0.167,0,0.336-0.051,0.486-0.157C354.352,252.24,354.433,251.777,354.18,251.418z"/>
			<path style="fill:#FE9E54;" d="M287.27,257.686c-4.635,0.004-9.219-0.365-13.695-1.237c-0.737,1.611-1.365,3.247-1.928,4.847
				c-1.552,4.411-2.887,9.053-4.3,13.967l-0.525,1.825c-0.646,1.823-1.167,3.35-1.639,4.807c-1.528,4.717-2.879,9.545-4.018,14.35
				c-0.598,2.526-1.154,5.151-1.697,8.016c-1.425-0.106-2.707-0.184-3.912-0.238c-2.535-0.113-4.997-0.136-7.07-0.144
				c-1.325-0.005-2.659-0.001-3.998,0.003c-4.493,0.013-9.138,0.027-13.659-0.316l-0.268-0.02l-0.019,0.268
				c-0.169,2.353-0.665,4.927-1.516,7.868c-0.506,1.746-1.13,3.457-1.857,5.086l-0.102,0.228l0.22,0.117
				c1.514,0.807,2.691,1.382,3.817,1.864c4.256,1.823,8.777,3.104,13.15,4.344l0.827,0.234c4.051,1.15,8.197,2.14,12.325,2.941
				c4.533,0.88,8.965,1.665,13.352,1.607c0.306-0.004,0.605-0.015,0.893-0.112c0.078-0.026,0.154-0.058,0.227-0.094
				c0.251-0.124,0.468-0.295,0.665-0.45c5.105-4.029,8.628-7.99,12.161-13.672c9.994-16.073,15.129-35.24,14.087-52.586
				c-0.03-0.498-0.057-1.043-0.085-1.623c-0.04-0.815-0.084-1.705-0.146-2.631C294.797,257.468,290.99,257.683,287.27,257.686z"/>
			<path style="fill:#FE9E54;" d="M285.517,283.138c4.752,10.793,10.408,21.393,5.682,33.232
				c-2.592,6.493-6.735,12.079-10.991,17.588c2.243,1.146,4.411,2.524,6.539,3.637c4.184,2.187,8.548,4.049,13.084,5.37
				c16.741,4.877,34.265,4.932,51.231,1.535c-0.181-0.687-0.358-1.376-0.543-2.062c-2.464-9.144-5.6-17.991-10.085-26.358
				c-4.323-8.066-2.152-12.301,0.536-20.508c4.348-13.276,10.981-25.473,16.897-35.653c0.047-0.08,0.073-0.174,0.073-0.268
				c0.002-1.643-0.211-3.225-0.635-4.699c-0.739-2.571-1.906-4.892-3.403-6.983c-10.863,6.995-23.092,12.215-36.075,12.019
				c-8.834-0.133-17.647-3.173-25.513-7.035c-4.351-2.136-8.467-4.617-12.234-7.54c-2.809,2.619-5.011,5.763-6.097,9.54
				c-0.424,1.472-0.637,3.053-0.635,4.699c0,0.093,0.025,0.186,0.072,0.267C277.783,267.483,281.995,275.138,285.517,283.138z"/>
		</g>
		<g>
			<rect x="224.559" y="275.18" style="fill:#77758A;" width="102.356" height="127.242"/>
			<rect x="261.114" y="275.18" style="fill:#908DA6;" width="102.356" height="127.242"/>
			<rect x="267.394" y="281.911" style="fill:#F2EDF7;" width="29.057" height="16.872"/>
		</g>
		<g>
			<rect x="321.025" y="326.183" style="fill:#4D9998;" width="80.523" height="80.523"/>
			<rect x="292.266" y="326.183" style="fill:#00BCC0;" width="80.523" height="80.523"/>
			<rect x="344.99" y="330.607" style="fill:#F2EDF7;" width="22.859" height="13.273"/>
		</g>
		<g>
			<g>
				<path style="fill:#F2EDF7;" d="M207.502,170.22c-6.895-6.293-11.16-14.989-11.16-24.595c0-19.204,17.046-34.771,38.072-34.771
					c21.027,0,38.072,15.568,38.072,34.771s-17.045,34.771-38.072,34.771c-6.26,0-12.161-1.388-17.37-3.833
					c-3.351,2.175-6.925,4.069-10.411,5.989c-0.691,0.381-1.356-0.244-1.239-0.953C206.02,177.794,206.739,174.001,207.502,170.22z"
					/>
			</g>
			<path style="fill:#F0626E;" d="M253.502,138.992c0.103-5.069-4.327-8.322-9.188-7.613c-3.375,0.493-7.846,2.768-9.803,6.055
				c-1.31-2.519-3.218-4.722-5.714-6.108c-3.053-1.697-7.266-1.701-10.141,0.392c-3.163,2.303-3.412,6.307-2.658,9.849
				c0.898,4.219,3.005,8.095,5.704,11.432c3.25,4.018,7.537,8.244,12.259,10.458c0.109,0.051,0.224,0.06,0.335,0.04
				c0.137,0.065,0.303,0.076,0.49-0.005c2.509-1.085,4.749-2.959,6.889-4.64c2.205-1.733,4.203-3.752,5.933-5.96
				C250.678,148.973,253.399,144.09,253.502,138.992z"/>
		</g>
		<g>
			<path style="fill:#213150;" d="M221.113,243.286c-0.707-1.489-1.492-2.941-2.343-4.352c-0.849-1.406-1.796-2.746-2.674-4.133
				c-0.909-1.438-1.709-2.945-2.122-4.606c-0.421-1.69-0.487-3.439-0.544-5.172c-0.057-1.722-0.102-3.455-0.44-5.15
				c-0.278-1.394-0.785-2.735-1.496-3.966c-0.891-1.541-2.098-2.907-3.513-3.997c-0.281-2.608-1.1-5.161-2.329-7.473
				c-1.665-3.133-4.096-5.859-7.025-7.861c-2.945-2.013-6.396-3.253-9.971-3.4c-1.63-0.067-3.284,0.104-4.863,0.528
				c0.12-0.107,0.246-0.206,0.365-0.314c0.602-0.547,1.206-1.102,1.762-1.695c0.395-0.421,0.734-0.946,0.605-1.548
				c-0.239-1.111-1.645-1.539-2.598-1.149c-1.255,0.513-1.971,1.907-2.596,3.025c-0.128,0.23-0.246,0.465-0.368,0.698
				c0.169-0.548,0.323-1.102,0.44-1.664c0.17-0.812,0.294-1.641,0.348-2.47c0.047-0.73-0.006-1.527-0.488-2.118
				c-0.4-0.491-1.06-0.791-1.684-0.572c-0.533,0.187-0.847,0.68-1.01,1.196c-0.211,0.67-0.187,1.391-0.168,2.084
				c0.024,0.874,0.095,1.746,0.21,2.613c0.026,0.199,0.065,0.395,0.096,0.593c-2.767-2.958-7.396-4.13-11.354-3.845
				c-4.827,0.347-9.321,2.42-12.966,5.519c-3.487-0.237-7.04,0.596-10.125,2.253c-4.397,2.361-7.639,6.395-9.497,10.982
				c-0.163,0.402-0.311,0.809-0.453,1.218c-3.143,1.477-5.933,3.732-8.069,6.47c-4.03,5.164-5.774,11.798-5.722,18.28
				c0.029,3.606,0.525,7.197,0.417,10.806c-0.053,1.781-0.263,3.562-0.762,5.277c-0.431,1.483-1.086,2.883-1.831,4.233
				c-1.453,2.631-3.245,5.076-4.503,7.814c-1.246,2.711-1.793,5.619-1.19,8.572c0.598,2.929,2.212,5.654,4.536,7.541
				c2.166,1.759,4.863,2.803,7.637,3.046c0.996,1.651,2.099,3.272,3.515,4.588c1.547,1.439,3.447,2.372,5.526,2.741
				c2.152,0.382,4.361,0.214,6.477-0.299c0.555-0.135,1.101-0.295,1.643-0.469c0.824,2.255,2.194,4.322,3.895,6.013
				c3.246,3.226,7.656,5.036,12.095,5.882c4.768,0.909,9.857,0.959,14.508-0.554c3.844-1.251,7.297-3.502,10.198-6.296
				c1.535-1.478,2.921-3.109,4.163-4.843c2.885,2.871,6.67,4.842,10.71,5.424c5.635,0.812,12.129-1.238,14.613-6.749
				c0.684-1.517,1.028-3.193,0.951-4.84c1.888-1.076,3.619-2.447,5.121-4.031c3.878-4.09,6.188-9.376,6.701-14.974
				C225.535,255.647,223.886,249.124,221.113,243.286z"/>
			<path style="fill:#FFBAA6;" d="M150.137,283.406c-23.611-7.979-54.669-12.001-64.625-37.273c-1.393,0.333-2.784,0.673-4.17,1.035
				c-2.099,0.549-4.443,1.523-6.695,1.476c0.592,2.027,0.963,4.156,1.471,6.125c2.877,11.146,5.977,22.285,13.492,31.2
				c3.639,4.317,7.915,8.059,12.626,11.224c9.365,6.291,20.144,10.427,31.29,12.134c7.863,1.205,27.12,3.401,33.435-3.277
				c1.201-1.27,1.73-3.076,1.687-4.823c-0.043-1.747-0.613-3.445-1.374-5.018C163.869,289.167,157.213,285.798,150.137,283.406z"/>
			<path style="fill:#00BCC0;" d="M136.692,279.016c-16.289-4.732-33.132-9.625-43.68-21.283c-0.099-0.109-0.267-0.118-0.376-0.02
				c-4.53,4.028-9.183,6.234-13.83,6.559c-0.082,0.006-0.156,0.048-0.202,0.116c-0.046,0.067-0.059,0.152-0.035,0.23
				c2.905,9.44,6.248,16.078,10.838,21.523c3.552,4.214,7.819,8.007,12.681,11.274c9.292,6.243,20.149,10.453,31.398,12.177
				c7.98,1.222,27.182,3.339,33.601-3.285c0.023-0.024,0.047-0.049,0.07-0.073c1.166-1.233,1.808-3.061,1.76-5.013
				c-0.039-1.581-0.497-3.259-1.4-5.128c-3.614-7.474-10.77-10.736-17.293-12.941C145.902,281.692,141.428,280.392,136.692,279.016z
				"/>
			<path style="fill:#FFBAA6;" d="M129.984,298.929c5.344-18.593,33.205-23.971,49.563-20.93
				c11.624,2.161,29.031,8.064,32.728,20.93c0.431,1.498,0.616,3.021,0.614,4.551c-6.652,11.448-12.793,23.086-16.943,35.756
				c-2.318,7.078-4.068,14.325-4.941,21.729c-0.12,1.016-0.213,2.033-0.283,3.049c-0.485,0.378-1,0.738-1.55,1.075
				c-10.122,6.193-25.839,6.269-36.085,0c-0.551-0.337-1.065-0.697-1.551-1.075c-0.07-1.017-0.163-2.033-0.283-3.049
				c-0.873-7.404-2.623-14.651-4.941-21.729c-4.15-12.67-10.29-24.308-16.943-35.756
				C129.367,301.951,129.553,300.428,129.984,298.929z"/>
			<path style="fill:#FFBAA6;" d="M129.984,298.929c5.344-18.593,33.205-23.971,49.563-20.93
				c11.624,2.161,29.031,8.064,32.728,20.93c0.431,1.498,0.616,3.021,0.614,4.551c-6.652,11.448-12.793,23.086-16.943,35.756
				c-2.318,7.078-4.068,14.325-4.941,21.729c-0.12,1.016-0.213,2.033-0.283,3.049c-0.485,0.378-1,0.738-1.55,1.075
				c-10.122,6.193-25.839,6.269-36.085,0c-0.551-0.337-1.065-0.697-1.551-1.075c-0.07-1.017-0.163-2.033-0.283-3.049
				c-0.873-7.404-2.623-14.651-4.941-21.729c-4.15-12.67-10.29-24.308-16.943-35.756
				C129.367,301.951,129.553,300.428,129.984,298.929z"/>
			<path style="fill:#FFBAA6;" d="M129.984,298.929c5.344-18.593,33.205-23.971,49.563-20.93
				c11.624,2.161,29.031,8.064,32.728,20.93c0.431,1.498,0.616,3.021,0.614,4.551c-6.652,11.448-12.793,23.086-16.943,35.756
				c-2.318,7.078-4.068,14.325-4.941,21.729c-0.12,1.016-0.213,2.033-0.283,3.049c-0.485,0.378-1,0.738-1.55,1.075
				c-10.122,6.193-25.839,6.269-36.085,0c-0.551-0.337-1.065-0.697-1.551-1.075c-0.07-1.017-0.163-2.033-0.283-3.049
				c-0.873-7.404-2.623-14.651-4.941-21.729c-4.15-12.67-10.29-24.308-16.943-35.756
				C129.367,301.951,129.553,300.428,129.984,298.929z"/>
			<path style="fill:#00BCC0;" d="M212.533,298.856c-4.11-14.299-24.403-19.533-32.937-21.12c-16.997-3.16-44.53,2.543-49.87,21.119
				c-0.417,1.45-0.627,3.006-0.625,4.625c0,0.047,0.013,0.093,0.036,0.134c5.921,10.189,12.562,22.4,16.92,35.704
				c2.495,7.617,4.107,14.708,4.93,21.677c0.116,0.983,0.21,2.004,0.281,3.036c0.005,0.076,0.043,0.147,0.103,0.193
				c0.51,0.397,1.04,0.764,1.575,1.092c5.098,3.119,11.64,4.678,18.183,4.678c6.542,0,13.085-1.559,18.182-4.678
				c0.535-0.328,1.065-0.695,1.575-1.092c0.06-0.046,0.098-0.117,0.103-0.193c0.069-1.021,0.165-2.043,0.281-3.036
				c0.822-6.967,2.434-14.057,4.93-21.677c4.358-13.305,10.999-25.515,16.92-35.704c0.023-0.041,0.036-0.087,0.036-0.134
				C213.159,301.861,212.95,300.305,212.533,298.856z"/>
			<path style="fill:#FFBAA6;" d="M141.525,239.749c-0.078-0.334-0.169-0.666-0.271-0.994c-0.801-2.578-2.326-4.961-4.559-6.458
				c-7.476-5.014-15.318,3.419-12.958,11.076c1.315,4.267,5.682,7.385,10.145,7.244c2.771-0.087,5.585-1.447,6.972-3.847
				C142.059,244.684,142.077,242.093,141.525,239.749z"/>
			<path style="opacity:0.4;fill:#320032;" d="M136.467,242.873c-4.201,1.442-9.415,0.478-13.152-2.216
				c0.012,0.9,0.144,1.813,0.422,2.715c1.315,4.267,5.682,7.385,10.145,7.244c2.771-0.087,5.585-1.447,6.972-3.847
				c1.143-1.977,1.217-4.408,0.751-6.653C140.037,241.282,138.329,242.234,136.467,242.873z"/>
			<path style="fill:#FFBAA6;" d="M195.483,239.749c0.079-0.334,0.169-0.666,0.271-0.994c0.801-2.578,2.326-4.961,4.559-6.458
				c7.476-5.014,15.318,3.419,12.958,11.076c-1.315,4.267-5.682,7.385-10.145,7.244c-2.771-0.087-5.584-1.447-6.972-3.847
				C194.949,244.684,194.931,242.093,195.483,239.749z"/>
			<path style="opacity:0.4;fill:#320032;" d="M200.541,242.873c4.201,1.442,9.415,0.478,13.152-2.216
				c-0.012,0.9-0.144,1.813-0.422,2.715c-1.315,4.267-5.682,7.385-10.145,7.244c-2.771-0.087-5.585-1.447-6.972-3.847
				c-1.143-1.977-1.217-4.408-0.751-6.653C196.971,241.282,198.679,242.234,200.541,242.873z"/>
			<path style="fill:#FFBAA6;" d="M180.662,258.315c-6.514,2.606-13.947,2.283-21.071,0.316c-0.934,8.07-1.341,16.217-1.274,24.353
				c0.039,4.736,0.566,9.875,3.296,13.268c2.851,3.544,7.46,4.22,11.44,3.096c3.32-0.938,6.578-3.175,8.131-6.848
				c1.106-2.616,1.242-5.662,1.226-8.6c-0.006-1.213-0.031-2.426-0.072-3.637C182.092,272.94,181.34,265.618,180.662,258.315z"/>
			<path style="opacity:0.4;fill:#320032;" d="M180.662,258.315c-6.513,2.605-13.945,2.283-21.068,0.317
				c-0.648,5.613-1.045,11.262-1.201,16.92c5.805,7.596,15.07,9.243,24.003,7.233c-0.012-0.841-0.03-1.681-0.058-2.521
				C182.092,272.94,181.34,265.618,180.662,258.315z"/>
			<path style="fill:#FFBAA6;" d="M132.383,238.319c-0.014,0.59-0.022,1.18-0.023,1.77c-0.014,7.694,1.111,15.628,5.183,22.248
				c6.314,10.266,19.025,15.799,31.407,16.183c9.007,0.28,18.383-2.022,25.12-7.787c10.263-8.784,12.383-23.432,11.651-36.638
				c-0.898-16.195-10.044-32.58-28.132-35.306c-16.427-2.476-34.159,4.607-41.077,19.625
				C133.644,224.64,132.55,231.497,132.383,238.319z"/>
			<ellipse style="opacity:0.4;fill:#320032;" cx="149.614" cy="253.785" rx="10.176" ry="6.427"/>
			<ellipse style="opacity:0.4;fill:#320032;" cx="188.177" cy="253.785" rx="10.176" ry="6.427"/>
			<path style="fill:#213150;" d="M171.931,247.449c-0.198-0.282-0.63,0.035-0.431,0.318c0.281,0.399,0.23,1.055-0.169,1.381
				c-0.382,0.312-1.039,0.305-1.391-0.067c-0.009-0.01-0.02-0.016-0.03-0.025c-0.01-0.01-0.021-0.018-0.033-0.027
				c-0.014-0.009-0.027-0.017-0.042-0.024c-0.012-0.005-0.023-0.01-0.035-0.014c-0.076-0.026-0.158-0.024-0.234,0.032
				c-0.011,0.008-0.018,0.021-0.028,0.031c-0.85,0.475-1.974,0.276-2.674-0.384c-0.795-0.75-0.772-1.913-0.164-2.773
				c0.33-0.467,0.845-0.829,1.418-0.912c0.155,0.066,0.383-0.01,0.393-0.233c0.057-1.223,0.067-2.447,0.03-3.671
				c-0.01-0.344-0.546-0.345-0.536,0c0.034,1.132,0.024,2.265-0.022,3.397c-1.232,0.24-2.159,1.335-2.266,2.584
				c-0.113,1.314,0.879,2.414,2.116,2.71c0.628,0.15,1.292,0.085,1.867-0.206c0.422,0.324,0.981,0.424,1.5,0.255
				c0.586-0.191,0.979-0.759,1.011-1.366C172.227,248.096,172.14,247.746,171.931,247.449z"/>
			<path style="fill:#213150;" d="M186.653,242.114c0.418,0,0.831,0.026,1.236,0.075c0.115-0.347,0.179-0.726,0.179-1.125
				c0-1.627-1.055-2.946-2.357-2.946c-1.302,0-2.357,1.319-2.357,2.946c0,0.492,0.098,0.956,0.269,1.364
				C184.686,242.202,185.759,242.113,186.653,242.114z"/>
			<path style="fill:#213150;" d="M148.362,236.833c0.199-1.666,1.366-3.159,2.944-3.739c1.611-0.592,3.507-0.152,4.73,1.037
				c0.247,0.24-0.108,0.642-0.355,0.401c-1.094-1.065-2.764-1.46-4.208-0.929c-1.412,0.519-2.41,1.864-2.587,3.343
				C148.845,237.288,148.322,237.174,148.362,236.833z"/>
			<path style="fill:#213150;" d="M189.86,236.833c-0.199-1.666-1.366-3.159-2.944-3.739c-1.611-0.592-3.507-0.152-4.73,1.037
				c-0.247,0.24,0.108,0.642,0.355,0.401c1.094-1.065,2.764-1.46,4.208-0.929c1.412,0.519,2.41,1.864,2.587,3.343
				C189.378,237.288,189.901,237.174,189.86,236.833z"/>
			<path style="fill:#F0626E;" d="M172.94,253.028c-0.037-0.008-0.074-0.009-0.109-0.009c-2.448,0.006-4.896,0.012-7.344,0.018
				c-0.522,0.001-0.686,0.209-0.427,1.187c0.774,2.922,2.419,4.848,4.083,4.782s3.268-2.123,3.982-5.105
				c0.05-0.209,0.095-0.466,0.032-0.661C173.111,253.099,173.028,253.046,172.94,253.028z"/>
			<path style="fill:#F2EDF7;" d="M167.001,253.239c0.011,0.112,0.021,0.223,0.032,0.335c0.009,0.094,0.013,0.195,0.031,0.285
				c0.032,0.162,0.094,0.309,0.19,0.384c0.09,0.07,0.186,0.075,0.285,0.085c0.29,0.031,0.579,0.061,0.869,0.092
				c0.109,0.011,0.237-0.143,0.258-0.32c0.042-0.36,0.046-0.715,0.032-1.073c-0.564,0.001-1.128,0.002-1.692,0.004
				C166.997,253.096,166.994,253.165,167.001,253.239z"/>
			<path style="fill:#F2EDF7;" d="M169.636,253.026c0.001,0.006,0.001,0.012,0.002,0.019c0.001,0.012,0.001,0.011,0.001,0.017
				c0.001,0.017,0.003,0.034,0.004,0.051c0.007,0.099,0.013,0.197,0.018,0.296c0.009,0.198,0.013,0.397,0.012,0.595
				c-0.001,0.227,0.123,0.449,0.268,0.436c0.191-0.016,0.383-0.032,0.574-0.048c0.2-0.017,0.443,0.021,0.61-0.189
				c0.096-0.121,0.145-0.294,0.165-0.485c0.019-0.175,0.033-0.353,0.041-0.53c0.002-0.055,0.001-0.111,0.002-0.166
				C170.767,253.024,170.202,253.025,169.636,253.026z"/>
			<path style="fill:#213150;" d="M194.274,239.301c-1.575,0.808-3.15,1.616-4.726,2.424c-0.307,0.157-0.036,0.62,0.27,0.462
				l4.725-2.424C194.851,239.606,194.58,239.144,194.274,239.301z"/>
			<path style="fill:#213150;" d="M194.048,243.661c-1.357-0.247-2.713-0.494-4.07-0.741c-0.337-0.061-0.481,0.455-0.142,0.516
				c1.357,0.247,2.713,0.494,4.07,0.741C194.243,244.239,194.387,243.723,194.048,243.661z"/>
			<path style="fill:#213150;" d="M151.21,242.114c-0.418,0-0.831,0.026-1.236,0.075c-0.115-0.347-0.179-0.726-0.179-1.125
				c0-1.627,1.055-2.946,2.357-2.946c1.302,0,2.357,1.319,2.357,2.946c0,0.492-0.098,0.956-0.269,1.364
				C153.176,242.202,152.104,242.113,151.21,242.114z"/>
			<path style="fill:#213150;" d="M143.589,239.301c1.575,0.808,3.15,1.616,4.726,2.424c0.307,0.157,0.036,0.62-0.27,0.462
				l-4.726-2.424C143.012,239.606,143.283,239.144,143.589,239.301z"/>
			<path style="fill:#213150;" d="M143.815,243.661c1.356-0.247,2.713-0.494,4.07-0.741c0.337-0.061,0.481,0.455,0.142,0.516
				c-1.357,0.247-2.713,0.494-4.07,0.741C143.62,244.239,143.475,243.723,143.815,243.661z"/>
			<path style="fill:#FFBAA6;" d="M185.237,290.505c16.598-18.592,41.625-37.418,37.812-64.311c1.376-0.398,2.753-0.789,4.138-1.158
				c2.097-0.558,4.616-0.868,6.551-2.021c0.485,2.055,1.214,4.09,1.743,6.053c2.999,11.114,5.799,22.332,3.663,33.794
				c-1.035,5.551-2.907,10.915-5.442,15.993c-5.04,10.094-12.374,19.01-21.225,25.996c-6.244,4.928-21.909,16.342-30.697,13.651
				c-1.671-0.512-3.022-1.822-3.847-3.362c-0.825-1.541-1.167-3.299-1.281-5.042C176.137,302.293,180.264,296.077,185.237,290.505z"
				/>
			<path style="fill:#00BCC0;" d="M194.764,280.052c11.831-12.154,24.066-24.722,27.487-40.067c0.032-0.143,0.174-0.234,0.318-0.204
				c5.927,1.267,11.063,0.89,15.265-1.121c0.074-0.035,0.159-0.035,0.233,0.001c0.073,0.036,0.126,0.103,0.144,0.183
				c2.132,9.645,2.501,17.068,1.196,24.068c-1.01,5.418-2.849,10.823-5.466,16.064c-5.001,10.015-12.366,19.036-21.299,26.086
				c-6.338,5.001-21.993,16.319-30.845,13.725c-0.032-0.009-0.065-0.019-0.097-0.029c-1.623-0.497-3.083-1.77-4.005-3.492
				c-0.747-1.395-1.176-3.079-1.313-5.151c-0.545-8.284,4.068-14.652,8.653-19.789C188.075,286.924,191.324,283.586,194.764,280.052
				z"/>
			<g>
				<path style="fill:#FFBAA6;" d="M232.225,225.627c-1.705,0.786-3.885,0.901-5.598,1.131c-2.084,0.279-4.143,0.288-6.008-0.781
					c-1.689-0.968-2.758-2.451-4.035-3.755c-0.654-0.516-1.34-1.005-2.121-1.379c-0.481-0.231-0.988-0.419-1.493-0.607
					c-0.47-0.175-0.992-0.332-1.419-0.578c-0.351-0.203-0.561-0.534-0.398-0.88c0.14-0.298,0.465-0.507,0.789-0.656
					c0.34-0.157,0.704-0.271,1.08-0.349c2.347-0.489,5.054,0.23,7.113,1.391c0.036-1.051-0.184-2.096-0.388-3.121
					c-0.653-3.268-0.729-6.591-0.326-9.895c0.139-1.139,0.094-2.354,0.565-3.44c0.523-1.207,1.893-1.532,2.371-0.021
					c0.346,1.094,0.593,2.218,0.837,3.332c0.368,1.246,0.665,2.506,0.892,3.773c0.842-3.769,2.261-8.984,3.739-9.371
					c1.306-0.343,1.365,3.753,1.164,7.425c0.781-1.556,1.713-3.056,2.787-4.479c0.203-0.268,0.411-0.534,0.624-0.797
					c0.782-0.965,2.017-1.009,2.117,0.293c0.105,1.364-0.501,2.866-0.927,4.152c-0.185,0.676-0.378,1.35-0.591,2.019
					c-0.143,0.45-0.296,0.896-0.454,1.342c0.294-0.275,0.605-0.536,0.926-0.788c1.669-1.893,4.017-4.005,5.356-4.067
					c3.14-0.146-3.545,6.976-4.457,8.055c-0.085,0.1-0.168,0.204-0.231,0.314c-0.025,0.425,0.01,0.846,0.078,1.266
					c0.051,0.235,0.098,0.471,0.141,0.706c0.259,1.106,0.656,2.205,0.732,3.324c0.088,1.286,0.028,2.66-0.415,3.893
					C234.217,224.343,233.319,225.123,232.225,225.627z"/>
				<path style="opacity:0.4;fill:#320032;" d="M229.929,224.836c-0.535-2.269-1.698-4.606-3.799-5.794
					c-1.701-0.962-3.999-1.047-5.569,0.218c-0.268,0.216-0.607-0.199-0.338-0.416c1.328-1.069,3.109-1.277,4.726-0.852
					c1.849,0.486,3.286,1.838,4.237,3.458c0.601,1.024,1.002,2.151,1.273,3.304C230.537,225.089,230.008,225.17,229.929,224.836z"/>
				<path style="opacity:0.4;fill:#320032;" d="M222.623,215.185c-0.279-0.204,0.033-0.64,0.311-0.436
					c2.652,1.942,6.112,1.141,8.732-0.413c0.295-0.175,0.509,0.316,0.215,0.49C229.098,216.477,225.421,217.234,222.623,215.185z"/>
				<path style="opacity:0.4;fill:#320032;" d="M230.194,217.43c-1.106,0.413-2.349,0.402-3.443-0.048
					c-0.319-0.131-0.131-0.633,0.188-0.501c0.964,0.396,2.061,0.424,3.039,0.059C230.299,216.82,230.518,217.309,230.194,217.43z"/>
				<path style="opacity:0.4;fill:#320032;" d="M224.35,212.576c-0.135,0.021-0.294-0.079-0.306-0.224
					c-0.07-0.837-0.14-1.673-0.21-2.51c-0.012-0.144,0.074-0.283,0.224-0.306c0.135-0.021,0.294,0.079,0.306,0.224
					c0.07,0.837,0.14,1.673,0.21,2.51C224.586,212.414,224.5,212.553,224.35,212.576z"/>
				<path style="opacity:0.4;fill:#320032;" d="M227.951,210.779c0.355-0.964,0.667-1.944,0.934-2.936
					c0.038-0.14,0.219-0.204,0.345-0.157c0.146,0.055,0.194,0.205,0.157,0.345c-0.267,0.992-0.579,1.972-0.934,2.936
					C228.333,211.291,227.832,211.102,227.951,210.779z"/>
				<path style="opacity:0.4;fill:#320032;" d="M231.435,212.662c-0.123-0.046-0.223-0.216-0.157-0.345
					c0.358-0.696,0.716-1.392,1.074-2.088c0.066-0.128,0.199-0.211,0.345-0.157c0.123,0.046,0.223,0.216,0.157,0.345
					c-0.358,0.696-0.716,1.392-1.074,2.088C231.714,212.634,231.581,212.717,231.435,212.662z"/>
			</g>
			<path style="fill:#FFBBA6;" d="M157.531,391.504c3.138-4.345,9.289-6.685,15.092-8.072c12.805-3.061,25.019-7.381,37.587-11.384
				c8.866-2.824,18.352-7.131,27.731-6.982c4.228,0.067,8.277,1.413,11.532,3.577c7.812,5.193,11.279,16.931,0.298,23.131
				c-9.33,5.268-22.106,8.645-32.332,12.455c-8.943,3.333-17.924,6.579-26.938,9.745c-2.893,1.016-6.01,2.376-9.193,3.516
				c-11.05,3.959-21.253,1.315-24.406-7.947C155.1,404.249,153.608,396.935,157.531,391.504z"/>
			<path style="fill:#FFBBA6;" d="M185.639,383.999c-3.765-3.814-10.201-5.188-16.149-5.671
				c-13.123-1.068-25.853-3.471-38.885-5.507c-9.193-1.436-19.226-4.243-28.472-2.662c-4.168,0.713-7.964,2.662-10.85,5.297
				c-6.927,6.326-8.559,18.456,3.24,22.905c10.025,3.78,23.167,5.165,33.856,7.368c9.348,1.927,18.719,3.763,28.111,5.514
				c3.014,0.562,6.303,1.43,9.622,2.07c11.525,2.224,21.204-1.948,22.904-11.583C189.988,396.222,190.345,388.766,185.639,383.999z"
				/>
			<path style="fill:#FFBBA6;" d="M175.238,398.172c2.803-3.992,6.049-7.9,9.583-11.351c5.657-5.524,12.523-9.645,19.96-12.615
				c-3.865-6.332-8.645-12.096-14.52-17.038c-0.672,0.083-1.341,0.266-1.996,0.439c-10.195,2.687-20.959,2.588-31.283,0.577
				c-1.157-0.225-3.22-1.044-5.054-1.378c-5.716,5.384-11.226,10.895-14.843,17.553c16.07,3.726,28.039,17.693,33.68,32.26
				C171.738,403.616,173.4,400.79,175.238,398.172z"/>
			<path style="fill:#F0626E;" d="M249.621,368.42c-3.415-2.27-7.561-3.556-11.676-3.622c-7.346-0.124-14.7,2.462-21.818,4.956
				c-1.98,0.694-4.028,1.411-5.998,2.038c-1.824,0.581-3.633,1.173-5.445,1.763c-3.97-6.388-8.758-11.973-14.25-16.592l-0.089-0.075
				l-0.116,0.014c-0.646,0.08-1.286,0.249-1.904,0.412l-0.127,0.034c-9.616,2.535-20.101,2.728-31.163,0.573
				c-0.483-0.094-1.129-0.294-1.877-0.527c-0.994-0.309-2.119-0.658-3.181-0.851l-0.133-0.024l-0.098,0.093
				c-5.345,5.035-10.851,10.491-14.543,17c-2.181-0.355-4.36-0.713-6.555-1.056c-2.042-0.319-4.175-0.715-6.237-1.098
				c-7.416-1.377-15.086-2.799-22.321-1.563c-4.056,0.693-7.958,2.598-10.986,5.363c-4.131,3.772-6.207,9.302-5.287,14.089
				c0.568,2.959,2.524,6.968,8.613,9.264c7.07,2.666,15.612,4.132,23.872,5.55c3.524,0.605,6.852,1.176,10.024,1.83
				c9.206,1.898,18.666,3.753,28.116,5.515c0.369,0.069,0.741,0.142,1.116,0.219c1.396,2.703,3.527,4.809,6.281,6.137
				c2.328,1.122,5.016,1.683,7.932,1.683c3.018,0,6.279-0.601,9.631-1.802c1.563-0.56,3.118-1.176,4.622-1.772
				c1.594-0.631,3.099-1.228,4.569-1.744c9.07-3.185,18.135-6.464,26.943-9.746c3.035-1.131,6.237-2.204,9.627-3.341
				c7.947-2.664,16.164-5.418,22.743-9.132c5.667-3.2,6.987-7.46,7.096-10.471C257.176,376.665,254.28,371.517,249.621,368.42z"/>
			<path style="opacity:0.4;fill:#320032;" d="M170.761,399.643c-2.914-2.109-6.185-3.699-9.642-4.695
				c-0.332-0.096-0.474,0.421-0.142,0.517c3.415,0.984,6.635,2.557,9.514,4.641C170.77,400.307,171.038,399.843,170.761,399.643z"/>
			<g>
				<rect x="151.886" y="330.959" style="fill:#ED823A;" width="63.483" height="63.483"/>
				
					<rect x="129.213" y="330.959" transform="matrix(1 -0.0033 0.0033 1 -1.2058 0.5375)" style="fill:#FE9E54;" width="63.483" height="63.483"/>
				<g>
					<path style="fill:#F2EDF7;" d="M157.281,374.583c0.005-0.344,0.01-0.689,0.013-1.034l0.009-0.924
						c0.008-0.885,0.016-1.77,0.034-2.655c0.002-0.122,0.01-0.492-0.25-0.758c-0.169-0.174-0.412-0.256-0.714-0.265
						c-1.419-0.011-2.838-0.027-4.258-0.043l-1.953-0.022c-0.069,0-0.172-0.001-0.287,0.018c0.445-0.756,0.892-1.507,1.331-2.246
						c0.644-1.084,1.287-2.168,1.923-3.256c0.006,0.003,0.012,0.007,0.018,0.011c0.699,0.429,1.445,0.874,2.349,1.402
						c0.05,0.029,0.1,0.061,0.15,0.094c0.214,0.139,0.481,0.311,0.849,0.349c0.146,0.015,0.29-0.038,0.393-0.143
						c0.102-0.105,0.151-0.251,0.132-0.396c-0.003-0.02-0.003-0.038-0.005-0.053c-0.005-0.067-0.012-0.169-0.068-0.28l-1.885-3.747
						c-0.754-1.498-1.508-2.997-2.261-4.495c-0.198-0.395-0.539-0.593-0.988-0.573c-0.65,0.03-1.3,0.051-1.951,0.071l-2.521,0.079
						c-1.516,0.047-3.033,0.095-4.545,0.144l-0.036-0.002c-0.6-0.036-0.726,0.378-0.749,0.508c-0.039,0.215,0.007,0.516,0.443,0.726
						c0.013,0.007,0.027,0.012,0.038,0.019l0.34,0.202c0.751,0.447,1.503,0.893,2.277,1.343c0.056,0.032,0.115,0.067,0.166,0.098
						c-0.033,0.059-0.074,0.13-0.115,0.201c-0.247,0.426-0.511,0.857-0.766,1.273c-0.536,0.875-1.09,1.78-1.548,2.732
						c-0.871,1.81-0.82,3.45,0.156,5.011c0.576,0.922,1.109,1.899,1.624,2.845c0.251,0.461,0.502,0.921,0.759,1.378
						c1.482,2.635,3.254,5.474,6.546,5.817c0.885,0.092,1.774,0.095,2.634,0.096c0.525,0.001,1.067,0.002,1.596,0.024
						c0.02,0.001,0.04,0.001,0.06,0.001c0.326,0.004,0.574-0.08,0.755-0.256c0.26-0.251,0.289-0.604,0.287-0.848
						C157.259,376.215,157.27,375.385,157.281,374.583z"/>
					<path style="fill:#F2EDF7;" d="M178.715,362.03c-0.287-0.525-0.582-1.046-0.878-1.566c-0.305-0.538-0.621-1.094-0.92-1.645
						c-0.099-0.182-0.265-0.433-0.567-0.519c-0.302-0.086-0.578,0.041-0.76,0.144c-1.959,1.117-4.003,2.266-6.247,3.512
						c-0.205,0.114-0.451,0.283-0.535,0.59c-0.086,0.311,0.045,0.591,0.151,0.775l0.229,0.396c0.809,1.4,1.645,2.847,2.401,4.3
						c0.128,0.246,0.319,0.611,0.609,0.901c-0.333-0.003-0.667-0.006-0.993-0.008c-0.804-0.005-1.608-0.014-2.413-0.025
						c-0.972-0.013-1.977-0.027-2.967-0.024c-0.027,0.001-0.048,0-0.066-0.002c0-0.015,0.001-0.033,0.002-0.053
						c0.023-0.418,0.024-0.836,0.024-1.241c0-0.167,0-0.334,0.002-0.501l0.003-0.269c0.004-0.405,0.008-0.81,0.01-1.216l0.001-0.026
						c0.01-0.33-0.112-0.555-0.362-0.669c-0.118-0.053-0.524-0.191-0.813,0.293c-0.066,0.079-0.116,0.158-0.161,0.228l-1.2,1.836
						c-1.16,1.775-2.36,3.611-3.551,5.409c-0.328,0.494-0.328,0.946-0.001,1.465c1.087,1.723,2.182,3.482,3.24,5.182
						c0.455,0.731,0.91,1.462,1.366,2.193c0.012,0.018,0.022,0.038,0.032,0.058c0.075,0.139,0.215,0.397,0.557,0.501
						c0.044,0.013,0.089,0.02,0.134,0.021c0.125,0.001,0.247-0.046,0.339-0.135c0.269-0.26,0.257-0.581,0.25-0.752
						c-0.001-0.025-0.002-0.049-0.002-0.073l0.01-0.625c0.014-0.801,0.027-1.629,0.018-2.446c0-0.025,0-0.045,0.001-0.063
						c0.016-0.001,0.035-0.001,0.057,0l0.483,0.011c1.337,0.033,2.72,0.067,4.084,0.026c2.063-0.062,3.562-0.932,4.454-2.586
						c0.497-0.922,1.052-1.839,1.59-2.726c0.252-0.417,0.505-0.833,0.752-1.252C178.858,368.438,180.596,365.473,178.715,362.03z"/>
					<path style="fill:#F2EDF7;" d="M175.965,349.218c-0.078-0.148-0.228-0.245-0.395-0.255c-0.297-0.022-0.511,0.117-0.639,0.198
						c-0.022,0.014-0.044,0.028-0.066,0.04l-0.62,0.346c-0.662,0.369-1.346,0.75-2.01,1.146c-0.043,0.026-0.076,0.043-0.1,0.054
						c-0.014-0.02-0.033-0.049-0.055-0.09l-0.262-0.48c-0.647-1.186-1.316-2.412-2.062-3.571c-1.074-1.667-2.578-2.499-4.472-2.469
						c-1.801,0.027-3.637-0.003-5.413-0.033c-2.5-0.042-5.524,0.131-7.309,2.245c-0.755,0.894-1.326,1.904-1.878,2.881
						c-0.281,0.497-0.571,1.011-0.879,1.495c-0.129,0.202-0.17,0.405-0.122,0.602c0.074,0.306,0.322,0.452,0.486,0.548
						c0.536,0.315,1.071,0.632,1.606,0.949l4.688,2.771c0.121,0.072,0.306,0.181,0.532,0.184c0.059,0.001,0.121-0.006,0.184-0.023
						c0.202-0.052,0.368-0.188,0.496-0.405c0.903-1.537,1.813-3.071,2.722-4.605l0.537-0.906c0.045-0.075,0.076-0.147,0.101-0.218
						c0.474,0.838,0.945,1.674,1.407,2.496c0.58,1.032,1.161,2.064,1.745,3.094c-0.797,0.434-1.597,0.889-2.371,1.329l-0.479,0.272
						l-0.031,0.014c-0.313,0.137-0.47,0.358-0.468,0.655c0.001,0.121,0.048,0.238,0.131,0.326c0.212,0.224,0.473,0.23,0.598,0.233
						l0.038,0.001c1.289,0.076,2.578,0.149,3.867,0.22c0.511,0.028,1.022,0.055,1.533,0.081c1.17,0.061,2.38,0.124,3.567,0.203
						c0.033,0.002,0.065,0.004,0.097,0.004c0.463,0.005,0.783-0.188,1.002-0.603c0.764-1.443,1.531-2.883,2.298-4.324
						c0.626-1.176,1.252-2.352,1.876-3.528c0.008-0.014,0.018-0.028,0.027-0.042C175.956,349.933,176.173,349.612,175.965,349.218z"
						/>
				</g>
			</g>
			<path style="fill:#213150;" d="M209.354,414.675c-0.02-0.017-0.041-0.033-0.062-0.05c-4.272-3.457-8.745-6.733-14.65-6.725
				c-5.378,0.007-8.852-1.569-13.958-2.203c-2.843-0.353-5.549,0.757-7.97,1.984c-2.848,1.444-5.896,3.767-5.271,6.757
				c0.314,1.505,1.53,2.769,2.821,3.812c5.939,4.797,10.866,2.74,17.697,5.162c4.443,1.576,7.984,3.354,12.694,2.204
				c3.297-0.806,6.293-2.277,9.256-3.737c0.853-0.42,1.748-0.878,2.199-1.652C213.193,418.367,211.183,416.157,209.354,414.675z"/>
			<path style="fill:#FFBAA6;" d="M184.293,404.715c-12.994-4.545-25.909-9.394-37.926-16.188
				c-15.176-8.58-30.479-15.341-48.14-11.687c-11.854,2.452-17.105,11.545-6.442,20.489c15.648,13.126,37.099,15.492,56.736,16.796
				c9.503,0.631,18.969,1.79,28.368,3.347c4.935,0.817,9.713,2.693,14.748,2.892c3.18,0.126,10.681-0.844,10.132-5.406
				c-0.664-5.524-12.868-8.634-17.197-10.147C184.479,404.78,184.386,404.748,184.293,404.715z"/>
			<path style="fill:#F0626E;" d="M176.959,401.818c-9.873-3.601-20.522-7.904-30.461-13.523
				c-13.604-7.691-29.679-15.574-48.326-11.717c-6.554,1.356-11.109,4.715-12.186,8.984c-0.973,3.861,1.024,8.113,5.625,11.972
				c15.628,13.108,36.674,15.516,56.891,16.858c7.303,0.485,14.941,1.319,22.767,2.476
				C174.706,412.47,176.966,407.144,176.959,401.818z"/>
			<path style="fill:#213150;" d="M135.019,416.504c0.019-0.017,0.039-0.034,0.058-0.051c4.008-3.538,8.221-6.91,13.961-7.148
				c5.228-0.217,8.539-1.894,13.477-2.723c2.749-0.461,5.426,0.504,7.83,1.596c2.829,1.285,5.889,3.416,5.406,6.348
				c-0.243,1.476-1.372,2.755-2.584,3.823c-5.574,4.911-10.449,3.117-16.988,5.756c-4.253,1.717-7.621,3.594-12.249,2.672
				c-3.238-0.646-6.212-1.952-9.153-3.247c-0.847-0.373-1.736-0.78-2.206-1.515C131.441,420.252,133.302,418.02,135.019,416.504z"/>
			<path style="fill:#FFBBA6;" d="M159.548,405.063c12.736-5.463,25.371-11.225,36.973-18.863
				c14.653-9.646,29.555-17.487,47.53-15.099c12.065,1.602,17.952,10.303,7.855,19.991c-14.818,14.217-36.19,18.11-55.813,20.812
				c-9.497,1.308-18.92,3.14-28.249,5.365c-4.899,1.168-9.568,3.381-14.608,3.939c-3.183,0.353-10.778-0.08-10.537-4.673
				c0.292-5.561,12.332-9.536,16.575-11.354C159.366,405.141,159.457,405.102,159.548,405.063z"/>
			<path style="fill:#F0626E;" d="M256.928,378.933c-1.37-4.185-6.17-7.213-12.841-8.098c-18.973-2.518-34.577,6.494-47.713,15.141
				c-6.613,4.353-13.606,8.105-20.479,11.426c-0.078,6.071,2.18,11.979,5.592,17.199c4.986-0.961,9.881-1.777,14.642-2.432
				c20.202-2.782,41.164-6.687,55.962-20.884C256.449,387.104,258.166,382.718,256.928,378.933z"/>
			<path style="opacity:0.4;fill:#320032;" d="M227.349,372.28c-1.279-0.212-2.576-0.257-3.858-0.148
				c0.852-0.714,1.704-1.428,2.556-2.142c0.111-0.093,0.096-0.283,0-0.379c-0.11-0.11-0.268-0.093-0.379,0
				c-1.015,0.85-2.029,1.701-3.044,2.551c-0.024,0.02-0.038,0.045-0.051,0.072c-2.04,0.296-4.02,0.994-5.798,2.073
				c-0.294,0.178-0.025,0.642,0.27,0.462c3.024-1.834,6.67-2.551,10.162-1.973C227.543,372.852,227.689,372.336,227.349,372.28z"/>
			<path style="opacity:0.4;fill:#320032;" d="M127.227,378.49c-1.072-1.271-2.481-2.226-4.034-2.784
				c-0.497-0.918-1.15-1.751-1.93-2.444c-0.257-0.228-0.637,0.149-0.379,0.379c0.604,0.537,1.124,1.153,1.554,1.832
				c-0.985-0.265-2.011-0.378-3.036-0.311c-0.342,0.022-0.345,0.558,0,0.536c1.177-0.077,2.349,0.089,3.449,0.462
				c0.057,0.058,0.128,0.079,0.199,0.068c1.459,0.533,2.781,1.436,3.798,2.642C127.07,379.133,127.448,378.752,127.227,378.49z"/>
			<path style="fill:#213150;" d="M200.577,224.107c0.32,1.614,0.924,3.145,2.078,4.438c0.965,1.082,2.254,1.793,3.696,2.055
				c-1.836-15.194-11.221-29.818-28.752-32.38c-16.943-2.476-35.23,4.607-42.365,19.625c-2.189,4.608-3.374,9.561-3.913,14.591
				c1.048,0.081,2.112,0.009,3.158-0.238c2.748-0.649,5.195-2.315,7.009-4.389c1.557-1.78,2.664-3.876,3.499-6.06
				c1.901-0.375,3.758-1.08,5.395-1.872c3.678-1.78,6.878-4.456,9.279-7.687c0.159-0.214,0.302-0.439,0.453-0.657
				c2.194,0.422,4.441,0.575,6.677,0.407c4.199-0.314,8.25-1.798,11.585-4.269c-1.267,2.455-1.953,5.181-1.973,7.937
				c-0.002,0.345,0.55,0.345,0.552,0c0.02-2.816,0.759-5.586,2.111-8.061c-0.275,2.346,0.156,4.769,1.323,6.869
				c0.169,0.304,0.646,0.033,0.477-0.27c-1.245-2.24-1.614-4.868-1.133-7.345c0.041,0.197,0.082,0.394,0.135,0.59
				c0.535,1.956,1.636,3.783,3.307,5.023c1.52,1.127,3.376,1.65,5.262,1.753c0.175,1.789,0.794,3.548,1.785,5.055
				c1.177,1.789,2.866,3.174,4.883,3.998C196.833,223.923,198.713,224.196,200.577,224.107z"/>
			<g>
				<path style="fill:#FFBAA6;" d="M75.891,231.543c0.756-0.451,1.544,0.017,2.138,0.6c0.002-0.004,0.003-0.008,0.004-0.012
					c-0.011-0.042-0.023-0.085-0.034-0.127c0.011,0.042,0.026,0.074,0.041,0.105c0.162-0.432,0.394-0.836,0.754-1.135
					c0.478-0.398,1.114-0.516,1.719-0.437c0.629,0.082,1.201,0.405,1.686,0.8c0.22,0.179,0.419,0.378,0.616,0.579
					c0.002,0,0.004,0,0.006,0c0.998-1.437,2.549-0.178,3.207,0.884c0.598,0.965,0.25,1.918,0.025,2.944
					c0.828,0.68,1.562,1.475,2.176,2.362c0.868,1.253,0.26,2.429-0.179,3.739c-0.574,1.711-1.148,3.421-1.723,5.132
					c-0.16,0.478-0.273,1.053-0.675,1.395c-0.419,0.356-1.051,0.513-1.552,0.717l-3.53,1.44l-4.087,1.667
					c-0.083,0.034-0.199,0.03-0.268-0.035c-1.817-1.678-2.919-3.865-3.583-6.22c-0.125-0.445-0.204-0.903-0.261-1.368
					c-0.662-1.114-1.153-2.326-1.408-3.61c-0.26-1.308-0.274-2.676-0.024-3.986c0.123-0.646,0.309-1.285,0.561-1.893
					c0.205-0.496,0.453-1.047,0.922-1.348c0.496-0.318,1.115-0.211,1.559,0.149c0.007,0.006,0.013,0.013,0.02,0.019
					C74.421,232.933,75.013,232.066,75.891,231.543z"/>
				<path style="opacity:0.4;fill:#320032;" d="M78.35,232.262c0.398,0.678,0.621,1.457,0.654,2.243
					c1.018-0.22,2.056-0.34,3.1-0.346c0.108-0.001,0.22,0.002,0.331,0.005c0.044-0.662,0.056-1.327,0.028-1.99
					c-0.015-0.344,0.52-0.374,0.535-0.028c0.029,0.681,0.017,1.363-0.03,2.043c1.12,0.081,2.257,0.378,2.944,1.321
					c0.203,0.279-0.22,0.607-0.424,0.327c-0.646-0.887-1.799-1.095-2.831-1.137c-1.243-0.051-2.501,0.083-3.713,0.359
					c-0.631,0.143-1.251,0.33-1.857,0.558c-0.429,0.161-1.186,0.357-1.343,0.853c-0.171,0.538,0.5,0.985,0.897,1.193
					c0.54,0.283,1.121,0.503,1.712,0.65c0.225,0.056,0.453,0.099,0.681,0.136c0.089-0.028,0.184-0.019,0.25,0.037
					c1.092,0.143,2.209,0.072,3.271-0.229c0.328-0.093,0.54,0.399,0.21,0.493c-0.213,0.061-0.429,0.11-0.645,0.155
					c-0.027,0.035-0.062,0.067-0.118,0.085c-1.647,0.534-2.318,2.354-1.928,3.944c0.44,1.791,1.934,3.042,3.501,3.866
					c0.302,0.159,0.099,0.655-0.207,0.494c-1.776-0.935-3.405-2.349-3.849-4.392c-0.302-1.39,0.147-2.932,1.223-3.824
					c-0.454,0.021-0.909,0.004-1.362-0.046c0.043,1.245-0.053,2.664-1.172,3.421c-0.923,0.625-2.146,0.501-2.929-0.235
					c-0.133,0.397-0.325,0.771-0.602,1.097c-0.523,0.616-1.244,1-2.06,0.978c-0.344-0.009-0.274-0.54,0.068-0.531
					c0.755,0.02,1.407-0.474,1.799-1.085c0.204-0.318,0.329-0.673,0.406-1.042c0.002-0.019,0.005-0.037,0.011-0.055
					c0.095-0.496,0.102-1.015,0.072-1.506c-0.114-1.845-0.512-3.7-1.046-5.466c-0.099-0.327,0.393-0.539,0.493-0.209
					c0.31,1.026,0.567,2.066,0.759,3.121c0.189,1.039,0.356,2.108,0.343,3.167c-0.004,0.3-0.031,0.603-0.084,0.9
					c0.605,0.79,1.734,0.994,2.547,0.367c0.899-0.694,0.908-1.95,0.859-2.998c-0.13-0.023-0.261-0.045-0.391-0.074
					c-0.699-0.159-1.382-0.396-2.019-0.727c-0.494-0.257-1.012-0.629-1.194-1.181c-0.453-1.37,1.622-1.88,2.532-2.157
					c0.233-0.071,0.47-0.128,0.705-0.187c-0.023-0.764-0.234-1.501-0.621-2.161c-0.073-0.125,0.021-0.3,0.142-0.351
					C78.147,232.057,78.277,232.136,78.35,232.262z"/>
			</g>
			<g>
				<path style="fill:#FE9E54;" d="M115.076,259.195c-1.899-2.694-4.092-5.194-6.517-7.432c-4.283-3.952-9.224-7.099-14.686-9.354
					c-5.077-2.095-10.402-3.293-15.834-3.563c-0.053-0.074-0.117-0.137-0.19-0.188c-0.007-0.114-0.013-0.228-0.018-0.343
					c-0.014-0.352-0.016-0.709-0.006-1.06c0.021-0.71,0.09-1.415,0.206-2.094c0.232-1.358,0.632-2.667,1.191-3.888
					c0.587-1.285,1.337-2.469,2.228-3.521c0.211-0.248,0.429-0.493,0.647-0.738c0.711-0.798,1.446-1.622,1.961-2.617
					c1.103-2.131,0.747-4.788-0.906-6.77c-1.661-1.991-4.339-2.642-6.666-1.622c-1.319,0.579-2.428,1.597-3.124,2.867
					c-0.36,0.659-0.591,1.353-0.684,2.065c-0.118,0.9,0.034,1.744,0.215,2.523c0.064,0.277,0.261,0.491,0.526,0.572
					c0.276,0.084,0.591,0.009,0.806-0.191c0.209-0.196,0.294-0.482,0.228-0.765c-0.174-0.75-0.27-1.379-0.174-2.008
					c0.078-0.507,0.255-1.007,0.527-1.483c0.564-0.992,1.48-1.789,2.51-2.187c1.031-0.398,2.114-0.38,3.047,0.052
					c0.884,0.408,1.651,1.152,2.157,2.094c0.504,0.94,0.693,1.973,0.53,2.91c-0.21,1.214-1.024,2.217-1.912,3.222
					c-0.867,0.982-1.857,2.142-2.625,3.471c-0.73,1.264-1.297,2.62-1.685,4.032c-0.444,1.613-0.65,3.26-0.613,4.898
					c0.005,0.197,0.011,0.401,0.023,0.609c-0.048,0.036-0.091,0.078-0.129,0.124c-5.643,0.197-11.195,1.409-16.508,3.601
					c-5.462,2.254-10.403,5.402-14.687,9.354c-2.426,2.239-4.618,4.74-6.516,7.431c-0.163,0.23-0.192,0.515-0.078,0.761
					c0.121,0.262,0.381,0.442,0.68,0.469c0.292,0.028,0.567-0.101,0.736-0.342c3.249-4.608,7.346-8.571,12.178-11.779
					c4.754-3.156,9.947-5.413,15.435-6.709c3.09-0.73,6.252-1.136,9.376-1.204c3.147,0.068,6.31,0.473,9.4,1.204
					c5.488,1.296,10.681,3.553,15.434,6.709c4.831,3.207,8.929,7.17,12.178,11.78c0.16,0.226,0.408,0.346,0.663,0.346
					c0.167,0,0.336-0.051,0.486-0.157C115.248,260.018,115.329,259.555,115.076,259.195z"/>
				<path style="fill:#213150;" d="M52.901,314.14c-7.725,13.957-17.824,26.567-24.162,41.595
					c-4.511,10.695-8.646,21.604-12.239,32.683c6.599,4.23,13.808,7.487,21.385,9.753c22.036,6.593,46.165,6.837,68.362,0.942
					c9.849-2.615,19.325-6.372,28.417-10.935c-2.26-7.314-4.783-14.545-7.623-21.655c-6.894-17.26-16.308-32.013-26.227-47.551
					c-2.769-4.336-5.241-8.843-6.875-13.701c-0.006-0.034-0.015-0.068-0.021-0.102c0.778-3.849,1.83-7.789,3.179-11.907
					c2.664-8.133,8.453-16.242,9.538-24.793c-0.051-0.045-0.1-0.092-0.151-0.137c-9.354-8.162-22.318-10.804-34.385-8.805
					c-6.382,1.058-12.733,3.178-18.479,6.148c-3.361,1.737-6.776,3.909-9.442,6.707c3.373,6.432,6.615,13.46,9.046,20.88
					c1.372,4.19,2.439,8.198,3.221,12.112c-0.231,1.267-0.588,2.509-1.029,3.7C54.661,310.802,53.816,312.487,52.901,314.14z"/>
				<path style="fill:#F0626E;" d="M93.916,305.17c0.252-1.248,0.537-2.506,0.847-3.776c-12.326,4.635-25.963,5.823-38.592,2.676
					c0.094,0.436,0.185,0.871,0.272,1.305c-0.231,1.267-0.588,2.509-1.029,3.7c-0.437,1.002-0.909,1.989-1.404,2.966
					c3.7,1.435,7.537,2.498,11.482,3.153c10.612,1.761,21.342,0.345,31.136-3.525c-1.033-2.072-1.951-4.196-2.691-6.396
					C93.932,305.238,93.922,305.205,93.916,305.17z"/>
				<g>
					<path style="fill:#213150;" d="M66.495,261.419c-0.848-5.435-1.975-11.709-4.628-17.395c-0.511-1.094-1.079-2.142-1.687-3.141
						c-0.774,0.405-1.569,0.778-2.403,1.104c-0.783,0.306-1.633,0.662-2.509,0.963c2.433,3.652,4.085,8.197,5.337,14.689
						c0.264,1.365,0.514,2.827,0.813,4.739c0.208,1.331,1.242,2.251,2.455,2.27c0.158,0.003,0.319-0.011,0.482-0.04
						C65.768,264.355,66.729,262.925,66.495,261.419z"/>
					<path style="fill:#213150;" d="M98.313,246.043c-0.005-0.917-0.024-1.856-0.049-2.802c-1.755-0.663-3.494-1.38-5.2-2.132
						c-0.011,0.121-0.017,0.242-0.011,0.365c0.217,5.445,0.098,10.941-0.354,16.333c-0.125,1.496-0.281,3.036-0.463,4.576
						c-0.179,1.511,0.789,2.843,2.205,3.032c0.097,0.013,0.193,0.02,0.288,0.021c1.309,0.02,2.456-1.013,2.624-2.428
						C98.02,257.387,98.343,251.678,98.313,246.043L98.313,246.043z"/>
				</g>
				<path style="opacity:0.4;fill:#320032;" d="M132.284,383.277c-3.234,2.467-6.961,4.156-10.715,5.666
					c-3.512,1.413-7.096,2.647-10.731,3.703c-7.333,2.13-14.873,3.535-22.476,4.236c-7.58,0.7-15.222,0.707-22.806,0.062
					c-4.183-0.356-8.348-0.918-12.48-1.667c0.392-5.281,1.179-10.524,2.24-15.711c1.069-5.225,2.408-10.392,3.88-15.517
					c1.473-5.131,3.077-10.222,4.686-15.311c1.611-5.097,3.226-10.193,4.718-15.327c1.488-5.119,2.853-10.277,3.961-15.493
					c0.14-0.66,0.276-1.321,0.408-1.982c0.059-0.294-0.393-0.421-0.452-0.125c-1.048,5.251-2.367,10.444-3.829,15.595
					c-1.466,5.165-3.073,10.289-4.69,15.408c-1.616,5.115-3.243,10.227-4.751,15.375c-1.5,5.121-2.884,10.278-4.013,15.494
					c-1.12,5.176-1.987,10.411-2.47,15.686c-0.056,0.607-0.104,1.215-0.15,1.823c-3.268-0.604-6.515-1.322-9.729-2.165
					c-7.427-1.949-14.691-4.525-21.677-7.713c-0.856-0.391-1.707-0.791-2.555-1.199c-0.271-0.13-0.508,0.274-0.236,0.405
					c6.925,3.334,14.132,6.076,21.522,8.186c7.394,2.111,14.967,3.591,22.612,4.417c7.667,0.828,15.409,0.991,23.103,0.448
					c7.626-0.538,15.207-1.767,22.6-3.722c3.751-0.992,7.453-2.171,11.084-3.538c3.649-1.373,7.32-2.859,10.653-4.899
					c0.872-0.534,1.715-1.11,2.528-1.73C132.757,383.501,132.524,383.094,132.284,383.277z"/>
				<path style="opacity:0.4;fill:#320032;" d="M102.365,378.346c-1.074-5.167-2.371-10.286-3.782-15.371
					c-1.409-5.081-2.932-10.13-4.465-15.175c-1.542-5.075-3.096-10.146-4.558-15.245c-1.459-5.09-2.827-10.207-3.995-15.372
					c-0.145-0.639-0.286-1.279-0.424-1.919c-0.064-0.295-0.516-0.17-0.452,0.125c1.115,5.151,2.435,10.254,3.862,15.327
					c1.43,5.082,2.963,10.134,4.5,15.184c1.535,5.046,3.073,10.092,4.511,15.167c1.433,5.056,2.768,10.142,3.897,15.276
					c1.133,5.151,2.06,10.351,2.665,15.592c0.075,0.65,0.145,1.301,0.211,1.953c0.03,0.297,0.499,0.301,0.469,0
					C104.276,388.667,103.433,383.483,102.365,378.346z"/>
				<path style="fill:#320032;" d="M102.654,267.873c-3.482-1.544-7.125-2.708-10.855-3.478c-3.714-0.766-7.508-1.151-11.3-1.16
					c-3.796-0.009-7.595,0.358-11.32,1.09c-3.747,0.736-7.421,1.844-10.944,3.317c-3.498,1.463-6.846,3.279-9.959,5.446
					c-0.389,0.271-0.774,0.548-1.156,0.829c-0.24,0.177-0.007,0.584,0.237,0.405c3.025-2.229,6.289-4.126,9.715-5.668
					c3.449-1.552,7.061-2.74,10.751-3.566c3.68-0.823,7.439-1.281,11.21-1.369c3.766-0.087,7.541,0.194,11.249,0.859
					c3.711,0.667,7.354,1.714,10.843,3.146c0.434,0.178,0.865,0.363,1.294,0.553C102.69,268.399,102.929,267.995,102.654,267.873z"
					/>
				<path style="fill:#320032;" d="M75.37,288.64c-0.207-5.05-0.739-10.108-1.928-15.027c-0.662-2.739-1.535-5.423-2.641-8.017
					c-0.118-0.276-0.522-0.038-0.405,0.237c1.974,4.629,3.159,9.561,3.818,14.541c0.661,4.993,0.819,10.04,0.798,15.073
					c-0.012,2.849-0.083,5.697-0.159,8.544c-0.008,0.302,0.461,0.301,0.469,0C75.458,298.876,75.58,293.755,75.37,288.64z"/>
				<path style="fill:#320032;" d="M89.079,265.36c-0.036-0.295-0.505-0.299-0.469,0c0.595,4.828,0.04,9.687-0.884,14.437
					c-0.935,4.812-2.225,9.548-3.11,14.369c-0.493,2.685-0.859,5.397-0.965,8.127c-0.012,0.302,0.457,0.301,0.469,0
					c0.191-4.909,1.231-9.726,2.326-14.499c1.085-4.73,2.24-9.468,2.694-14.31C89.392,270.782,89.411,268.057,89.079,265.36z"/>
			</g>
			<path style="fill:#FFBAA6;" d="M82.462,232.174c0.028,0.663,0.017,1.328-0.028,1.99c-0.111-0.002-0.222-0.005-0.331-0.004
				c-1.044,0.005-2.082,0.126-3.1,0.346c-0.033-0.786-0.256-1.565-0.654-2.243c-0.068-0.117-0.187-0.189-0.322-0.148
				c-0.01-0.037-0.02-0.074-0.03-0.11c0.011,0.042,0.026,0.074,0.041,0.105c0.161-0.432,0.394-0.835,0.754-1.135
				c0.478-0.398,1.114-0.516,1.719-0.437c0.629,0.082,1.201,0.405,1.686,0.8c0.218,0.177,0.415,0.375,0.611,0.574
				C82.652,231.87,82.453,231.962,82.462,232.174z"/>
			<path style="fill:#FFBAA6;" d="M86.076,246.738c-0.102,0.027-0.222,0.039-0.366,0.034c-2.617-0.097-4.956-1.066-5.637-3.838
				c-0.39-1.59,0.281-3.41,1.928-3.944c0.056-0.018,0.091-0.05,0.118-0.085c0.216-0.045,0.432-0.095,0.645-0.155
				c0.331-0.094,0.118-0.586-0.21-0.493c-1.062,0.301-2.179,0.372-3.271,0.229c-0.066-0.056-0.162-0.066-0.251-0.037
				c-0.229-0.037-0.456-0.08-0.681-0.136c-0.591-0.148-1.172-0.367-1.712-0.65c-0.397-0.208-1.068-0.655-0.897-1.193
				c0.157-0.496,0.914-0.693,1.343-0.853c0.606-0.227,1.226-0.414,1.857-0.558c1.212-0.276,2.47-0.41,3.713-0.359
				c1.032,0.042,2.185,0.25,2.831,1.138c0.204,0.279,0.627-0.049,0.424-0.328c-0.687-0.943-1.824-1.24-2.944-1.321
				c0.048-0.68,0.059-1.362,0.03-2.044c-0.005-0.127-0.082-0.202-0.175-0.231c0.998-1.435,2.549-0.177,3.206,0.885
				c0.598,0.965,0.25,1.918,0.025,2.944c0.828,0.68,1.562,1.475,2.176,2.362c0.868,1.254,0.26,2.429-0.179,3.739
				c-0.404,1.203-0.808,2.406-1.212,3.611C86.642,246.045,86.609,246.596,86.076,246.738z"/>
			<path style="fill:#FFBAA6;" d="M78.478,234.632c-0.236,0.06-0.472,0.117-0.705,0.187c-0.911,0.277-2.986,0.787-2.532,2.157
				c0.182,0.552,0.7,0.924,1.194,1.18c0.637,0.331,1.32,0.568,2.019,0.727c0.13,0.029,0.26,0.051,0.391,0.074
				c0.049,1.048,0.04,2.304-0.859,2.998c-0.813,0.627-1.942,0.423-2.547-0.367c0.052-0.298,0.08-0.6,0.084-0.9
				c0.013-1.059-0.154-2.128-0.343-3.167c-0.191-1.055-0.449-2.096-0.759-3.122c-0.1-0.33-0.592-0.118-0.493,0.21
				c0.535,1.766,0.933,3.62,1.046,5.466c0.03,0.492,0.023,1.011-0.072,1.506c-0.006,0.018-0.009,0.036-0.011,0.055
				c-0.089,0.813-0.73,1.89-1.627,1.905c-1.78,0.029-1.98-0.965-2.301-2.58c-0.26-1.308-0.274-2.676-0.024-3.987
				c0.123-0.646,0.309-1.285,0.561-1.893c0.205-0.496,0.453-1.047,0.922-1.348c0.496-0.318,1.115-0.211,1.559,0.149
				c0.007,0.006,0.013,0.013,0.02,0.019c0.42-0.97,1.012-1.837,1.89-2.36c0.745-0.445,1.521,0.005,2.108,0.577
				c-0.121,0.052-0.215,0.226-0.142,0.351C78.245,233.131,78.455,233.868,78.478,234.632z"/>
		</g>
		<path style="fill:#FE9E54;" d="M391.558,294.784c-5.076-3.185-8.543-6.215-10.91-9.536c-0.092-0.129-0.237-0.211-0.395-0.223
			c-0.157-0.012-0.314,0.046-0.424,0.16c-2.682,2.75-5.711,5.199-8.64,7.567l-0.666,0.539c-2.601-10.307-6.064-21.369-10.575-33.784
			c-1.424-3.917-3.246-8.051-6.123-11.488c-6.686,4.297-13.89,7.916-21.466,10.016c-0.001,0.032-0.003,0.067-0.004,0.099
			c-0.023,0.58-0.043,1.126-0.068,1.624c-0.867,17.409,4.48,36.579,14.667,52.595c2.247,3.533,4.715,6.603,7.334,9.125
			c0.371,0.357,0.773,0.764,1.201,1.198c2.42,2.451,5.771,5.846,9.151,5.846c1.105,0,2.214-0.363,3.294-1.242
			c0.061-0.049,0.12-0.101,0.18-0.153l0.076-0.067c3.002-2.276,5.481-5.256,7.878-8.137l0.805-0.966
			c2.703-3.229,5.302-6.618,7.726-10.072c2.437-3.473,4.509-7.397,6.512-11.19l0.637-1.205
			C391.878,295.241,391.795,294.934,391.558,294.784z"/>
		<g>
			<path style="fill:#FFBAA6;" d="M421.852,450.324c1.312-1.257,2.948-1.916,4.558-2.696c1.092-0.529,2.095-1.192,3.031-1.947
				c2.204-2.71,4.581-5.312,6.775-8.038c1.89-2.348,2.104-2.296,0.534-4.841c-1.072-1.738-2.258-3.415-3.376-5.124
				c-4.855-7.416-9.609-14.897-14.226-22.464c-10.552-17.295-22.557-34.786-28.013-54.54c-5.525-20.005-9.94-40.434-13.94-60.796
				c-1.456-7.41-3.136-15.175-2.152-22.747c0.556-4.28,2.941-6.57,6.927-7.923c3.768-1.278,7.706-2.251,11.685-2.235
				c10.64,0.043,14.011,7.435,15.426,16.035c4.348,26.422,8.807,52.83,13.111,79.263c6.148,15.883,12.234,31.79,18.189,47.744
				c4.381,11.766,8.177,23.694,12.457,35.482c1.749,4.817,0.647,6.131-3.614,8.288c-3.849,1.949-7.744,3.812-11.677,5.585
				c-1.601,0.721-18.002,8.537-18.788,5.366C418.513,453.728,421.185,450.963,421.852,450.324z"/>
			<path style="fill:#908DA6;" d="M432.703,428.118c0.409,0.625,0.826,1.245,1.244,1.865c0.1,0.149,0.202,0.303,0.304,0.454
				c0.573-0.243,1.145-0.481,1.705-0.728c2.489-1.097,4.984-2.191,7.486-3.259c2.045-0.874,4.111-1.698,6.183-2.508
				c-0.558-1.62-1.112-3.235-1.659-4.831c-2.181-6.365-4.436-12.947-6.831-19.378c-5.354-14.344-11.125-29.494-18.162-47.675
				c-2.503-15.373-5.101-30.992-7.615-46.098c-1.834-11.027-3.669-22.054-5.483-33.084c-1.276-7.754-4.272-16.66-16.216-16.708
				c-0.033,0-0.066,0-0.1,0c-3.501,0-7.269,0.725-11.846,2.278c-4.532,1.538-6.904,4.265-7.465,8.58
				c-0.947,7.279,0.507,14.64,1.914,21.759l0.246,1.247c4.861,24.745,9.164,43.514,13.954,60.855
				c4.705,17.035,14.262,32.42,23.503,47.298c1.547,2.491,3.088,4.971,4.599,7.447C422.896,412.898,427.554,420.253,432.703,428.118
				z"/>
			<g>
				<path style="fill:#F2EDF7;" d="M417.893,455.891c-0.366-0.555-0.027-1.597,0.092-2.175c0.254-1.234,0.741-2.412,1.379-3.496
					c1.268-2.155,3.111-3.951,5.144-5.386c2.665-1.882,5.666-3.164,8.796-4.012c0.006-2.18,0.501-4.362,1.455-6.327
					c0.401-0.827,0.892-1.608,1.449-2.338c1.853,0.05,3.757-0.322,5.551-0.766c3.185-0.788,5.997-1.907,8.781-3.622
					c0.908,1.344,1.35,3.292,1.887,4.815c0.653,1.853,1.235,3.73,1.742,5.628c0.236,0.883,0.489,1.774,0.657,2.672
					c0.328,1.746-1.776,2.804-3.049,3.432c-2.232,1.101-4.453,2.23-6.715,3.272c-5.161,2.377-10.486,4.399-15.924,6.048
					c-3.208,0.973-6.456,1.816-9.733,2.525c-0.316,0.069-0.643,0.136-0.961,0.074C418.179,456.182,418.004,456.059,417.893,455.891z
					"/>
				<path style="fill:#213150;" d="M418.095,453.28c4.261-0.93,8.482-2.052,12.646-3.32c5.393-1.642,10.627-3.733,15.63-6.33
					c2.229-1.157,6.042-2.559,7.947-4.863c0.188,0.701,0.374,1.406,0.508,2.116c0.328,1.746-1.776,2.804-3.049,3.432
					c-2.233,1.101-4.453,2.23-6.715,3.272c-5.161,2.377-10.486,4.399-15.924,6.048c-3.208,0.973-6.456,1.816-9.733,2.525
					c-0.316,0.069-0.643,0.136-0.961,0.074c-0.266-0.052-0.442-0.176-0.553-0.344c-0.366-0.555-0.027-1.597,0.092-2.175
					C418.015,453.569,418.059,453.426,418.095,453.28z"/>
				<path style="fill:#213150;" d="M448.069,432.956c1.269-0.403,2.624,0.298,3.027,1.567c0.403,1.269-0.298,2.624-1.567,3.027
					c-1.269,0.403-2.624-0.298-3.027-1.567C446.099,434.715,446.8,433.359,448.069,432.956z"/>
				<path style="fill:#213150;" d="M432.975,433.98c0.538-0.684,1.472-0.791,2.282-0.731c0.34,0.025,0.365,0.561,0.021,0.535
					c-0.736-0.054-1.685,0.005-2.039,0.776c-0.349,0.759,0.414,1.214,1.005,1.479c1.364,0.612,2.924,0.775,4.387,0.469
					c0.334-0.07,0.5,0.44,0.162,0.51c-1.407,0.294-2.875,0.21-4.23-0.278c-0.609-0.219-1.296-0.491-1.694-1.028
					C432.47,435.177,432.58,434.481,432.975,433.98z"/>
				<path style="fill:#213150;" d="M431.396,437.853c0.538-0.684,1.472-0.791,2.282-0.731c0.34,0.025,0.365,0.561,0.021,0.535
					c-0.736-0.054-1.685,0.006-2.039,0.776c-0.349,0.759,0.414,1.214,1.005,1.479c1.364,0.612,2.924,0.775,4.387,0.469
					c0.334-0.07,0.5,0.44,0.162,0.51c-1.407,0.294-2.875,0.21-4.23-0.278c-0.609-0.219-1.296-0.491-1.694-1.028
					C430.892,439.051,431.002,438.355,431.396,437.853z"/>
			</g>
			<path style="fill:#FFBAA6;" d="M451.679,284.913c3.123-8.137,3.947-16.22-5.214-21.631c-3.426-2.024-7.316-3.174-11.214-3.974
				c-4.123-0.846-7.338-0.074-9.98,3.339c-4.675,6.038-7.147,13.589-9.634,20.719c-13.465,38.611-24.621,78.226-32.344,118.394
				c-1.673,8.704-3.188,17.439-4.584,26.191c-0.322,2.017-0.572,4.055-0.948,6.063c-0.55,2.94-0.674,2.757-3.651,3.223
				c-3.458,0.541-6.967,0.867-10.421,1.391c-1.201-0.071-2.39-0.255-3.553-0.598c-1.716-0.506-3.37-1.119-5.186-1.072
				c-0.924,0.024-4.761,0.272-5.254,1.184c-1.551,2.876,15.842,8.125,17.512,8.668c4.103,1.334,8.238,2.575,12.397,3.722
				c4.603,1.27,6.303,1.039,8.249-3.702c4.761-11.602,9.975-22.981,14.649-34.634C419.396,369.968,435.382,327.374,451.679,284.913z
				"/>
			<path style="fill:#908DA6;" d="M446.874,262.591c-3.039-1.795-6.68-3.088-11.461-4.069c-4.688-0.962-8.112,0.193-10.777,3.634
				c-4.495,5.806-6.958,12.896-9.341,19.753l-0.415,1.193c-14.182,40.663-25.074,80.534-32.375,118.507
				c-1.608,8.367-3.109,16.943-4.589,26.217c-0.118,0.738-0.226,1.48-0.334,2.221c-0.028,0.193-0.059,0.392-0.088,0.587
				c5.303,1.743,10.645,3.32,15.995,4.92c0.597-1.386,1.192-2.765,1.781-4.13c2.667-6.176,5.425-12.561,7.979-18.929
				c12.566-31.411,24.831-63.55,36.691-94.631c4.156-10.89,8.312-21.78,12.488-32.661
				C455.244,277.865,457.158,268.665,446.874,262.591z"/>
			<g>
				<path style="fill:#F2EDF7;" d="M347.625,438.448c0.116-0.655,1.079-1.177,1.563-1.515c1.034-0.721,2.197-1.24,3.406-1.588
					c2.403-0.691,4.976-0.726,7.438-0.369c3.229,0.468,6.289,1.603,9.143,3.142c1.505-1.578,3.365-2.82,5.409-3.59
					c0.86-0.324,1.753-0.554,2.661-0.7c1.31,1.312,2.948,2.351,4.556,3.264c2.853,1.619,5.664,2.743,8.864,3.414
					c-0.266,1.6-1.286,3.318-1.944,4.793c-0.801,1.794-1.67,3.557-2.608,5.282c-0.436,0.803-0.866,1.623-1.362,2.391
					c-0.963,1.492-3.218,0.813-4.574,0.392c-2.377-0.737-4.766-1.446-7.124-2.246c-5.381-1.827-10.636-4.023-15.716-6.568
					c-2.997-1.502-5.934-3.125-8.8-4.864c-0.277-0.168-0.56-0.344-0.748-0.608C347.632,438.857,347.59,438.647,347.625,438.448z"/>
				<path style="fill:#213150;" d="M349.568,436.694c3.732,2.257,7.566,4.347,11.46,6.293c5.043,2.52,10.28,4.603,15.697,6.162
					c2.414,0.694,6.145,2.301,9.113,1.939c-0.345,0.638-0.696,1.278-1.088,1.885c-0.963,1.492-3.218,0.813-4.574,0.392
					c-2.377-0.737-4.766-1.446-7.124-2.246c-5.381-1.827-10.636-4.023-15.716-6.568c-2.997-1.502-5.934-3.125-8.8-4.864
					c-0.277-0.168-0.561-0.344-0.748-0.608c-0.157-0.221-0.2-0.432-0.164-0.63c0.116-0.655,1.079-1.177,1.563-1.515
					C349.311,436.848,349.441,436.774,349.568,436.694z"/>
				<path style="fill:#213150;" d="M385.302,442.57c1.198,0.58,1.699,2.022,1.119,3.22c-0.58,1.198-2.022,1.699-3.22,1.119
					c-1.198-0.58-1.699-2.022-1.119-3.22C382.663,442.491,384.104,441.99,385.302,442.57z"/>
				<path style="fill:#213150;" d="M373.645,432.927c0.861-0.126,1.612,0.44,2.159,1.04c0.229,0.252-0.121,0.658-0.353,0.403
					c-0.497-0.546-1.227-1.156-2.014-0.84c-0.775,0.311-0.535,1.166-0.288,1.765c0.568,1.383,1.589,2.574,2.86,3.359
					c0.29,0.179,0.06,0.663-0.233,0.482c-1.223-0.755-2.23-1.826-2.878-3.113c-0.291-0.578-0.603-1.248-0.522-1.912
					C372.456,433.449,373.014,433.019,373.645,432.927z"/>
				<path style="fill:#213150;" d="M369.834,434.652c0.861-0.126,1.612,0.439,2.159,1.04c0.229,0.252-0.121,0.658-0.353,0.403
					c-0.497-0.546-1.227-1.156-2.014-0.84c-0.776,0.311-0.535,1.166-0.288,1.765c0.568,1.383,1.589,2.574,2.86,3.359
					c0.29,0.179,0.06,0.663-0.234,0.482c-1.223-0.755-2.23-1.826-2.878-3.113c-0.291-0.578-0.603-1.248-0.522-1.912
					C368.645,435.174,369.203,434.744,369.834,434.652z"/>
			</g>
			<path style="fill:#FFBAA6;" d="M376.638,242.989c1.956-10.057,4.09-20.083,6.318-30.083c2.212-9.929,4.545-19.831,6.994-29.705
				c-0.094-0.158-0.01-0.397,0.177-0.413c0.122-0.071,0.297-0.024,0.373,0.099c2.743,0.917,5.535,1.683,8.363,2.286
				c5.151,1.097,10.412,1.663,15.679,1.696c0.036,0,0.073,0.001,0.109,0.001c0.036,0,0.073-0.001,0.109-0.001
				c5.266-0.033,10.528-0.598,15.679-1.696c2.829-0.603,5.621-1.369,8.363-2.286c0.076-0.123,0.251-0.169,0.373-0.099
				c0.187,0.016,0.271,0.255,0.177,0.413c2.449,9.874,4.782,19.776,6.994,29.705c2.228,10,4.362,20.026,6.318,30.083
				c1.912,9.83,3.528,19.952,2.307,29.977c-0.113,0.925-0.259,1.903-0.831,2.67c-0.566,0.76-1.45,1.102-2.355,1.272
				c-2.317,0.435-4.744,0.442-7.092,0.412c-4.99-0.063-10.04-0.598-14.993,0.262c-5.856,1.016-11.128,5.07-17.211,4.028
				c-4.487-0.769-8.377-3.245-12.888-4.028c-4.953-0.86-10.003-0.325-14.993-0.262c-2.349,0.03-4.776,0.023-7.092-0.412
				c-0.905-0.17-1.788-0.512-2.355-1.272c-0.571-0.767-0.718-1.745-0.831-2.67C373.111,262.941,374.726,252.819,376.638,242.989z"/>
			<path style="fill:#908DA6;" d="M376.375,242.938c0.076-0.39,0.154-0.78,0.233-1.171l0.229-1.154l0.262,0.05
				c9.205,1.77,18.578,2.91,27.858,3.389c9.189,0.474,18.577,0.31,27.655,0.152l1.199-0.021c5.195-0.09,12.02-0.37,18.744-1.743
				l0.265-0.054l0.108,0.552c1.776,9.133,3.566,19.742,2.31,30.06c-0.124,1.017-0.285,1.997-0.881,2.797
				c-0.526,0.706-1.35,1.156-2.52,1.376c-2.334,0.439-4.813,0.445-7.145,0.416c-1.264-0.016-2.551-0.063-3.797-0.108
				c-3.673-0.133-7.473-0.271-11.147,0.366c-2.178,0.378-4.317,1.198-6.387,1.99c-2.845,1.09-5.768,2.21-8.864,2.21
				c-0.675,0-1.359-0.053-2.052-0.172c-2.273-0.389-4.419-1.221-6.495-2.026c-2.049-0.794-4.168-1.616-6.395-2.002
				c-3.673-0.638-7.473-0.5-11.147-0.366c-1.245,0.045-2.533,0.092-3.796,0.108c-2.335,0.03-4.813,0.022-7.145-0.416
				c-1.17-0.22-1.994-0.67-2.52-1.376c-0.596-0.801-0.757-1.78-0.881-2.797C372.809,262.677,374.599,252.07,376.375,242.938z"/>
			<path style="fill:#FFBAA6;" d="M455.339,154.95c-5.344-18.593-33.205-23.971-49.563-20.93
				c-11.624,2.161-29.031,8.064-32.728,20.93c-0.431,1.498-0.616,3.021-0.614,4.55c6.652,11.448,12.793,23.086,16.943,35.756
				c2.318,7.078,4.068,14.324,4.941,21.729c0.12,1.016,0.213,2.033,0.283,3.049c0.485,0.378,1,0.738,1.55,1.075
				c10.122,6.193,25.839,6.269,36.085,0c0.551-0.337,1.065-0.697,1.551-1.075c0.07-1.017,0.163-2.033,0.283-3.049
				c0.873-7.404,2.623-14.651,4.941-21.729c4.15-12.67,10.29-24.308,16.943-35.756C455.955,157.971,455.769,156.448,455.339,154.95z
				"/>
			<path style="fill:#213150;" d="M387.422,191.288c-1.731,7.18-3.404,14.382-4.989,21.501c-2.474,11.103-4.542,20.948-6.32,30.098
				c-0.287,1.477-0.574,2.997-0.849,4.544c6.439,0.612,12.887,1.61,19.284,2.031c10.278,0.676,20.556,0.86,30.852,0.46
				c9.604-0.373,19.122-1.387,28.612-2.644c-0.267-1.494-0.544-2.963-0.822-4.391c-1.779-9.146-3.846-18.99-6.321-30.097
				c-1.696-7.612-3.491-15.317-5.35-22.989c4.236-11.102,9.828-21.309,14.896-30.031l0.073-0.124v-0.144
				c0.002-1.644-0.211-3.225-0.635-4.699c-5.382-18.727-33.084-24.486-50.175-21.308c-8.583,1.596-28.995,6.867-33.146,21.308
				c-0.424,1.475-0.637,3.056-0.635,4.699v0.144l0.073,0.124C377.264,168.88,383.129,179.61,387.422,191.288z"/>
			<path style="opacity:0.4;fill:#320032;" d="M441.861,252.005c4.161-0.338,8.309-0.82,12.439-1.428
				c0.028,0.176,0.056,0.353,0.083,0.529c-4.051,0.597-8.12,1.07-12.202,1.407c0.096,1.337,0.192,2.675,0.288,4.013
				c0.096,1.334,0.167,2.675,0.351,4.001c0.308,2.212,1.069,4.313,2.322,6.167c2.322,3.439,6.005,5.701,10.109,6.185
				c-0.005,0.039-0.007,0.079-0.012,0.119c-0.017,0.139-0.035,0.277-0.054,0.414c-1.725-0.197-3.415-0.684-4.965-1.482
				c-3.863-1.99-6.754-5.726-7.689-9.972c-0.335-1.52-0.427-3.079-0.539-4.627c-0.114-1.591-0.228-3.182-0.342-4.773
				c-0.005-0.06,0.013-0.109,0.037-0.152C441.594,252.254,441.636,252.023,441.861,252.005z"/>
			<path style="opacity:0.4;fill:#320032;" d="M379.083,266.159c1.253-1.854,2.013-3.955,2.321-6.167
				c0.185-1.326,0.256-2.667,0.352-4.002c0.096-1.338,0.192-2.675,0.288-4.013c-2.387-0.197-4.768-0.445-7.145-0.733
				c0.027-0.177,0.055-0.353,0.083-0.529c2.456,0.297,4.916,0.553,7.382,0.754c0.225,0.018,0.267,0.249,0.176,0.4
				c0.024,0.043,0.041,0.092,0.037,0.152c-0.114,1.591-0.228,3.182-0.342,4.773c-0.111,1.548-0.204,3.107-0.539,4.627
				c-0.936,4.246-3.826,7.982-7.69,9.972c-0.034,0.017-0.068,0.032-0.102,0.049c-0.019-0.202-0.039-0.403-0.055-0.605
				C375.929,269.753,377.736,268.155,379.083,266.159z"/>
			<path style="fill:#FFBAA6;" d="M382.808,93.597c-0.087-0.371-0.188-0.74-0.301-1.105c-0.89-2.865-2.585-5.512-5.065-7.176
				c-8.307-5.571-17.02,3.799-14.398,12.306c1.461,4.741,6.314,8.206,11.272,8.049c3.079-0.097,6.205-1.608,7.747-4.274
				C383.402,99.081,383.421,96.201,382.808,93.597z"/>
			<path style="opacity:0.4;fill:#320032;" d="M377.188,97.068c-4.668,1.602-10.461,0.531-14.613-2.462
				c0.013,1,0.16,2.014,0.469,3.016c1.461,4.741,6.314,8.206,11.272,8.049c3.079-0.097,6.205-1.608,7.747-4.274
				c1.27-2.196,1.352-4.898,0.835-7.393C381.155,95.3,379.258,96.358,377.188,97.068z"/>
			<path style="fill:#FFBAA6;" d="M442.762,93.597c0.087-0.371,0.188-0.74,0.301-1.105c0.89-2.865,2.585-5.512,5.065-7.176
				c8.307-5.571,17.02,3.799,14.398,12.306c-1.461,4.741-6.314,8.206-11.272,8.049c-3.079-0.097-6.205-1.608-7.747-4.274
				C442.168,99.081,442.149,96.201,442.762,93.597z"/>
			<path style="opacity:0.4;fill:#320032;" d="M448.382,97.068c4.668,1.602,10.461,0.531,14.613-2.462
				c-0.013,1-0.16,2.014-0.469,3.016c-1.461,4.741-6.314,8.206-11.272,8.049c-3.079-0.097-6.205-1.608-7.747-4.274
				c-1.27-2.196-1.352-4.898-0.835-7.393C444.415,95.3,446.312,96.358,448.382,97.068z"/>
			<path style="fill:#FFBAA6;" d="M424.943,111.733c-6.514,2.606-13.947,2.283-21.071,0.316c-0.934,8.07-1.341,16.217-1.274,24.353
				c0.039,4.736,0.566,9.875,3.296,13.269c2.851,3.544,7.46,4.22,11.44,3.096c3.32-0.938,6.578-3.175,8.131-6.848
				c1.106-2.616,1.242-5.662,1.226-8.6c-0.006-1.213-0.031-2.426-0.072-3.637C426.373,126.358,425.621,119.036,424.943,111.733z"/>
			<path style="opacity:0.4;fill:#320032;" d="M424.943,111.733c-6.513,2.605-13.944,2.283-21.068,0.317
				c-0.648,5.613-1.045,11.262-1.201,16.92c5.805,7.596,15.07,9.243,24.004,7.233c-0.012-0.841-0.03-1.681-0.058-2.521
				C426.373,126.358,425.621,119.036,424.943,111.733z"/>
			<path style="fill:#FFBAA6;" d="M376.664,92.273c-0.015,0.59-0.022,1.18-0.023,1.77c-0.014,7.694,1.111,15.628,5.183,22.248
				c6.314,10.266,19.025,15.799,31.407,16.183c9.007,0.279,18.383-2.022,25.12-7.787c10.263-8.784,12.383-23.432,11.651-36.638
				c-0.898-16.195-10.044-32.58-28.132-35.306c-16.427-2.476-34.159,4.607-41.077,19.625
				C377.925,78.594,376.831,85.451,376.664,92.273z"/>
			<ellipse style="opacity:0.4;fill:#320032;" cx="393.895" cy="107.738" rx="10.176" ry="6.427"/>
			<ellipse style="opacity:0.4;fill:#320032;" cx="432.994" cy="107.738" rx="10.176" ry="6.427"/>
			<path style="fill:#213150;" d="M416.212,101.402c-0.198-0.282-0.63,0.035-0.431,0.318c0.281,0.399,0.23,1.055-0.169,1.381
				c-0.382,0.312-1.039,0.305-1.391-0.067c-0.009-0.01-0.02-0.016-0.03-0.024c-0.01-0.01-0.021-0.018-0.033-0.027
				c-0.014-0.009-0.028-0.017-0.042-0.024c-0.012-0.005-0.023-0.01-0.035-0.014c-0.076-0.026-0.158-0.024-0.234,0.032
				c-0.011,0.008-0.018,0.021-0.028,0.031c-0.85,0.475-1.974,0.276-2.674-0.384c-0.795-0.75-0.772-1.913-0.164-2.773
				c0.329-0.466,0.845-0.828,1.418-0.912c0.155,0.066,0.383-0.01,0.393-0.233c0.057-1.223,0.066-2.447,0.03-3.671
				c-0.01-0.344-0.546-0.345-0.536,0c0.034,1.132,0.024,2.265-0.022,3.397c-1.231,0.24-2.159,1.335-2.266,2.584
				c-0.113,1.314,0.879,2.414,2.116,2.71c0.628,0.15,1.292,0.085,1.867-0.206c0.422,0.325,0.981,0.424,1.5,0.255
				c0.586-0.191,0.979-0.759,1.011-1.366C416.508,102.05,416.421,101.7,416.212,101.402z"/>
			<path style="fill:#213150;" d="M391.881,89.314c0.199-1.666,1.366-3.159,2.944-3.739c1.611-0.592,3.507-0.152,4.729,1.037
				c0.247,0.24-0.108,0.642-0.355,0.401c-1.094-1.065-2.764-1.46-4.208-0.929c-1.412,0.519-2.41,1.864-2.587,3.343
				C392.364,89.769,391.841,89.654,391.881,89.314z"/>
			<path style="fill:#213150;" d="M433.379,89.314c-0.199-1.666-1.366-3.159-2.944-3.739c-1.611-0.592-3.507-0.152-4.729,1.037
				c-0.247,0.24,0.108,0.642,0.355,0.401c1.094-1.065,2.764-1.46,4.208-0.929c1.412,0.519,2.41,1.864,2.587,3.343
				C432.897,89.769,433.42,89.654,433.379,89.314z"/>
			<path style="fill:#213150;" d="M396.022,90.599c-1.302,0-2.357,1.319-2.357,2.946c0,1.627,1.055,2.946,2.357,2.946
				c1.302,0,2.357-1.319,2.357-2.946C398.379,91.918,397.324,90.599,396.022,90.599z"/>
			<path style="fill:#213150;" d="M429.765,90.599c-1.302,0-2.357,1.319-2.357,2.946c0,1.627,1.055,2.946,2.357,2.946
				c1.301,0,2.357-1.319,2.357-2.946C432.122,91.918,431.067,90.599,429.765,90.599z"/>
			<path style="fill:#F0626E;" d="M409.528,107.497c0.707,1.521,2.281,2.577,3.961,2.638c1.715,0.062,3.381-0.946,4.172-2.457
				c0.16-0.305-0.302-0.576-0.462-0.27c-0.709,1.352-2.173,2.247-3.71,2.192c-1.503-0.054-2.87-1.022-3.499-2.372
				C409.845,106.914,409.383,107.186,409.528,107.497z"/>
			<path style="opacity:0.4;fill:#320032;" d="M424.107,357.646c-1.7,4.576-3.4,9.151-5.1,13.727c-1.7,4.576-3.4,9.151-5.1,13.727
				c-0.963,2.591-1.925,5.182-2.888,7.772c-0.12,0.323,0.397,0.463,0.517,0.142l5.1-13.727c1.7-4.576,3.4-9.151,5.1-13.727
				c0.963-2.591,1.925-5.182,2.888-7.772C424.744,357.465,424.226,357.326,424.107,357.646z"/>
			<path style="opacity:0.4;fill:#320032;" d="M412.486,288.867c-1.73,4.334-3.343,8.713-4.859,13.126
				c-1.508,4.392-2.92,8.817-4.258,13.263c-1.345,4.471-2.616,8.965-3.836,13.472c-1.221,4.51-2.391,9.035-3.533,13.565
				c-1.143,4.53-2.258,9.068-3.37,13.605c-0.136,0.554-0.271,1.107-0.407,1.661c-0.082,0.335,0.434,0.477,0.516,0.142
				c1.112-4.538,2.224-9.075,3.36-13.607c1.131-4.511,2.286-9.017,3.489-13.51c1.207-4.511,2.463-9.01,3.79-13.487
				c1.326-4.474,2.723-8.926,4.215-13.347c1.492-4.42,3.078-8.809,4.78-13.153c0.208-0.531,0.418-1.06,0.629-1.59
				C413.13,288.689,412.612,288.55,412.486,288.867z"/>
			<g>
				<rect x="354.958" y="147.171" style="fill:#ED823A;" width="76.055" height="76.055"/>
				<rect x="327.796" y="147.171" style="fill:#FE9E54;" width="76.055" height="76.055"/>
				<rect x="377.594" y="151.35" style="fill:#F2EDF7;" width="21.591" height="12.537"/>
				<g>
					
						<rect x="326.271" y="176.367" transform="matrix(0.9999 -0.0115 0.0115 0.9999 -2.1008 4.2198)" style="fill:none;" width="80.614" height="17.528"/>
					
						<text transform="matrix(0.9999 -0.0115 0.0115 0.9999 331.1581 192.4823)" style="fill:#213150; font-family:'OstrichSans-Heavy'; font-size:23.3574px;">donation</text>
				</g>
			</g>
			<path style="fill:#FFBAA6;" d="M434.61,237.236c-0.258,0.101-0.539,0.123-0.816,0.14c-4.455,0.283-9.102-0.315-13.515-0.944
				c-8.499-1.212-16.807-3.435-24.905-6.26c-4.637-1.618-8.854-4.326-13.646-5.537c-2.306-0.583-4.796-0.954-7.115-0.212
				c-3.013,0.964-5.122,3.671-8.361,4.18c-1.56,0.245-3.176,0.191-4.74,0.014c-1.521-0.173-3.026-0.496-4.483-0.965
				c-0.727-0.233-1.442-0.503-2.141-0.809c-0.686-0.299-1.411-0.607-2.03-1.032c-0.51-0.351-1.024-0.87-1.017-1.533
				c0.006-0.616,0.433-1.069,0.988-1.271c0.618-0.224,1.293-0.203,1.937-0.137c0.827,0.085,1.656,0.155,2.486,0.205
				c1.38,0.083,2.761,0.099,4.142,0.079c1.829-0.521,3.493-1.613,4.968-2.801c0.42-0.338,0.83-0.69,1.235-1.046
				c-0.396,0.046-0.795,0.074-1.196,0.066c-0.562-0.012-1.119-0.08-1.668-0.198c-0.442-0.095-1.158-0.181-1.344-0.668
				c-0.382-1,1.583-1.289,2.133-1.441c1.589-0.438,3.193-0.84,4.767-1.33c1.615-0.712,3.279-1.382,4.991-1.79
				c1.085-0.365,2.22-0.572,3.411-0.585c3.297-0.036,6.486,1.267,9.771,1.58c7.201,0.687,14.432-0.036,21.634-0.369
				c2.378-0.11,4.758-0.199,7.139-0.212c1.4-0.008,2.799,0.012,4.198,0.048c0.386-2.813,0.824-5.619,1.34-8.412
				c0.911-4.935,2.022-9.833,3.327-14.68c0.445-1.651,0.92-3.294,1.41-4.932c1.313-5.586,2.562-11.095,4.075-16.199
				c2.147-7.243,5.298-14.1,12.285-17.813c1.561-0.829,3.255-1.471,5.019-1.581c1.764-0.11,3.61,0.355,4.94,1.52
				c3.707,3.249,4.135,11.764,4.641,16.345c2.01,18.183-2.708,37.755-11.535,53.676c-3.214,5.797-6.559,10.007-11.534,14.355
				C435.16,236.902,434.911,237.118,434.61,237.236z"/>
			<path style="fill:#213150;" d="M458.738,168.628c-0.055-0.502-0.11-1.052-0.168-1.637c-0.471-4.746-1.183-11.919-4.563-14.88
				c-1.291-1.131-3.159-1.709-5.133-1.586c-1.597,0.1-3.275,0.627-5.128,1.612c-7.415,3.939-10.438,11.296-12.417,17.973
				c-1.347,4.544-2.462,9.309-3.643,14.355l-0.431,1.843c-0.565,1.89-1.014,3.46-1.412,4.939c-1.304,4.844-2.425,9.79-3.331,14.701
				c-0.475,2.57-0.904,5.25-1.31,8.186c-1.45-0.035-2.748-0.049-3.967-0.042c-2.553,0.014-5.047,0.116-7.15,0.213
				c-1.558,0.072-3.118,0.162-4.679,0.253c-3.767,0.218-7.621,0.434-11.465,0.388c-0.29,4.69-1.231,9.354-2.837,13.754
				c1.365,0.623,2.76,1.228,4.182,1.725c8.852,3.089,17.015,5.14,24.956,6.272c3.792,0.541,7.511,1.02,11.17,1.02
				c0.802,0,1.602-0.023,2.399-0.074c0.31-0.02,0.611-0.047,0.896-0.158c0.347-0.136,0.626-0.379,0.872-0.594
				c4.952-4.328,8.31-8.508,11.592-14.427C456.453,205.721,460.669,186.099,458.738,168.628z"/>
			<path style="fill:#213150;" d="M452.244,78.546c-0.113-1.636-0.451-3.247-0.942-4.809c-0.198-0.632-0.423-1.256-0.664-1.874
				c0.362-0.382,0.671-0.809,0.885-1.304c1.164-2.693-1.322-5.288-2.965-7.126c-0.854-0.956-1.767-1.9-2.772-2.715
				c0.513,0.161,1.031,0.309,1.557,0.423c0.589,0.128,1.183,0.207,1.784,0.134c0.527-0.064,1.06-0.254,1.409-0.672
				c0.391-0.469,0.445-1.102,0.223-1.66c-0.57-1.435-2.354-1.659-3.695-1.768c-0.949-0.078-1.904-0.043-2.848,0.076
				c0.337-0.221,0.662-0.459,0.955-0.743c0.889-0.863,1.541-2.072,1.448-3.34c-0.082-1.122-0.913-2.193-2.141-1.875
				c-1.318,0.341-1.749,1.724-2.043,2.893c-0.189,0.752-0.353,1.511-0.491,2.274c-0.006-0.128-0.018-0.256-0.029-0.383
				c0.499-1.572,0.694-3.238,0.567-4.884c-0.139-1.796-0.633-3.564-1.494-5.15c-0.837-1.541-2.09-3.038-3.872-3.456
				c-1.533-0.359-2.99,0.213-3.856,1.452c-0.454-0.839-0.978-1.64-1.574-2.389c-1.19-1.495-2.649-2.785-4.286-3.772
				c-1.64-0.989-3.488-1.727-5.413-1.861c-1.863-0.13-3.765,0.393-4.997,1.865c-0.13,0.155-0.244,0.319-0.355,0.484
				c-2.696-0.537-5.439-0.838-8.186-0.874c-2.381-0.031-4.827,0.069-7.167,0.54c-2.167,0.437-4.275,1.343-5.728,3.057
				c-2.121-0.5-4.331-0.62-6.49-0.304c-2.512,0.368-5.463,1.382-6.607,3.862c-0.52,1.126-0.54,2.384-0.355,3.598
				c-1.77-0.395-3.601-0.504-5.402-0.264c-2.649,0.353-5.257,1.518-6.934,3.656c-1.575,2.008-2.145,4.663-1.876,7.17
				c0.233,2.179,1.127,4.108,2.423,5.743c-0.839,0.515-1.574,1.205-1.974,2.101c-0.553,1.239-0.384,2.675,0.159,3.887
				c0.619,1.382,1.678,2.351,2.917,3.089c0.002,0.041,0.003,0.081,0.005,0.122c0.132,2.111,0.56,4.195,1.322,6.17
				c0.721,1.869,1.732,3.932,3.459,5.066c1.74,1.143,3.935,0.841,5.604-0.284c1.841-1.241,2.876-3.287,3.654-5.301
				c0.023-0.061,0.044-0.122,0.068-0.183c0.32,0.121,0.652,0.212,0.993,0.261c1.739,0.254,3.468-0.469,4.87-1.449
				c2.06-1.44,3.623-3.429,4.814-5.62c1.578,1.238,3.616,1.947,5.614,1.988c3.731,0.077,7.342-1.678,10.191-4.072
				c0.191,0.177,0.389,0.348,0.599,0.504c1.581,1.176,3.57,1.566,5.502,1.284c3.817-0.557,6.6-3.453,8.178-6.811
				c0.188,0.851,0.466,1.684,0.866,2.438c0.977,1.839,2.873,2.812,4.865,3.018c0.049,0.271,0.099,0.542,0.153,0.811
				c0.276,1.369,0.672,2.727,1.3,3.979c0.606,1.207,1.452,2.292,2.553,3.085c0.976,0.703,2.115,1.132,3.291,1.358
				c1.782,1.856,3.838,3.465,6.176,4.557c0.599,0.28,1.213,0.527,1.841,0.735c0.708,0.235,1.468,0.466,2.221,0.347
				c1.277-0.202,1.99-1.419,2.317-2.562C452.288,81.621,452.348,80.039,452.244,78.546z"/>
			<path style="opacity:0.4;fill:#320032;" d="M440.398,253.738c-7.219,0.919-14.492,1.399-21.769,1.435
				c-7.277,0.036-14.555-0.37-21.783-1.216c-4.063-0.476-8.109-1.094-12.13-1.848c-0.337-0.063-0.481,0.453-0.142,0.516
				c7.176,1.345,14.433,2.256,21.719,2.721c2.203,0.14,4.409,0.235,6.616,0.295c-0.001,0.006-0.005,0.011-0.005,0.017
				c-0.503,5.329-0.835,10.674-0.989,16.024c-0.043,1.503-0.072,3.007-0.088,4.511c-0.004,0.345,0.532,0.345,0.536,0
				c0.057-5.352,0.286-10.702,0.693-16.039c0.114-1.5,0.243-2.998,0.384-4.495c0-0.001,0-0.002,0-0.003
				c4.891,0.117,9.786,0.04,14.67-0.243c4.108-0.237,8.207-0.618,12.289-1.138C440.736,254.231,440.74,253.695,440.398,253.738z"/>
			<path style="opacity:0.4;fill:#320032;" d="M411.255,271.153c-1.509-1.238-2.704-2.827-3.469-4.624
				c-0.383-0.899-0.654-1.849-0.806-2.814c-0.184-1.166-0.171-2.354-0.17-3.53c0.001-1.368,0.002-2.736,0.003-4.104
				c0-0.345-0.535-0.345-0.536,0c-0.001,1.258-0.002,2.515-0.003,3.773c-0.001,1.23-0.02,2.466,0.143,3.688
				c0.263,1.969,1.011,3.868,2.15,5.495c0.653,0.933,1.427,1.773,2.307,2.495C411.141,271.749,411.522,271.372,411.255,271.153z"/>
			<path style="opacity:0.4;fill:#320032;" d="M452.187,273.986c-4.421,10.164-8.842,20.328-13.213,30.514
				c-4.342,10.115-8.635,20.251-12.833,30.427c-4.225,10.243-8.354,20.527-12.334,30.868c-3.996,10.381-7.842,20.82-11.486,31.33
				c-3.627,10.461-7.054,20.992-10.228,31.599c-0.393,1.314-0.782,2.63-1.168,3.947c-0.097,0.331,0.42,0.473,0.517,0.142
				c3.098-10.578,6.449-21.081,10.008-31.513c3.575-10.479,7.357-20.887,11.294-31.235c3.921-10.308,7.996-20.557,12.174-30.764
				c4.23-10.333,8.565-20.621,12.956-30.886c4.34-10.145,8.734-20.266,13.134-30.385c0.547-1.258,1.095-2.517,1.642-3.775
				C452.785,273.944,452.324,273.671,452.187,273.986z"/>
			<path style="opacity:0.4;fill:#320032;" d="M447.908,220.697c-2.062,3.719-4.428,7.268-7.082,10.591
				c-0.657,0.823-1.332,1.633-2.023,2.428c-0.643,0.74-1.295,1.48-2.042,2.118c-0.774,0.66-1.654,1.162-2.645,1.408
				c-1.038,0.257-2.121,0.258-3.183,0.201c-4.34-0.234-8.688-0.827-12.969-1.558c-4.313-0.736-8.589-1.684-12.809-2.838
				c-4.22-1.154-8.384-2.514-12.47-4.076c-0.508-0.194-1.016-0.392-1.521-0.592c-0.321-0.127-0.46,0.391-0.142,0.516
				c4.146,1.641,8.372,3.077,12.661,4.297c4.268,1.214,8.597,2.217,12.964,3.003c4.37,0.787,8.78,1.358,13.207,1.708
				c2.034,0.161,4.178,0.256,6.016-0.784c1.756-0.994,3.066-2.702,4.337-4.227c2.751-3.301,5.226-6.833,7.385-10.549
				c0.265-0.455,0.524-0.914,0.779-1.374C448.538,220.665,448.076,220.395,447.908,220.697z"/>
		</g>
	</g>
</g>
</svg>
