<?xml version="1.0" encoding="utf-8"?>
<!-- Generator: Adobe Illustrator 27.5.0, SVG Export Plug-In . SVG Version: 6.00 Build 0)  -->
<svg version="1.1" xmlns="http://www.w3.org/2000/svg" xmlns:xlink="http://www.w3.org/1999/xlink" x="0px" y="0px"
	 viewBox="0 0 750 500" style="enable-background:new 0 0 750 500;" xml:space="preserve">
<g id="BACKGROUND">
	<rect id="XMLID_1_" style="fill:#FFFFFF;" width="750" height="500"/>
</g>
<g id="OBJECTS">
	<g>
		<defs>
			<rect id="XMLID_2_" width="750" height="500"/>
		</defs>
		<clipPath id="XMLID_00000099652705834495427680000006520012645014963374_">
			<use xlink:href="#XMLID_2_"  style="overflow:visible;"/>
		</clipPath>
		<path style="clip-path:url(#XMLID_00000099652705834495427680000006520012645014963374_);fill:#BDDB95;" d="M491.868-188.337
			c-54.402,1.286-109.418,7.507-162.692,6.752c-3.536,35.341,2.842,74.621,7.861,109.741c5.945,41.605,17.013,86.158,49.758,112.502
			c33.463,26.922,83.38,27.199,121.584,7.578c38.204-19.621,65.578-56.124,82.507-95.595
			c16.356-38.137,27.032-83.077,36.295-122.764c7.715-33.053-38.049-20.515-59.489-20.006
			C542.417-189.532,517.142-188.935,491.868-188.337z"/>
		<path style="clip-path:url(#XMLID_00000099652705834495427680000006520012645014963374_);fill:#4A8781;" d="M800.205,12.557
			c15.901-17.95,22.208-36.262,0.224-51.175c-13.172-8.935-28.204-19.819-43.507-24.752c-39.146-12.618-92.206,5.774-126.551,24.295
			c-19.134,10.318-36.021,23.614-43.965,44.373c-3.927,10.261-2.676,22.716-3.448,33.511c-0.681,9.528-3.221,18.944-2.758,28.485
			c0.896,18.46,31.682,23.694,46.873,26.939c22.208,4.744,45.433,4.842,67.629-0.024c16.388-3.593,32.328-9.861,45.974-19.621
			c12.419-8.882,22.658-20.414,32.783-31.843C782.375,32.683,791.29,22.62,800.205,12.557z"/>
		<path style="clip-path:url(#XMLID_00000099652705834495427680000006520012645014963374_);fill:#BDDB95;" d="M207.1,580.625
			c-31.689,1.999-63.472,0.85-93.385,13.659c-12.579,5.386-24.381,12.558-37.258,17.186c-29.207,10.497-61.355,7.142-92.128,11.178
			c-18.759,2.46-37.727,7.703-56.306,4.127c-11.828-2.277-22.728-8.038-32.662-14.849c-17.355-11.898-33.415-29.816-32.683-50.845
			c0.594-17.065,12.306-31.372,23.162-43.558c25.236-28.327,70.112-36.917,102.168-55.508c12.125-7.032,24.25-14.064,36.375-21.095
			c3.234-1.875,6.549-3.821,8.855-6.763c2.795-3.567,3.787-8.169,5.357-12.42c6.568-17.773,25.311-30.267,44.243-29.49
			c10.867,0.446,21.216,4.778,32.02,6.029c32.037,3.711,56.318-17.883,84.984-25.341c25.172-6.549,44.03,17.52,46.601,40.888
			c2.231,20.283-4.405,40.333-9.485,60.096c-1.485,5.778-2.817,12.039-0.585,17.572c2.531,6.275,8.902,9.921,14.319,13.975
			c10.738,8.037,28.027,26.848,25.338,41.251c-0.764,4.095-2.111,8.322-5.206,11.111c-2.256,2.032-5.203,3.084-8.068,4.089
			C245.565,567.946,225.437,580.625,207.1,580.625z"/>
		<path style="clip-path:url(#XMLID_00000099652705834495427680000006520012645014963374_);fill:#BDDB95;" d="M522.806,375.765
			c0.283,14.413,1.021,28.816,2.269,43.177c2.386,27.451,6.64,55.13,17.74,80.35c11.1,25.22,29.735,47.987,54.796,59.442
			c11.049,5.05,23.314,7.819,35.406,6.654c20.864-2.009,39.17-15.497,52.218-31.901c24.61-30.941,33.22-71.399,39.027-110.506
			c2.326-15.666,4.31-31.422,5.75-47.216H522.806z"/>
		<path style="clip-path:url(#XMLID_00000099652705834495427680000006520012645014963374_);fill:#BDDB95;" d="M102.25,215.047
			c-14.998-2.269-29.639-4.993-40.789-14.768c-8.618-7.556-13.647-14.681-25.94-14.732c-8.515-0.036-16.149,4.329-24.611,4.877
			c-25.656,1.661-38.686-19.68-52.796-37.27c-10.991-13.701-28.587-26.387-44.885-19.837c-5.084,2.043-9.619,5.874-15.086,6.231
			c-5.68,0.371-11.297-3.144-16.843-1.865c-3.334,0.769-6.043,3.168-8.331,5.713c-10.012,11.139-14.654,26.901-12.277,41.689
			c0.895,5.57,2.728,11.012,2.924,16.65c0.62,17.8-11.564,32.315-9.277,50.456c2.321,18.409,14.609,31.297,30.958,39.402
			c60.65,30.064,134.531,32.055,196.714,5.303c17.488-7.523,32.277-17.423,48.708-26.494c14.37-7.933,24.016-10.912,21.771-31.014
			c-0.256-2.287-0.614-4.615-1.681-6.654c-1.475-2.819-4.15-4.803-6.888-6.423C131.584,219.008,116.75,217.24,102.25,215.047z"/>
		<g style="clip-path:url(#XMLID_00000099652705834495427680000006520012645014963374_);">
			<path style="fill:#4A8781;" d="M112.04,176.849c0.8-16.759,3.373-33.415,4.059-50.162c-14.237,2.203-26.67,15.651-22.694,30.4
				c1.867,6.927,6.332,12.861,11.219,18.113c2.025,2.176,4.384,4.364,7.272,4.875C111.934,179,111.988,177.924,112.04,176.849z"/>
			<path style="fill:#4A8781;" d="M108.12,191.268c-5.677-5.483-11.417-11.02-16.001-17.416c-0.767-1.07-1.502-2.165-2.198-3.287
				c-4.859-7.828-7.744-17.286-5.959-26.325c1.316-6.666,5.326-12.686,10.74-16.745c4.678-3.507,20.818-5.828,20.582-13.975
				c-0.005-0.164-0.038-0.321-0.065-0.48c-0.029-0.133-0.058-0.267-0.088-0.399c-0.455-1.554-1.927-2.777-3.533-3.209
				c-1.899-0.511-3.919-0.147-5.822,0.35c-9.795,2.562-18.598,8.749-24.326,17.097c-16.517,24.072-4.368,57.855,18.205,73.078
				c1.93,1.302,3.994,2.564,6.305,2.839c2.312,0.275,4.932-0.71,5.862-2.845C113.167,196.869,110.538,193.603,108.12,191.268z"/>
		</g>
		<path style="clip-path:url(#XMLID_00000099652705834495427680000006520012645014963374_);fill:#4A8781;" d="M-33.473,416.681
			c0.584-2.59,1.108-5.189,1.575-7.788c2.83-15.751,3.472-32.243,10.348-46.694c6.876-14.451,22.622-26.484,38.119-22.49
			c16.321,4.207,23.909,23.33,24.692,40.166c0.322,6.909-0.067,13.912,1.414,20.668c6.832,31.163,42.486,55.164,73.208,55.883
			c8.122,0.19,16.414-0.927,24.269,1.15c4.908,1.298,9.406,3.789,13.796,6.338c6.346,3.684,12.752,7.682,17.138,13.566
			c4.386,5.883,6.364,14.115,3.08,20.677c-1.975,3.947-5.545,6.815-9.022,9.534c-12.845,10.045-26.411,20.073-42.293,23.766
			c-30.4,7.068-61.238-10.448-92.443-9.869c-12.833,0.238-25.634,3.552-38.381,2.048c-28.78-3.396-57.087-39.505-40.585-67.503
			C-41.419,444.02-36.585,430.472-33.473,416.681z"/>
		<path style="clip-path:url(#XMLID_00000099652705834495427680000006520012645014963374_);fill:#BDDB95;" d="M778.464,85.378
			c1.894-2.723,4.182-5.227,6.058-7.978c9.64-14.131,6.795-35.042-5.575-46.856c-12.37-11.815-32.555-13.959-47.673-5.954
			c-15.117,8.005-24.578,25.139-24.441,42.244c0.06,7.451,1.59,15.615-2.548,21.811c-4.558,6.824-13.794,8.106-21.629,10.546
			c-7.566,2.356-14.757,6.46-19.74,12.622c-4.983,6.162-7.523,14.534-5.669,22.238c1.096,4.558,3.622,8.673,4.718,13.231
			c2.97,12.345-4.168,17.914-12.462,24.159c-8.849,6.663-14.777,17.539-12.453,28.911c2.121,10.381,11.08,18.213,20.849,22.316
			c17.589,7.387,39.098,4.428,54.039-7.435c9.158-7.271,15.721-16.175,25.763-22.168c10.899-6.506,22.468-12.55,32.161-20.827
			c10.842-9.259,19.325-23.045,17.231-37.148c-1.168-7.866-5.44-14.859-8.687-22.119c-3.246-7.26-5.494-15.7-2.483-23.06
			C776.585,88.295,777.471,86.806,778.464,85.378z"/>
		<path style="clip-path:url(#XMLID_00000099652705834495427680000006520012645014963374_);fill:#222C5C;" d="M564.712-31.046
			c3.176-8.001,7.79-16.126,8.679-21.746c0.524-3.315,0.819-6.711,2.054-9.831c3.234-8.174,12.539-12.754,21.329-12.638
			c8.79,0.116,17.081,4.085,24.478,8.834c5.316,3.412,10.934,8.604,9.939,14.843c-0.5,3.134-2.618,5.732-4.658,8.164
			c-12.281,14.639-31.625,45.598-55.656,37.137C558.893-10.503,560.593-20.67,564.712-31.046z"/>
		<path style="clip-path:url(#XMLID_00000099652705834495427680000006520012645014963374_);fill:#C56F45;" d="M697.408,244.202
			c10.395-2.626,20.896-6.133,28.856-13.278c5.581-5.009,9.61-11.552,15.167-16.587c9.366-8.485,23.374-11.978,35.26-7.684
			c11.886,4.294,20.65,16.77,19.487,29.355c-1.056,11.425-6.666,28.274-15.282,36.022c-8.245,7.415-16.378,11.498-27.392,12.956
			c-12.809,1.696-24.454,2.174-32.451,13.658c-6.478,9.302-12.392,14.076-24.541,14.876c-10.135,0.667-20.797,0.614-29.793-4.101
			c-8.996-4.715-15.586-15.457-12.42-25.107c3.124-9.523,13.856-14.283,19.249-22.731c1.846-2.891,3.049-6.198,5.243-8.834
			c4.203-5.051,11.124-6.691,17.503-8.267C696.665,244.389,697.037,244.296,697.408,244.202z"/>
		<g style="clip-path:url(#XMLID_00000099652705834495427680000006520012645014963374_);">
			<g>
				<path style="fill:#222C5C;" d="M695.155,149.392c-0.598-0.124-1.153-0.185-1.752-0.057c-0.549,0.117-1.085,0.293-1.618,0.467
					c-0.992,0.324-1.986,0.64-2.975,0.972c-2.059,0.692-4.056,1.547-6.125,2.214c-0.711,0.229-0.422,1.28,0.308,1.119
					c2.124-0.469,4.282-0.739,6.41-1.18c1.022-0.212,2.04-0.441,3.06-0.662c0.548-0.118,1.099-0.237,1.632-0.413
					c0.568-0.189,1.021-0.522,1.464-0.922C696.058,150.48,695.82,149.53,695.155,149.392z"/>
				<path style="fill:#222C5C;" d="M698.31,169.264c-4.679,2.841-9.236,5.879-13.816,8.876c-1.062,0.695-0.125,2.328,1,1.71
					c4.794-2.634,9.613-5.227,14.316-8.021C701.452,170.854,699.95,168.269,698.31,169.264z"/>
				<path style="fill:#222C5C;" d="M712.385,155.896c-8.245,1.889-16.091,5.092-23.499,9.146c-1.09,0.596-0.133,2.131,0.957,1.637
					c7.493-3.396,15.363-5.914,23.332-7.918C715.033,158.293,714.246,155.469,712.385,155.896z"/>
			</g>
			<g>
				<path style="fill:#222C5C;" d="M681.913,131.088l-0.777-4.939c14.692-2.31,29.742-2.596,44.297-2.872
					c12.167-0.231,24.749-0.469,36.959-1.899l0.582,4.966c-12.453,1.458-25.159,1.699-37.446,1.932
					C711.141,128.549,696.265,128.831,681.913,131.088z"/>
			</g>
		</g>
		<path style="clip-path:url(#XMLID_00000099652705834495427680000006520012645014963374_);fill:#C56F45;" d="M632.207,133.68
			c2.457-17.049,2.472-34.45-0.006-51.496c-1.248-8.584-3.254-17.383-8.489-24.301C612.473,43.029,588.979,42,573.176,51.859
			c-15.804,9.859-24.925,27.713-29.922,45.657c-3.303,11.858-5.138,24.066-7.434,36.164H632.207z"/>
		<g style="clip-path:url(#XMLID_00000099652705834495427680000006520012645014963374_);">
			<defs>
				<path id="SVGID_1_" d="M632.207,133.68c2.457-17.049,2.472-34.45-0.006-51.496c-1.248-8.584-3.254-17.383-8.489-24.301
					C612.473,43.029,588.979,42,573.176,51.859c-15.804,9.859-24.925,27.713-29.922,45.657c-3.303,11.858-5.138,24.066-7.434,36.164
					H632.207z"/>
			</defs>
			<clipPath id="SVGID_00000151509981424000662630000017041253540131344304_">
				<use xlink:href="#SVGID_1_"  style="overflow:visible;"/>
			</clipPath>
			
				<path style="clip-path:url(#SVGID_00000151509981424000662630000017041253540131344304_);fill:none;stroke:#FFFFFF;stroke-width:0.5;stroke-miterlimit:10;" d="
				M600.925,14.618c-18.852,7.692-33.412,23.607-43.33,41.388c-9.917,17.782-15.698,37.517-21.4,57.062
				c3.315,2.725,8.266,0.569,11.829-1.821c22.334-14.98,39.526-37.479,48.113-62.964c2.77-8.221,4.621-17.424,1.23-25.409
				c-4.908,0.489-8.319,4.947-11.102,9.02c-7.547,11.046-15.18,22.348-18.925,35.192c-3.745,12.844-3.03,27.712,5.104,38.333
				c1.665,2.174,3.732,4.21,6.361,4.973c5.251,1.523,10.424-2.424,14.181-6.397c13.547-14.326,22.661-32.787,25.798-52.253
				c1.065-6.612,0.096-15.395-6.383-17.09c-6.029-1.576-11.125,4.597-13.815,10.218c-6.613,13.82-9.112,31.729,0.792,43.418
				c3.193,3.768,7.793,6.666,12.731,6.593c8.044-0.119,13.839-7.599,17.708-14.652c7.741-14.112,12.979-29.591,15.396-45.504
				c0.585-3.851-0.639-9.481-4.493-8.912c-1.475,0.218-2.592,1.406-3.541,2.555c-11.74,14.211-16.852,33.68-13.607,51.824
				c1.145,6.405,3.5,12.964,8.516,17.109c5.015,4.145,13.236,4.889,17.738,0.192c4.389-4.579,7.945-4.097,6.131-10.175
				c-1.114-3.732-4.951-5.861-8.503-7.461c-29.331-13.209-62.934-16.72-94.362-9.861c-6.235,1.361-13.822,5.072-13.127,11.416
				c0.582,5.311,6.67,7.905,11.849,9.218c21.367,5.416,43.628,7.289,65.6,5.519c9.681-0.78,19.568-2.351,27.978-7.21
				c1.291-0.746,2.609-1.647,3.183-3.023c1.741-4.18-4.187-7.215-8.68-7.774c-20.456-2.544-41.302-1.928-61.572,1.819
				c-13.739,2.54-28.243,7.204-36.444,18.517c-0.697,0.961-1.37,2.131-1.046,3.273c0.321,1.132,1.487,1.772,2.552,2.274
				c33.762,15.901,74.682,15.727,108.308-0.46c-7.889-6.384-18.85-6.915-28.995-7.161c-18.034-0.437-36.242-0.859-53.936,2.652
				c-17.694,3.511-35.082,11.336-46.905,24.961c4.579,5.283,11.942,7.03,18.835,8.195c27.645,4.672,56.078,4.644,83.713-0.084
				c13.08-2.238,27.648-6.823,33.226-18.863c-5.518-6.548-14.985-7.975-23.547-7.935c-20.725,0.096-41.385,6.269-58.767,17.556
				c-3.642,2.365-7.545,5.785-7.106,10.105c0.35,3.441,3.547,6.043,6.915,6.835c3.367,0.792,6.887,0.169,10.289-0.456
				c17.65-3.243,25.976-9.63,40.064-20.747c10.641-8.396,20.475-19.946,20.469-33.5c-0.001-1.987-0.281-4.121-1.613-5.595
				c-2.659-2.94-7.519-1.542-10.951,0.444c-17.973,10.4-28.828,31.934-26.498,52.568c0.258,2.283,0.708,4.657,2.141,6.452
				c4.166,5.222,12.734,1.998,17.535-2.647c16.087-15.563,17.773-43.671,3.662-61.046c-5.023-6.185-12.41-11.215-20.36-10.682
				c-6.911,0.464-12.897,5.009-17.518,10.169c-13.25,14.794-18.461,36.385-13.416,55.594c1.148,4.372,3.625,9.306,8.118,9.792
				c4.082,0.441,7.427-3.081,9.778-6.448c7.627-10.923,12.533-23.73,14.156-36.952c0.672-5.478,0.768-11.168-1.068-16.373
				c-4.387-12.438-19.842-18.917-32.496-15.199c-12.654,3.717-21.771,15.845-24.09,28.828c-2.319,12.984,1.394,26.503,7.976,37.932
				c1.344,2.333,2.922,4.707,5.336,5.902c4.005,1.984,8.79,0.092,12.711-2.054c22.44-12.282,39.764-33.6,47.198-58.078
				c3.098-10.202,4.06-22.558-3.25-30.321c-6.801-7.223-18.61-7.557-27.675-3.526c-12.812,5.697-21.256,18.207-27.061,30.97
				c-5.776,12.699-9.639,26.265-11.42,40.101c-0.534,4.149-0.821,8.626,1.255,12.258c2.328,4.072,7.259,6.143,11.95,6.11
				c4.69-0.032,9.185-1.853,13.345-4.021c21.508-11.213,37.143-33.044,40.836-57.017c1.187-7.702,0.696-16.744-5.366-21.642
				c-5.677-4.587-13.952-3.676-20.974-1.687c-16.392,4.645-31.435,13.951-42.911,26.543c-5.083,5.577-9.583,12.025-11.073,19.422
				c-2.746,13.639,5.988,27.972,18.459,34.139c12.471,6.167,27.63,5.101,40.477-0.238c21.657-8.999,37.768-30.16,40.678-53.431
				c-6.713-0.012-12.43,4.745-16.988,9.673c-10.622,11.484-18.575,25.421-23.058,40.408c-1.052,3.518-1.922,7.229-1.24,10.838
				c1.646,8.706,9.542,9.279,14.826,3.132c2.535-2.95,3.946-6.689,5.085-10.408c2.058-6.72,3.282-14.398-0.26-20.469
				c-2.907-4.982-8.442-7.806-13.911-9.635c-0.752-0.251-1.589-0.486-2.314-0.168c-1.112,0.488-1.34,1.951-1.309,3.165
				c0.298,11.757,9.516,21.106,18.112,29.134c1.143,1.067,2.454,2.203,4.017,2.177c2.221-0.037,3.653-2.331,4.468-4.398
				c3.438-8.717,3.528-18.708,0.249-27.486c-3.279-8.778-9.897-16.262-18.209-20.591c-6.451-3.36-15.164-4.49-20.401,0.558
				c-5.212,5.023-4.478,13.532-2.415,20.47c1.869,6.286,4.645,12.534,9.49,16.954c1.669,1.522,3.738,2.857,5.994,2.764
				c3.563-0.146,5.979-3.659,7.317-6.964c3.884-9.597,3.6-20.798-0.765-30.186c-2.81-6.042-7.417-11.447-13.507-14.151
				c-6.09-2.705-13.725-2.319-18.908,1.869c-3.067,2.479-5.081,6.037-6.541,9.7c-2.534,6.361-3.595,13.304-3.077,20.131
				c0.354,4.664,1.505,9.414,4.324,13.146c1.498,1.983,3.844,3.743,6.274,3.222c2.936-0.629,4.213-4.09,4.575-7.07
				c0.855-7.048-0.613-14.359-4.122-20.531c-2.088-3.673-5.163-7.124-9.272-8.106c-5.431-1.298-10.935,2.09-14.677,6.235
				c-7.045,7.804-10.266,18.59-10.094,29.101c0.107,6.541,1.559,13.296,5.576,18.459c1.868,2.4,4.999,4.531,7.781,3.303
				c1.615-0.713,2.586-2.36,3.362-3.946c2.96-6.056,4.632-12.738,4.874-19.474c0.108-3.005-0.094-6.128-1.488-8.793
				c-1.394-2.664-4.231-4.757-7.226-4.484c-2.055,0.188-3.873,1.424-5.35,2.864c-3.59,3.5-5.657,8.292-6.925,13.142
				c-1.298,4.965-1.843,10.242-0.614,15.224c1.229,4.983,4.422,9.641,9.081,11.795"/>
		</g>
		<g style="clip-path:url(#XMLID_00000099652705834495427680000006520012645014963374_);">
			<path style="fill:#BDDB95;" d="M661.651,47.725c-0.024-0.018-0.056-0.021-0.079-0.041c-0.111-0.086-0.193-0.193-0.247-0.319
				c-0.077-0.119-0.119-0.252-0.126-0.397v-0.347c-0.008-0.098,0.032-0.187,0.05-0.28c-8.211,5.296-11.546,14.556-15.265,23.287
				h13.769c0.018-0.22,0.035-0.443,0.053-0.661c0.41-4.945,1.238-9.845,1.688-14.786c0.189-2.069,0.356-4.172,0.182-6.249
				C661.671,47.865,661.658,47.795,661.651,47.725z"/>
			<path style="fill:#BDDB95;" d="M672.924,34.311c-4.25-3.314-11.224-1.176-15.48,1.109c-5.126,2.752-9.44,7.096-12.829,11.775
				c-4.724,6.521-7.626,14.383-8.067,22.434h5.569c4.414-9.938,7.915-20.771,17.746-26.647c1.292-0.772,2.622,0.222,2.826,1.327
				c0.506,0.613,0.79,1.455,0.945,2.316c0.375,2.078,0.212,4.269,0.063,6.361c-0.191,2.681-0.523,5.351-0.857,8.017
				c-0.328,2.622-0.683,5.244-0.92,7.877c-0.021,0.234-0.045,0.495-0.068,0.748h11.423c1.161-5.719,1.933-11.517,2.277-17.343
				C675.87,46.934,677.801,38.113,672.924,34.311z"/>
			<path style="fill:#BDDB95;" d="M667.18,18.594c-0.238,0.501-0.37,0.89-0.498,1.365c-0.28,1.038-0.438,2.108-0.541,3.178
				l4.879-0.613c0.018-0.078,0.042-0.155,0.059-0.234c0.174-0.817,0.292-1.648,0.354-2.481c0.008-0.112,0.015-0.225,0.022-0.337
				c0.001-0.019,0.001-0.014,0.002-0.025c0-0.011,0-0.006,0-0.028c0.004-0.193,0.01-0.386,0.009-0.579
				c-0.001-0.356-0.015-0.713-0.048-1.068c-0.027-0.296-0.076-0.588-0.13-0.88c-0.012-0.038-0.063-0.258-0.085-0.328
				c-0.04-0.127-0.085-0.252-0.138-0.374c-0.017-0.039-0.035-0.077-0.053-0.115c-0.008-0.015-0.005-0.014-0.026-0.045
				c-0.041-0.062-0.1-0.129-0.148-0.196c-0.01-0.011-0.018-0.025-0.029-0.041c-0.015-0.012-0.033-0.029-0.055-0.044
				c-0.012-0.006-0.021-0.014-0.033-0.022c-0.022-0.008-0.041-0.018-0.066-0.029c-0.012-0.002-0.01-0.001-0.026-0.004
				c-0.002,0-0.006-0.002-0.009-0.002c-0.03-0.004-0.064-0.007-0.091-0.005c-0.052,0.006-0.114,0.021-0.166,0.019
				c-0.002,0,0-0.001-0.001-0.001c-0.008,0.003-0.005,0.003-0.016,0.007c-0.062,0.021-0.124,0.04-0.186,0.063
				c-0.077,0.029-0.151,0.065-0.227,0.095c-0.02,0.008-0.021,0.008-0.033,0.012c-0.819,0.475-1.464,1.047-2.068,1.709
				C667.477,17.983,667.404,18.124,667.18,18.594z"/>
			<path style="fill:#BDDB95;" d="M675.99,11.249c-0.092-1.31-0.274-2.703-1.122-3.707c-0.938-1.111-2.547-1.496-3.977-1.23
				c-1.43,0.266-2.698,1.095-3.778,2.068c-4.277,3.854-5.901,9.812-6.831,15.493l3.728-0.468c0.125-1.799,0.404-3.596,1.066-5.254
				c0.457-1.145,1.18-2.006,2.079-2.83c0.694-0.637,1.487-1.272,2.398-1.566c1.592-0.514,2.946,0.303,3.534,1.811
				c0.592,1.518,0.54,3.286,0.399,4.878c-0.053,0.599-0.142,1.202-0.251,1.802l2.296-0.288
				C676.087,18.421,676.241,14.821,675.99,11.249z"/>
			<path style="fill:#BDDB95;" d="M687.919,46.025c0.637-2.228,1.371-4.691,2.962-6.417c2.115-2.293,5.868-1.835,7.009,1.216
				c0.462,1.235,0.433,2.579,0.328,3.882c0.833-0.105,1.667-0.201,2.501-0.303c0.34-3.312,0.519-6.65,0.534-9.989
				c0.014-3.138-0.379-6.838-2.581-8.339c-1.035-0.706-2.286-0.751-3.447-0.491c-2.656,0.595-4.995,2.685-6.693,5.31
				c-1.698,2.625-2.813,5.763-3.712,8.947c-0.626,2.218-1.141,4.482-1.567,6.773C684.81,46.423,686.365,46.225,687.919,46.025z"/>
			<path style="fill:#BDDB95;" d="M691.53,4.888c0.163-2.701,0.828-5.371,1.951-7.834c0.834-1.83,1.959-3.588,3.594-4.759
				c1.634-1.172,3.849-1.67,5.705-0.897c1.958,0.815,3.171,2.877,3.543,4.965c0.372,2.088,0.04,4.23-0.293,6.325"/>
			<path style="fill:#BDDB95;" d="M710.627,19.248c0.028-3.942,1.789-7.842,4.728-10.469c1.547-1.383,3.989-2.395,5.603-1.091
				c1.058,0.855,1.286,2.359,1.341,3.718c0.103,2.543-0.135,5.098-0.706,7.578"/>
		</g>
		<g style="clip-path:url(#XMLID_00000099652705834495427680000006520012645014963374_);">
			<g>
				<path style="fill:#FFFFFF;stroke:#FFFFFF;stroke-width:0.25;stroke-miterlimit:10;" d="M135.777,467.636
					c-5.723-1.73-11.704-2.754-17.708-3.339c-11.759-1.146-23.857-0.059-35.19,2.906c-21.918,5.734-40.336,18.79-52.998,35.426
					c-7.085,9.308-13.885,24.819-17.137,35.648c2.192,0.212,4.374,0.496,6.56,0.767c6.953-22.199,24.462-47.342,47.257-58.982
					c12.338-6.3,26.48-9.74,40.729-9.976c6.888-0.114,13.756,0.423,20.468,1.813c3.25,0.673,6.464,1.522,9.61,2.509
					c2.776,0.871,5.473,2.124,8.283,2.958c0.889-1.512,1.849-2.99,3.029-4.331C145.015,470.458,140.069,468.934,135.777,467.636z"/>
				<path style="fill:#FFFFFF;stroke:#FFFFFF;stroke-width:0.25;stroke-miterlimit:10;" d="M132.856,484.659
					c-7.485-4.555-17.789-5.142-26.113-4.095c-10.812,1.36-21.401,5.997-30.594,11.736c-16.707,10.431-30.04,26.022-37.581,44.224
					c-1.271,3.067-2.096,6.966-4.542,9.352c-2.214,2.159-5.648,2.759-8.567,3.325c-7.802,1.511-15.169,0.582-22.968,0.811
					c-2.605,0.077-3.169,3.814-0.617,4.562c5.524,1.62,11.99,1.253,17.662,0.695c4.919-0.484,10.406-1.056,14.861-3.363
					c4.344-2.249,6.211-6.274,7.877-10.644c1.831-4.803,4.017-9.431,6.636-13.856c10.487-17.72,27.25-31.919,46.732-38.757
					c6.502-2.282,13.23-3.581,20.138-3.249c5.27,0.253,10.216,1.775,15.27,2.966C131.611,487.111,132.209,485.873,132.856,484.659z"
					/>
			</g>
			<path style="fill:#FFFFFF;" d="M144.81,455.81c-19.631-15.901-48.603-9.089-70.367-1.73
				c-13.333,4.508-26.324,10.25-38.592,17.147c-11.969,6.729-23.961,14.501-38.294,13.052c-4.561-0.461-4.444,6.54,0,7.079
				c12.412,1.505,23.878-4.131,34.315-10.208c11.884-6.919,23.522-13.927,36.371-18.977c23.97-9.422,50.792-15.921,75.346-4.779
				C144.537,457.824,145.774,456.591,144.81,455.81z"/>
			<path style="fill:#FFFFFF;" d="M149.575,439.561c-6.615-4.566-13.836-10.105-21.5-12.731c-7.587-2.6-16.281-0.828-24.058-0.175
				c-8.622,0.724-17.245,1.439-25.866,2.173c-15.018,1.279-29.938,3.191-42.594,12.048c-6.481,4.536-12.279,9.965-19.081,14.053
				c-7.062,4.245-14.784,6.129-22.14,9.571c-2.086,0.976-1.033,4.365,1.159,4.28c12.691-0.486,25.241-9.172,34.863-16.747
				c6.032-4.748,12.004-9.518,19.256-12.274c6.668-2.535,13.792-3.711,20.855-4.468c14.906-1.598,29.933-2.777,44.887-3.824
				c3.788-0.265,7.553-0.428,11.208,0.835c3.729,1.29,7.184,3.687,10.589,5.637c6.08,3.482,14.252,6.155,17.19,12.973
				c0.414,0.96,1.783,0.552,2.056-0.269C158.058,445.676,153.187,442.054,149.575,439.561z"/>
			<path style="fill:#FFFFFF;" d="M145.988,418.014c-13.189-5.596-27.613-1.198-41.229-0.238
				c-14.946,1.054-30.083-2.799-44.908,0.273c-12.234,2.535-21.651,10.664-31.614,17.63c-5.896,4.123-12.193,7.91-19.361,9.231
				c-6.496,1.197-13.087,0.58-18.236,5.381c-1.427,1.331,0.507,3.973,2.13,2.761c6.059-4.522,14.349-3.144,21.302-5.361
				c6.337-2.02,11.968-5.623,17.341-9.46c5.552-3.964,10.898-8.268,16.861-11.618c7.646-4.294,15.885-5.872,24.598-5.902
				c8.557-0.029,17.071,1.111,25.628,1.083c8.302-0.027,16.484-1.533,24.752-2.081c8.486-0.562,17.451-0.36,24.924,4.233
				c7.027,4.318,11.581,11.886,12.905,19.926c0.244,1.479,2.724,1.143,2.624-0.355C162.969,432.402,156.385,422.426,145.988,418.014
				z"/>
			<path style="fill:#FFFFFF;" d="M134.689,466.944c-9.216-9.233-21.809-9.897-34.172-9.004c-13.149,0.95-25.592,3.705-37.424,9.638
				c-23.699,11.884-43.323,32.836-59.198,53.684c-0.829,1.088,0.956,2.414,1.878,1.449c17.242-18.065,32.343-37.498,54.438-50.102
				c11.239-6.411,23.714-10.503,36.57-12.002c6.104-0.712,12.411-1.271,18.552-0.723c7.145,0.638,12.947,3.84,18.532,8.128
				C134.488,468.489,135.22,467.476,134.689,466.944z"/>
		</g>
		<path style="clip-path:url(#XMLID_00000099652705834495427680000006520012645014963374_);fill:#4A8781;" d="M-46.89,190.799
			c18.742,26.546,34.563-22.312,46.63-38.73c17.235-23.451,89.639-16.702,79.326-60.328c-3.981-16.838-25.941-29.694-19.948-45.926
			c4.81-13.026,22.575-13.392,36.434-14.255c12.147-0.757,24.555-3.907,34.011-11.568c9.456-7.661,15.326-20.499,12.314-32.291
			c-3.044-11.916-14.34-20.307-26.244-23.398c-11.904-3.091-24.455-1.824-36.672-0.412C62.284-34.18,45.636-32.02,29.021-29.63
			c-18.281,2.631-37.153,5.777-52.57,15.946C-40.85-2.272-51.833,16.93-57.321,36.915s-6.044,40.951-6.376,61.674
			c-0.446,27.776-0.351,56.566,11.098,81.876C-50.668,184.736-48.765,188.144-46.89,190.799z"/>
		<path style="clip-path:url(#XMLID_00000099652705834495427680000006520012645014963374_);fill:#222C5C;" d="M756.026,574.147
			c-0.678-2.27-3.935-1.312-3.509,0.967c2.51,13.428,3.506,28.89-4.395,40.787c-3.131,4.714-7.653,8.742-13.003,10.728
			c-6.565,2.437-13.589,1.051-20.298,0.089c-12.573-1.803-26.164-1.689-37.23,5.391c-4.449,2.846-8.376,6.645-11.062,11.216
			c-3.493,5.945-3.528,12.318-4.679,18.911c-1.763,10.101-10.786,17.518-21.072,17.556c-1.235,0.005-2.453-0.089-3.665-0.328
			c-0.43-0.085-1.485-0.539-2.255-0.771c0.222-0.506,0.367-1.445,0.476-1.795c0.642-2.07,1.284-4.14,1.925-6.211
			c1.887-6.088,3.702-12.209,5.872-18.204c4.096-11.315,9.909-22.781,20.403-29.396c10.7-6.744,23.758-8.047,36.116-8.39
			c12.475-0.346,28.633-1.254,34.527-14.526c2.99-6.733,1.32-13.711,0.741-20.733c-0.591-7.178,1.299-13.93,7.375-18.307
			c0.398-0.286,0.721-0.612,0.978-0.961c0.12-0.01,0.239-0.028,0.359-0.037c3.195-0.241,5.114-4.839,1.769-6.532
			c-3.578-1.812-7.232-2.404-10.837-2.145c-6.454-1.66-13.487-0.598-19.681,2.253c-9.726,4.475-15.323,12.583-19.679,22.015
			c-1.276,2.762-2.524,5.643-4.028,8.354c-1.051,1.367-2.081,2.751-3.084,4.157c-0.261,0.367-0.425,0.739-0.515,1.107
			c-0.125,0.144-0.238,0.298-0.366,0.439c-4.141,4.549-9.831,6.116-15.737,6.931c-5.901,0.814-11.985,1.019-17.672,2.946
			c-4.78,1.619-9.086,4.312-12.728,7.799c-5.071,4.856-8.734,10.878-11.706,17.254c-2.592,4.443-4.536,9.264-5.703,14.289
			c-1.033,4.446,5.247,6.085,6.77,1.866c1.482-4.105,3.031-8.313,4.876-12.374c2.516-4.372,5.755-8.323,9.635-11.708
			c7.305-6.374,16.046-9.225,25.421-10.95c8.96-1.648,18.506-2.687,26.452-7.521c9.01-5.481,11.65-15.009,17.876-22.858
			c4.344-5.476,10.102-9.719,16.525-12.358c-1.117,1.85-1.997,3.854-2.594,6.005c-1.946,7.01,0.141,13.934,0.33,20.995
			c0.471,17.608-19.818,17.14-32.355,17.667c-13.104,0.551-27.067,2.572-38.09,10.222c-10.767,7.472-17.039,18.997-21.543,31.008
			c-2.441,6.51-4.408,13.19-6.463,19.829c-1.694,5.473-6.191,13.379,1.185,16.318c9.898,3.943,21.756,0.565,29.254-6.648
			c4.034-3.88,6.675-8.898,7.646-14.4c1.268-7.18,1.108-14.099,5.896-20.065c9.467-11.798,25.853-12.541,39.671-10.688
			c7.965,1.068,15.979,2.251,23.659-0.861c6.028-2.442,10.97-6.872,14.645-12.186C761.942,606.575,760.568,589.356,756.026,574.147z
			"/>
		<g style="clip-path:url(#XMLID_00000099652705834495427680000006520012645014963374_);">
			<path style="fill:#4A8781;" d="M739.498,322.357c-0.862,0.422-1.716,0.855-2.559,1.303c-16.29,8.663-28.777,22.566-32.857,38.34
				c-4.081,15.774,0.719,33.223,13.643,45.214c5.902,5.476,13.494,9.658,21.774,12.191V322.357z"/>
			<path style="fill:#4A8781;" d="M719.813,313.264c-4.662-0.925-9.424,3.613-12.825,6.379c-0.117,0.095-0.227,0.199-0.344,0.296
				c-12.558,8.613-21.927,20.527-25.354,33.774c-2.191,8.468-1.798,17.413,1.013,25.742c1.017,5.287,2.837,10.41,5.513,15.086
				c2.889,5.047,6.826,9.313,11.208,13.101c4.878,4.217,9.749,7.745,12.825,13.586c1.804,3.424,6.941,0.399,5.181-3.028
				c-4.78-9.31-14.013-14.535-20.314-22.567c-6.601-8.415-9.171-19.353-8.498-29.904c0.67-10.503,5.019-20.48,11.284-28.843
				c3.345-4.465,7.312-8.483,11.579-12.066c3.202-2.689,8.765-5.218,9.926-9.451C721.239,314.526,720.723,313.444,719.813,313.264z"
				/>
			<path style="fill:#4A8781;" d="M742.803,306.991c-5.673,9.929-18.642,14.632-27.803,20.835
				c-7.139,4.833-15.343,12.755-15.236,22.045c0.013,1.107,1.335,1.291,1.922,0.52c6.36-8.346,12.234-15.781,21.041-21.788
				c8.263-5.636,16.553-11.37,25.014-16.674C752.884,308.705,745.7,301.921,742.803,306.991z"/>
			<path style="fill:#4A8781;" d="M575.954,464.355c-1.138-7.466-4.641-22.971-14.127-24.394
				c-8.707-1.306-8.756,10.721-8.004,16.207c1.557,11.369,6.188,21.794,13.061,30.89c-1.26,1.914,0.951,4.982,3.37,3.552
				C579.496,485.146,577.329,473.374,575.954,464.355z M568.664,485.594c-3.585-5.147-6.519-10.651-8.531-16.621
				c-1.036-3.076-1.847-6.226-2.408-9.424c-0.344-1.963-0.647-3.993-0.744-5.987c-0.188-3.866-0.858-5.827,3.315-7.255
				c3.717-1.272,3.766-0.448,5.719,2.564c0.867,1.337,1.505,2.751,2.112,4.22c1.262,3.055,2.053,6.251,2.644,9.499
				C571.966,469.163,574.72,480.777,568.664,485.594z"/>
			<path style="fill:#4A8781;" d="M532.234,409.765c-4.869,0.499-5.875,6.022-5.423,10.886c-1.089,4.439-1.993,9.596,1.814,12.494
				c6.118,4.656,9.687-3.523,10.401-8.43C539.689,420.157,539.184,409.053,532.234,409.765z"/>
			<path style="fill:#4A8781;" d="M520.853,390.988c-4.2-10.802-19.378-3.569-25.739,0.799c-0.593,0.407-0.984,0.906-1.228,1.439
				c-4.174,2.529-7.342,6.026-7.422,10.743c-0.194,11.478,14.859,8.478,21.385,5.76C514.975,406.76,524.333,399.939,520.853,390.988
				z M503.475,404.98c-2.144,0.677-5.173,1.861-7.401,1.382c-11.049-2.376,17.919-20.986,19.784-11.665
				C516.929,400.051,507.02,403.861,503.475,404.98z"/>
		</g>
		<path style="clip-path:url(#XMLID_00000099652705834495427680000006520012645014963374_);fill:#C56F45;" d="M41.218,233.844
			c-6.58,5.136-12.749,10.815-17.648,17.548c-12.793,17.582-18.434,52.006,12.872,52.849c8.954,0.241,17.002-4.475,22.262-11.496
			c6.361-8.491-0.461-23.037,3.488-33.876c2.164-5.94,5.634-11.467,6.68-17.702c1.046-6.235-1.351-13.788-7.355-15.768
			c-5.38-1.774-11.004,1.551-15.58,4.89C44.348,231.449,42.771,232.631,41.218,233.844z"/>
		<g style="clip-path:url(#XMLID_00000099652705834495427680000006520012645014963374_);">
			<g>
				<g>
					<path style="fill:#222C5C;" d="M57.267,379.313c-0.252-1.5-0.754-2.971-1.636-4.194c-0.011,0.011-0.022,0.023-0.034,0.034
						c-0.003-0.034-0.007-0.068-0.009-0.101c-0.007-0.009-0.012-0.02-0.019-0.029c-0.416-0.558-0.993-0.964-1.649-1.224
						c-4.119,6.569-8.064,13.246-12.144,19.839c0.31,0.541,0.892,0.926,1.536,1.051c0.369,0.724,1.265,1.148,2.125,1.084
						c4.501-4.789,8.19-10.473,11.91-15.796C57.318,379.756,57.304,379.532,57.267,379.313z"/>
				</g>
				<g>
					<path style="fill:#222C5C;" d="M56.432,364.729c0.251-0.304,0.509-0.598,0.751-0.912c2.655-3.44,4.338-7.475,6.348-11.326
						c-3.438-0.5-6.913,0.111-10.239,1.266c-1.085,1.801-2.245,3.55-3.288,5.382c-0.61,1.072-1.197,2.163-1.702,3.297
						c-0.303,0.681-0.497,1.155-0.636,1.696C50.521,364.989,53.498,365.14,56.432,364.729z"/>
				</g>
				<g>
					<path style="fill:#222C5C;" d="M54.168,340.758c0.17,0.328,0.345,0.645,0.556,0.944c0.012,0.018,0.016,0.025,0.025,0.038
						c0.017,0.013,0.035,0.027,0.065,0.052c0.069,0.059,0.136,0.123,0.205,0.183c0.173,0.149,0.353,0.288,0.534,0.426
						c0.03,0.023,0.047,0.036,0.065,0.05c0.006,0.004,0.007,0.004,0.015,0.009c0.096,0.061,0.19,0.125,0.287,0.184
						c0.194,0.12,0.391,0.234,0.591,0.343c0.405,0.22,0.821,0.418,1.242,0.601c0.005,0.002,0.009,0.004,0.014,0.006
						c2.077-3.134,4.272-6.188,5.685-9.724c-1.402-1.016-3.19-1.521-4.863-1.953c-1.58,2.752-3.16,5.503-4.781,8.226
						C53.935,340.336,54.055,340.539,54.168,340.758z"/>
				</g>
				<g>
					<path style="fill:#222C5C;" d="M-23.704,296.109c-3.888,6.249-8.267,12.229-11.804,18.67c0.94,0.543,1.801,1.047,2.878,1.351
						c0.583,0.164,1.171,0.288,1.763,0.378c0.798-0.298,1.526-0.676,2.069-1.044c2.425-1.645,4.034-4.27,5.55-6.71
						c1.389-2.236,2.644-4.552,3.773-6.93c0.211-0.445,0.304-0.915,0.274-1.366C-20.626,298.95-22.165,297.529-23.704,296.109z"/>
				</g>
				<g>
					<path style="fill:#222C5C;" d="M29.729,361.776c-0.194-0.122-0.398-0.183-0.603-0.215c-0.121-0.387-0.366-0.739-0.69-0.943
						c-0.185-0.117-0.373-0.184-0.559-0.219c0.051-0.066,0.101-0.132,0.152-0.197c0.077-0.1,0.128-0.211,0.168-0.326
						c-0.476-0.179-0.983-0.317-1.524-0.402c-0.309-0.048-0.622-0.079-0.935-0.102c-2.918,3.019-5.556,6.35-8.288,9.491
						c-1.666,1.914-3.307,3.85-4.919,5.809c1.796,0.678,3.61,1.317,5.527,1.527c1.216,0.133,2.334-0.034,3.469-0.47
						c0.757-0.291,1.492-0.589,2.243-0.847c2.645-3.464,4.87-7.191,6.663-11.193C30.728,363.026,30.302,362.138,29.729,361.776z"/>
				</g>
				<g>
					<path style="fill:#222C5C;" d="M19.799,393.243c0.174,0.551,0.375,1.092,0.623,1.615c0.054,0.113,0.11,0.226,0.168,0.338
						c0.019,0.03,0.116,0.202,0.128,0.223c0.116,0.199,0.239,0.393,0.367,0.585c0.271,0.405,0.568,0.793,0.882,1.167
						c0.14,0.167,0.284,0.329,0.428,0.491c0.022,0.025,0.032,0.037,0.046,0.053c0.015,0.016,0.029,0.03,0.056,0.058
						c0.008,0.009,0.017,0.018,0.025,0.026c0.357-0.068,0.711-0.22,1.033-0.455c2.93-2.139,5.186-5.257,6.32-8.71
						c-0.21-0.339-0.421-0.677-0.644-1.008c-0.94-1.389-1.886-2.459-3.134-3.449c-1.855,2.042-3.528,4.217-5.076,6.487
						c-0.516,0.703-0.996,1.431-1.451,2.174C19.668,392.957,19.751,393.09,19.799,393.243z"/>
				</g>
				<g>
					<path style="fill:#222C5C;" d="M40.333,367.25c-0.413-0.26-0.894-0.321-1.35-0.211c-0.11-0.076-0.228-0.141-0.355-0.181
						c-0.493-0.156-0.935-0.001-1.327,0.301c-0.323,0.249-0.59,0.539-0.847,0.854c-0.025,0.031-0.191,0.201-0.034,0.046
						c-0.058,0.057-0.113,0.119-0.166,0.18c-0.147,0.168-0.291,0.342-0.421,0.523c-0.259,0.361-0.487,0.754-0.69,1.158
						c-0.727,0.869-1.333,1.845-1.789,2.906c-0.104,0.241-0.092,0.616-0.035,0.866c0.082,0.36,0.288,0.669,0.57,0.901
						c0.48,0.396,1.274,0.548,1.831,0.193l0.001-0.001c0.016,0.018,0.024,0.044,0.041,0.061c0.413,0.404,1.104,0.587,1.627,0.268
						c0.516-0.315,1.012-0.672,1.47-1.067c0.506-0.436,0.869-0.948,1.165-1.542c0.589-1.183,0.959-2.377,1.129-3.689
						C41.231,368.209,40.829,367.562,40.333,367.25z"/>
				</g>
				<g>
					<path style="fill:#222C5C;" d="M-25.15,324.686c-2.848,1.721-5.042,4.779-7.186,7.26c-1.116,1.291-2.272,2.563-3.427,3.841
						c-0.663,0.986-1.507,2.081-1.559,3.294c-0.016,0.372,0.067,0.716,0.212,1.02c-0.174,0.626,0.092,1.321,0.571,1.746
						c0.009,0.007,0.018,0.014,0.027,0.021c5.239-5.124,10.726-10.004,16.067-15.023c0.43-0.629,0.85-1.266,1.256-1.912
						C-20.734,323.416-23.285,323.559-25.15,324.686z"/>
				</g>
				<g>
					<path style="fill:#222C5C;" d="M6.304,369.196c-0.545-0.985-1.13-1.778-1.81-2.513c-2.871,4.769-5.683,9.605-8.237,14.635
						c0.702,1.016,1.463,1.968,2.333,2.766c0.677,0.621,1.45,1.144,2.24,1.346c0.011,0.003,0.021,0.002,0.032,0.005
						c2.851-3.845,5.127-8.373,6.919-13.124C7.323,371.246,6.854,370.189,6.304,369.196z"/>
				</g>
			</g>
		</g>
		<path style="clip-path:url(#XMLID_00000099652705834495427680000006520012645014963374_);fill:#C56F45;" d="M265.829-17.069
			c-2.602,0.148-5.096,0.723-7.304,1.818c-4.434,2.2-7.923,5.938-12.2,8.431c-5.806,3.384-13.011,4.276-19.467,2.41
			c-10.091-2.916-18.102-12.084-28.594-12.596c-18.287-0.893-26.51,23.735-17.359,37.012c8.399,12.186,18.335,18.005,33.576,14.915
			c18.895-3.831,31.464-19.439,50.422-23.213c5.6-1.115,11.481-1.497,16.554-4.115c7.174-3.702,11.123-13.396,3.84-18.768
			C280.225-14.915,272.658-17.459,265.829-17.069z"/>
		<path style="clip-path:url(#XMLID_00000099652705834495427680000006520012645014963374_);fill:#222C5C;" d="M-55.182,69.098
			c11.217,0.52,22.399,1.491,33.616,2.144h78.665c19.052-0.802,38.094-1.839,57.117-3.173c0.533-2.575,1.1-5.142,1.763-7.682
			c-4.616-1.389-10.019-0.579-14.776-0.532c-7.64,0.076-15.279,0.167-22.918,0.265c-14.83,0.19-29.659,0.38-44.489,0.57
			c-14.376,0.184-28.769,0.184-43.14,0.602c-15.334,0.446-30.548,1.987-45.837,2.695C-58.468,64.14-58.474,68.945-55.182,69.098z"/>
		<path style="clip-path:url(#XMLID_00000099652705834495427680000006520012645014963374_);fill:#222C5C;" d="M620.561,280.267
			c11.216,0.52,22.398,1.491,33.616,2.144h78.666c19.052-0.802,38.094-1.839,57.116-3.173c0.533-2.575,1.1-5.142,1.763-7.682
			c-4.616-1.389-10.019-0.579-14.776-0.532c-7.64,0.076-15.279,0.167-22.918,0.265c-14.83,0.19-29.659,0.38-44.489,0.57
			c-14.376,0.184-28.769,0.184-43.141,0.602c-15.333,0.446-30.548,1.987-45.837,2.695
			C617.275,275.31,617.27,280.115,620.561,280.267z"/>
		<path style="clip-path:url(#XMLID_00000099652705834495427680000006520012645014963374_);fill:#222C5C;" d="M710.426,255.222
			c7.591,0.366,15.159,1.049,22.751,1.508h53.241c12.895-0.564,25.782-1.293,38.657-2.231c0.361-1.811,0.744-3.616,1.193-5.402
			c-3.124-0.977-6.781-0.407-10-0.374c-5.171,0.053-10.341,0.118-15.511,0.187c-10.037,0.133-20.073,0.267-30.11,0.401
			c-9.73,0.129-19.471,0.129-29.198,0.423c-10.378,0.314-20.675,1.397-31.022,1.896
			C708.202,251.735,708.198,255.114,710.426,255.222z"/>
		<path style="clip-path:url(#XMLID_00000099652705834495427680000006520012645014963374_);fill:#222C5C;" d="M292.528,383.306
			c-0.429-1.647-0.889-3.287-1.374-4.921c-0.368-1.238-1.801-1.667-2.955-1.129c-14.043,6.541-27.265,14.597-39.393,23.924
			c-12.053,9.269-23.168,19.802-32.464,31.56c-8.943,11.312-15.939,24.031-19.211,37.842c-3.072,12.965-3.107,26.458-0.319,39.469
			c2.762,12.885,8.492,25.26,16.751,35.881c1.02,1.311,2.08,2.595,3.17,3.856c0.843,0.974,2.082,0.245,2.296-0.736
			c0.134-0.04,0.257-0.102,0.366-0.182c12.375-1.888,23.147-8.632,32.045-16.651c4.517-4.071,8.633-8.52,12.529-13.118
			c4.328-5.108,8.496-10.353,12.3-15.819c3.868-5.558,7.336-11.369,10.101-17.486c2.869-6.346,4.994-12.947,6.587-19.673
			c3.21-13.554,4.792-27.554,4.804-41.435C297.771,410.76,296.052,396.837,292.528,383.306z M290.167,459.78
			c-1.343,6.595-3.093,13.131-5.527,19.45c-2.349,6.098-5.44,11.902-9.008,17.448c-3.563,5.536-7.571,10.81-11.771,15.933
			c-3.757,4.582-7.681,9.055-11.942,13.233c-8.151,7.99-17.836,15.171-29.431,18c-0.64,0.156-1.284,0.292-1.93,0.42
			c1.24-6.307,2.652-12.579,4.388-18.785c0.031-0.053,0.064-0.105,0.089-0.165c0.775-1.822,1.627-3.559,2.304-5.42
			c0.691-1.898,1.382-3.796,2.073-5.694l4.075-11.192c2.692-7.393,5.291-14.816,7.923-22.228l7.894-22.236
			c2.528-7.12,4.938-14.289,7.614-21.361c2.216-5.857,5.022-12.144,10.771-15.688c2.52-1.554,0.17-5.378-2.374-3.816
			c-5.687,3.493-9.059,8.98-11.542,14.772c-1.289,3.005-2.295,6.111-3.346,9.194c-1.302,3.817-2.603,7.634-3.905,11.451
			c-5.184,15.202-10.442,30.383-15.55,45.607c-1.437,4.283-2.847,8.574-4.27,12.86c-0.723,2.176-1.445,4.353-2.168,6.529
			c-0.274,0.826-0.576,1.656-0.838,2.49c-0.247-0.072-0.497-0.133-0.741-0.214c-0.062,0.214-0.13,0.425-0.191,0.639
			c-2.243,7.835-4.172,15.797-5.187,23.865c-0.29,0.148-0.537,0.365-0.726,0.629c-7.376-9.611-12.457-20.617-15.374-32.141
			c-3.117-12.316-3.594-25.323-1.176-37.788c2.601-13.408,8.666-25.837,16.863-37.029c8.544-11.666,19.159-22.042,30.545-31.283
			c11.495-9.33,24.062-17.442,37.421-24.235c0.926-0.471,1.864-0.918,2.797-1.375c3.555,12.312,5.41,24.995,5.772,37.747
			C294.081,432.922,292.874,446.495,290.167,459.78z"/>
		<g style="clip-path:url(#XMLID_00000099652705834495427680000006520012645014963374_);">
			<g>
				<g>
					<g>
						<g>
							<g>
								<path style="fill:#222C5C;" d="M442.069-36.617c-2.745-12.367-9.628-23.814-20.084-31.132
									c-1.237-0.866-2.54-1.657-3.882-2.35c-1.424-0.736-3.223-0.369-4.062,1.065c-0.778,1.331-0.365,3.323,1.065,4.062
									c0.04,0.021,0.078,0.043,0.117,0.064c-20.515,7.394-40.184,18.12-53.558,35.821c-14.431,19.099-20.799,42.831-23.393,66.288
									c-1.655,14.97-1.853,30.049-2.049,45.094c-0.019,1.434,1.467,2.62,2.866,2.183c13.91-4.34,27.251-10.356,39.67-17.988
									c12.456-7.654,23.997-16.869,34.17-27.37c10.178-10.506,19.137-22.411,24.827-35.962
									C443.041-9.429,445.048-23.196,442.069-36.617z M434.403-1.995c-4.672,13.048-12.916,24.658-22.231,34.799
									c-9.437,10.274-20.137,19.365-31.794,27.027c-11.713,7.7-24.35,14.004-37.591,18.613c-0.669,0.233-1.338,0.467-2.007,0.699
									c0.238-24.184,0.77-48.65,7.646-72.015c3.137-10.66,7.589-20.957,13.728-30.244c6.117-9.254,13.934-17.327,23.018-23.699
									c10.012-7.022,21.233-12.27,32.639-16.626c0.157,0.095,0.307,0.197,0.462,0.294c-0.389,1.18-0.794,2.356-1.198,3.533
									c-0.128,0.072-0.247,0.172-0.337,0.343c-3.793,7.219-6.192,14.967-8.358,22.798c-1.931,6.981-3.841,13.959-6.045,20.861
									c-4.156,13.014-9.461,25.845-17.433,37.022c-2.181,3.058-4.58,5.959-7.189,8.662c-2.663,2.76-5.738,5.045-8.431,7.756
									c-1.497,1.506,0.404,3.934,2.248,2.914c3.023-1.672,5.601-4.243,8.009-6.693c2.385-2.427,4.579-5.024,6.64-7.731
									c4.145-5.443,7.597-11.385,10.527-17.56c6.081-12.816,10.006-26.458,13.313-40.21c0.758-3.15,1.517-6.316,2.34-9.465
									c0.304,0.111,0.609,0.218,0.911,0.346c0.046,0.02,0.091,0.043,0.137,0.063c2.552-7.048,4.736-14.17,6.768-21.374
									c2.973,2.098,5.62,4.566,7.921,7.524c3.549,4.563,6.148,9.869,7.832,15.384C439.659-26.757,438.68-13.94,434.403-1.995z"/>
							</g>
						</g>
					</g>
				</g>
			</g>
		</g>
		<path style="clip-path:url(#XMLID_00000099652705834495427680000006520012645014963374_);fill:#222C5C;" d="M39.701,145.85
			c-15.778,7.65-30.252,17.935-42.799,30.175c-12.501,12.195-23.082,26.357-31.175,41.834c-4.559,8.718-8.223,17.865-11.043,27.289
			c-0.056,0.187-0.069,0.36-0.052,0.519c-0.146,0.12-0.298,0.232-0.442,0.356c-1.798,1.544,0.499,4.268,2.461,3.19
			c4.25-2.334,8.305-4.976,12.623-7.204c4.323-2.231,8.733-4.287,13.106-6.416c8.539-4.158,16.942-8.666,24.127-14.956
			c13.21-11.566,21.385-27.598,27.299-43.866c3.421-9.411,6.14-19.057,8.76-28.717C43.038,146.316,41.189,145.129,39.701,145.85z
			 M20.905,195.868c-4.098,7.34-9.069,14.188-15.191,19.976c-6.769,6.399-14.831,10.981-23.174,15.004
			c-4.767,2.299-9.6,4.458-14.347,6.799c-1.663,0.82-3.342,1.649-4.999,2.523c9.287-12.562,20.012-23.974,31.323-34.763
			c1.267-0.091,2.535-0.13,3.806-0.139c0.731-0.005,1.462,0.011,2.192,0.048c0.914,0.046,1.795,0.247,2.654-0.149
			c0.893-0.411,0.732-1.704,0-2.159c-0.759-0.471-1.794-0.323-2.654-0.294c-0.76,0.025-1.519,0.074-2.277,0.145
			c-0.394,0.037-0.787,0.084-1.178,0.14c4.166-3.912,8.401-7.747,12.665-11.528c0.395-0.35,0.79-0.699,1.185-1.049
			c0.257,0.042,0.514,0.08,0.772,0.101c0.47,0.04,0.945,0.051,1.416,0.076c0.455,0.024,0.909,0.049,1.364,0.073
			c0.547,0.029,1.069-0.081,1.606-0.174c0.456-0.079,0.835-0.62,0.814-1.07c-0.02-0.455-0.326-0.985-0.814-1.07
			c-0.517-0.09-1.028-0.205-1.554-0.177c-0.381,0.02-0.761,0.041-1.142,0.061c4.008-3.537,8.049-7.035,12.25-10.341
			c2.01-1.582-0.945-4.723-2.873-2.873c-1.163,1.117-2.338,2.221-3.52,3.318c0.095-0.388,0.188-0.776,0.291-1.161
			c0.09-0.336,0.196-0.667,0.291-1.002c0.133-0.466,0.127-0.88,0.064-1.354c-0.092-0.688-0.433-1.381-1.181-1.552
			c-0.677-0.154-1.475,0.094-1.818,0.74c-0.088,0.165-0.182,0.329-0.263,0.497c-0.175,0.359-0.224,0.665-0.26,1.052
			c-0.031,0.343-0.042,0.688-0.069,1.031c-0.053,0.664-0.137,1.327-0.208,1.989c-0.071,0.664-0.134,1.323-0.166,1.989
			c-0.014,0.284-0.028,0.568-0.041,0.851c-4.051,3.673-8.16,7.285-12.236,10.934c0.202-1.115,0.426-2.227,0.676-3.326
			c0.191-0.838,0.375-1.678,0.578-2.513c0.251-1.035,0.648-2.033,0.04-3.021c-0.316-0.514-1.027-0.742-1.561-0.409
			c-0.99,0.616-1.101,1.597-1.267,2.661c-0.147,0.943-0.278,1.888-0.353,2.839c-0.07,0.886-0.119,1.774-0.147,2.662
			c-0.028,0.896,0.024,1.78,0.042,2.675c0.001,0.065,0.022,0.126,0.037,0.187c-2.197,1.983-4.384,3.979-6.532,6.015
			c-2.226,2.109-4.431,4.241-6.61,6.398c0.016-0.117,0.031-0.234,0.047-0.352c0.076-0.569,0.122-1.142,0.175-1.714
			c0.027-0.294,0.072-0.593,0.083-0.889c0.017-0.486-0.145-0.884-0.391-1.297c-0.237-0.398-0.668-0.65-1.133-0.65
			c-0.498,0-0.854,0.265-1.133,0.65c-0.293,0.404-0.434,0.798-0.451,1.297c-0.01,0.295-0.001,0.593-0.002,0.889
			c-0.001,0.571-0.01,1.143,0.012,1.714c0.021,0.571,0.043,1.143,0.064,1.714c0.011,0.296,0.022,0.592,0.033,0.889
			c0.005,0.137,0.011,0.283,0.03,0.422c-5.734,5.798-11.266,11.793-16.462,18.082c-3.736,4.522-7.291,9.193-10.645,14.005
			c5.329-14.623,12.766-28.533,21.938-41.088c10.096-13.819,22.319-26.145,36.174-36.203c6.583-4.779,13.529-9.046,20.76-12.768
			C33.362,166.553,28.684,181.934,20.905,195.868z"/>
		<path style="clip-path:url(#XMLID_00000099652705834495427680000006520012645014963374_);fill:#222C5C;" d="M798.072,505.998
			c-4.017-2.314-8.132-4.413-12.314-6.355c0.446-1.658,0.777-3.352,0.971-5.078c0.142-1.258,0.141-2.547,0.08-3.807
			c0.597,1.844,3.402,1.067,2.941-0.843c-2.98-12.338-9.265-23.84-17.396-33.53c-8.274-9.86-18.492-18.067-29.573-24.569
			c-11.531-6.767-24.093-11.695-37.074-14.85c-16.153-3.926-32.829-5.407-49.423-5.537c-16.68-0.13-33.343,1.158-49.948,2.607
			c-2.051,0.179-4.102,0.361-6.153,0.544c-1.783,0.159-3.226,1.666-2.703,3.549c4.425,15.951,11.583,31.14,20.922,44.8
			c9.363,13.694,20.836,25.913,33.926,36.104c13.153,10.24,27.762,18.456,43.448,24.134c7.988,2.891,16.239,5.113,24.619,6.515
			c10.116,1.692,20.484,2.208,30.59,0.157c9.056-1.838,17.559-5.945,24.179-12.454c4.102-4.033,7.383-8.866,9.432-14.188
			c4.032,1.676,8.011,3.485,11.916,5.474C798.275,509.568,799.81,506.999,798.072,505.998z M774.211,509.605
			c-5.156,6.503-12.204,11.003-20.139,13.361c-9.222,2.74-19.015,2.768-28.494,1.555c-8.243-1.055-16.412-3.086-24.297-5.687
			c-14.982-4.942-29.13-12.41-41.914-21.8c-12.458-9.15-23.797-20.474-32.989-32.913c-9.413-12.737-16.907-26.883-21.808-41.925
			c-0.254-0.78-0.498-1.564-0.738-2.349c15.077-1.398,30.177-2.679,45.321-2.993c16.162-0.335,32.403,0.34,48.316,3.353
			c13.264,2.512,26.153,6.624,38.158,12.839c11.146,5.771,21.474,13.157,30.159,22.245c8.408,8.799,15.26,19.149,19.385,30.628
			c-0.398-0.239-0.862-0.389-1.399-0.389c-1.421,0-3.021,1.314-2.859,2.859c0.311,2.976,0.075,5.948-0.603,8.823
			c-14.049-5.99-28.786-10.368-43.45-14.621c-20.785-6.028-41.869-12.055-60.96-22.483c-5.337-2.915-10.544-6.109-16.104-8.595
			c-5.734-2.563-11.681-4.639-18.039-4.032c-1.089,0.104-2.027,0.758-2.164,1.91c-0.118,0.992,0.483,2.233,1.578,2.417
			c5.074,0.856,10.23,2.24,14.933,4.344c4.905,2.194,9.57,4.878,14.262,7.485c9.573,5.319,19.582,9.7,29.894,13.376
			c20.393,7.268,41.637,11.856,62.289,18.297c5.591,1.744,11.132,3.621,16.589,5.708
			C777.955,504.101,776.27,507.007,774.211,509.605z"/>
		<g style="clip-path:url(#XMLID_00000099652705834495427680000006520012645014963374_);">
			<path style="fill:#C56F45;" d="M310.667,459.279c-2.881-1.954-5.734-4.268-8.126-6.928v21.796h19.538v-9.565
				C317.97,463.714,314.096,461.604,310.667,459.279z"/>
			<path style="fill:#C56F45;" d="M328.999,458.779v15.368h19.538v-15.814C342.058,459.209,335.518,458.663,328.999,458.779z"/>
			<path style="fill:#C56F45;" d="M349.931,444.065v11.78h19.538v-11.118C362.951,444.624,356.427,444.629,349.931,444.065z"/>
			<path style="fill:#C56F45;" d="M304.561,444.378v8.358h19.538v-9.806C322.136,444.311,308.872,441.567,304.561,444.378z"/>
			<path style="fill:#C56F45;" d="M313.938,480.364v15.444h19.538v-17.587C326.893,478.227,320.416,479.288,313.938,480.364z"/>
			<path style="fill:#C56F45;" d="M322.222,506.214c-2.26-1.396-4.383-3.138-6-5.224v14.156h19.538v-4.376
				C331.002,510.333,326.268,508.713,322.222,506.214z"/>
			<path style="fill:#C56F45;" d="M352.484,478.559c-1.795-0.63-3.787-0.466-5.591,0.035c-3.25,0.902-6.199,2.627-9.048,4.444
				v10.008h19.538v-10.001C356.207,481.111,354.68,479.329,352.484,478.559z"/>
			<path style="fill:#C56F45;" d="M369.764,480.956c-3.396,0.704-6.839,1.187-10.297,1.477v11.648h19.538v-15.7
				C376.007,479.495,372.891,480.308,369.764,480.956z"/>
		</g>
	</g>
</g>
</svg>
